<svg xmlns="http://www.w3.org/2000/svg" width="24" height="24" viewBox="0 0 24 24" fill="none">
  <path d="M19.4333 16.5361L20.8706 16.9852V15.4795V13.7397V13.1262L20.3503 12.801L13.9117 8.77692V4.60629C13.9117 3.27292 12.8333 2.19448 11.4999 2.19448C10.1666 2.19448 9.08812 3.27292 9.08812 4.60629V8.77692L2.6496 12.801L2.1293 13.1262V13.7397V15.4795V16.9852L3.56653 16.5361L9.08812 14.8106V17.5355L7.79123 18.5082L7.34842 18.8403V19.3938V20.6986V22.1662L8.75957 21.763L11.4999 20.98L14.2403 21.763L15.6514 22.1662V20.6986V19.3938V18.8403L15.2086 18.5082L13.9117 17.5355V14.8106L19.4333 16.5361Z" fill="white" stroke="black" stroke-width="2.21406"/>
</svg>