<svg xmlns="http://www.w3.org/2000/svg" width="24" height="24" viewBox="0 0 24 24" fill="none">
  <path fill-rule="evenodd" clip-rule="evenodd" d="M15.894 22.239C12.876 22.239 9.32496 20.637 6.34296 17.657C1.58496 12.898 0.342957 6.68601 3.51496 3.51401C4.45196 2.57801 5.59196 2.00801 6.90696 1.81801L7.66696 1.70801L10.464 8.23001L7.66696 9.62801C8.31496 10.856 9.29696 12.125 10.586 13.414C11.815 14.643 13.083 15.618 14.356 16.31L15.67 13.737L22.153 14.663L22.191 15.49C22.286 17.549 21.696 19.276 20.485 20.486C19.301 21.67 17.692 22.239 15.894 22.239ZM6.46096 3.97201C5.88596 4.16501 5.37196 4.48601 4.92896 4.93001C2.62896 7.22901 3.92496 12.41 7.75696 16.243C11.591 20.076 16.771 21.369 19.071 19.071C19.837 18.305 20.113 17.295 20.181 16.401L16.814 15.92L16.168 17.214C15.924 17.702 15.503 18.061 14.982 18.224C14.461 18.389 13.883 18.33 13.399 18.067C11.959 17.284 10.536 16.194 9.17096 14.829C7.74096 13.399 6.64196 11.97 5.90296 10.581C5.64596 10.096 5.59696 9.54201 5.76296 9.02001C5.92896 8.50101 6.28796 8.08201 6.77496 7.83801L7.88096 7.28501L6.46096 3.97201Z" fill="#F1AC4B"/>
</svg>