<svg xmlns="http://www.w3.org/2000/svg" width="17" height="16" viewBox="0 0 17 16" fill="none">
  <path d="M12.7196 14.9997C12.1096 14.9997 11.2527 14.7791 9.96959 14.0622C8.40928 13.1872 7.2024 12.3794 5.65052 10.8316C4.15427 9.33627 3.42615 8.36815 2.40709 6.51377C1.25584 4.42002 1.45209 3.32252 1.67146 2.85346C1.93271 2.29283 2.31834 1.95752 2.81677 1.62471C3.09988 1.43922 3.39948 1.28022 3.71178 1.14971C3.74303 1.13627 3.77209 1.12346 3.79803 1.1119C3.95271 1.04221 4.18709 0.936898 4.48396 1.0494C4.68209 1.12377 4.85896 1.27596 5.13584 1.5494C5.70365 2.1094 6.47959 3.35659 6.76584 3.96908C6.95802 4.3819 7.08521 4.6544 7.08553 4.96002C7.08553 5.31783 6.90553 5.59377 6.68709 5.89158C6.64615 5.94752 6.60552 6.00096 6.56615 6.05283C6.32834 6.36533 6.27615 6.45565 6.31052 6.6169C6.38021 6.94096 6.8999 7.90565 7.75396 8.75784C8.60803 9.61002 9.5449 10.0969 9.87021 10.1663C10.0383 10.2022 10.1305 10.1478 10.453 9.90158C10.4993 9.86627 10.5468 9.82971 10.5965 9.79315C10.9296 9.54534 11.1927 9.37002 11.5421 9.37002H11.544C11.848 9.37002 12.1083 9.5019 12.5396 9.7194C13.1021 10.0031 14.3868 10.7691 14.9502 11.3375C15.2243 11.6138 15.3771 11.79 15.4518 11.9878C15.5643 12.2856 15.4583 12.5191 15.3893 12.6753C15.3777 12.7013 15.3649 12.7297 15.3515 12.7613C15.2199 13.073 15.06 13.372 14.8736 13.6544C14.5415 14.1513 14.2049 14.536 13.643 14.7975C13.3545 14.934 13.0387 15.0032 12.7196 14.9997Z" fill="black"/>
</svg>