<svg xmlns="http://www.w3.org/2000/svg" width="16" height="16" viewBox="0 0 16 16" fill="none">
  <path d="M9.99997 13.2533C10.0266 13.4533 9.95997 13.6667 9.80663 13.8067C9.74496 13.8685 9.6717 13.9175 9.59105 13.951C9.5104 13.9844 9.42394 14.0016 9.33663 14.0016C9.24932 14.0016 9.16286 13.9844 9.08222 13.951C9.00157 13.9175 8.92831 13.8685 8.86663 13.8067L6.1933 11.1333C6.12063 11.0622 6.06537 10.9753 6.03184 10.8793C5.9983 10.7833 5.98739 10.6809 5.99997 10.58V7.16667L2.80663 3.08C2.69837 2.94102 2.64952 2.76484 2.67076 2.58995C2.69199 2.41507 2.78159 2.2557 2.91997 2.14667C3.04663 2.05333 3.18663 2 3.3333 2H12.6666C12.8133 2 12.9533 2.05333 13.08 2.14667C13.2183 2.2557 13.3079 2.41507 13.3292 2.58995C13.3504 2.76484 13.3016 2.94102 13.1933 3.08L9.99997 7.16667V13.2533ZM4.6933 3.33333L7.3333 6.70667V10.3867L8.66663 11.72V6.7L11.3066 3.33333H4.6933Z" fill="white"/>
</svg>