<svg xmlns="http://www.w3.org/2000/svg" width="26" height="24" viewBox="0 0 26 24" fill="none">
  <path d="M22.8337 21.75H1.16699V19.5833H2.25033V3.33333C2.25033 3.04602 2.36446 2.77047 2.56763 2.5673C2.77079 2.36414 3.04634 2.25 3.33366 2.25H18.5003C18.7876 2.25 19.0632 2.36414 19.2664 2.5673C19.4695 2.77047 19.5837 3.04602 19.5837 3.33333V8.75H21.7503V19.5833H22.8337V21.75ZM17.417 19.5833H19.5837V10.9167H13.0837V19.5833H15.2503V13.0833H17.417V19.5833ZM17.417 8.75V4.41667H4.41699V19.5833H10.917V8.75H17.417ZM6.58366 10.9167H8.75033V13.0833H6.58366V10.9167ZM6.58366 15.25H8.75033V17.4167H6.58366V15.25ZM6.58366 6.58333H8.75033V8.75H6.58366V6.58333Z" fill="black"/>
</svg>