<svg xmlns="http://www.w3.org/2000/svg" width="27" height="24" viewBox="0 0 27 24" fill="none">
  <g clip-path="url(#clip0_32_359)">
    <path d="M23.6544 9.33142L19.0703 8.62516L16.2767 4.06145C16.13 3.82257 15.9242 3.62559 15.6791 3.48956C15.4341 3.35353 15.158 3.28305 14.8777 3.28495L3.16971 3.37823C2.83189 3.38109 2.50335 3.4891 2.22974 3.68725C1.95613 3.88541 1.75104 4.16387 1.64297 4.48395L0.3125 8.42919V17.5H3.10577C3.32292 18.2058 3.76064 18.8235 4.35467 19.2623C4.9487 19.701 5.66775 19.9378 6.40625 19.9378C7.14475 19.9378 7.8638 19.701 8.45783 19.2623C9.05186 18.8235 9.48958 18.2058 9.70673 17.5H14.887C15.1042 18.2058 15.5419 18.8235 16.1359 19.2623C16.73 19.701 17.449 19.9378 18.1875 19.9378C18.926 19.9378 19.6451 19.701 20.2391 19.2623C20.8331 18.8235 21.2708 18.2058 21.488 17.5H24.6875V10.536C24.6888 10.2445 24.5851 9.96238 24.3954 9.74117C24.2057 9.51996 23.9426 9.3745 23.6544 9.33142ZM10.875 4.94179L14.8907 4.9098L17.1301 8.56843L10.875 8.56625V4.94179ZM3.18271 5.00313L9.25 4.95479V8.56569L1.98224 8.5631L3.18271 5.00313ZM6.40625 18.3125C6.04468 18.3125 5.69123 18.2053 5.3906 18.0044C5.08996 17.8035 4.85565 17.518 4.71728 17.184C4.57892 16.8499 4.54271 16.4823 4.61325 16.1277C4.68379 15.7731 4.8579 15.4474 5.11357 15.1917C5.36924 14.936 5.69498 14.7619 6.0496 14.6914C6.40422 14.6208 6.7718 14.657 7.10584 14.7954C7.43989 14.9338 7.7254 15.1681 7.92628 15.4687C8.12716 15.7694 8.23438 16.1228 8.23438 16.4844C8.23384 16.9691 8.04106 17.4337 7.69834 17.7765C7.35561 18.1192 6.89093 18.312 6.40625 18.3125ZM18.1875 18.3125C17.8259 18.3125 17.4725 18.2053 17.1719 18.0044C16.8712 17.8035 16.6369 17.518 16.4985 17.184C16.3602 16.8499 16.324 16.4823 16.3945 16.1277C16.465 15.7731 16.6392 15.4474 16.8948 15.1917C17.1505 14.936 17.4762 14.7619 17.8309 14.6914C18.1855 14.6208 18.553 14.657 18.8871 14.7954C19.2211 14.9338 19.5067 15.1681 19.7075 15.4687C19.9084 15.7694 20.0156 16.1228 20.0156 16.4844C20.0151 16.9691 19.8223 17.4337 19.4796 17.7765C19.1369 18.1192 18.6722 18.312 18.1875 18.3125ZM23.0625 15.875H21.5857C21.4429 15.0776 21.0243 14.3558 20.4031 13.8359C19.7818 13.316 18.9976 13.0312 18.1875 13.0312C17.3774 13.0312 16.5932 13.316 15.9719 13.8359C15.3507 14.3558 14.9321 15.0776 14.7893 15.875H9.80443C9.66167 15.0776 9.24305 14.3558 8.62182 13.8359C8.00059 13.316 7.21632 13.0312 6.40625 13.0312C5.59618 13.0312 4.81191 13.316 4.19068 13.8359C3.56945 14.3558 3.15083 15.0776 3.00807 15.875H1.9375V10.1888L18.722 10.2157L23.0625 10.8844V15.875Z" fill="black" stroke="black" stroke-width="0.553515"/>
  </g>
  <defs>
    <clipPath id="clip0_32_359">
      <rect width="26" height="24" fill="white" transform="translate(0.5)"/>
    </clipPath>
  </defs>
</svg>