<svg width="42" height="42" viewBox="0 0 42 42" fill="none" xmlns="http://www.w3.org/2000/svg">
<path d="M34.5714 34.693L34.1192 35.1555C33.8675 35.413 33.8675 35.8303 34.1192 36.0877C34.2451 36.2164 34.4101 36.2808 34.575 36.2808C34.7399 36.2808 34.9049 36.2164 35.0308 36.0877L35.483 35.6253C35.7347 35.3677 35.7347 34.9504 35.483 34.693C35.2312 34.4357 34.8232 34.4357 34.5714 34.693Z" fill="#C1A269"/>
<path d="M35.1443 6.98739C31.3592 3.11634 26.3266 0.984375 20.9737 0.984375C15.6208 0.984375 10.5883 3.11634 6.80321 6.98739C3.01818 10.8585 0.933594 16.0054 0.933594 21.4799C0.933594 26.9545 3.01818 32.1014 6.80321 35.9726C10.5883 39.8436 15.6208 41.9756 20.9738 41.9756C25.3643 41.9756 29.5332 40.5503 33.0293 37.8538C33.3136 37.6346 33.3702 37.2212 33.1559 36.9306C32.9415 36.6398 32.5373 36.582 32.2532 36.8011C28.9823 39.3238 25.082 40.6572 20.9738 40.6572C10.6344 40.6572 2.22266 32.0543 2.22266 21.4799C2.22266 10.9056 10.6344 2.30273 20.9737 2.30273C31.313 2.30273 39.7247 10.9056 39.7247 21.4799C39.7247 25.5678 38.4845 29.4691 36.1382 32.762C35.9286 33.0563 35.9919 33.4686 36.2796 33.683C36.5674 33.8973 36.9704 33.8327 37.1801 33.5384C39.6882 30.0185 41.0139 25.8487 41.0139 21.4799C41.0139 16.0054 38.9293 10.8585 35.1443 6.98739Z" fill="#C1A269"/>
<path d="M24.4107 13.4594C24.1592 13.2014 23.7513 13.2011 23.4992 13.4581L15.9028 21.2064C15.781 21.3306 15.7128 21.4995 15.7134 21.6754C15.714 21.8513 15.7833 22.0197 15.9058 22.143L23.5252 29.8107C23.6507 29.9371 23.814 30.0001 23.9773 30.0001C24.1439 30.0001 24.3106 29.9343 24.4367 29.8033C24.6864 29.5437 24.6831 29.1264 24.4294 28.8711L17.2738 21.67L24.4094 14.3916C24.6615 14.1346 24.6621 13.7171 24.4107 13.4594Z" fill="#C1A269"/>
</svg>
