<svg width="42" height="42" viewBox="0 0 42 42" fill="none" xmlns="http://www.w3.org/2000/svg">
<path d="M7.42308 34.693C7.17128 34.4357 6.76325 34.4357 6.51154 34.693C6.25983 34.9505 6.25983 35.3678 6.51154 35.6253L6.96374 36.0877C7.08964 36.2164 7.25464 36.2808 7.41955 36.2808C7.58447 36.2808 7.74947 36.2164 7.87537 36.0877C8.12708 35.8302 8.12708 35.4129 7.87537 35.1555L7.42308 34.693Z" fill="#C1A269"/>
<path d="M35.1914 6.98739C31.4063 3.11634 26.3737 0.984375 21.0208 0.984375C15.6679 0.984375 10.6354 3.11634 6.85033 6.98739C3.0653 10.8585 0.980713 16.0054 0.980713 21.48C0.980713 25.8488 2.30647 30.0186 4.81447 33.5385C5.02416 33.8328 5.42729 33.8973 5.71501 33.6831C6.00273 33.4687 6.06598 33.0564 5.85638 32.7621C3.51003 29.4692 2.26986 25.5679 2.26986 21.48C2.26986 10.9057 10.6816 2.30282 21.0209 2.30282C31.3602 2.30282 39.772 10.9057 39.772 21.48C39.772 32.0543 31.3602 40.6572 21.0209 40.6572C16.9127 40.6572 13.0124 39.3238 9.74153 36.8011C9.45733 36.5819 9.05308 36.6398 8.83884 36.9306C8.62451 37.2212 8.68114 37.6346 8.96542 37.8538C12.4616 40.5504 16.6304 41.9756 21.0209 41.9756C26.3738 41.9756 31.4064 39.8436 35.1915 35.9726C38.9765 32.1014 41.0611 26.9546 41.0611 21.4799C41.0611 16.0053 38.9764 10.8585 35.1914 6.98739Z" fill="#C1A269"/>
<path d="M17.5577 29.8033C17.6838 29.9344 17.8504 30.0001 18.0171 30.0001C18.1803 30.0001 18.3437 29.9371 18.4692 29.8108L26.0886 22.1431C26.2112 22.0197 26.2804 21.8513 26.281 21.6755C26.2816 21.4996 26.2134 21.3307 26.0916 21.2065L18.4952 13.4581C18.243 13.201 17.8349 13.2015 17.5837 13.4595C17.3323 13.7172 17.3329 14.1346 17.585 14.3916L24.7207 21.67L17.565 28.8712C17.3113 29.1265 17.308 29.5438 17.5577 29.8033Z" fill="#C1A269"/>
</svg>
