<svg xmlns="http://www.w3.org/2000/svg" width="590" height="558" viewBox="0 0 590 558" fill="none">
<path d="M590 558H0V330.993C0 299.998 16.2827 270.877 43.9135 251.856C25.9859 239.969 16.8144 220.047 20.8186 200.371L24.2912 183.21C26.8997 170.466 25.3545 157.388 19.855 145.356L17.4624 140.139L23.826 139.34C38.4804 137.495 52.2044 132.118 63.5359 123.792L78.7387 112.588C96.334 99.6408 120.808 96.6619 141.61 104.465C144.501 94.148 152.061 85.2403 162.711 79.8783C173.361 74.5163 185.922 73.2666 197.52 76.2164C200.178 56.5702 215.381 39.5105 236.997 32.6517L255.772 26.6939C269.679 22.2909 281.874 14.5748 291.029 4.40297L295 0L298.971 4.4175C308.126 14.5894 320.321 22.2909 334.228 26.7084L352.97 32.6517C374.586 39.4959 389.772 56.5411 392.447 76.2019C404.128 73.2375 416.705 74.5017 427.355 79.8928C437.972 85.2839 445.499 94.177 448.357 104.436C469.159 96.6328 493.633 99.6117 511.228 112.559L526.464 123.777C537.796 132.104 551.52 137.495 566.174 139.326L572.538 140.125L570.145 145.356C564.646 157.373 563.1 170.466 565.709 183.21L569.181 200.371C573.186 220.061 564.014 239.984 546.086 251.856C573.717 270.877 590 299.998 590 330.993V558ZM10.1019 549.15H579.898V330.993C579.898 300.753 562.884 272.461 534.389 255.329L527.843 251.376L534.755 247.83C553.098 238.56 562.918 220.134 559.212 201.912L555.74 184.75C553.181 172.152 554.195 159.262 558.664 147.143C544.442 144.47 531.15 138.788 519.951 130.549L504.715 119.331C488.532 107.43 465.371 105.642 447.061 114.899L440.099 118.401L439.435 111.426C438.537 101.326 432.307 92.6367 422.288 87.5653C412.269 82.4939 400.539 82.087 390.088 86.4464L382.86 89.4544L382.761 82.4939C382.761 63.9375 369.402 47.2847 349.531 40.9781L330.805 35.0494C317.032 30.6755 304.77 23.4534 295 14.0081C285.23 23.4534 272.968 30.6755 259.211 35.0348L240.436 40.9927C220.598 47.2847 207.239 63.923 207.206 82.3922V89.527L199.962 86.49C189.528 82.1161 177.798 82.4939 167.745 87.5362C157.727 92.5786 151.446 101.268 150.532 111.353L149.901 118.342L142.956 114.928C124.629 105.657 101.435 107.43 85.2518 119.345L70.049 130.563C58.8505 138.803 45.5751 144.484 31.336 147.158C35.8054 159.277 36.8189 172.166 34.2602 184.765L30.7877 201.926C27.0825 220.134 36.902 238.574 55.2118 247.816L62.1569 251.333L55.6105 255.329C27.1157 272.475 10.1019 300.768 10.1019 331.007V549.15Z" fill="#E59C4E"/>
</svg>