<svg width="27" height="25" viewBox="0 0 27 25" fill="none" xmlns="http://www.w3.org/2000/svg">
<path d="M12.0732 15.2357C12.1782 15.2357 12.2831 15.199 12.3644 15.1258L18.7259 9.39987C18.8938 9.24878 18.8995 8.99845 18.7387 8.84067C18.5778 8.68289 18.3113 8.67756 18.1434 8.8287L12.0686 14.2966L8.93665 11.5662C8.76612 11.4176 8.49988 11.4269 8.34164 11.5871C8.18351 11.7472 8.19344 11.9975 8.36386 12.1461L11.7868 15.1301C11.8676 15.2006 11.9704 15.2357 12.0732 15.2357Z" fill="#BC8C1D"/>
<path d="M4.60349 20.5846C4.43902 20.4301 4.17249 20.4301 4.00808 20.5846C3.84366 20.7391 3.84366 20.9894 4.00808 21.1439L4.30368 21.4216C4.38591 21.4988 4.49369 21.5374 4.60141 21.5374C4.70913 21.5374 4.81691 21.4988 4.89914 21.4216C5.06356 21.2671 5.06356 21.0167 4.89914 20.8623L4.60349 20.5846Z" fill="#BC8C1D"/>
<path d="M25.1237 7.11687C24.7762 6.44819 24.3607 5.80483 23.8888 5.20477C23.4204 4.60903 22.8913 4.04952 22.3163 3.54163C19.8786 1.3888 16.6927 0.203125 13.3453 0.203125C9.84613 0.203125 6.55641 1.4832 4.08209 3.80768C1.60776 6.13216 0.245117 9.22266 0.245117 12.5099C0.245117 15.2062 1.15611 17.7662 2.8797 19.9132C3.0197 20.0877 3.28375 20.1224 3.46933 19.9909C3.65502 19.8594 3.69201 19.6114 3.55201 19.437C1.93946 17.4283 1.08718 15.0329 1.08718 12.51C1.08718 6.16016 6.58616 0.994246 13.3453 0.994246C16.4775 0.994246 19.4587 2.10362 21.7396 4.11807C22.2779 4.59347 22.7731 5.11718 23.2116 5.67484C23.6532 6.23641 24.042 6.83837 24.3671 7.46407C25.1874 9.04236 25.6033 10.74 25.6033 12.51C25.6033 18.8598 20.1044 24.0257 13.3453 24.0257C10.7323 24.0257 8.23857 23.2641 6.13372 21.8231C5.94578 21.6945 5.68252 21.7333 5.54549 21.9098C5.40858 22.0864 5.4499 22.3337 5.63783 22.4624C7.88768 24.0026 10.5529 24.8168 13.3453 24.8168C16.8444 24.8168 20.1342 23.5367 22.6085 21.2122C25.0827 18.8878 26.4454 15.7973 26.4454 12.51C26.4453 10.6186 26.0007 8.80415 25.1237 7.11687Z" fill="#BC8C1D"/>
</svg>
