<svg xmlns="http://www.w3.org/2000/svg" width="86" height="86" viewBox="0 0 86 86" fill="none">
<path d="M43.1729 0.000231748C19.5769 0.000231748 0.345729 19.1352 0.345729 42.6131C0.345729 50.1381 2.33367 57.4481 6.05025 63.8981L0 86L22.6884 80.066C28.9548 83.463 35.999 85.269 43.1729 85.269C66.7688 85.269 86 66.1341 86 42.6561C86 31.2612 81.5487 20.5542 73.4673 12.5132C69.5047 8.53186 64.7853 5.37507 59.5842 3.22678C54.3831 1.07849 48.8043 -0.0183316 43.1729 0.000231748ZM43.2161 7.18121C52.7236 7.18121 61.6261 10.8792 68.3678 17.5872C71.6755 20.8789 74.2981 24.7876 76.0853 29.0893C77.8725 33.391 78.7892 38.0013 78.7829 42.6561C78.7829 62.1781 62.793 78.045 43.1729 78.045C36.7769 78.045 30.5106 76.368 25.0653 73.1L23.7688 72.369L10.2854 75.895L13.8724 62.8231L13.008 61.4471C9.44075 55.8072 7.55274 49.2769 7.56281 42.6131C7.60603 23.0912 23.5528 7.18121 43.2161 7.18121ZM28.004 22.9192C27.3126 22.9192 26.1457 23.1772 25.1518 24.2522C24.201 25.3272 21.392 27.9502 21.392 33.1531C21.392 38.3991 25.2382 43.4301 25.7136 44.1611C26.3186 44.8921 33.3196 55.6421 44.0804 60.2001C46.6301 61.3611 48.6181 62.0061 50.1739 62.4791C52.7236 63.2961 55.0573 63.1671 56.9156 62.9091C58.9899 62.6081 63.2251 60.3291 64.1327 57.8351C65.0402 55.3411 65.0402 53.2341 64.7809 52.7611C64.4784 52.3311 63.7869 52.0731 62.7065 51.6001C61.6261 50.9981 56.3538 48.4181 55.403 48.0741C54.409 47.7301 53.804 47.5581 52.9829 48.5901C52.2915 49.6651 50.2171 52.0731 49.6121 52.7611C48.9638 53.4921 48.3588 53.5781 47.3216 53.0621C46.198 52.5031 42.7407 51.3851 38.6784 47.7731C35.4804 44.9351 33.3628 41.4521 32.7146 40.3771C32.196 39.3451 32.6714 38.7001 33.1899 38.2271C33.6653 37.7541 34.3568 36.9801 34.7889 36.3351C35.3507 35.7331 35.5236 35.2601 35.8693 34.5721C36.2151 33.8411 36.0422 33.2391 35.7829 32.7231C35.5236 32.2501 33.3628 26.9182 32.4553 24.8112C31.591 22.7472 30.7266 23.0052 30.0352 22.9622C29.4301 22.9622 28.7387 22.9192 28.004 22.9192Z" fill="#F6B24A"/>
</svg>