<svg width="90" height="65" viewBox="0 0 90 65" fill="none" xmlns="http://www.w3.org/2000/svg">
<path d="M19.661 3.52248C19.6649 3.52248 19.6685 3.52248 19.6724 3.52248C20.1921 3.51882 20.7354 3.51839 21.2579 3.52162C21.2611 3.52162 21.2642 3.52162 21.2674 3.52162C22.153 3.52162 22.8735 2.80619 22.8785 1.91931C22.8834 1.02943 22.1663 0.3039 21.2764 0.298959C20.7404 0.295951 20.1828 0.296167 19.6502 0.299819C18.7601 0.30605 18.0439 1.03244 18.0501 1.92232C18.0561 2.80833 18.776 3.52248 19.661 3.52248Z" fill="#C1A269"/>
<path d="M27.7532 0.544106C26.8652 0.474281 26.0905 1.13772 26.0211 2.02481C25.9517 2.91211 26.6147 3.68749 27.502 3.75688C37.355 4.52817 37.355 6.99823 37.355 8.05311V35.9082C37.355 39.3874 35.9413 42.7985 33.4773 45.266L18.6578 60.0814C17.7024 61.0383 16.4316 61.5653 15.0798 61.5653C13.7278 61.5653 12.4572 61.0383 11.5009 60.0805L10.072 58.6518C9.11893 57.7048 8.59299 56.4422 8.59084 55.0968C8.58869 53.7433 9.11592 52.4695 10.0756 51.5098L24.7467 36.8387C25.2075 36.3779 25.3452 35.6848 25.0958 35.0828C24.8466 34.4806 24.2587 34.0881 23.6071 34.0881H8.24816C5.7491 34.0881 3.71582 32.055 3.71582 29.5557V8.05311C3.71582 7.00768 3.71582 4.55954 13.3821 3.77192C14.2689 3.69973 14.9294 2.922 14.8572 2.03512C14.7848 1.14803 14.003 0.487601 13.1202 0.560004C6.87639 1.06875 0.493164 2.35696 0.493164 8.05311V29.5557C0.493164 33.8318 3.97191 37.3107 8.24816 37.3107H19.7172L7.79678 49.2309C6.22713 50.8006 5.36475 52.8856 5.36818 55.1017C5.37162 57.3099 6.23551 59.3825 7.79699 60.9341L9.22141 62.3583C10.7855 63.9249 12.8662 64.788 15.0798 64.788H15.08C17.2937 64.788 19.3743 63.9252 20.9377 62.3596L35.7572 47.5442C38.8209 44.476 40.5779 40.235 40.5779 35.9082V8.05311C40.5774 2.32086 34.0945 1.04061 27.7532 0.544106Z" fill="#C1A269"/>
<path d="M85.403 2.22252C82.3175 0.926796 77.1756 0.296875 69.6842 0.296875C62.1928 0.296875 57.051 0.926796 53.9654 2.22252C51.0562 3.44434 49.6421 5.35107 49.6421 8.05166V29.5543C49.6421 33.8303 53.1208 37.3093 57.3971 37.3093H68.8661L56.9459 49.2295C55.3763 50.7991 54.5137 52.8842 54.5171 55.1003C54.5208 57.3085 55.3844 59.3811 56.9459 60.9324L58.3703 62.3569C59.9346 63.9235 62.0156 64.7865 64.2293 64.7865C66.4429 64.7865 68.5234 63.9235 70.0866 62.3579L84.9063 47.5425C87.9698 44.4746 89.727 40.2333 89.727 35.9066V8.05166C89.7263 5.35107 88.3122 3.44434 85.403 2.22252ZM86.5037 35.9068C86.5037 39.386 85.09 42.7973 82.6262 45.2645L67.8065 60.0799C66.8513 61.0369 65.5807 61.5636 64.2287 61.5639C62.8769 61.5639 61.6061 61.0368 60.6498 60.0791L59.2209 58.6502C58.2678 57.7031 57.7417 56.4407 57.7396 55.0954C57.7374 53.7418 58.2646 52.468 59.2243 51.5083H59.2246L73.8954 36.8373C74.3562 36.3764 74.4939 35.6834 74.2445 35.0814C73.9953 34.4792 73.4075 34.0866 72.7558 34.0866H57.3969C54.8978 34.0866 52.8645 32.0536 52.8645 29.5543V8.05166C52.8645 6.81201 52.8645 3.51932 69.684 3.51932C86.5035 3.51932 86.5035 6.81201 86.5035 8.05166V35.9068H86.5037Z" fill="#C1A269"/>
</svg>
