<svg width="30" height="30" viewBox="0 0 30 30" fill="none" xmlns="http://www.w3.org/2000/svg">
<path fill-rule="evenodd" clip-rule="evenodd" d="M23.75 22.5H6.25C5.56125 22.5 5 21.94 5 21.25V9.0625L14.25 16C14.4725 16.1675 14.7363 16.25 15 16.25C15.2637 16.25 15.5275 16.1675 15.75 16L25 9.0625V21.25C25 21.94 24.4387 22.5 23.75 22.5V22.5ZM22.9163 7.5L15 13.4375L7.08375 7.5H22.9163ZM23.75 5H6.25C4.1825 5 2.5 6.6825 2.5 8.75V21.25C2.5 23.3175 4.1825 25 6.25 25H23.75C25.8175 25 27.5 23.3175 27.5 21.25V8.75C27.5 6.6825 25.8175 5 23.75 5V5Z" fill="#005B68"/>
<mask id="mask0_134_514" style="mask-type:luminance" maskUnits="userSpaceOnUse" x="2" y="5" width="26" height="20">
<path fill-rule="evenodd" clip-rule="evenodd" d="M23.75 22.5H6.25C5.56125 22.5 5 21.94 5 21.25V9.0625L14.25 16C14.4725 16.1675 14.7363 16.25 15 16.25C15.2637 16.25 15.5275 16.1675 15.75 16L25 9.0625V21.25C25 21.94 24.4387 22.5 23.75 22.5V22.5ZM22.9163 7.5L15 13.4375L7.08375 7.5H22.9163ZM23.75 5H6.25C4.1825 5 2.5 6.6825 2.5 8.75V21.25C2.5 23.3175 4.1825 25 6.25 25H23.75C25.8175 25 27.5 23.3175 27.5 21.25V8.75C27.5 6.6825 25.8175 5 23.75 5V5Z" fill="white"/>
</mask>
<g mask="url(#mask0_134_514)">
<rect width="30" height="30" fill="#005B68"/>
</g>
</svg>
