<svg xmlns="http://www.w3.org/2000/svg" width="24" height="24" viewBox="0 0 24 24" fill="none">
  <path d="M3.75 7C3.75 6.80109 3.82902 6.61032 3.96967 6.46967C4.11032 6.32902 4.30109 6.25 4.5 6.25H19.5C19.6989 6.25 19.8897 6.32902 20.0303 6.46967C20.171 6.61032 20.25 6.80109 20.25 7C20.25 7.19891 20.171 7.38968 20.0303 7.53033C19.8897 7.67098 19.6989 7.75 19.5 7.75H4.5C4.30109 7.75 4.11032 7.67098 3.96967 7.53033C3.82902 7.38968 3.75 7.19891 3.75 7ZM6.25 12C6.25 11.8011 6.32902 11.6103 6.46967 11.4697C6.61032 11.329 6.80109 11.25 7 11.25H17C17.1989 11.25 17.3897 11.329 17.5303 11.4697C17.671 11.6103 17.75 11.8011 17.75 12C17.75 12.1989 17.671 12.3897 17.5303 12.5303C17.3897 12.671 17.1989 12.75 17 12.75H7C6.80109 12.75 6.61032 12.671 6.46967 12.5303C6.32902 12.3897 6.25 12.1989 6.25 12ZM9.25 17C9.25 16.8011 9.32902 16.6103 9.46967 16.4697C9.61032 16.329 9.80109 16.25 10 16.25H14C14.1989 16.25 14.3897 16.329 14.5303 16.4697C14.671 16.6103 14.75 16.8011 14.75 17C14.75 17.1989 14.671 17.3897 14.5303 17.5303C14.3897 17.671 14.1989 17.75 14 17.75H10C9.80109 17.75 9.61032 17.671 9.46967 17.5303C9.32902 17.3897 9.25 17.1989 9.25 17Z" fill="#005B68"/>
</svg>