<svg xmlns="http://www.w3.org/2000/svg" width="93" height="19" viewBox="0 0 93 19" fill="none">
  <path d="M8.37695 2.21973C8.71868 1.39872 9.88204 1.39859 10.2236 2.21973L11.5254 5.35059C11.6695 5.69668 11.9954 5.93293 12.3691 5.96289L15.748 6.23438C16.6346 6.30545 16.9945 7.4115 16.3193 7.99023L13.7441 10.1963C13.4595 10.4402 13.3349 10.8228 13.4219 11.1875L14.209 14.4854C14.4151 15.3504 13.4739 16.0339 12.7148 15.5703L9.82129 13.8037C9.50127 13.6082 9.09834 13.6082 8.77832 13.8037L5.88574 15.5703C5.12668 16.0339 4.18533 15.3505 4.3916 14.4854L5.17773 11.1875C5.26474 10.8227 5.14026 10.4402 4.85547 10.1963L2.28125 7.99023C1.60577 7.41162 1.96508 6.30564 2.85156 6.23438L6.23145 5.96289C6.60501 5.93287 6.93015 5.69654 7.07422 5.35059L8.37695 2.21973Z" fill="#EEB712"/>
  <path d="M8.37695 2.21973C8.71868 1.39872 9.88204 1.39859 10.2236 2.21973L11.5254 5.35059C11.6695 5.69668 11.9954 5.93293 12.3691 5.96289L15.748 6.23438C16.6346 6.30545 16.9945 7.4115 16.3193 7.99023L13.7441 10.1963C13.4595 10.4402 13.3349 10.8228 13.4219 11.1875L14.209 14.4854C14.4151 15.3504 13.4739 16.0339 12.7148 15.5703L9.82129 13.8037C9.50127 13.6082 9.09834 13.6082 8.77832 13.8037L5.88574 15.5703C5.12668 16.0339 4.18533 15.3505 4.3916 14.4854L5.17773 11.1875C5.26474 10.8227 5.14026 10.4402 4.85547 10.1963L2.28125 7.99023C1.60577 7.41162 1.96508 6.30564 2.85156 6.23438L6.23145 5.96289C6.60501 5.93287 6.93015 5.69654 7.07422 5.35059L8.37695 2.21973Z" stroke="#EEB712"/>
  <path d="M26.9771 2.21973C27.3188 1.39872 28.4821 1.39859 28.8237 2.21973L30.1255 5.35059C30.2696 5.69668 30.5955 5.93293 30.9692 5.96289L34.3481 6.23438C35.2347 6.30545 35.5946 7.4115 34.9194 7.99023L32.3442 10.1963C32.0596 10.4402 31.935 10.8228 32.022 11.1875L32.8091 14.4854C33.0152 15.3504 32.074 16.0339 31.3149 15.5703L28.4214 13.8037C28.1014 13.6082 27.6984 13.6082 27.3784 13.8037L24.4858 15.5703C23.7268 16.0339 22.7854 15.3505 22.9917 14.4854L23.7778 11.1875C23.8648 10.8227 23.7404 10.4402 23.4556 10.1963L20.8813 7.99023C20.2059 7.41162 20.5652 6.30564 21.4517 6.23438L24.8315 5.96289C25.2051 5.93287 25.5302 5.69654 25.6743 5.35059L26.9771 2.21973Z" fill="#EEB712"/>
  <path d="M26.9771 2.21973C27.3188 1.39872 28.4821 1.39859 28.8237 2.21973L30.1255 5.35059C30.2696 5.69668 30.5955 5.93293 30.9692 5.96289L34.3481 6.23438C35.2347 6.30545 35.5946 7.4115 34.9194 7.99023L32.3442 10.1963C32.0596 10.4402 31.935 10.8228 32.022 11.1875L32.8091 14.4854C33.0152 15.3504 32.074 16.0339 31.3149 15.5703L28.4214 13.8037C28.1014 13.6082 27.6984 13.6082 27.3784 13.8037L24.4858 15.5703C23.7268 16.0339 22.7854 15.3505 22.9917 14.4854L23.7778 11.1875C23.8648 10.8227 23.7404 10.4402 23.4556 10.1963L20.8813 7.99023C20.2059 7.41162 20.5652 6.30564 21.4517 6.23438L24.8315 5.96289C25.2051 5.93287 25.5302 5.69654 25.6743 5.35059L26.9771 2.21973Z" stroke="#EEB712"/>
  <path d="M45.5769 2.21973C45.9186 1.39872 47.082 1.39859 47.4236 2.21973L48.7253 5.35059C48.8694 5.69668 49.1954 5.93293 49.5691 5.96289L52.948 6.23438C53.8345 6.30545 54.1944 7.4115 53.5193 7.99023L50.9441 10.1963C50.6594 10.4402 50.5348 10.8228 50.6218 11.1875L51.4089 14.4854C51.6151 15.3504 50.6738 16.0339 49.9148 15.5703L47.0212 13.8037C46.7012 13.6082 46.2983 13.6082 45.9783 13.8037L43.0857 15.5703C42.3266 16.0339 41.3853 15.3505 41.5916 14.4854L42.3777 11.1875C42.4647 10.8227 42.3402 10.4402 42.0554 10.1963L39.4812 7.99023C38.8057 7.41162 39.165 6.30564 40.0515 6.23438L43.4314 5.96289C43.805 5.93287 44.1301 5.69654 44.2742 5.35059L45.5769 2.21973Z" fill="#EEB712"/>
  <path d="M45.5769 2.21973C45.9186 1.39872 47.082 1.39859 47.4236 2.21973L48.7253 5.35059C48.8694 5.69668 49.1954 5.93293 49.5691 5.96289L52.948 6.23438C53.8345 6.30545 54.1944 7.4115 53.5193 7.99023L50.9441 10.1963C50.6594 10.4402 50.5348 10.8228 50.6218 11.1875L51.4089 14.4854C51.6151 15.3504 50.6738 16.0339 49.9148 15.5703L47.0212 13.8037C46.7012 13.6082 46.2983 13.6082 45.9783 13.8037L43.0857 15.5703C42.3266 16.0339 41.3853 15.3505 41.5916 14.4854L42.3777 11.1875C42.4647 10.8227 42.3402 10.4402 42.0554 10.1963L39.4812 7.99023C38.8057 7.41162 39.165 6.30564 40.0515 6.23438L43.4314 5.96289C43.805 5.93287 44.1301 5.69654 44.2742 5.35059L45.5769 2.21973Z" stroke="#EEB712"/>
  <path d="M64.1768 2.21973C64.5185 1.39872 65.6818 1.39859 66.0234 2.21973L67.3252 5.35059C67.4693 5.69668 67.7953 5.93293 68.1689 5.96289L71.5479 6.23438C72.4344 6.30545 72.7943 7.4115 72.1191 7.99023L69.5439 10.1963C69.2593 10.4402 69.1347 10.8228 69.2217 11.1875L70.0088 14.4854C70.2149 15.3504 69.2737 16.0339 68.5146 15.5703L65.6211 13.8037C65.3011 13.6082 64.8981 13.6082 64.5781 13.8037L61.6855 15.5703C60.9265 16.0339 59.9851 15.3505 60.1914 14.4854L60.9775 11.1875C61.0645 10.8227 60.9401 10.4402 60.6553 10.1963L58.0811 7.99023C57.4056 7.41162 57.7649 6.30564 58.6514 6.23438L62.0312 5.96289C62.4048 5.93287 62.73 5.69654 62.874 5.35059L64.1768 2.21973Z" fill="#EEB712"/>
  <path d="M64.1768 2.21973C64.5185 1.39872 65.6818 1.39859 66.0234 2.21973L67.3252 5.35059C67.4693 5.69668 67.7953 5.93293 68.1689 5.96289L71.5479 6.23438C72.4344 6.30545 72.7943 7.4115 72.1191 7.99023L69.5439 10.1963C69.2593 10.4402 69.1347 10.8228 69.2217 11.1875L70.0088 14.4854C70.2149 15.3504 69.2737 16.0339 68.5146 15.5703L65.6211 13.8037C65.3011 13.6082 64.8981 13.6082 64.5781 13.8037L61.6855 15.5703C60.9265 16.0339 59.9851 15.3505 60.1914 14.4854L60.9775 11.1875C61.0645 10.8227 60.9401 10.4402 60.6553 10.1963L58.0811 7.99023C57.4056 7.41162 57.7649 6.30564 58.6514 6.23438L62.0312 5.96289C62.4048 5.93287 62.73 5.69654 62.874 5.35059L64.1768 2.21973Z" stroke="#EEB712"/>
  <path d="M82.377 2.21973C82.7187 1.39872 83.882 1.39859 84.2236 2.21973L85.5254 5.35059C85.6695 5.69668 85.9954 5.93293 86.3691 5.96289L89.748 6.23438C90.6346 6.30545 90.9945 7.4115 90.3193 7.99023L87.7441 10.1963C87.4595 10.4402 87.3349 10.8228 87.4219 11.1875L88.209 14.4854C88.4151 15.3504 87.4739 16.0339 86.7148 15.5703L83.8213 13.8037C83.5013 13.6082 83.0983 13.6082 82.7783 13.8037L79.8857 15.5703C79.1267 16.0339 78.1853 15.3505 78.3916 14.4854L79.1777 11.1875C79.2647 10.8227 79.1403 10.4402 78.8555 10.1963L76.2812 7.99023C75.6058 7.41162 75.9651 6.30564 76.8516 6.23438L80.2314 5.96289C80.605 5.93287 80.9301 5.69654 81.0742 5.35059L82.377 2.21973Z" fill="#EEB712"/>
  <path d="M82.377 2.21973C82.7187 1.39872 83.882 1.39859 84.2236 2.21973L85.5254 5.35059C85.6695 5.69668 85.9954 5.93293 86.3691 5.96289L89.748 6.23438C90.6346 6.30545 90.9945 7.4115 90.3193 7.99023L87.7441 10.1963C87.4595 10.4402 87.3349 10.8228 87.4219 11.1875L88.209 14.4854C88.4151 15.3504 87.4739 16.0339 86.7148 15.5703L83.8213 13.8037C83.5013 13.6082 83.0983 13.6082 82.7783 13.8037L79.8857 15.5703C79.1267 16.0339 78.1853 15.3505 78.3916 14.4854L79.1777 11.1875C79.2647 10.8227 79.1403 10.4402 78.8555 10.1963L76.2812 7.99023C75.6058 7.41162 75.9651 6.30564 76.8516 6.23438L80.2314 5.96289C80.605 5.93287 80.9301 5.69654 81.0742 5.35059L82.377 2.21973Z" stroke="#EEB712"/>
</svg>