<svg xmlns="http://www.w3.org/2000/svg" width="24" height="24" viewBox="0 0 24 24" fill="none">
  <path fill-rule="evenodd" clip-rule="evenodd" d="M5.76799 11.676C5.76799 12.086 5.42799 12.426 5.01799 12.426C4.60799 12.426 4.26799 12.086 4.26799 11.676C4.26799 7.10603 7.78799 3.33603 12.268 2.95603V2.17603C12.268 1.76603 12.608 1.42603 13.018 1.42603C13.428 1.42603 13.768 1.76603 13.768 2.17603V2.95603C18.248 3.33603 21.768 7.10603 21.768 11.676C21.768 12.086 21.428 12.426 21.018 12.426C20.608 12.426 20.268 12.086 20.268 11.676C20.268 7.67603 17.018 4.42603 13.018 4.42603C9.01799 4.42603 5.76799 7.67603 5.76799 11.676ZM4.01699 13.426H21.977C22.387 13.426 22.727 13.766 22.727 14.176C22.727 14.586 22.387 14.926 21.977 14.926H20.307L17.717 17.776C16.577 19.016 15.977 19.666 15.157 20.056C14.327 20.456 13.427 20.516 11.787 20.616L8.53699 20.826C7.86699 20.866 7.55699 20.896 7.34699 20.986C7.14699 21.076 6.94699 21.276 6.44699 21.776L5.51699 22.706C5.36699 22.856 5.17699 22.926 4.98699 22.926C4.79699 22.926 4.60699 22.856 4.45699 22.706C4.31751 22.5649 4.23929 22.3745 4.23929 22.176C4.23929 21.9776 4.31751 21.7872 4.45699 21.646L5.38699 20.716C5.93699 20.166 6.26699 19.836 6.73699 19.626C7.19699 19.416 7.66699 19.376 8.45699 19.336L11.707 19.126L11.879 19.114C13.265 19.022 13.979 18.974 14.527 18.706C15.079 18.449 15.563 17.921 16.517 16.88L16.557 16.836L18.297 14.926H16.807L15.237 16.496C15.1803 16.5494 15.133 16.5947 15.095 16.632C15.0449 16.6828 14.9922 16.7309 14.937 16.776C14.517 17.146 13.977 17.376 13.387 17.416C13.317 17.426 13.207 17.426 12.997 17.426H9.49699C9.08699 17.426 8.74699 17.086 8.74699 16.676C8.74699 16.266 9.08699 15.926 9.49699 15.926H12.227C12.127 15.436 11.747 15.056 11.247 14.956C11.127 14.926 10.897 14.926 10.507 14.926H9.72699C8.75699 14.926 8.26699 14.926 7.86699 15.026C7.54699 15.096 7.26699 15.216 7.02699 15.366C6.65699 15.586 6.31699 15.926 5.62699 16.616L2.54699 19.706C2.25699 19.996 1.77699 19.996 1.48699 19.706C1.34751 19.5649 1.26929 19.3745 1.26929 19.176C1.26929 18.9776 1.34751 18.7872 1.48699 18.646L4.56699 15.566C4.81699 15.316 5.02699 15.106 5.21699 14.926H4.01699C3.60699 14.926 3.26699 14.586 3.26699 14.176C3.26699 13.766 3.60699 13.426 4.01699 13.426ZM14.122 15.502L14.187 15.436L14.697 14.926H13.457C13.567 15.146 13.657 15.386 13.707 15.636C13.727 15.686 13.737 15.746 13.737 15.796C13.827 15.746 13.907 15.696 13.987 15.626C14.0357 15.5889 14.0809 15.5474 14.122 15.502Z" fill="#005B68"/>
</svg>