<svg width="25" height="24" viewBox="0 0 25 24" fill="none" xmlns="http://www.w3.org/2000/svg">
<path d="M21.9511 8.27657L16.0003 7.41173L13.3401 2.01876C13.2675 1.8711 13.1479 1.75157 13.0003 1.67891C12.63 1.4961 12.18 1.64845 11.9948 2.01876L9.33465 7.41173L3.38387 8.27657C3.21981 8.30001 3.06981 8.37735 2.95496 8.49454C2.81612 8.63724 2.73962 8.82923 2.74225 9.02831C2.74489 9.22739 2.82646 9.41728 2.96903 9.55626L7.2745 13.7539L6.25731 19.6813C6.23345 19.8191 6.24871 19.961 6.30135 20.0906C6.35399 20.2203 6.4419 20.3326 6.55512 20.4148C6.66834 20.497 6.80234 20.5459 6.94192 20.5558C7.08149 20.5658 7.22107 20.5364 7.34481 20.4711L12.6675 17.6727L17.9901 20.4711C18.1354 20.5484 18.3042 20.5742 18.4659 20.5461C18.8737 20.4758 19.1479 20.0891 19.0776 19.6813L18.0604 13.7539L22.3659 9.55626C22.4831 9.44142 22.5604 9.29142 22.5839 9.12735C22.6472 8.7172 22.3612 8.33751 21.9511 8.27657Z" fill="#C1A269"/>
</svg>
