<svg xmlns="http://www.w3.org/2000/svg" width="63" height="60" viewBox="0 0 63 60" fill="none">
  <path d="M48.5081 33.884H14.2728C14.1755 33.884 14.0823 33.8655 13.9933 33.8283C13.9033 33.7912 13.8236 33.7386 13.7553 33.6695C13.6869 33.6015 13.6342 33.522 13.5969 33.4323C13.5596 33.3436 13.541 33.2498 13.541 33.1528V28.256C13.541 28.159 13.5596 28.0662 13.5969 27.9765C13.6342 27.8878 13.6869 27.8083 13.7553 27.7403C13.8236 27.6712 13.9033 27.6186 13.9933 27.5814C14.0823 27.5443 14.1755 27.5258 14.2728 27.5258H48.5081C48.6054 27.5258 48.6986 27.5443 48.7886 27.5814C48.8776 27.6186 48.9573 27.6712 49.0256 27.7403C49.095 27.8083 49.1478 27.8878 49.185 27.9765C49.2223 28.0662 49.2399 28.159 49.2399 28.256V33.1528C49.2399 33.2498 49.2223 33.3436 49.185 33.4323C49.1478 33.522 49.095 33.6015 49.0256 33.6695C48.9573 33.7386 48.8776 33.7912 48.7886 33.8283C48.6986 33.8655 48.6054 33.884 48.5081 33.884ZM15.0055 32.4226H47.7754V28.9872H15.0055V32.4226Z" fill="#005B68"/>
  <path d="M46.1853 29.0584H17.2388C17.1529 29.0584 17.0701 29.044 16.9893 29.0151C16.9096 28.9862 16.8361 28.9439 16.7709 28.8893C16.7047 28.8357 16.6509 28.7717 16.6074 28.6975C16.5639 28.6242 16.5339 28.5458 16.5184 28.4623C14.7123 18.8253 20.7132 14.273 22.5948 13.1075L22.8412 12.9549C23.2438 12.7063 23.6598 12.4485 24.0614 12.1886L31.3136 7.49904C31.4347 7.42066 31.5672 7.38147 31.712 7.38147C31.8559 7.38147 31.9894 7.42066 32.1105 7.49904L39.3627 12.1886C39.7663 12.4495 40.1845 12.7084 40.5881 12.958L40.8293 13.1075C42.7109 14.273 48.7118 18.8253 46.9057 28.4623C46.8891 28.5458 46.8602 28.6242 46.8167 28.6975C46.7732 28.7717 46.7194 28.8357 46.6532 28.8893C46.588 28.9439 46.5145 28.9862 46.4337 29.0151C46.354 29.044 46.2712 29.0584 46.1853 29.0584ZM17.8566 27.597H45.5675C46.855 19.2822 41.6997 15.3662 40.0561 14.3483L39.8171 14.2008C39.4062 13.946 38.9818 13.6841 38.5657 13.4149L31.712 8.98213L24.8583 13.4149C24.4444 13.683 24.021 13.944 23.6122 14.1966L23.368 14.3483C21.7244 15.3662 16.5681 19.2822 17.8566 27.597Z" fill="#005B68"/>
  <path d="M11.7076 57.2173H3.29521C3.19896 57.2173 3.10478 57.1988 3.01577 57.1617C2.92572 57.1245 2.84603 57.0719 2.77772 57.0039C2.70941 56.9348 2.65663 56.8564 2.61937 56.7666C2.58211 56.6769 2.56348 56.5841 2.56348 56.4871V40.8941C2.56348 40.7972 2.58211 40.7044 2.61937 40.6146C2.65663 40.5249 2.70941 40.4455 2.77772 40.3774C2.84603 40.3094 2.92572 40.2557 3.01577 40.2186C3.10478 40.1815 3.19896 40.1639 3.29521 40.1639C3.3925 40.1639 3.48669 40.1815 3.5757 40.2186C3.66574 40.2557 3.7444 40.3094 3.81374 40.3774C3.88205 40.4455 3.93484 40.5249 3.9721 40.6146C4.00936 40.7044 4.02799 40.7972 4.02799 40.8941V55.7559H10.9748V40.8941C10.9748 40.7972 10.9935 40.7044 11.0307 40.6146C11.068 40.5249 11.1208 40.4455 11.1891 40.3774C11.2584 40.3094 11.3371 40.2557 11.4271 40.2186C11.5161 40.1815 11.6103 40.1639 11.7076 40.1639C11.8039 40.1639 11.898 40.1815 11.9871 40.2186C12.0771 40.2557 12.1568 40.3094 12.2251 40.3774C12.2934 40.4455 12.3462 40.5249 12.3835 40.6146C12.4207 40.7044 12.4393 40.7972 12.4393 40.8941V56.4871C12.4393 56.5841 12.4207 56.6769 12.3835 56.7666C12.3462 56.8564 12.2934 56.9348 12.2251 57.0039C12.1568 57.0719 12.0771 57.1245 11.9871 57.1617C11.898 57.1988 11.8039 57.2173 11.7076 57.2173Z" fill="#005B68"/>
  <path d="M11.7076 38.256C11.6103 38.256 11.5161 38.2375 11.4271 38.2004C11.3371 38.1632 11.2584 38.1106 11.1891 38.0426C11.1208 37.9735 11.068 37.8951 11.0307 37.8053C10.9935 37.7156 10.9748 37.6228 10.9748 37.5259V25.4972H4.02799V37.5259C4.02799 37.6228 4.00936 37.7156 3.9721 37.8053C3.93484 37.8951 3.88205 37.9735 3.81374 38.0426C3.7444 38.1106 3.66574 38.1632 3.5757 38.2004C3.48669 38.2375 3.3925 38.256 3.29521 38.256C3.19896 38.256 3.10478 38.2375 3.01577 38.2004C2.92572 38.1632 2.84603 38.1106 2.77772 38.0426C2.70941 37.9735 2.65663 37.8951 2.61937 37.8053C2.58211 37.7156 2.56348 37.6228 2.56348 37.5259V24.766C2.56348 24.669 2.58211 24.5762 2.61937 24.4865C2.65663 24.3967 2.70941 24.3184 2.77772 24.2493C2.84603 24.1812 2.92572 24.1286 3.01577 24.0915C3.10478 24.0543 3.19896 24.0358 3.29521 24.0358H11.7076C11.8039 24.0358 11.898 24.0543 11.9871 24.0915C12.0771 24.1286 12.1568 24.1812 12.2251 24.2493C12.2934 24.3184 12.3462 24.3967 12.3835 24.4865C12.4207 24.5762 12.4393 24.669 12.4393 24.766V37.5259C12.4393 37.6228 12.4207 37.7156 12.3835 37.8053C12.3462 37.8951 12.2934 37.9735 12.2251 38.0426C12.1568 38.1106 12.0771 38.1632 11.9871 38.2004C11.898 38.2375 11.8039 38.256 11.7076 38.256Z" fill="#005B68"/>
  <path d="M12.9318 25.4971H2.07066C1.97337 25.4971 1.88023 25.4786 1.79018 25.4414C1.70014 25.4043 1.62148 25.3517 1.55317 25.2836C1.48382 25.2145 1.43104 25.1362 1.39378 25.0464C1.35652 24.9567 1.33789 24.8639 1.33789 24.7669V21.3985C1.33789 21.3016 1.35652 21.2088 1.39378 21.119C1.43104 21.0293 1.48382 20.9509 1.55317 20.8818C1.62148 20.8138 1.70014 20.7612 1.79018 20.724C1.88023 20.6869 1.97337 20.6683 2.07066 20.6683H12.9318C13.0291 20.6683 13.1223 20.6869 13.2123 20.724C13.3013 20.7612 13.381 20.8138 13.4493 20.8818C13.5187 20.9509 13.5715 21.0293 13.6087 21.119C13.646 21.2088 13.6646 21.3016 13.6646 21.3985V24.7669C13.6646 24.8639 13.646 24.9567 13.6087 25.0464C13.5715 25.1362 13.5187 25.2145 13.4493 25.2836C13.381 25.3517 13.3013 25.4043 13.2123 25.4414C13.1223 25.4786 13.0291 25.4971 12.9318 25.4971ZM2.8024 24.0357H12.1991V22.1287H2.8024V24.0357Z" fill="#005B68"/>
  <path d="M12.9318 41.6244H2.07066C1.97337 41.6244 1.88023 41.6058 1.79018 41.5687C1.70014 41.5316 1.62148 41.479 1.55317 41.4099C1.48382 41.3418 1.43104 41.2624 1.39378 41.1737C1.35652 41.0839 1.33789 40.9901 1.33789 40.8931V37.5258C1.33789 37.4288 1.35652 37.335 1.39378 37.2463C1.43104 37.1566 1.48382 37.0771 1.55317 37.0091C1.62148 36.94 1.70014 36.8874 1.79018 36.8502C1.88023 36.8131 1.97337 36.7946 2.07066 36.7946H12.9318C13.0291 36.7946 13.1223 36.8131 13.2123 36.8502C13.3013 36.8874 13.381 36.94 13.4493 37.0091C13.5187 37.0771 13.5715 37.1566 13.6087 37.2463C13.646 37.335 13.6646 37.4288 13.6646 37.5258V40.8931C13.6646 40.9901 13.646 41.0839 13.6087 41.1737C13.5715 41.2624 13.5187 41.3418 13.4493 41.4099C13.381 41.479 13.3013 41.5316 13.2123 41.5687C13.1223 41.6058 13.0291 41.6244 12.9318 41.6244ZM2.8024 40.163H12.1991V38.256H2.8024V40.163Z" fill="#005B68"/>
  <path d="M60.9299 41.6244H50.0677C49.9714 41.6244 49.8772 41.6058 49.7882 41.5687C49.6982 41.5316 49.6185 41.479 49.5502 41.4099C49.4819 41.3418 49.4291 41.2624 49.3918 41.1737C49.3546 41.0839 49.3359 40.9901 49.3359 40.8931V37.5258C49.3359 37.4288 49.3546 37.335 49.3918 37.2463C49.4291 37.1566 49.4819 37.0771 49.5502 37.0091C49.6185 36.94 49.6982 36.8874 49.7882 36.8502C49.8772 36.8131 49.9714 36.7946 50.0677 36.7946H60.9299C61.0261 36.7946 61.1203 36.8131 61.2093 36.8502C61.2994 36.8874 61.3791 36.94 61.4474 37.0091C61.5157 37.0771 61.5685 37.1566 61.6057 37.2463C61.643 37.335 61.6616 37.4288 61.6616 37.5258V40.8931C61.6616 40.9901 61.643 41.0839 61.6057 41.1737C61.5685 41.2624 61.5157 41.3418 61.4474 41.4099C61.3791 41.479 61.2994 41.5316 61.2093 41.5687C61.1203 41.6058 61.0261 41.6244 60.9299 41.6244ZM50.8004 40.163H60.1971V38.256H50.8004V40.163Z" fill="#005B68"/>
  <path d="M12.0715 22.1287H2.9325C2.78553 22.1287 2.65201 22.0885 2.52885 22.0081C2.40672 21.9276 2.31668 21.8204 2.25975 21.6863C2.04241 21.1407 1.92131 20.5735 1.89751 19.9866C1.7464 17.629 2.76793 15.2713 4.62988 13.6809C5.82736 12.6589 7.02588 11.8018 7.07659 11.7668C7.2039 11.676 7.34569 11.6306 7.50197 11.6306C7.65826 11.6306 7.80005 11.676 7.92735 11.7668C7.97807 11.8018 9.17659 12.6589 10.3741 13.6809C12.236 15.2713 13.2575 17.629 13.1064 19.9866C13.0826 20.5735 12.9615 21.1407 12.7442 21.6863C12.6862 21.8204 12.5962 21.9276 12.4741 22.0091C12.3519 22.0896 12.2174 22.1298 12.0715 22.1287ZM3.46448 20.6684H11.5384C11.5954 20.4126 11.6305 20.1547 11.645 19.8938C11.7661 17.992 10.935 16.084 9.42084 14.7907C8.69325 14.1688 7.95116 13.6015 7.50197 13.2674C7.05279 13.6026 6.30967 14.1698 5.58207 14.7907C4.06891 16.084 3.23678 17.992 3.35891 19.8938C3.3734 20.1547 3.40859 20.4126 3.46448 20.6684Z" fill="#005B68"/>
  <path d="M7.50133 13.0909C7.40404 13.0909 7.31089 13.0723 7.22085 13.0362C7.1308 12.9991 7.05214 12.9455 6.98383 12.8774C6.91449 12.8093 6.8617 12.7299 6.82444 12.6402C6.78718 12.5505 6.76855 12.4576 6.76855 12.3607V10.8291C6.76855 10.7322 6.78718 10.6394 6.82444 10.5496C6.8617 10.4599 6.91449 10.3805 6.98383 10.3124C7.05214 10.2444 7.1308 10.1907 7.22085 10.1536C7.31089 10.1165 7.40404 10.0979 7.50133 10.0979C7.59862 10.0979 7.69177 10.1165 7.78181 10.1536C7.87082 10.1907 7.95051 10.2444 8.01882 10.3124C8.08817 10.3805 8.14095 10.4599 8.17821 10.5496C8.21443 10.6394 8.23306 10.7322 8.23306 10.8291V12.3607C8.23306 12.4576 8.21443 12.5505 8.17821 12.6402C8.14095 12.7299 8.08817 12.8093 8.01882 12.8774C7.95051 12.9455 7.87082 12.9991 7.78181 13.0362C7.69177 13.0723 7.59862 13.0909 7.50133 13.0909Z" fill="#005B68"/>
  <path d="M59.7047 57.2173H51.2933C51.196 57.2173 51.1029 57.1988 51.0128 57.1617C50.9228 57.1245 50.8441 57.0719 50.7758 57.0039C50.7065 56.9348 50.6537 56.8564 50.6164 56.7666C50.5792 56.6769 50.5605 56.5841 50.5605 56.4871V40.8941C50.5605 40.7972 50.5792 40.7044 50.6164 40.6146C50.6537 40.5249 50.7065 40.4455 50.7758 40.3774C50.8441 40.3094 50.9228 40.2557 51.0128 40.2186C51.1029 40.1815 51.196 40.1639 51.2933 40.1639C51.3906 40.1639 51.4838 40.1815 51.5738 40.2186C51.6628 40.2557 51.7425 40.3094 51.8108 40.3774C51.8791 40.4455 51.9329 40.5249 51.9692 40.6146C52.0064 40.7044 52.0251 40.7972 52.0251 40.8941V55.7559H58.9719V40.8941C58.9719 40.7972 58.9905 40.7044 59.0278 40.6146C59.0651 40.5249 59.1178 40.4455 59.1872 40.3774C59.2555 40.3094 59.3352 40.2557 59.4242 40.2186C59.5142 40.1815 59.6074 40.1639 59.7047 40.1639C59.802 40.1639 59.8951 40.1815 59.9852 40.2186C60.0742 40.2557 60.1539 40.3094 60.2222 40.3774C60.2915 40.4455 60.3443 40.5249 60.3816 40.6146C60.4188 40.7044 60.4364 40.7972 60.4364 40.8941V56.4871C60.4364 56.5841 60.4188 56.6769 60.3816 56.7666C60.3443 56.8564 60.2915 56.9348 60.2222 57.0039C60.1539 57.0719 60.0742 57.1245 59.9852 57.1617C59.8951 57.1988 59.802 57.2173 59.7047 57.2173Z" fill="#005B68"/>
  <path d="M59.7047 38.256C59.6074 38.256 59.5142 38.2375 59.4242 38.2004C59.3352 38.1632 59.2555 38.1106 59.1872 38.0426C59.1178 37.9735 59.0651 37.8951 59.0278 37.8053C58.9905 37.7156 58.9719 37.6228 58.9719 37.5259V25.4972H52.0251V37.5259C52.0251 37.6228 52.0064 37.7156 51.9692 37.8053C51.9329 37.8951 51.8791 37.9735 51.8108 38.0426C51.7425 38.1106 51.6628 38.1632 51.5738 38.2004C51.4838 38.2375 51.3906 38.256 51.2933 38.256C51.196 38.256 51.1029 38.2375 51.0128 38.2004C50.9228 38.1632 50.8441 38.1106 50.7758 38.0426C50.7065 37.9735 50.6537 37.8951 50.6164 37.8053C50.5792 37.7156 50.5605 37.6228 50.5605 37.5259V24.766C50.5605 24.669 50.5792 24.5762 50.6164 24.4865C50.6537 24.3967 50.7065 24.3184 50.7758 24.2493C50.8441 24.1812 50.9228 24.1286 51.0128 24.0915C51.1029 24.0543 51.196 24.0358 51.2933 24.0358H59.7047C59.802 24.0358 59.8951 24.0543 59.9852 24.0915C60.0742 24.1286 60.1539 24.1812 60.2222 24.2493C60.2915 24.3184 60.3443 24.3967 60.3816 24.4865C60.4188 24.5762 60.4364 24.669 60.4364 24.766V37.5259C60.4364 37.6228 60.4188 37.7156 60.3816 37.8053C60.3443 37.8951 60.2915 37.9735 60.2222 38.0426C60.1539 38.1106 60.0742 38.1632 59.9852 38.2004C59.8951 38.2375 59.802 38.256 59.7047 38.256Z" fill="#005B68"/>
  <path d="M60.9299 25.4971H50.0677C49.9714 25.4971 49.8772 25.4786 49.7882 25.4414C49.6982 25.4043 49.6185 25.3517 49.5502 25.2836C49.4819 25.2145 49.4291 25.1362 49.3918 25.0464C49.3546 24.9567 49.3359 24.8639 49.3359 24.7669V21.3985C49.3359 21.3016 49.3546 21.2088 49.3918 21.119C49.4291 21.0293 49.4819 20.9509 49.5502 20.8818C49.6185 20.8138 49.6982 20.7612 49.7882 20.724C49.8772 20.6869 49.9714 20.6683 50.0677 20.6683H60.9299C61.0261 20.6683 61.1203 20.6869 61.2093 20.724C61.2994 20.7612 61.3791 20.8138 61.4474 20.8818C61.5157 20.9509 61.5685 21.0293 61.6057 21.119C61.643 21.2088 61.6616 21.3016 61.6616 21.3985V24.7669C61.6616 24.8639 61.643 24.9567 61.6057 25.0464C61.5685 25.1362 61.5157 25.2145 61.4474 25.2836C61.3791 25.3517 61.2994 25.4043 61.2093 25.4414C61.1203 25.4786 61.0261 25.4971 60.9299 25.4971ZM50.8004 24.0357H60.1971V22.1287H50.8004V24.0357Z" fill="#005B68"/>
  <path d="M60.0683 22.1287H50.9304C50.7834 22.1298 50.6489 22.0896 50.5268 22.0091C50.4046 21.9287 50.3146 21.8204 50.2566 21.6863C50.0393 21.1407 49.9192 20.5735 49.8944 19.9866C49.7443 17.629 50.7658 15.2713 52.6278 13.6809C53.8242 12.6589 55.0238 11.8018 55.0735 11.7668C55.2008 11.676 55.3426 11.6306 55.4999 11.6306C55.6562 11.6306 55.798 11.676 55.9253 11.7668C55.976 11.8018 57.1745 12.6589 58.371 13.6809C60.2329 15.2713 61.2544 17.629 61.1044 19.9866C61.0795 20.5735 60.9595 21.1407 60.7421 21.6863C60.6842 21.8204 60.5941 21.9276 60.472 22.0081C60.3499 22.0885 60.2153 22.1287 60.0683 22.1287ZM51.4624 20.6684H59.5364C59.5922 20.4126 59.6274 20.1547 59.6419 19.8938C59.764 17.992 58.933 16.084 57.4188 14.7907C56.6912 14.1688 55.9491 13.6015 55.4999 13.2674C55.0497 13.6026 54.3065 14.1698 53.58 14.7907C52.0658 16.084 51.2347 17.992 51.3568 19.8938C51.3713 20.1547 51.4065 20.4126 51.4624 20.6684Z" fill="#005B68"/>
  <path d="M55.4994 13.0909C55.4021 13.0909 55.3079 13.0723 55.2189 13.0362C55.1288 12.9991 55.0502 12.9455 54.9808 12.8774C54.9125 12.8093 54.8598 12.7299 54.8225 12.6402C54.7852 12.5505 54.7666 12.4576 54.7666 12.3607V10.8291C54.7666 10.7322 54.7852 10.6394 54.8225 10.5496C54.8598 10.4599 54.9125 10.3805 54.9808 10.3124C55.0502 10.2444 55.1288 10.1907 55.2189 10.1536C55.3079 10.1165 55.4021 10.0979 55.4994 10.0979C55.5956 10.0979 55.6898 10.1165 55.7788 10.1536C55.8689 10.1907 55.9486 10.2444 56.0169 10.3124C56.0852 10.3805 56.138 10.4599 56.1752 10.5496C56.2125 10.6394 56.2311 10.7322 56.2311 10.8291V12.3607C56.2311 12.4576 56.2125 12.5505 56.1752 12.6402C56.138 12.7299 56.0852 12.8093 56.0169 12.8774C55.9486 12.9455 55.8689 12.9991 55.7788 13.0362C55.6898 13.0723 55.5956 13.0909 55.4994 13.0909Z" fill="#005B68"/>
  <path d="M51.2936 38.2559C51.1963 38.2559 51.1032 38.2374 51.0131 38.2002C50.9231 38.1631 50.8444 38.1105 50.7761 38.0424C50.7068 37.9733 50.654 37.895 50.6167 37.8052C50.5795 37.7155 50.5608 37.6227 50.5608 37.5257V33.884H12.4401V37.5257C12.4401 37.6227 12.4215 37.7155 12.3842 37.8052C12.3469 37.895 12.2942 37.9733 12.2259 38.0424C12.1575 38.1105 12.0778 38.1631 11.9878 38.2002C11.8988 38.2374 11.8046 38.2559 11.7084 38.2559C11.6111 38.2559 11.5169 38.2374 11.4279 38.2002C11.3378 38.1631 11.2592 38.1105 11.1898 38.0424C11.1215 37.9733 11.0687 37.895 11.0315 37.8052C10.9942 37.7155 10.9756 37.6227 10.9756 37.5257V33.1538C10.9756 33.0569 10.9942 32.9641 11.0315 32.8743C11.0687 32.7846 11.1215 32.7052 11.1898 32.6371C11.2592 32.5691 11.3378 32.5154 11.4279 32.4783C11.5169 32.4412 11.6111 32.4226 11.7084 32.4226H51.2936C51.3909 32.4226 51.484 32.4412 51.5741 32.4783C51.6631 32.5154 51.7428 32.5691 51.8111 32.6371C51.8794 32.7052 51.9332 32.7846 51.9705 32.8743C52.0067 32.9641 52.0253 33.0569 52.0253 33.1538V37.5257C52.0253 37.6227 52.0067 37.7155 51.9705 37.8052C51.9332 37.895 51.8794 37.9733 51.8111 38.0424C51.7428 38.1105 51.6631 38.1631 51.5741 38.2002C51.484 38.2374 51.3909 38.2559 51.2936 38.2559Z" fill="#005B68"/>
  <path d="M51.2936 57.2173H11.7084C11.6111 57.2173 11.5169 57.1988 11.4279 57.1617C11.3378 57.1245 11.2592 57.0719 11.1898 57.0039C11.1215 56.9348 11.0687 56.8564 11.0315 56.7666C10.9942 56.6769 10.9756 56.5841 10.9756 56.4871V40.8941C10.9756 40.7972 10.9942 40.7044 11.0315 40.6146C11.0687 40.5249 11.1215 40.4455 11.1898 40.3774C11.2592 40.3094 11.3378 40.2557 11.4279 40.2186C11.5169 40.1815 11.6111 40.1639 11.7084 40.1639C11.8046 40.1639 11.8988 40.1815 11.9878 40.2186C12.0778 40.2557 12.1575 40.3094 12.2259 40.3774C12.2942 40.4455 12.3469 40.5249 12.3842 40.6146C12.4215 40.7044 12.4401 40.7972 12.4401 40.8941V55.7559H50.5608V40.8941C50.5608 40.7972 50.5795 40.7044 50.6167 40.6146C50.654 40.5249 50.7068 40.4455 50.7761 40.3774C50.8444 40.3094 50.9231 40.2557 51.0131 40.2186C51.1032 40.1815 51.1963 40.1639 51.2936 40.1639C51.3909 40.1639 51.484 40.1815 51.5741 40.2186C51.6631 40.2557 51.7428 40.3094 51.8111 40.3774C51.8794 40.4455 51.9332 40.5249 51.9705 40.6146C52.0067 40.7044 52.0253 40.7972 52.0253 40.8941V56.4871C52.0253 56.5841 52.0067 56.6769 51.9705 56.7666C51.9332 56.8564 51.8794 56.9348 51.8111 57.0039C51.7428 57.0719 51.6631 57.1245 51.5741 57.1617C51.484 57.1988 51.3909 57.2173 51.2936 57.2173Z" fill="#005B68"/>
  <mask id="mask0_141_1465" style="mask-type:luminance" maskUnits="userSpaceOnUse" x="0" y="55" width="63" height="5">
    <path d="M0.5 55.5126H62.5V60H0.5V55.5126Z" fill="white"/>
  </mask>
  <g mask="url(#mask0_141_1465)">
    <path d="M61.7683 59.9897H1.23277C1.13548 59.9897 1.04233 59.9712 0.95229 59.9341C0.862246 59.8969 0.783587 59.8443 0.714243 59.7763C0.645934 59.7072 0.593149 59.6288 0.555889 59.539C0.51863 59.4493 0.5 59.3565 0.5 59.2596V56.4873C0.5 56.3903 0.51863 56.2975 0.555889 56.2078C0.593149 56.1181 0.645934 56.0386 0.714243 55.9706C0.783587 55.9025 0.862246 55.8489 0.95229 55.8128C1.04233 55.7756 1.13548 55.7571 1.23277 55.7571H61.7683C61.8645 55.7571 61.9587 55.7756 62.0477 55.8117C62.1378 55.8489 62.2174 55.9025 62.2858 55.9706C62.3541 56.0386 62.4069 56.1181 62.4441 56.2078C62.4814 56.2975 62.5 56.3903 62.5 56.4873V59.2596C62.5 59.3565 62.4814 59.4493 62.4441 59.539C62.4069 59.6288 62.3541 59.7072 62.2858 59.7763C62.2174 59.8443 62.1378 59.8969 62.0477 59.9341C61.9587 59.9712 61.8645 59.9897 61.7683 59.9897ZM1.96451 58.5294H61.0355V57.2175H1.96451V58.5294Z" fill="#005B68"/>
  </g>
  <path d="M38.4589 57.2173H24.5404C24.4431 57.2173 24.35 57.1987 24.2599 57.1616C24.1699 57.1244 24.0912 57.0718 24.0229 57.0038C23.9536 56.9347 23.9008 56.8563 23.8635 56.7666C23.8262 56.6768 23.8076 56.584 23.8076 56.4871V45.1927C23.8076 41.4902 27.2583 38.4786 31.4997 38.4786C35.741 38.4786 39.1917 41.4902 39.1917 45.1927V56.4871C39.1917 56.584 39.1731 56.6768 39.1358 56.7666C39.0985 56.8563 39.0458 56.9347 38.9775 57.0038C38.9081 57.0718 38.8295 57.1244 38.7394 57.1616C38.6504 57.1987 38.5562 57.2173 38.4589 57.2173ZM25.2721 55.7569H37.7272V45.1927C37.7272 42.2957 34.9338 39.9401 31.4997 39.9401C28.0666 39.9401 25.2721 42.2957 25.2721 45.1927V55.7569Z" fill="#005B68"/>
  <path d="M18.6669 57.2175H4.74736C4.65007 57.2175 4.55692 57.1989 4.46688 57.1618C4.37787 57.1247 4.29818 57.0721 4.22987 57.004C4.16156 56.9349 4.10774 56.8565 4.07151 56.7668C4.03425 56.6771 4.01562 56.5842 4.01562 56.4873C4.01562 56.3903 4.03425 56.2965 4.07151 56.2078C4.10774 56.1181 4.16156 56.0386 4.22987 55.9706C4.29818 55.9015 4.37787 55.8489 4.46688 55.8117C4.55692 55.7746 4.65007 55.7561 4.74736 55.7561H17.9342V45.1919C17.9342 42.6496 15.7845 40.4766 12.8213 40.0238C12.7251 40.0094 12.6361 39.9764 12.5533 39.9269C12.4694 39.8763 12.4001 39.8124 12.3421 39.734C12.2852 39.6556 12.2448 39.57 12.221 39.4762C12.1983 39.3823 12.1941 39.2874 12.2086 39.1915C12.2231 39.0956 12.2562 39.0059 12.3059 38.9234C12.3566 38.8408 12.4208 38.7707 12.4984 38.713C12.5771 38.6552 12.663 38.615 12.7571 38.5923C12.8513 38.5696 12.9465 38.5644 13.0428 38.5799C16.7263 39.142 19.3987 41.9225 19.3987 45.1919V56.4873C19.3987 56.5842 19.38 56.6771 19.3438 56.7668C19.3066 56.8565 19.2538 56.9349 19.1844 57.004C19.1161 57.0721 19.0364 57.1247 18.9474 57.1618C18.8574 57.1989 18.7642 57.2175 18.6669 57.2175Z" fill="#005B68"/>
  <path d="M58.2529 57.2174H44.3333C44.237 57.2174 44.1429 57.1988 44.0539 57.1617C43.9638 57.1246 43.8851 57.072 43.8158 57.0039C43.7475 56.9348 43.6947 56.8564 43.6575 56.7667C43.6202 56.677 43.6016 56.5841 43.6016 56.4872V45.1918C43.6016 41.9225 46.2749 39.1419 49.9574 38.5798C50.0537 38.5644 50.1489 38.5685 50.2431 38.5922C50.3373 38.6149 50.4242 38.6551 50.5018 38.7129C50.5805 38.7696 50.6447 38.8397 50.6954 38.9233C50.7451 39.0058 50.7782 39.0955 50.7927 39.1914C50.8072 39.2863 50.803 39.3822 50.7802 39.4761C50.7564 39.5699 50.7161 39.6555 50.6592 39.7339C50.6012 39.8123 50.5308 39.8762 50.448 39.9268C50.3652 39.9763 50.2752 40.0093 50.18 40.0237C47.2168 40.4765 45.0661 42.6496 45.0661 45.1918V55.756H58.2529C58.3502 55.756 58.4433 55.7745 58.5334 55.8117C58.6234 55.8488 58.7021 55.9014 58.7704 55.9705C58.8397 56.0386 58.8925 56.118 58.9298 56.2077C58.967 56.2964 58.9856 56.3903 58.9856 56.4872C58.9856 56.5841 58.967 56.677 58.9298 56.7667C58.8925 56.8564 58.8397 56.9348 58.7704 57.0039C58.7021 57.072 58.6234 57.1246 58.5334 57.1617C58.4433 57.1988 58.3502 57.2174 58.2529 57.2174Z" fill="#005B68"/>
  <path d="M21.6036 40.5888C21.4018 40.5888 21.229 40.5176 21.0861 40.3743L19.3422 38.6344C19.2739 38.5663 19.2211 38.4869 19.1838 38.3982C19.1466 38.3085 19.1279 38.2146 19.1279 38.1177C19.1279 38.0218 19.1466 37.9279 19.1838 37.8382C19.2211 37.7495 19.2739 37.6701 19.3422 37.602L21.0861 35.8621C21.229 35.7187 21.4018 35.6476 21.6036 35.6476C21.8065 35.6476 21.9793 35.7187 22.1222 35.8621L23.8651 37.602C23.9344 37.6701 23.9872 37.7495 24.0245 37.8382C24.0617 37.9279 24.0804 38.0218 24.0804 38.1177C24.0804 38.2146 24.0617 38.3085 24.0245 38.3982C23.9872 38.4869 23.9344 38.5663 23.8651 38.6344L22.1222 40.3743C21.9793 40.5176 21.8065 40.5888 21.6036 40.5888ZM20.8957 38.1177L21.6036 38.8241L22.3126 38.1177L21.6036 37.4122L20.8957 38.1177Z" fill="#005B68"/>
  <path d="M41.3966 40.5888C41.1937 40.5888 41.0219 40.5176 40.8791 40.3743L39.1351 38.6344C39.0668 38.5663 39.013 38.4869 38.9768 38.3982C38.9395 38.3085 38.9209 38.2146 38.9209 38.1177C38.9209 38.0218 38.9395 37.9279 38.9768 37.8382C39.013 37.7495 39.0668 37.6701 39.1351 37.602L40.8791 35.8621C40.9474 35.793 41.0271 35.7404 41.1161 35.7033C41.2062 35.6661 41.2993 35.6476 41.3966 35.6476C41.4939 35.6476 41.587 35.6661 41.6771 35.7033C41.7661 35.7404 41.8458 35.793 41.9141 35.8621L43.658 37.602C43.7264 37.6701 43.7791 37.7495 43.8164 37.8382C43.8537 37.9279 43.8723 38.0218 43.8723 38.1177C43.8723 38.2146 43.8537 38.3085 43.8164 38.3982C43.7791 38.4869 43.7264 38.5663 43.658 38.6344L41.9141 40.3743C41.7713 40.5176 41.5984 40.5888 41.3966 40.5888ZM40.6887 38.1177L41.3966 38.8241L42.1045 38.1177L41.3966 37.4122L40.6887 38.1177Z" fill="#005B68"/>
  <mask id="mask1_141_1465" style="mask-type:luminance" maskUnits="userSpaceOnUse" x="27" y="0" width="10" height="10">
    <path d="M27.0557 0H36.3292V9.04392H27.0557V0Z" fill="white"/>
  </mask>
  <g mask="url(#mask1_141_1465)">
    <path d="M31.7122 8.8428C31.5673 8.8428 31.4224 8.83558 31.2785 8.82114C31.1336 8.8067 30.9908 8.78504 30.8479 8.7572C30.7061 8.72832 30.5654 8.69325 30.4267 8.65097C30.288 8.60868 30.1514 8.56021 30.0168 8.50452C29.8833 8.44882 29.7519 8.38694 29.6235 8.31887C29.4962 8.2508 29.372 8.17655 29.251 8.0961C29.1309 8.01566 29.0139 7.92902 28.9022 7.83723C28.7893 7.74544 28.6827 7.64849 28.5792 7.54639C28.4768 7.44325 28.3795 7.33599 28.2874 7.22461C28.1953 7.11219 28.1094 6.99668 28.0286 6.87601C27.9479 6.75534 27.8734 6.63158 27.8051 6.50369C27.7357 6.37684 27.6747 6.24586 27.6188 6.11178C27.5629 5.9777 27.5142 5.84157 27.4718 5.70336C27.4294 5.56516 27.3942 5.4249 27.3662 5.28257C27.3373 5.14025 27.3155 4.99792 27.3021 4.85353C27.2876 4.70914 27.2803 4.56475 27.2793 4.42036C27.2793 4.23059 27.2917 4.04186 27.3166 3.85415C27.3269 3.77577 27.3497 3.70151 27.3849 3.63138C27.419 3.56021 27.4635 3.4973 27.5184 3.44161C27.5732 3.38488 27.6364 3.33847 27.7057 3.30238C27.7761 3.26628 27.8496 3.24256 27.9272 3.23018C28.0048 3.21781 28.0824 3.21781 28.1601 3.23018C28.2377 3.24256 28.3112 3.26731 28.3816 3.30341C28.4509 3.33951 28.513 3.38592 28.5679 3.44264C28.6227 3.49936 28.6672 3.56228 28.7014 3.63344C28.7304 3.69223 28.7624 3.74998 28.7987 3.80568C28.8339 3.86137 28.8721 3.915 28.9146 3.96657C28.957 4.0171 29.0015 4.06558 29.0491 4.11199C29.0967 4.15737 29.1475 4.19965 29.2002 4.23988C29.253 4.27907 29.3079 4.3162 29.3658 4.3492C29.4228 4.3822 29.4818 4.41211 29.5428 4.43789C29.6039 4.46471 29.666 4.48637 29.7291 4.50596C29.7923 4.52453 29.8575 4.53897 29.9227 4.55031C29.9879 4.56166 30.0531 4.56888 30.1193 4.57197C30.1855 4.57507 30.2518 4.57403 30.318 4.56991C30.3843 4.56578 30.4495 4.5565 30.5147 4.54412C30.5799 4.53175 30.644 4.51525 30.7072 4.49565C30.7703 4.47606 30.8314 4.45233 30.8924 4.42449C30.9525 4.39664 31.0104 4.36673 31.0674 4.33167C31.1243 4.29763 31.1781 4.25947 31.2299 4.21925C31.2826 4.17799 31.3323 4.13468 31.3789 4.08827C31.4255 4.04082 31.4689 3.99132 31.5103 3.93975C31.5517 3.88818 31.589 3.83352 31.6231 3.7768C31.6583 3.72111 31.6894 3.66232 31.7163 3.6025C31.7442 3.54268 31.768 3.4808 31.7877 3.41789C31.8084 3.35498 31.8239 3.29103 31.8364 3.22606C31.8488 3.16108 31.8581 3.09611 31.8622 3.0301C31.8674 2.96409 31.8674 2.89809 31.8643 2.83208C31.8612 2.76607 31.854 2.70007 31.8436 2.63509C31.8322 2.57012 31.8167 2.50617 31.7981 2.44223C31.7794 2.37932 31.7567 2.31744 31.7308 2.25659C31.7049 2.19574 31.6749 2.13695 31.6418 2.07919C31.6087 2.02247 31.5724 1.96781 31.5321 1.91418C31.4927 1.86158 31.4493 1.81207 31.4037 1.7636C31.3582 1.71616 31.3095 1.67181 31.2578 1.62952C31.2071 1.58724 31.1533 1.54908 31.0974 1.51298C31.0415 1.47792 30.9846 1.44594 30.9245 1.41707C30.8531 1.38303 30.79 1.33868 30.7331 1.28402C30.6772 1.22936 30.6306 1.16645 30.5933 1.09735C30.5571 1.02721 30.5323 0.953988 30.5198 0.876637C30.5074 0.799285 30.5074 0.721934 30.5198 0.643551C30.5323 0.5662 30.5561 0.492974 30.5923 0.422842C30.6285 0.353741 30.6751 0.290829 30.731 0.236167C30.7869 0.181506 30.851 0.136126 30.9214 0.102091C30.9928 0.0680568 31.0663 0.0453671 31.145 0.0350535C31.3334 0.010301 31.5228 -0.0020752 31.7122 -0.0020752C31.8581 -0.0020752 32.003 0.0051444 32.1469 0.0195832C32.2918 0.032991 32.4346 0.0546491 32.5774 0.0824957C32.7202 0.111374 32.86 0.146439 32.9997 0.188725C33.1384 0.229979 33.275 0.279484 33.4085 0.334146C33.5431 0.389838 33.6745 0.45172 33.8018 0.519789C33.9301 0.587858 34.0543 0.663147 34.1754 0.743592C34.2955 0.824038 34.4124 0.90964 34.5242 1.00143C34.637 1.09322 34.7447 1.1912 34.8471 1.2933C34.9496 1.39541 35.0469 1.50267 35.139 1.61508C35.2311 1.72647 35.3181 1.84301 35.3988 1.96368C35.4785 2.08332 35.553 2.20811 35.6223 2.336C35.6907 2.46286 35.7528 2.59384 35.8076 2.72791C35.8635 2.86199 35.9121 2.99813 35.9546 3.13633C35.997 3.27556 36.0322 3.41583 36.0601 3.55712C36.0881 3.69945 36.1098 3.8428 36.1243 3.98719C36.1378 4.13055 36.145 4.27597 36.145 4.42036C36.145 4.56475 36.1378 4.70914 36.1243 4.85353C36.1098 4.99792 36.0881 5.14128 36.0601 5.2836C36.0322 5.4249 35.997 5.56516 35.9546 5.7044C35.9121 5.8426 35.8635 5.97873 35.8076 6.11281C35.7528 6.24689 35.6907 6.37684 35.6223 6.50472C35.553 6.63261 35.4785 6.75637 35.3988 6.87704C35.3181 6.99771 35.2311 7.11425 35.139 7.22564C35.0469 7.33806 34.9496 7.44532 34.8471 7.54742C34.7447 7.64953 34.637 7.7475 34.5242 7.83929C34.4124 7.93108 34.2955 8.01669 34.1754 8.09713C34.0543 8.17758 33.9301 8.25183 33.8018 8.32094C33.6745 8.389 33.5431 8.45089 33.4085 8.50658C33.275 8.56124 33.1384 8.61075 32.9997 8.652C32.86 8.69428 32.7202 8.72935 32.5774 8.75823C32.4346 8.78607 32.2918 8.80773 32.1469 8.82114C32.003 8.83558 31.8581 8.8428 31.7122 8.8428ZM29.105 5.83435C29.1599 5.93439 29.2199 6.03237 29.2861 6.12622C29.3524 6.22007 29.4248 6.3098 29.5014 6.3954C29.578 6.481 29.6587 6.56145 29.7457 6.63777C29.8316 6.71306 29.9216 6.78422 30.0158 6.85023C30.11 6.9152 30.2083 6.97605 30.3097 7.02968C30.4112 7.08434 30.5157 7.13179 30.6223 7.17407C30.7289 7.21636 30.8386 7.25245 30.9494 7.28236C31.0611 7.31124 31.1729 7.33496 31.2868 7.35146C31.4006 7.36797 31.5155 7.37725 31.6304 7.38034C31.7453 7.38344 31.8602 7.38034 31.975 7.37003C32.0889 7.35972 32.2027 7.34321 32.3156 7.31949C32.4284 7.2968 32.5391 7.26689 32.6488 7.2308C32.7575 7.1947 32.8641 7.15241 32.9686 7.10394C33.0732 7.05547 33.1736 7.0008 33.2719 6.93995C33.3692 6.88014 33.4634 6.81413 33.5544 6.74297C33.6445 6.6718 33.7304 6.59548 33.8111 6.51401C33.8929 6.43356 33.9695 6.34796 34.0409 6.25823C34.1123 6.16747 34.1775 6.07362 34.2386 5.97667C34.2986 5.87869 34.3535 5.77762 34.4021 5.67345C34.4507 5.56929 34.4932 5.46306 34.5294 5.35477C34.5656 5.24544 34.5956 5.13509 34.6184 5.02267C34.6422 4.91025 34.6588 4.79681 34.6691 4.68233C34.6795 4.56785 34.6826 4.45337 34.6795 4.33889C34.6764 4.22441 34.6671 4.10993 34.6505 3.99648C34.6339 3.88303 34.6101 3.77061 34.5811 3.65922C34.5511 3.54887 34.5159 3.43955 34.4735 3.33332C34.4311 3.22606 34.3824 3.12189 34.3286 3.02082C34.2738 2.91974 34.2137 2.82177 34.1485 2.72791C34.0823 2.63406 34.0109 2.54433 33.9353 2.4577C33.8587 2.3721 33.778 2.29062 33.6921 2.2143C33.6062 2.13798 33.5161 2.06579 33.423 1.99978C33.3288 1.93377 33.2305 1.87395 33.1301 1.81929C33.2357 2.09879 33.2998 2.3886 33.3226 2.68769C33.3443 2.98678 33.3247 3.28278 33.2615 3.57568C33.1974 3.86859 33.0939 4.14705 32.951 4.41005C32.8072 4.67304 32.6292 4.91025 32.4159 5.12271C32.2038 5.33414 31.9657 5.51256 31.7018 5.65489C31.4379 5.79825 31.1595 5.90241 30.8655 5.96533C30.5716 6.02824 30.2756 6.04887 29.9754 6.02618C29.6763 6.00349 29.3855 5.93954 29.105 5.83435Z" fill="#005B68"/>
  </g>
</svg>