<svg xmlns="http://www.w3.org/2000/svg" width="61" height="60" viewBox="0 0 61 60" fill="none">
  <mask id="mask0_141_1498" style="mask-type:luminance" maskUnits="userSpaceOnUse" x="0" y="0" width="61" height="60">
    <path d="M0 0H61V60H0V0Z" fill="white"/>
  </mask>
  <g mask="url(#mask0_141_1498)">
    <path d="M60.9591 6.9411C60.9591 6.91016 60.9591 6.89984 60.9591 6.87922C60.9591 6.8689 60.9591 6.8689 60.9591 6.85756C60.9591 6.83693 60.9488 6.80599 60.9488 6.78536C60.9488 6.77505 60.9488 6.76474 60.9374 6.75442C60.9374 6.74411 60.9271 6.72348 60.9271 6.71317C60.9271 6.70286 60.9167 6.69151 60.9167 6.6812C60.9167 6.67088 60.9064 6.66057 60.9064 6.63994C60.9064 6.62963 60.896 6.61932 60.896 6.609C60.8857 6.59869 60.8857 6.58838 60.8753 6.57806C60.865 6.56775 60.865 6.55744 60.8546 6.54712C60.8443 6.53681 60.8443 6.52649 60.8339 6.50484C60.8236 6.49452 60.8236 6.48421 60.8132 6.4739C60.8029 6.46358 60.7915 6.44296 60.7811 6.43264L60.7708 6.42233C60.7501 6.4017 60.7398 6.38107 60.7191 6.37076L60.7087 6.36045C60.6984 6.35013 60.6777 6.33879 60.6673 6.32847C60.657 6.31816 60.657 6.31816 60.6466 6.30785C60.6352 6.29753 60.6249 6.28722 60.6042 6.27691C60.5938 6.26659 60.5835 6.26659 60.5835 6.25628C60.5731 6.24597 60.5628 6.24597 60.5421 6.23565C60.5317 6.22534 60.5214 6.22534 60.511 6.21503C60.5007 6.20471 60.4893 6.20471 60.4686 6.1944C60.4583 6.1944 60.4479 6.18409 60.4376 6.18409C60.4272 6.18409 60.4169 6.17377 60.3962 6.17377C60.3858 6.17377 60.3755 6.16243 60.3651 6.16243C60.3548 6.16243 60.333 6.15211 60.3123 6.15211C60.302 6.15211 60.2916 6.15211 60.2813 6.1418L57.2698 5.51989L30.662 0.0207193C30.5481 9.22577e-05 30.4333 9.22577e-05 30.3184 0.0207193L4.29529 5.40541L0.700118 6.15211C0.700118 6.15211 0.700118 6.15211 0.688734 6.15211C0.657688 6.16243 0.63699 6.16243 0.616293 6.17377C0.605944 6.17377 0.605944 6.18409 0.595595 6.18409C0.574897 6.1944 0.5542 6.1944 0.532467 6.20471C0.522119 6.20471 0.522119 6.21503 0.51177 6.21503C0.460026 6.23565 0.408282 6.26659 0.365852 6.30785C0.365852 6.30785 0.355503 6.30785 0.355503 6.31816L0.345154 6.32847C0.324456 6.33879 0.314108 6.36045 0.29341 6.37076L0.283061 6.38107C0.262363 6.4017 0.240631 6.42233 0.230282 6.44296L0.219933 6.45327C0.209584 6.4739 0.188887 6.48421 0.178538 6.50484C0.178538 6.51515 0.168189 6.51515 0.168189 6.52649C0.157841 6.54712 0.147492 6.56775 0.137143 6.58838C0.137143 6.58838 0.137143 6.59869 0.126794 6.59869C0.116445 6.61932 0.106097 6.65026 0.0947128 6.6812C0.0947128 6.69254 0.0947126 6.69254 0.084364 6.70286C0.0740153 6.72348 0.0740153 6.74411 0.0636664 6.76474C0.0636664 6.77505 0.0636665 6.77505 0.0533176 6.78536C0.0429689 6.80599 0.0429688 6.83693 0.0429688 6.85756V6.8689C0.0429688 6.88953 0.0429688 6.92047 0.0429688 6.9411V6.95141C0.0429688 6.95141 0.0429688 6.95141 0.0429688 6.96173V51.6998C0.0429688 52.0834 0.303759 52.4155 0.668037 52.5094L30.2977 59.9692C30.3081 59.9692 30.3288 59.9795 30.3391 59.9795C30.3494 59.9795 30.3598 59.9795 30.3815 59.9898C30.4229 60.0001 30.4643 60.0001 30.5057 60.0001C30.5481 60.0001 30.5895 60.0001 30.6309 59.9898C30.6413 59.9898 30.6516 59.9898 30.6734 59.9795C30.6837 59.9795 30.7044 59.9795 30.7148 59.9692L34.727 58.9626L60.333 52.5094C60.7087 52.4155 60.9591 52.0834 60.9591 51.6998V6.9411C60.9591 6.95141 60.9591 6.95141 60.9591 6.9411ZM7.35957 9.4411L29.6726 15.0651V21.1449L1.72051 14.0997V8.01989L7.35957 9.4411ZM59.2909 21.5698L31.3398 28.615V22.8673L59.2909 15.8221V21.5698ZM29.6726 28.615L1.72051 21.5698V15.8221L29.6726 22.8569V28.615ZM1.72051 43.5861V27.7538L3.19004 28.1375C3.26352 28.1581 3.33596 28.1684 3.39909 28.1684C3.76336 28.1684 4.10798 27.9199 4.20112 27.5465C4.31599 27.0999 4.0552 26.6544 3.6071 26.5296L1.71016 26.0314V23.2715L29.6726 30.327V33.3561L28.2549 32.9828C27.8067 32.8683 27.3586 33.1282 27.2334 33.5748C27.1186 34.0203 27.3793 34.4669 27.8274 34.5906L29.6726 35.0682V50.6313L3.31526 43.9914L1.72051 43.5861ZM31.3398 35.0682L33.185 34.5906C33.6331 34.4772 33.8929 34.0203 33.779 33.5748C33.6642 33.1282 33.2057 32.8683 32.7576 32.9828L31.3398 33.3561V30.327L59.2909 23.2819V26.0418L57.394 26.5399C56.9459 26.6544 56.6861 27.1102 56.8 27.5568C56.8941 27.9302 57.2377 28.1787 57.603 28.1787C57.6755 28.1787 57.7489 28.1684 57.811 28.1478L59.2806 27.7641V43.5861L41.2923 48.1199V41.3243C41.2923 40.8685 40.9176 40.4941 40.4592 40.4941C40.2719 40.4941 40.1042 40.557 39.9687 40.6602L34.5293 42.0298H34.519C34.0595 42.0298 33.6849 42.4031 33.6849 42.86V50.0393L31.3398 50.6313V35.0682ZM59.2909 8.01989V14.0997L31.3398 21.1449V15.0651L53.6529 9.4411L59.2909 8.01989ZM30.5057 1.67088L56.415 7.03392L30.5057 13.5603L4.60783 7.03392H4.59748L30.5057 1.67088ZM1.72051 45.3085L28.0779 51.9483L29.6726 52.3536V58.1014L1.72051 51.0562V45.3085ZM31.3398 52.3433L33.6849 51.7513V57.4991L31.3398 58.0911V52.3433ZM35.3521 50.6932V43.5449L39.6458 42.4661V56.0057L35.3521 57.0845V50.6932ZM41.3037 55.59V49.8423L59.2909 45.3085V51.0562L41.3037 55.59ZM37.0927 32.7022C36.9779 32.2567 37.2386 31.8101 37.6868 31.6864L42.6159 30.3992C43.064 30.2858 43.5121 30.5446 43.6373 30.9912C43.7522 31.4368 43.4914 31.8833 43.0433 32.0071L38.1142 33.2942C38.0407 33.3149 37.9682 33.3252 37.9051 33.3252C37.5305 33.3252 37.1869 33.0766 37.0927 32.7022ZM46.9417 30.13C46.8268 29.6835 47.0876 29.2379 47.5357 29.1131L52.4648 27.826C52.913 27.7126 53.3611 27.9714 53.4863 28.418C53.6115 28.8635 53.3404 29.3101 52.8923 29.4349L47.9631 30.721C47.8896 30.7416 47.8172 30.7519 47.7541 30.7519C47.3794 30.7519 47.0452 30.5034 46.9417 30.13ZM14.0708 30.13C13.9766 30.5034 13.633 30.7519 13.2687 30.7519C13.1953 30.7519 13.1228 30.7416 13.0597 30.721L8.13056 29.4349C7.68246 29.3204 7.42167 28.8635 7.53654 28.418C7.65141 27.9714 8.10986 27.7126 8.55797 27.826L13.4871 29.1131C13.9145 29.2266 14.1856 29.6835 14.0708 30.13ZM23.9197 32.7022C23.8256 33.0766 23.482 33.3252 23.1167 33.3252C23.0442 33.3252 22.9707 33.3149 22.9087 33.2942L17.9795 32.0071C17.5314 31.8937 17.2706 31.4368 17.3855 30.9912C17.4993 30.5446 17.9578 30.2858 18.4059 30.3992L23.3361 31.6864C23.7738 31.8101 24.0346 32.267 23.9197 32.7022Z" fill="#005B68"/>
  </g>
</svg>