<svg xmlns="http://www.w3.org/2000/svg" width="24" height="24" viewBox="0 0 24 24" fill="none">
  <path fill-rule="evenodd" clip-rule="evenodd" d="M3.47001 12.53C3.32956 12.3894 3.25067 12.1988 3.25067 12C3.25067 11.8013 3.32956 11.6107 3.47001 11.47L9.47001 5.47003C9.53868 5.39634 9.62148 5.33724 9.71348 5.29625C9.80547 5.25526 9.90479 5.23322 10.0055 5.23144C10.1062 5.22966 10.2062 5.24819 10.2996 5.28591C10.393 5.32363 10.4778 5.37977 10.5491 5.45099C10.6203 5.52221 10.6764 5.60705 10.7141 5.70043C10.7519 5.79382 10.7704 5.89385 10.7686 5.99455C10.7668 6.09526 10.7448 6.19457 10.7038 6.28657C10.6628 6.37857 10.6037 6.46137 10.53 6.53003L5.81001 11.25L20 11.25C20.1989 11.25 20.3897 11.329 20.5303 11.4697C20.671 11.6104 20.75 11.8011 20.75 12C20.75 12.1989 20.671 12.3897 20.5303 12.5304C20.3897 12.671 20.1989 12.75 20 12.75L5.81001 12.75L10.53 17.47C10.6037 17.5387 10.6628 17.6215 10.7038 17.7135C10.7448 17.8055 10.7668 17.9048 10.7686 18.0055C10.7704 18.1062 10.7519 18.2062 10.7141 18.2996C10.6764 18.393 10.6203 18.4779 10.549 18.5491C10.4778 18.6203 10.393 18.6764 10.2996 18.7142C10.2062 18.7519 10.1062 18.7704 10.0055 18.7686C9.90479 18.7668 9.80547 18.7448 9.71347 18.7038C9.62147 18.6628 9.53867 18.6037 9.47001 18.53L3.47001 12.53Z" fill="#005B68"/>
</svg>