<svg xmlns="http://www.w3.org/2000/svg" width="33" height="34" viewBox="0 0 33 34" fill="none">
  <path d="M29.0682 24.6054C28.0447 23.5742 25.5659 22.0692 24.3632 21.4627C22.797 20.6738 22.668 20.6094 21.437 21.5239C20.6159 22.1343 20.0699 22.6796 19.1089 22.4746C18.1479 22.2697 16.0597 21.114 14.2311 19.2913C12.4026 17.4686 11.1799 15.3197 10.9743 14.3619C10.7687 13.4041 11.323 12.8647 11.9276 12.0416C12.7796 10.8814 12.7152 10.6881 11.9869 9.12187C11.419 7.90371 9.87023 5.44805 8.83511 4.42969C7.72781 3.33592 7.72781 3.52928 7.01431 3.82576C6.43342 4.07011 5.87615 4.36719 5.34949 4.71328C4.31824 5.39842 3.7459 5.96754 3.34564 6.82283C2.94539 7.67812 2.76556 9.68326 4.83258 13.4383C6.89959 17.1933 8.34978 19.1134 11.3514 22.1066C14.3529 25.0998 16.661 26.7092 20.0351 28.6015C24.2091 30.9393 25.8101 30.4836 26.668 30.084C27.5259 29.6844 28.0976 29.1172 28.784 28.0859C29.131 27.5601 29.4287 27.0035 29.6735 26.423C29.9706 25.7121 30.1639 25.7121 29.0682 24.6054Z" stroke="#005B68" stroke-width="2.5" stroke-miterlimit="10"/>
</svg>