<svg xmlns="http://www.w3.org/2000/svg" width="61" height="60" viewBox="0 0 61 60" fill="none">
  <mask id="mask0_141_1438" style="mask-type:luminance" maskUnits="userSpaceOnUse" x="0" y="0" width="61" height="60">
    <path d="M0.5 0H60.5V60H0.5V0Z" fill="white"/>
  </mask>
  <g mask="url(#mask0_141_1438)">
    <path d="M30.5 60C22.4864 60 14.9524 56.8791 9.2861 51.2129C3.61984 45.5466 0.5 38.0136 0.5 30C0.5 21.9864 3.61984 14.4534 9.2861 8.78713C9.65223 8.421 10.2463 8.421 10.6124 8.78713C10.9785 9.15326 10.9785 9.74629 10.6124 10.1124C5.29992 15.4249 2.375 22.4876 2.375 30C2.375 45.5085 14.9915 58.125 30.5 58.125C46.0074 58.125 58.625 45.5085 58.625 30C58.625 14.4915 46.0074 1.875 30.5 1.875C29.9823 1.875 29.5625 1.45524 29.5625 0.9375C29.5625 0.419761 29.9823 0 30.5 0C38.5126 0 46.0466 3.12087 51.7129 8.78713C57.3791 14.4534 60.5 21.9864 60.5 30C60.5 38.0136 57.3791 45.5466 51.7129 51.2129C46.0466 56.8791 38.5126 60 30.5 60Z" fill="#005B68"/>
  </g>
  <path d="M9.87466 14.9999C9.86435 14.9999 9.85506 14.9999 9.84475 14.9999C9.32701 14.9834 8.92066 14.5502 8.93716 14.0325L9.04958 10.5187L5.36558 11.2324C4.85712 11.3314 4.36517 10.9993 4.26616 10.4908C4.16818 9.98238 4.50028 9.49042 5.00873 9.39244L9.84578 8.45494C10.1253 8.40028 10.4151 8.4766 10.6317 8.66121C10.8493 8.84583 10.97 9.12017 10.9607 9.40482L10.8111 14.0923C10.7946 14.5997 10.379 14.9999 9.87466 14.9999Z" fill="#005B68"/>
  <path d="M30.5 52.4999C18.0928 52.4999 8 42.406 8 29.9999C8 17.5937 18.0928 7.49988 30.5 7.49988C42.9061 7.49988 53 17.5937 53 29.9999C53 42.406 42.9061 52.4999 30.5 52.4999ZM30.5 9.37488C19.1273 9.37488 9.875 18.6271 9.875 29.9999C9.875 41.3726 19.1273 50.6249 30.5 50.6249C41.8727 50.6249 51.125 41.3726 51.125 29.9999C51.125 18.6271 41.8727 9.37488 30.5 9.37488Z" fill="#005B68"/>
  <path d="M30.5 12.1874C29.9823 12.1874 29.5625 11.7676 29.5625 11.2499V8.43738C29.5625 7.91964 29.9823 7.49988 30.5 7.49988C31.0177 7.49988 31.4375 7.91964 31.4375 8.43738V11.2499C31.4375 11.7676 31.0177 12.1874 30.5 12.1874Z" fill="#005B68"/>
  <path d="M21.1254 14.6998C20.8016 14.6998 20.487 14.5316 20.3127 14.2305L18.907 11.7955C18.6481 11.3468 18.8018 10.7734 19.2504 10.5145C19.698 10.2557 20.2715 10.4093 20.5303 10.858L21.9371 13.293C22.196 13.7416 22.0423 14.3151 21.5937 14.5739C21.4462 14.6585 21.2853 14.6998 21.1254 14.6998Z" fill="#005B68"/>
  <path d="M14.2612 21.5626C14.1013 21.5626 13.9404 21.5223 13.7929 21.4367L11.3569 20.031C10.9082 19.7721 10.7546 19.1987 11.0134 18.7501C11.2723 18.3014 11.8457 18.1477 12.2944 18.4066L14.7304 19.8134C15.1791 20.0722 15.3327 20.6457 15.0739 21.0933C14.8996 21.3944 14.585 21.5626 14.2612 21.5626Z" fill="#005B68"/>
  <path d="M11.75 30.9375H8.9375C8.41976 30.9375 8 30.5177 8 30C8 29.4823 8.41976 29.0625 8.9375 29.0625H11.75C12.2677 29.0625 12.6875 29.4823 12.6875 30C12.6875 30.5177 12.2677 30.9375 11.75 30.9375Z" fill="#005B68"/>
  <path d="M11.8272 41.7193C11.5023 41.7193 11.1877 41.5512 11.0134 41.2501C10.7546 40.8014 10.9082 40.228 11.3569 39.9691L13.7929 38.5634C14.2416 38.3045 14.815 38.4582 15.0739 38.9058C15.3327 39.3544 15.1791 39.9279 14.7304 40.1867L12.2944 41.5935C12.1469 41.6781 11.986 41.7193 11.8272 41.7193Z" fill="#005B68"/>
  <path d="M19.7176 49.6111C19.5588 49.6111 19.3979 49.5709 19.2504 49.4853C18.8018 49.2264 18.6481 48.653 18.907 48.2054L20.3127 45.7693C20.5716 45.3207 21.145 45.167 21.5937 45.4259C22.0423 45.6848 22.196 46.2582 21.9371 46.7068L20.5303 49.1429C20.3571 49.443 20.0415 49.6111 19.7176 49.6111Z" fill="#005B68"/>
  <path d="M30.5 52.5C29.9823 52.5 29.5625 52.0802 29.5625 51.5625V48.75C29.5625 48.2323 29.9823 47.8125 30.5 47.8125C31.0177 47.8125 31.4375 48.2323 31.4375 48.75V51.5625C31.4375 52.0802 31.0177 52.5 30.5 52.5Z" fill="#005B68"/>
  <path d="M41.2817 49.6111C40.9579 49.6111 40.6423 49.443 40.469 49.1429L39.0623 46.7068C38.8034 46.2582 38.9571 45.6848 39.4057 45.4259C39.8543 45.167 40.4278 45.3207 40.6866 45.7693L42.0924 48.2054C42.3512 48.653 42.1976 49.2264 41.75 49.4853C41.6014 49.5709 41.4406 49.6111 41.2817 49.6111Z" fill="#005B68"/>
  <path d="M49.1732 41.7193C49.0144 41.7193 48.8525 41.6781 48.705 41.5935L46.27 40.1867C45.8213 39.9279 45.6676 39.3544 45.9265 38.9058C46.1854 38.4582 46.7588 38.3045 47.2075 38.5634L49.6425 39.9691C50.0911 40.228 50.2448 40.8014 49.9859 41.2501C49.8116 41.5512 49.4971 41.7193 49.1732 41.7193Z" fill="#005B68"/>
  <path d="M52.0625 30.9375H49.25C48.7323 30.9375 48.3125 30.5177 48.3125 30C48.3125 29.4823 48.7323 29.0625 49.25 29.0625H52.0625C52.5802 29.0625 53 29.4823 53 30C53 30.5177 52.5802 30.9375 52.0625 30.9375Z" fill="#005B68"/>
  <path d="M46.7393 21.5626C46.4154 21.5626 46.0998 21.3944 45.9265 21.0933C45.6677 20.6457 45.8213 20.0722 46.269 19.8134L48.705 18.4066C49.1537 18.1477 49.7271 18.3014 49.986 18.7501C50.2448 19.1987 50.0912 19.7721 49.6425 20.031L47.2065 21.4367C47.059 21.5223 46.8981 21.5626 46.7393 21.5626Z" fill="#005B68"/>
  <path d="M39.8739 14.6998C39.7151 14.6998 39.5532 14.6595 39.4057 14.5739C38.9571 14.3151 38.8034 13.7416 39.0623 13.293L40.469 10.858C40.7279 10.4093 41.3013 10.2557 41.75 10.5145C42.1976 10.7734 42.3512 11.3468 42.0924 11.7955L40.6866 14.2305C40.5123 14.5316 40.1978 14.6998 39.8739 14.6998Z" fill="#005B68"/>
  <path d="M22.0625 29.9999H18.3125C17.7948 29.9999 17.375 29.5801 17.375 29.0624C17.375 27.5484 18.2156 26.187 19.5697 25.5104L19.9658 25.3124C20.6805 24.9545 21.125 24.2367 21.125 23.4374C21.125 22.9207 20.7042 22.4999 20.1875 22.4999C19.6698 22.4999 19.25 22.9207 19.25 23.4374C19.25 23.9551 18.8302 24.3749 18.3125 24.3749C17.7948 24.3749 17.375 23.9551 17.375 23.4374C17.375 21.8862 18.6363 20.6249 20.1875 20.6249C21.7376 20.6249 23 21.8862 23 23.4374C23 24.9514 22.1584 26.3128 20.8042 26.9894L20.4082 27.1874C19.9915 27.3957 19.6677 27.7268 19.4686 28.1249H22.0625C22.5802 28.1249 23 28.5446 23 29.0624C23 29.5801 22.5802 29.9999 22.0625 29.9999Z" fill="#005B68"/>
  <path d="M30.5 26.2499H25.8125C25.2948 26.2499 24.875 25.8301 24.875 25.3124V21.5624C24.875 21.0446 25.2948 20.6249 25.8125 20.6249C26.3302 20.6249 26.75 21.0446 26.75 21.5624V24.3749H30.5C31.0177 24.3749 31.4375 24.7946 31.4375 25.3124C31.4375 25.8301 31.0177 26.2499 30.5 26.2499Z" fill="#005B68"/>
  <path d="M29.5625 29.9999C29.0448 29.9999 28.625 29.5801 28.625 29.0624V21.5624C28.625 21.0446 29.0448 20.6249 29.5625 20.6249C30.0802 20.6249 30.5 21.0446 30.5 21.5624V29.0624C30.5 29.5801 30.0802 29.9999 29.5625 29.9999Z" fill="#005B68"/>
  <path d="M24.4065 39.8432C24.1672 39.8432 23.9269 39.7525 23.7433 39.5689C23.3772 39.2028 23.3772 38.6097 23.7433 38.2436L38.2751 23.7119C38.6412 23.3457 39.2343 23.3457 39.6004 23.7119C39.9665 24.078 39.9665 24.672 39.6004 25.0382L25.0697 39.5689C24.8861 39.7525 24.6468 39.8432 24.4065 39.8432Z" fill="#005B68"/>
  <path d="M37.0645 43.125C36.9964 43.125 36.9284 43.1178 36.8603 43.1023C36.3539 42.9899 36.0362 42.4897 36.1476 41.9843L37.7689 34.6875H34.251C33.7332 34.6875 33.3135 34.2677 33.3135 33.75C33.3135 33.2323 33.7332 32.8125 34.251 32.8125H38.9385C39.2221 32.8125 39.4913 32.9414 39.6697 33.1632C39.8471 33.3849 39.9152 33.6757 39.8533 33.9532L37.9783 42.3907C37.8813 42.828 37.4936 43.125 37.0645 43.125Z" fill="#005B68"/>
  <path d="M39.875 39.375H36.125C35.6073 39.375 35.1875 38.9552 35.1875 38.4375C35.1875 37.9198 35.6073 37.5 36.125 37.5H39.875C40.3927 37.5 40.8125 37.9198 40.8125 38.4375C40.8125 38.9552 40.3927 39.375 39.875 39.375Z" fill="#005B68"/>
</svg>