<svg width="30" height="30" viewBox="0 0 30 30" fill="none" xmlns="http://www.w3.org/2000/svg">
<path fill-rule="evenodd" clip-rule="evenodd" d="M16.0269 3.69799C18.8129 3.83491 21.409 4.98378 23.3918 6.96793C25.5068 9.08425 26.6709 11.8974 26.6698 14.8891C26.6673 21.0627 21.6414 26.0858 15.4675 26.0858C13.1458 26.0858 11.3008 25.3725 10.1095 24.723L4.1709 26.28L5.7602 20.4778C4.77987 18.7798 4.26402 16.8537 4.26483 14.8802C4.26731 8.70677 9.2927 3.68414 15.4673 3.68414L16.0269 3.69799ZM10.3846 22.696L10.7246 22.8976C12.1542 23.7456 13.7929 24.1942 15.4637 24.1949H15.4674C20.5994 24.1949 24.7763 20.0199 24.7783 14.8885C24.7793 12.4018 23.8117 10.0636 22.0538 8.30457C20.2958 6.54541 17.9581 5.57607 15.4711 5.57526C10.3352 5.57526 6.15829 9.74974 6.15624 14.8809C6.15554 16.6394 6.64778 18.3519 7.57983 19.8336L7.80121 20.1857L6.8606 23.6199L10.3846 22.696ZM21.1111 17.5517C21.0412 17.4349 20.8546 17.3649 20.5747 17.2249C20.2948 17.0848 18.9186 16.408 18.662 16.3146C18.4055 16.2213 18.2188 16.1747 18.0323 16.4547C17.8457 16.7347 17.3093 17.3649 17.1459 17.5517C16.9827 17.7384 16.8194 17.7617 16.5395 17.6217C16.2596 17.4817 15.3577 17.1862 14.2886 16.2331C13.4564 15.4912 12.8947 14.5751 12.7314 14.295C12.5681 14.0149 12.714 13.8635 12.8541 13.724C12.98 13.5986 13.134 13.3972 13.274 13.2338C13.414 13.0705 13.4606 12.9538 13.5539 12.7671C13.6472 12.5804 13.6005 12.4171 13.5306 12.277C13.4606 12.1369 12.9008 10.7598 12.6676 10.1996C12.4403 9.65414 12.2095 9.72798 12.0377 9.71937C11.8747 9.71129 11.6879 9.70951 11.5013 9.70951C11.3147 9.70951 11.0114 9.77948 10.7549 10.0596C10.4983 10.3397 9.77519 11.0166 9.77519 12.3936C9.77519 13.7707 10.7782 15.1009 10.9182 15.2877C11.0581 15.4745 12.8919 18.3002 15.6998 19.5122C16.3676 19.8004 16.889 19.9725 17.2955 20.1015C17.9661 20.3144 18.5762 20.2844 19.0586 20.2123C19.5963 20.132 20.7146 19.5355 20.9479 18.8821C21.1811 18.2285 21.1811 17.6683 21.1111 17.5517Z" fill="#005B68"/>
</svg>
