<svg xmlns="http://www.w3.org/2000/svg" width="24" height="24" viewBox="0 0 24 24" fill="none">
  <path d="M21.2831 8.27657L15.3323 7.41173L12.6722 2.01876C12.5995 1.8711 12.48 1.75157 12.3323 1.67891C11.962 1.4961 11.512 1.64845 11.3268 2.01876L8.66668 7.41173L2.7159 8.27657C2.55184 8.30001 2.40184 8.37735 2.28699 8.49454C2.14815 8.63724 2.07165 8.82923 2.07428 9.02831C2.07692 9.22739 2.15849 9.41728 2.30106 9.55626L6.60653 13.7539L5.58934 19.6813C5.56549 19.8191 5.58074 19.961 5.63338 20.0906C5.68602 20.2203 5.77394 20.3326 5.88716 20.4148C6.00038 20.497 6.13437 20.5459 6.27395 20.5558C6.41352 20.5658 6.5531 20.5364 6.67684 20.4711L11.9995 17.6727L17.3222 20.4711C17.4675 20.5484 17.6362 20.5742 17.7979 20.5461C18.2057 20.4758 18.48 20.0891 18.4097 19.6813L17.3925 13.7539L21.6979 9.55626C21.8151 9.44142 21.8925 9.29142 21.9159 9.12735C21.9792 8.7172 21.6932 8.33751 21.2831 8.27657Z" fill="white"/>
</svg>