<svg width="30" height="30" viewBox="0 0 30 30" fill="none" xmlns="http://www.w3.org/2000/svg">
<path d="M27.5 3.75H2.5L12.5 15.575V23.75L17.5 26.25V15.575L27.5 3.75Z" stroke="#FACE8D" stroke-width="2" stroke-linecap="round" stroke-linejoin="round"/>
<circle cx="22.5" cy="7.5" r="7.5" fill="#FACE8D"/>
<path d="M21.7432 6.13184H20.4102C20.446 5.3571 20.6885 4.74837 21.1377 4.30566C21.5902 3.8597 22.1696 3.63672 22.876 3.63672C23.3122 3.63672 23.6963 3.72949 24.0283 3.91504C24.3636 4.09733 24.6305 4.36263 24.8291 4.71094C25.0309 5.05599 25.1318 5.40755 25.1318 5.76562C25.1318 6.19206 25.0098 6.65104 24.7656 7.14258C24.5247 7.63411 24.082 8.21517 23.4375 8.88574L22.6318 9.73535H25.1904V11H20.2148V10.3457L22.4365 8.08008C22.9736 7.53646 23.3301 7.10026 23.5059 6.77148C23.6849 6.43945 23.7744 6.13997 23.7744 5.87305C23.7744 5.59635 23.6816 5.36849 23.4961 5.18945C23.3138 5.00716 23.0778 4.91602 22.7881 4.91602C22.4951 4.91602 22.251 5.02507 22.0557 5.24316C21.8604 5.46126 21.7562 5.75749 21.7432 6.13184Z" fill="black"/>
</svg>
