<svg xmlns="http://www.w3.org/2000/svg" width="61" height="60" viewBox="0 0 61 60" fill="none">
  <mask id="mask0_141_1505" style="mask-type:luminance" maskUnits="userSpaceOnUse" x="0" y="25" width="43" height="35">
    <path d="M0.5 25.9417H42.7473V60H0.5V25.9417Z" fill="white"/>
  </mask>
  <g mask="url(#mask0_141_1505)">
    <path d="M1.50041 59.9999H5.5C6.0528 59.9999 6.50041 59.5523 6.50041 58.9995V56.0003H36.5004V58.9995C36.5004 59.5523 36.948 59.9999 37.5008 59.9999H41.5004C42.0522 59.9999 42.5008 59.5523 42.5008 58.9995V43.0001C42.5008 40.5857 40.7795 38.5664 38.5002 38.1012V28.9995C38.5002 27.3463 37.1543 26.0004 35.5 26.0004H7.50082C5.84653 26.0004 4.50062 27.3463 4.50062 28.9995V38.1012C2.22133 38.5664 0.5 40.5857 0.5 43.0001V58.9995C0.5 59.5523 0.948638 59.9999 1.50041 59.9999ZM40.5 58.0001H38.5002V54.9999C38.5002 54.4481 38.0526 53.9995 37.5008 53.9995H5.5C4.94822 53.9995 4.50062 54.4481 4.50062 54.9999V58.0001H2.50082V49.9999H40.5V58.0001ZM6.50041 28.9995C6.50041 28.4488 6.94905 28.0002 7.50082 28.0002H35.5C36.0518 28.0002 36.5004 28.4488 36.5004 28.9995V38.0001H34.5006V33.9995C34.5006 32.3463 33.1547 31.0004 31.5004 31.0004H25.5C23.8467 31.0004 22.5008 32.3463 22.5008 33.9995V38.0001H20.5V33.9995C20.5 32.3463 19.1541 31.0004 17.5008 31.0004H11.5004C9.84612 31.0004 8.5002 32.3463 8.5002 33.9995V38.0001H6.50041V28.9995ZM32.5008 38.0001H24.5006V33.9995C24.5006 33.4488 24.9492 33.0002 25.5 33.0002H31.5004C32.0511 33.0002 32.5008 33.4488 32.5008 33.9995V38.0001ZM18.5002 38.0001H10.5V33.9995C10.5 33.4488 10.9497 33.0002 11.5004 33.0002H17.5008C18.0516 33.0002 18.5002 33.4488 18.5002 33.9995V38.0001ZM2.50082 43.0001C2.50082 41.3459 3.84674 39.9999 5.5 39.9999H37.5008C39.1541 39.9999 40.5 41.3459 40.5 43.0001V48.0001H2.50082V43.0001Z" fill="#005B68"/>
  </g>
  <mask id="mask1_141_1505" style="mask-type:luminance" maskUnits="userSpaceOnUse" x="44" y="37" width="17" height="18">
    <path d="M44.3311 37.8228H60.4996V54.1924H44.3311V37.8228Z" fill="white"/>
  </mask>
  <g mask="url(#mask1_141_1505)">
    <path d="M59.501 38.0002H45.5004C44.9486 38.0002 44.501 38.4479 44.501 38.9996V53.9996H46.5008V48.0002H58.5006V53.9996H60.5003V38.9996C60.5003 38.4479 60.0527 38.0002 59.501 38.0002ZM46.5008 46.0004V40H58.5006V46.0004H46.5008Z" fill="#005B68"/>
  </g>
  <path d="M50.501 41.9999H54.5016V43.9997H50.501V41.9999Z" fill="#005B68"/>
  <path d="M56.5003 31.0004C56.8211 31.0004 57.1233 30.8457 57.311 30.5838C57.4997 30.3228 57.5502 29.9877 57.4492 29.6834L55.4494 23.683C55.3122 23.2746 54.9316 23.0002 54.5005 23.0002H50.4999C50.0688 23.0002 49.6882 23.2746 49.5511 23.684L47.5513 29.6844C47.4492 29.9887 47.5018 30.3239 47.6895 30.5848C47.8772 30.8457 48.1794 31.0004 48.5001 31.0004H51.5003V33.9996H49.5005V36.0004H55.4999V33.9996H53.5001V31.0004H56.5003ZM51.2208 25H53.7806L55.1131 28.9996H49.8873L51.2208 25Z" fill="#005B68"/>
  <mask id="mask2_141_1505" style="mask-type:luminance" maskUnits="userSpaceOnUse" x="0" y="0" width="61" height="27">
    <path d="M0.5 0H60.5V26.2056H0.5V0Z" fill="white"/>
  </mask>
  <g mask="url(#mask2_141_1505)">
    <path d="M59.909 13.0868L30.9094 0.0866336C30.6485 -0.0288779 30.3515 -0.0288779 30.0916 0.0866336L1.09097 13.0868C0.731023 13.2487 0.5 13.6056 0.5 13.9996V26.0004H2.50082V14.6473L30.5 2.09571L58.5002 14.6483V26.0004H60.5V13.9996C60.5 13.6056 60.2689 13.2487 59.909 13.0868Z" fill="#005B68"/>
  </g>
  <path d="M23.499 15C23.499 18.8604 26.6395 21.9998 30.4988 21.9998C34.3592 21.9998 37.4996 18.8604 37.4996 15C37.4996 14.6081 37.4666 14.2162 37.4027 13.8336L35.4297 14.1657C35.4761 14.439 35.4988 14.7195 35.4988 15C35.4988 17.7568 33.2566 20 30.4988 20C27.742 20 25.4988 17.7568 25.4988 15C25.4988 12.2432 27.742 10 30.4988 10C31.0712 10 31.6333 10.096 32.1675 10.2847L32.8328 8.39938C32.084 8.13432 31.2991 8.00024 30.4988 8.00024C26.6395 8.00024 23.499 11.1397 23.499 15Z" fill="#005B68"/>
  <path d="M29.2079 13.2931L27.7939 14.7071L29.7937 16.7069C29.9887 16.9018 30.2444 16.9998 30.5002 16.9998C30.757 16.9998 31.0128 16.9018 31.2077 16.7069L38.2075 9.70707L36.7935 8.29309L30.5002 14.5864L29.2079 13.2931Z" fill="#005B68"/>
</svg>