<svg xmlns="http://www.w3.org/2000/svg" width="28" height="28" viewBox="0 0 28 28" fill="none">
  <path d="M24.6641 20.4532C23.7957 19.5782 21.6924 18.3013 20.6719 17.7867C19.343 17.1173 19.2337 17.0626 18.1891 17.8386C17.4924 18.3565 17.0292 18.8192 16.2138 18.6452C15.3984 18.4713 13.6266 17.4908 12.0751 15.9442C10.5236 14.3977 9.48616 12.5744 9.31171 11.7617C9.13726 10.9491 9.60757 10.4913 10.1205 9.79298C10.8435 8.80861 10.7888 8.64455 10.1709 7.31564C9.68905 6.28205 8.37491 4.19845 7.49663 3.33439C6.5571 2.40634 6.5571 2.57041 5.95171 2.82197C5.45883 3.02929 4.98599 3.28137 4.53913 3.57501C3.66413 4.15634 3.17851 4.63923 2.8389 5.36494C2.49929 6.09064 2.34671 7.79197 4.10054 10.9781C5.85437 14.1642 7.08483 15.7933 9.63163 18.333C12.1784 20.8727 14.1368 22.2382 16.9997 23.8438C20.5412 25.8274 21.8997 25.4407 22.6276 25.1017C23.3555 24.7626 23.8405 24.2813 24.423 23.4063C24.7174 22.9602 24.97 22.4879 25.1776 21.9954C25.4298 21.3922 25.5938 21.3922 24.6641 20.4532Z" stroke="white" stroke-width="2.5" stroke-miterlimit="10"/>
</svg>