<svg xmlns="http://www.w3.org/2000/svg" width="55" height="60" viewBox="0 0 55 60" fill="none">
  <mask id="mask0_141_1526" style="mask-type:luminance" maskUnits="userSpaceOnUse" x="0" y="0" width="55" height="60">
    <path d="M0.5 0H54.5V60H0.5V0Z" fill="white"/>
  </mask>
  <g mask="url(#mask0_141_1526)">
    <path d="M51.1373 35.9911C50.0753 35.6796 48.9593 35.7962 47.9971 36.317L45.4472 37.6773C45.417 37.6165 45.3858 37.5567 45.3526 37.4938C44.2636 35.5053 41.749 34.7689 39.7498 35.8518L35.2775 38.2683C32.1841 37.2761 29.0917 36.2871 25.9962 35.297C22.8062 34.277 19.7003 34.5657 16.7597 36.1571L9.01316 40.3434L8.18707 38.9201C7.95327 38.5107 7.56984 38.2178 7.1116 38.095C6.65024 37.9723 6.17122 38.0342 5.76077 38.2704L1.62619 40.6384C0.776203 41.121 0.481098 42.1998 0.968437 43.0435C0.968437 43.0455 0.969476 43.0476 0.969476 43.0476L10.2861 59.1243C10.6154 59.6844 11.2129 59.9999 11.825 59.9999C12.1253 59.9999 12.4287 59.9247 12.7051 59.7648L16.849 57.3958C17.6948 56.909 17.9868 55.8281 17.5016 54.9876L16.7098 53.6241L17.0745 53.4261C18.7973 52.4938 20.6178 52.3256 22.4861 52.9228L26.4971 54.2037C27.4239 54.5008 28.3415 54.6493 29.2486 54.6493C30.6639 54.6493 32.049 54.2862 33.3853 53.5633L51.9405 43.5313C53.9356 42.4484 54.6785 39.9515 53.5927 37.963C53.07 37.0028 52.1961 36.3015 51.1373 35.9911ZM40.6507 37.4958C41.7376 36.9079 43.105 37.3091 43.6983 38.391C43.7274 38.4478 43.7576 38.5065 43.7836 38.5653L39.4162 40.8921C39.0453 40.1381 38.4415 39.5142 37.6716 39.1058L40.6507 37.4958ZM11.8613 58.0878L2.65905 42.2091L6.60972 39.9473L14.5827 53.7025C14.5848 53.7046 14.5848 53.7066 14.5869 53.7077C14.589 53.7118 14.5921 53.7149 14.5942 53.7211L15.8141 55.8261L11.8613 58.0878ZM51.0427 41.8863L32.4896 51.9172C30.7667 52.8475 28.9462 53.0177 27.0779 52.4185L23.066 51.1375C20.6895 50.3774 18.3713 50.593 16.1767 51.778L15.7715 51.9977L9.9577 41.9678L17.6637 37.8001C20.1326 36.4655 22.7418 36.2211 25.4237 37.0781C29.0792 38.2487 32.7327 39.4162 36.3904 40.5899C37.2403 40.8611 37.8108 41.5274 37.9199 42.37C37.9199 42.3772 37.9199 42.3834 37.922 42.3865C37.922 42.3906 37.923 42.3937 37.923 42.3958C37.9729 42.7341 37.9459 43.0713 37.8409 43.3972C37.6581 43.9634 37.2622 44.4244 36.7239 44.6978C36.1877 44.97 35.5798 45.0216 35.0104 44.838C31.9087 43.8459 28.806 42.8537 25.7011 41.8595C25.2044 41.6996 24.6734 41.9709 24.5145 42.4638C24.3544 42.9558 24.6267 43.4839 25.1223 43.6427C28.2272 44.6369 31.331 45.6291 34.4316 46.6223C35.4801 46.9564 36.5982 46.8667 37.5822 46.3655C38.5683 45.8642 39.2967 45.0144 39.6334 43.9727C39.755 43.5932 39.8215 43.1961 39.8287 42.799L45.1562 39.9587C45.2809 39.9205 45.3952 39.8597 45.4908 39.7792L48.8928 37.963C49.4176 37.6804 50.0244 37.6165 50.6021 37.7867C51.1788 37.9568 51.6547 38.3364 51.9405 38.8562C52.5297 39.9381 52.1265 41.2974 51.0427 41.8863ZM30.7906 24.2429V28.2487H28.1264C27.745 28.2487 27.4 28.4777 27.2567 28.8273C27.1091 29.1769 27.1922 29.5822 27.4593 29.8473L33.5765 35.9271C33.7542 36.1025 33.9931 36.2015 34.2436 36.2015C34.493 36.2015 34.7319 36.1025 34.9086 35.9271L41.0247 29.8473C41.2939 29.5802 41.3749 29.1769 41.2274 28.8273C41.0819 28.4777 40.739 28.2487 40.3576 28.2487H37.6934V24.2388C40.5 23.4313 42.9699 21.6573 44.6159 19.1965C45.3661 19.4585 46.1693 19.6008 47.0058 19.6008C51.0209 19.6008 54.2878 16.3541 54.2878 12.3648C54.2878 8.3766 51.0209 5.1299 47.0058 5.1299C46.1673 5.1299 45.364 5.27325 44.6138 5.53315C42.3184 2.10184 38.4176 0.000976562 34.2436 0.000976562C27.3834 0.000976562 21.8024 5.54759 21.8024 12.3648C21.8003 17.9919 25.6034 22.7526 30.7906 24.2429ZM36.7499 30.1227H38.082L34.2415 33.9397L30.402 30.1227H31.7321C32.2537 30.1227 32.6756 29.7029 32.6756 29.1862V24.6307C33.1899 24.6947 33.7115 24.7277 34.2415 24.7277C34.7694 24.7277 35.292 24.6936 35.8064 24.6276V29.1852C35.8064 29.7029 36.2303 30.1227 36.7499 30.1227ZM52.4008 12.3648C52.4008 15.3197 49.9818 17.7258 47.0058 17.7258C44.0298 17.7258 41.6087 15.3197 41.6087 12.3648C41.6087 9.40795 44.0298 7.00283 47.0058 7.00283C49.9818 7.00283 52.4008 9.40795 52.4008 12.3648ZM34.2436 1.87288C37.7058 1.87288 40.9489 3.5808 42.9138 6.38299C40.9894 7.68662 39.7217 9.88031 39.7217 12.3648C39.7217 14.8473 40.9894 17.0431 42.9149 18.3467C40.951 21.1468 37.71 22.8547 34.2436 22.8547C28.4225 22.8547 23.6853 18.1487 23.6853 12.3648C23.6853 6.57998 28.4225 1.87288 34.2436 1.87288ZM30.562 9.69363C30.562 8.01046 31.7289 6.59339 33.3001 6.19631V4.63072C33.3001 4.11195 33.724 3.69425 34.2436 3.69425C34.7631 3.69425 35.185 4.11401 35.185 4.63072V6.10659C36.1898 6.21075 37.124 6.73262 37.7339 7.55048C38.0436 7.96612 37.9563 8.55192 37.5406 8.86133C37.1219 9.16971 36.5306 9.08307 36.221 8.66744C35.8853 8.21777 35.3731 7.96096 34.8182 7.96096H34.1937C33.2325 7.96096 32.449 8.73757 32.449 9.69466C32.449 10.6507 33.2325 11.4294 34.1937 11.4294H34.5033C34.5792 11.4294 34.653 11.4377 34.7226 11.4562C36.5213 11.6687 37.9199 13.194 37.9199 15.036C37.9199 16.7202 36.7551 18.1394 35.185 18.5375V20.099C35.185 20.6167 34.7631 21.0365 34.2436 21.0365C33.724 21.0365 33.3001 20.6167 33.3001 20.099V18.6272C32.2963 18.522 31.3621 17.9991 30.748 17.1802C30.4384 16.7646 30.5257 16.1788 30.9434 15.8714C31.3621 15.562 31.9513 15.6497 32.263 16.0633C32.5997 16.516 33.112 16.7759 33.6669 16.7759H34.2903C35.2515 16.7759 36.035 15.9952 36.035 15.036C36.035 14.08 35.2515 13.3023 34.2903 13.3023H33.9786C33.9027 13.3023 33.829 13.2931 33.7593 13.2766C31.9607 13.06 30.562 11.5367 30.562 9.69363ZM43.4843 12.766C43.1175 12.3999 43.1165 11.8058 43.4843 11.4397C43.8511 11.0756 44.4486 11.0736 44.8164 11.4397L46.2296 12.8403L49.191 9.90197C49.5578 9.53584 50.1553 9.53584 50.5232 9.90197C50.892 10.2681 50.892 10.8611 50.5211 11.2262L46.8957 14.8277C46.7107 15.0103 46.4696 15.102 46.2286 15.102C45.9885 15.102 45.7454 15.0103 45.5615 14.8277L43.4843 12.766Z" fill="#005B68"/>
  </g>
</svg>