<svg xmlns="http://www.w3.org/2000/svg" width="28" height="28" viewBox="0 0 28 28" fill="none">
  <path d="M9.8 19.026L14 14.826L18.2 19.026L19.026 18.2L14.826 14L19.026 9.8L18.2 8.974L14 13.174L9.8 8.974L8.974 9.8L13.174 14L8.974 18.2L9.8 19.026ZM14.0035 24.5C12.5522 24.5 11.1872 24.2247 9.9085 23.674C8.63061 23.1226 7.51878 22.3743 6.573 21.4293C5.62722 20.4843 4.87861 19.3737 4.32717 18.0973C3.77572 16.821 3.5 15.4564 3.5 14.0035C3.5 12.5506 3.77572 11.1856 4.32717 9.9085C4.87783 8.63061 5.62489 7.51878 6.56833 6.573C7.51178 5.62722 8.62283 4.87861 9.9015 4.32717C11.1802 3.77572 12.5452 3.5 13.9965 3.5C15.4478 3.5 16.8128 3.77572 18.0915 4.32717C19.3694 4.87783 20.4812 5.62528 21.427 6.5695C22.3728 7.51372 23.1214 8.62478 23.6728 9.90267C24.2243 11.1806 24.5 12.5452 24.5 13.9965C24.5 15.4478 24.2247 16.8128 23.674 18.0915C23.1233 19.3702 22.3751 20.482 21.4293 21.427C20.4836 22.372 19.3729 23.1206 18.0973 23.6728C16.8218 24.2251 15.4572 24.5008 14.0035 24.5ZM14 23.3333C16.6056 23.3333 18.8125 22.4292 20.6208 20.6208C22.4292 18.8125 23.3333 16.6056 23.3333 14C23.3333 11.3944 22.4292 9.1875 20.6208 7.37917C18.8125 5.57083 16.6056 4.66667 14 4.66667C11.3944 4.66667 9.1875 5.57083 7.37917 7.37917C5.57083 9.1875 4.66667 11.3944 4.66667 14C4.66667 16.6056 5.57083 18.8125 7.37917 20.6208C9.1875 22.4292 11.3944 23.3333 14 23.3333Z" fill="white"/>
</svg>