<svg xmlns="http://www.w3.org/2000/svg" width="30" height="30" viewBox="0 0 30 30" fill="none">
  <path d="M15 3.75C21.1875 3.75 26.25 8.8125 26.25 15C26.25 20.5625 22.1875 25.1875 16.875 26.125L16.8105 26.0732C16.8319 26.0691 16.8536 26.0668 16.875 26.0625V18.125H19.375L19.875 15H16.875V12.8125C16.875 11.9375 17.1875 11.25 18.5625 11.25H20V8.375C19.1875 8.25 18.3125 8.125 17.5 8.125C14.9375 8.125 13.125 9.6875 13.125 12.5V15H10.3125V18.125H13.125V26.0625C13.1461 26.0667 13.1674 26.0692 13.1885 26.0732L13.125 26.125C7.8125 25.1875 3.75 20.5625 3.75 15C3.75 8.8125 8.8125 3.75 15 3.75Z" fill="#005B68"/>
</svg>