<svg xmlns="http://www.w3.org/2000/svg" width="24" height="24" viewBox="0 0 24 24" fill="none">
  <path fill-rule="evenodd" clip-rule="evenodd" d="M21.0001 19.9999C21.255 20.0002 21.5001 20.0978 21.6855 20.2728C21.8708 20.4478 21.9823 20.6869 21.9973 20.9413C22.0122 21.1958 21.9294 21.4463 21.7658 21.6418C21.6022 21.8372 21.3702 21.9628 21.1171 21.9929L21.0001 21.9999H3.00009C2.74521 21.9997 2.50006 21.9021 2.31472 21.7271C2.12938 21.5521 2.01785 21.313 2.00292 21.0586C1.98798 20.8041 2.07076 20.5536 2.23435 20.3581C2.39794 20.1627 2.62999 20.0371 2.88309 20.0069L3.00009 19.9999H21.0001ZM8.10309 3.20495C8.08055 3.0489 8.09485 2.88975 8.14485 2.74023C8.19485 2.59071 8.27916 2.45497 8.39103 2.34387C8.5029 2.23278 8.63923 2.14942 8.78909 2.10046C8.93896 2.05151 9.09821 2.03832 9.25409 2.06195L9.36409 2.08595L12.1241 2.82495C12.4701 2.91795 12.7581 3.15495 12.9171 3.47095L12.9701 3.59395L15.7801 11.0949L19.4451 12.4119C20.0847 12.6417 20.6545 13.0322 21.0995 13.5459C21.5445 14.0595 21.8498 14.6791 21.9861 15.3449C22.1241 16.0189 21.9521 16.7079 21.4221 17.1729C21.0201 17.5267 20.5418 17.7826 20.0245 17.9207C19.5071 18.0588 18.9649 18.0753 18.4401 17.9689L18.2301 17.9189L3.15309 13.8789C2.96069 13.8275 2.78586 13.7248 2.64726 13.5818C2.50865 13.4388 2.41148 13.2609 2.36609 13.0669L2.34609 12.9469L1.71709 7.68195C1.69868 7.52784 1.71604 7.37157 1.76781 7.22526C1.81958 7.07895 1.90437 6.94654 2.01561 6.8383C2.12684 6.73007 2.26152 6.64893 2.40919 6.60117C2.55686 6.55342 2.71354 6.54034 2.86709 6.56295L2.98209 6.58695L5.25209 7.19595C5.61209 7.29195 5.90709 7.54195 6.06209 7.87395L6.11309 8.00295L6.45309 9.00695L8.99509 9.39395L8.10309 3.20495ZM10.2971 4.40595L11.1651 10.4299C11.1861 10.5762 11.1748 10.7253 11.1319 10.8666C11.089 11.008 11.0156 11.1383 10.917 11.2482C10.8183 11.3582 10.6966 11.4451 10.5607 11.503C10.4247 11.5608 10.2777 11.5881 10.1301 11.5829L10.0131 11.5729L5.55709 10.8929C5.39483 10.8684 5.24102 10.8046 5.10894 10.7072C4.97687 10.6098 4.87051 10.4817 4.79909 10.3339L4.75209 10.2189L4.34809 9.02395L3.87609 8.89695L4.25909 12.1059L18.7471 15.9879C19.1911 16.1069 19.6631 16.0119 20.0241 15.7349C19.9607 15.4336 19.8271 15.1514 19.6342 14.9113C19.4414 14.6712 19.1947 14.4799 18.9141 14.3529L18.7691 14.2939L14.6731 12.8219C14.4347 12.7376 14.2371 12.5661 14.1201 12.3419L14.0691 12.2259L11.2331 4.65595L10.2971 4.40595Z" fill="#005B68"/>
</svg>