<svg width="30" height="30" viewBox="0 0 30 30" fill="none" xmlns="http://www.w3.org/2000/svg">
<path d="M15 3.75003C12.6794 3.75003 10.4538 4.6719 8.81282 6.31284C7.17187 7.95379 6.25 10.1794 6.25 12.5C6.25 16.0775 8.4775 19.5288 10.9225 22.2025C12.1727 23.5646 13.5368 24.8174 15 25.9475C15.2183 25.78 15.4746 25.5759 15.7687 25.335C16.9435 24.3704 18.0491 23.3245 19.0775 22.205C21.5225 19.5288 23.75 16.0788 23.75 12.5C23.75 10.1794 22.8281 7.95379 21.1872 6.31284C19.5462 4.6719 17.3206 3.75003 15 3.75003ZM15 29.0175L14.2912 28.53L14.2875 28.5275L14.28 28.5213L14.255 28.5038L14.1613 28.4375L13.8237 28.1913C12.1136 26.906 10.5248 25.4667 9.0775 23.8913C6.5225 21.0938 3.75 17.045 3.75 12.4988C3.75 9.51509 4.93526 6.65361 7.04505 4.54383C9.15483 2.43404 12.0163 1.24878 15 1.24878C17.9837 1.24878 20.8452 2.43404 22.955 4.54383C25.0647 6.65361 26.25 9.51509 26.25 12.4988C26.25 17.045 23.4775 21.095 20.9225 23.8888C19.4756 25.4641 17.8872 26.9035 16.1775 28.1888C16.0351 28.2952 15.8913 28.3998 15.7463 28.5025L15.72 28.52L15.7125 28.5263L15.71 28.5275L15 29.0175ZM15 10C14.337 10 13.7011 10.2634 13.2322 10.7323C12.7634 11.2011 12.5 11.837 12.5 12.5C12.5 13.1631 12.7634 13.799 13.2322 14.2678C13.7011 14.7366 14.337 15 15 15C15.663 15 16.2989 14.7366 16.7678 14.2678C17.2366 13.799 17.5 13.1631 17.5 12.5C17.5 11.837 17.2366 11.2011 16.7678 10.7323C16.2989 10.2634 15.663 10 15 10ZM10 12.5C10 11.1739 10.5268 9.90218 11.4645 8.9645C12.4021 8.02681 13.6739 7.50003 15 7.50003C16.3261 7.50003 17.5979 8.02681 18.5355 8.9645C19.4732 9.90218 20 11.1739 20 12.5C20 13.8261 19.4732 15.0979 18.5355 16.0356C17.5979 16.9732 16.3261 17.5 15 17.5C13.6739 17.5 12.4021 16.9732 11.4645 16.0356C10.5268 15.0979 10 13.8261 10 12.5Z" fill="#005B68"/>
</svg>
