<svg xmlns="http://www.w3.org/2000/svg" width="33" height="33" viewBox="0 0 33 33" fill="none">
  <path d="M5.5 27.5C4.74375 27.5 4.09658 27.231 3.5585 26.6929C3.02042 26.1548 2.75092 25.5072 2.75 24.75V8.25C2.75 7.49375 3.0195 6.84658 3.5585 6.3085C4.0975 5.77042 4.74467 5.50092 5.5 5.5H27.5C28.2563 5.5 28.9039 5.7695 29.4429 6.3085C29.9819 6.8475 30.2509 7.49467 30.25 8.25V24.75C30.25 25.5063 29.981 26.1539 29.4429 26.6929C28.9048 27.2319 28.2572 27.5009 27.5 27.5H5.5ZM27.5 11L17.2219 17.4281C17.1073 17.4969 16.9872 17.5487 16.8616 17.5835C16.736 17.6183 16.6155 17.6353 16.5 17.6344C16.3845 17.6335 16.2644 17.6165 16.1397 17.5835C16.0151 17.5505 15.8945 17.4987 15.7781 17.4281L5.5 11V24.75H27.5V11ZM16.5 15.125L27.5 8.25H5.5L16.5 15.125ZM5.5 11.3438V9.31563V9.35V9.3335V11.3438Z" fill="#D4B357"/>
</svg>