<svg xmlns="http://www.w3.org/2000/svg" width="24" height="24" viewBox="0 0 24 24" fill="none">
  <path fill-rule="evenodd" clip-rule="evenodd" d="M20.53 11.47C20.6704 11.6106 20.7493 11.8012 20.7493 12C20.7493 12.1987 20.6704 12.3893 20.53 12.53L14.53 18.53C14.4613 18.6037 14.3785 18.6628 14.2865 18.7038C14.1945 18.7447 14.0952 18.7668 13.9945 18.7686C13.8938 18.7703 13.7938 18.7518 13.7004 18.7141C13.607 18.6764 13.5222 18.6202 13.451 18.549C13.3797 18.4778 13.3236 18.393 13.2859 18.2996C13.2481 18.2062 13.2296 18.1062 13.2314 18.0054C13.2332 17.9047 13.2552 17.8054 13.2962 17.7134C13.3372 17.6214 13.3963 17.5386 13.47 17.47L18.19 12.75L3.99999 12.75C3.80108 12.75 3.61031 12.671 3.46966 12.5303C3.32901 12.3896 3.24999 12.1989 3.24999 12C3.24999 11.8011 3.32901 11.6103 3.46966 11.4696C3.61031 11.329 3.80108 11.25 3.99999 11.25L18.19 11.25L13.47 6.52997C13.3963 6.46131 13.3372 6.37851 13.2962 6.28651C13.2552 6.19451 13.2332 6.0952 13.2314 5.99449C13.2296 5.89379 13.2481 5.79376 13.2859 5.70037C13.3236 5.60698 13.3797 5.52215 13.451 5.45093C13.5222 5.37971 13.607 5.32357 13.7004 5.28585C13.7938 5.24813 13.8938 5.2296 13.9945 5.23138C14.0952 5.23316 14.1945 5.2552 14.2865 5.29619C14.3785 5.33718 14.4613 5.39628 14.53 5.46997L20.53 11.47Z" fill="#005B68"/>
</svg>