<svg xmlns="http://www.w3.org/2000/svg" width="57" height="60" viewBox="0 0 57 60" fill="none">
  <mask id="mask0_141_1533" style="mask-type:luminance" maskUnits="userSpaceOnUse" x="13" y="0" width="44" height="60">
    <path d="M13.998 0H56.4998V60H13.998V0Z" fill="white"/>
  </mask>
  <g mask="url(#mask0_141_1533)">
    <path d="M52.8583 59.9875H17.9006C16.0058 59.9875 14.4471 58.5682 14.2733 56.6868C14.263 56.5734 14.2578 56.4599 14.2578 56.3506V56.2402C14.2578 55.8524 14.5733 55.5378 14.9622 55.5378C15.351 55.5378 15.6665 55.8524 15.6665 56.2402V56.3506C15.6665 56.4166 15.6696 56.4867 15.6768 56.5579C15.7823 57.7121 16.7391 58.5816 17.9006 58.5816H52.8583C54.0901 58.5816 55.0923 57.5811 55.0923 56.3506V3.642C55.0923 2.4125 54.0901 1.41198 52.8583 1.41198H17.9006C16.6687 1.41198 15.6665 2.4125 15.6665 3.642V34.6167C15.6665 35.0045 15.351 35.3202 14.9622 35.3202C14.5733 35.3202 14.2578 35.0045 14.2578 34.6167V3.642C14.2578 1.63684 15.892 0.00610352 17.9006 0.00610352H52.8583C54.8669 0.00610352 56.501 1.63684 56.501 3.642V56.3506C56.501 58.3558 54.8669 59.9875 52.8583 59.9875Z" fill="#005B68"/>
  </g>
  <mask id="mask1_141_1533" style="mask-type:luminance" maskUnits="userSpaceOnUse" x="13" y="6" width="44" height="2">
    <path d="M13.998 6.07288H56.4998V7.92105H13.998V6.07288Z" fill="white"/>
  </mask>
  <g mask="url(#mask1_141_1533)">
    <path d="M55.7967 7.67166H14.9612C14.5723 7.67166 14.2568 7.3571 14.2568 6.96932C14.2568 6.58153 14.5723 6.26697 14.9612 6.26697H55.7967C56.1856 6.26697 56.5011 6.58153 56.5011 6.96932C56.5011 7.3571 56.1856 7.67166 55.7967 7.67166Z" fill="#005B68"/>
  </g>
  <mask id="mask2_141_1533" style="mask-type:luminance" maskUnits="userSpaceOnUse" x="35" y="52" width="22" height="2">
    <path d="M35.1807 52.2825H56.5003V53.8666H35.1807V52.2825Z" fill="white"/>
  </mask>
  <g mask="url(#mask2_141_1533)">
    <path d="M55.7973 53.7264H36.1428C35.7539 53.7264 35.4385 53.4118 35.4385 53.023C35.4385 52.6352 35.7539 52.3207 36.1428 52.3207H55.7973C56.1862 52.3207 56.5017 52.6352 56.5017 53.023C56.5017 53.4118 56.1862 53.7264 55.7973 53.7264Z" fill="#005B68"/>
  </g>
  <path d="M33.1465 27.4122C32.9386 27.4122 32.74 27.3204 32.6045 27.1584C32.4463 26.9686 32.3997 26.7087 32.4825 26.4756L34.6028 20.4756L24.0665 22.784C23.7935 22.8438 23.5111 22.7366 23.3467 22.5117L18.1401 15.3833C17.9994 15.1904 17.9663 14.9408 18.0511 14.718C18.1359 14.4962 18.3283 14.3322 18.561 14.2817L20.1466 13.9423C20.3348 13.9032 20.5303 13.9403 20.6896 14.0476L25.2404 17.1192L30.1181 15.6566L25.2394 12.1466C25.0325 11.998 24.9229 11.7495 24.9519 11.4968C24.9798 11.244 25.1432 11.0264 25.378 10.9284L28.7735 9.50295C28.9566 9.42559 29.1645 9.42971 29.3445 9.51429L37.6735 13.3915L45.018 11.1904C46.9242 10.618 48.9348 10.7324 50.6807 11.5112C51.9446 12.0754 52.6179 12.7355 52.7368 13.5287C52.8372 14.1868 52.5372 14.8263 51.8474 15.4307C51.7781 15.4916 51.6974 15.538 51.6095 15.5679L43.0177 18.4735L38.0459 26.4086C37.9383 26.5808 37.7604 26.6984 37.5577 26.7304L33.2561 27.4039C33.2189 27.4091 33.1827 27.4122 33.1465 27.4122ZM35.6877 18.815C35.8873 18.815 36.0808 18.8995 36.2162 19.0522C36.3848 19.244 36.4376 19.5112 36.3528 19.7515L34.2035 25.832L37.0219 25.3915L41.9555 17.5153C42.0424 17.3781 42.1727 17.275 42.3268 17.2224L51.0158 14.2838C51.2423 14.0651 51.3633 13.866 51.3437 13.7381C51.3147 13.5452 50.9724 13.1822 50.1046 12.7943C48.6887 12.162 46.9831 12.0682 45.4234 12.5365L37.8214 14.815C37.656 14.8645 37.477 14.8521 37.3209 14.7789L29.0321 10.9191L27.0815 11.7381L32.0998 15.3493C32.318 15.506 32.4277 15.7722 32.3832 16.0362C32.3387 16.3003 32.1474 16.5158 31.8909 16.5932L25.3252 18.5612C25.1225 18.6221 24.9033 18.5891 24.7285 18.4705L20.1487 15.3802L19.917 15.4297L24.2134 21.3121L35.5367 18.8315C35.5874 18.8201 35.6381 18.815 35.6877 18.815Z" fill="#005B68"/>
  <path d="M24.9016 42.7806C24.5127 42.7806 24.1973 42.465 24.1973 42.0772V40.6715C24.1973 40.2837 24.5127 39.9691 24.9016 39.9691C25.2905 39.9691 25.606 40.2837 25.606 40.6715V42.0772C25.606 42.466 25.2905 42.7806 24.9016 42.7806Z" fill="#005B68"/>
  <path d="M24.9016 52.985C24.5127 52.985 24.1973 52.6705 24.1973 52.2827V49.7311C24.1973 49.3433 24.5127 49.0277 24.9016 49.0277C25.2905 49.0277 25.606 49.3433 25.606 49.7311V52.2827C25.606 52.6705 25.2905 52.985 24.9016 52.985ZM24.9016 47.8829C24.5127 47.8829 24.1973 47.5684 24.1973 47.1796V44.629C24.1973 44.2402 24.5127 43.9257 24.9016 43.9257C25.2905 43.9257 25.606 44.2402 25.606 44.629V47.1796C25.606 47.5684 25.2905 47.8829 24.9016 47.8829Z" fill="#005B68"/>
  <path d="M24.9016 56.9435C24.5127 56.9435 24.1973 56.6279 24.1973 56.2402V54.8344C24.1973 54.4466 24.5127 54.1321 24.9016 54.1321C25.2905 54.1321 25.606 54.4466 25.606 54.8344V56.2402C25.606 56.6279 25.2905 56.9435 24.9016 56.9435Z" fill="#005B68"/>
  <path d="M32.0499 44.2988H28.3596C27.9707 44.2988 27.6553 43.9842 27.6553 43.5964C27.6553 43.2087 27.9707 42.8931 28.3596 42.8931H32.0499C32.4388 42.8931 32.7543 43.2087 32.7543 43.5964C32.7543 43.9842 32.4388 44.2988 32.0499 44.2988Z" fill="#005B68"/>
  <path d="M32.0499 46.729H28.3596C27.9707 46.729 27.6553 46.4144 27.6553 46.0266C27.6553 45.6378 27.9707 45.3232 28.3596 45.3232H32.0499C32.4388 45.3232 32.7543 45.6378 32.7543 46.0266C32.7543 46.4144 32.4388 46.729 32.0499 46.729Z" fill="#005B68"/>
  <path d="M32.0499 49.1591H28.3596C27.9707 49.1591 27.6553 48.8436 27.6553 48.4558C27.6553 48.068 27.9707 47.7534 28.3596 47.7534H32.0499C32.4388 47.7534 32.7543 48.068 32.7543 48.4558C32.7543 48.8436 32.4388 49.1591 32.0499 49.1591Z" fill="#005B68"/>
  <path d="M32.0499 51.5881H28.3596C27.9707 51.5881 27.6553 51.2735 27.6553 50.8858C27.6553 50.498 27.9707 50.1824 28.3596 50.1824H32.0499C32.4388 50.1824 32.7543 50.498 32.7543 50.8858C32.7543 51.2735 32.4388 51.5881 32.0499 51.5881Z" fill="#005B68"/>
  <path d="M32.0499 54.0183H28.3596C27.9707 54.0183 27.6553 53.7037 27.6553 53.3159C27.6553 52.9271 27.9707 52.6125 28.3596 52.6125H32.0499C32.4388 52.6125 32.7543 52.9271 32.7543 53.3159C32.7543 53.7037 32.4388 54.0183 32.0499 54.0183Z" fill="#005B68"/>
  <path d="M36.1414 56.9438H6.052C5.66311 56.9438 5.34766 56.6282 5.34766 56.2404V50.8417C5.34766 50.4539 5.66311 50.1383 6.052 50.1383C6.75221 50.1383 7.3221 49.5699 7.3221 48.8696C7.3221 48.1713 6.75221 47.6019 6.052 47.6019C5.66311 47.6019 5.34766 47.2873 5.34766 46.8995V40.6715C5.34766 40.2837 5.66311 39.9691 6.052 39.9691H36.1414C36.5303 39.9691 36.8457 40.2837 36.8457 40.6715V46.8995C36.8457 47.2873 36.5303 47.6019 36.1414 47.6019C35.5456 47.6019 35.0233 48.0227 34.8992 48.6024C34.8806 48.6911 34.8713 48.7798 34.8713 48.8696C34.8713 49.5699 35.4412 50.1383 36.1414 50.1383C36.5303 50.1383 36.8457 50.4539 36.8457 50.8417V56.2404C36.8457 56.6282 36.5303 56.9438 36.1414 56.9438ZM6.75635 55.538H35.437V51.4503C34.3003 51.1409 33.4626 50.1011 33.4626 48.8696C33.4626 48.6798 33.4822 48.491 33.5226 48.3074C33.7325 47.3203 34.4917 46.5509 35.437 46.292V41.375H6.75635V46.2899C7.89303 46.5993 8.7308 47.639 8.7308 48.8696C8.7308 50.1011 7.89303 51.1409 6.75635 51.4503V55.538Z" fill="#005B68"/>
  <path d="M8.89426 41.3747C8.71429 41.3747 8.53433 41.3056 8.39677 41.1684C8.12165 40.8941 8.12165 40.4485 8.39677 40.1741L22.0534 26.5465C22.3286 26.2721 22.7743 26.2721 23.0495 26.5465L27.4627 30.9508C27.7368 31.2252 27.7368 31.6697 27.4627 31.9441C27.0408 32.3649 26.9694 33.0313 27.2931 33.5284C27.3407 33.6037 27.3976 33.6728 27.4627 33.7378C27.7027 33.9771 28.0223 34.1091 28.3615 34.1091C28.7008 34.1091 29.0193 33.9781 29.2593 33.7378C29.3917 33.6068 29.5706 33.5325 29.7578 33.5325C29.945 33.5325 30.124 33.6058 30.2563 33.7378L34.0811 37.5563C34.3562 37.8306 34.3562 38.2762 34.0811 38.5506L31.4571 41.1684C31.1831 41.4428 30.7362 41.4428 30.4611 41.1684C30.186 40.8941 30.186 40.4485 30.4611 40.1741L32.5876 38.0534L29.6916 35.1643C29.2914 35.3933 28.8363 35.515 28.3615 35.515C28.3615 35.515 28.3615 35.515 28.3605 35.515C27.6448 35.515 26.9725 35.2365 26.4657 34.7311C26.3292 34.596 26.2092 34.4475 26.1089 34.2907C25.5597 33.4449 25.5514 32.366 26.0354 31.515L22.5509 28.038L9.39278 41.1684C9.25522 41.3056 9.07526 41.3747 8.89426 41.3747Z" fill="#005B68"/>
  <mask id="mask3_141_1533" style="mask-type:luminance" maskUnits="userSpaceOnUse" x="8" y="55" width="8" height="5">
    <path d="M8.4375 55.4513H15.8512V59.9995H8.4375V55.4513Z" fill="white"/>
  </mask>
  <g mask="url(#mask3_141_1533)">
    <path d="M12.3077 59.9871C12.1277 59.9871 11.9478 59.918 11.8102 59.7808L8.75907 56.7373C8.48395 56.463 8.48395 56.0185 8.75907 55.7441C9.03316 55.4688 9.47997 55.4688 9.75509 55.7431L12.3077 58.2895L14.4776 56.1257C14.7527 55.8514 15.1985 55.8514 15.4736 56.1257C15.7488 56.4001 15.7488 56.8446 15.4736 57.1189L12.8062 59.7808C12.6687 59.918 12.4887 59.9871 12.3077 59.9871Z" fill="#005B68"/>
  </g>
  <mask id="mask4_141_1533" style="mask-type:luminance" maskUnits="userSpaceOnUse" x="0" y="42" width="7" height="12">
    <path d="M0.5 42.7769H6.84946V53.6031H0.5V42.7769Z" fill="white"/>
  </mask>
  <g mask="url(#mask4_141_1533)">
    <path d="M5.68846 53.3821C5.50746 53.3821 5.3275 53.313 5.18994 53.1758L0.776652 48.7725C0.501533 48.4981 0.501533 48.0525 0.776652 47.7782L5.55504 43.0107C5.83016 42.7353 6.27594 42.7353 6.55105 43.0107C6.82617 43.2851 6.82617 43.7297 6.55105 44.004L2.27119 48.2753L5.75776 51.7544C6.07839 51.6059 6.46728 51.7183 6.65552 52.0267C6.8572 52.3578 6.75171 52.791 6.4197 52.9922C6.33696 53.0427 6.25732 53.1046 6.18492 53.1778C6.04736 53.314 5.86739 53.3821 5.68846 53.3821Z" fill="#005B68"/>
  </g>
  <path d="M45.2372 49.6999C42.4012 49.6999 40.0947 47.3977 40.0947 44.5684C40.0947 41.7391 42.4012 39.4369 45.2372 39.4369C48.0722 39.4369 50.3786 41.7391 50.3786 44.5684C50.3786 47.3977 48.0722 49.6999 45.2372 49.6999ZM45.2372 40.8428C43.1779 40.8428 41.5034 42.5148 41.5034 44.5684C41.5034 46.6231 43.1779 48.294 45.2372 48.294C47.2954 48.294 48.9699 46.6231 48.9699 44.5684C48.9699 42.5148 47.2954 40.8428 45.2372 40.8428Z" fill="#005B68"/>
  <path d="M44.3043 46.8194C44.1244 46.8194 43.9434 46.7503 43.8069 46.6131L42.5657 45.3755C42.2906 45.1011 42.2906 44.6556 42.5657 44.3813C42.8408 44.1069 43.2866 44.1069 43.5617 44.3813L44.3043 45.1228L46.9097 42.5228C47.1848 42.2484 47.6306 42.2484 47.9057 42.5228C48.1808 42.7971 48.1808 43.2427 47.9057 43.517L44.8018 46.6131C44.6653 46.7503 44.4843 46.8194 44.3043 46.8194Z" fill="#005B68"/>
</svg>