<svg xmlns="http://www.w3.org/2000/svg" width="24" height="24" viewBox="0 0 24 24" fill="none">
  <path d="M4 6V19C4 19.7956 4.31607 20.5587 4.87868 21.1213C5.44129 21.6839 6.20435 22 7 22H17C17.7956 22 18.5587 21.6839 19.1213 21.1213C19.6839 20.5587 20 19.7956 20 19V9C20 8.20435 19.6839 7.44129 19.1213 6.87868C18.5587 6.31607 17.7956 6 17 6H4ZM4 6V5" stroke="#005B68" stroke-width="2"/>
  <path opacity="0.5" d="M12 16C13.6569 16 15 14.6569 15 13C15 11.3431 13.6569 10 12 10C10.3431 10 9 11.3431 9 13C9 14.6569 10.3431 16 12 16Z" stroke="#005B68" stroke-width="2"/>
  <path d="M18 6.00029V6.75029H18.75V6.00029H18ZM5.07 6.75029H18V5.25029H5.071L5.07 6.75029ZM18.75 6.00029V4.30629H17.25V6.00029H18.75ZM15.611 1.58429L4.814 3.12629L5.026 4.61129L15.823 3.07029L15.611 1.58429ZM4.814 3.12629C4.37966 3.188 3.98222 3.40452 3.69485 3.73599C3.40747 4.06747 3.2495 4.49159 3.25 4.93029H4.75C4.74975 4.85287 4.77758 4.77798 4.82833 4.7195C4.87908 4.66103 4.94931 4.62194 5.026 4.61129L4.814 3.12629ZM18.75 4.30629C18.75 3.91232 18.6652 3.52295 18.5016 3.16456C18.338 2.80616 18.0993 2.48711 17.8016 2.229C17.504 1.97089 17.1544 1.77975 16.7764 1.66852C16.3985 1.55729 16.001 1.52856 15.611 1.58429L15.823 3.07029C16.0003 3.04494 16.1809 3.05696 16.3527 3.10749C16.5245 3.15802 16.6835 3.24488 16.8188 3.36217C16.9541 3.47947 17.0626 3.62447 17.137 3.78736C17.2114 3.95025 17.2499 4.12722 17.25 4.30629H18.75ZM5.071 5.25029C5.02881 5.25042 4.98701 5.24221 4.948 5.22613C4.909 5.21004 4.87356 5.1864 4.84373 5.15657C4.81389 5.12673 4.79025 5.0913 4.77417 5.05229C4.75808 5.01329 4.74987 4.97248 4.75 4.93029H3.25C3.24987 5.16947 3.29688 5.40532 3.38835 5.62631C3.47982 5.84731 3.61394 6.04811 3.78307 6.21723C3.95219 6.38635 4.15299 6.52048 4.37398 6.61195C4.59497 6.70341 4.83083 6.75042 5.07 6.75029L5.071 5.25029Z" fill="#005B68"/>
  <path opacity="0.5" d="M10 19H14" stroke="#005B68" stroke-width="2" stroke-linecap="round"/>
</svg>