<?xml version="1.0" standalone="no"?>
<!DOCTYPE svg PUBLIC "-//W3C//DTD SVG 1.1//EN" "http://www.w3.org/Graphics/SVG/1.1/DTD/svg11.dtd" >
<svg xmlns="http://www.w3.org/2000/svg" xmlns:xlink="http://www.w3.org/1999/xlink" version="1.1">
<metadata>
Created by FontForge 20201107 at Thu May 29 13:48:14 2025
 By 
Copyright (c) 2010, 2011 by Daniel Johnson. Released under the terms of the SIL Open Font License.
</metadata>
<defs>
<font id="Judson" horiz-adv-x="0" >
  <font-face 
    font-family="Judson"
    font-weight="500"
    font-stretch="normal"
    units-per-em="2048"
    panose-1="2 0 6 3 0 0 0 0 0 0"
    ascent="1638"
    descent="-410"
    x-height="901"
    cap-height="1198"
    bbox="-1055 -508 1997 1847"
    underline-thickness="102"
    underline-position="-307"
    unicode-range="U+0020-FB04"
  />
<missing-glyph horiz-adv-x="1024" 
d="M102 0v1092h820v-1092h-820zM205 102h614v887h-614v-887z" />
    <glyph glyph-name=".notdef" horiz-adv-x="1024" 
d="M102 0v1092h820v-1092h-820zM205 102h614v887h-614v-887z" />
    <glyph glyph-name=".null" 
 />
    <glyph glyph-name="nonmarkingreturn" horiz-adv-x="682" 
 />
    <glyph glyph-name="space" unicode=" " horiz-adv-x="491" 
 />
    <glyph glyph-name="exclam" unicode="!" horiz-adv-x="481" 
d="M119 104q0 49 33.5 89t87.5 40q47 0 86 -36t39 -86q0 -49 -34.5 -90t-88.5 -41q-47 0 -85 37t-38 87zM240 381q-30 0 -47 139q-6 42 -30 323t-24 355q0 45 28.5 68.5t72.5 23.5t72 -23.5t28 -68.5q0 -74 -24 -358t-29 -320q-17 -139 -47 -139z" />
    <glyph glyph-name="quotedbl" unicode="&#x22;" horiz-adv-x="679" 
d="M176 836q-32 0 -63 192q-29 210 -29 242q0 46 24.5 69t67.5 23t67.5 -23t24.5 -69q0 -53 -28 -242q-31 -192 -64 -192zM504 836q-33 0 -64 192q-28 203 -28 242q0 46 24.5 69t67.5 23t67.5 -23t24.5 -69t-29 -242q-31 -192 -63 -192z" />
    <glyph glyph-name="numbersign" unicode="#" horiz-adv-x="995" 
d="M897 471v-70h-235l-56 -401h-71l55 401h-256l-55 -401h-72l55 401h-194v70h204l37 258h-211v70h221l56 399h71l-55 -399h256l55 399h72l-55 -399h209v-70h-219l-37 -258h225zM344 471h256l37 258h-256z" />
    <glyph glyph-name="dollar" unicode="$" horiz-adv-x="931" 
d="M492 723q157 -88 220 -138q156 -125 156 -282q0 -78 -32 -140.5t-85.5 -101.5t-120 -59.5t-138.5 -21.5v-54h-62v56q-55 4 -109 17.5t-92 29t-68.5 30.5t-45.5 25l-15 10v191h45q11 -58 38 -102.5t66 -71.5t84 -41.5t97 -18.5v473q-139 82 -195 129q-133 112 -133 248
q0 121 97.5 217.5t230.5 100.5v51h62v-53q44 -5 88 -18.5t75 -28.5t55.5 -30t37.5 -24l12 -10v-168h-45q-11 83 -67 140.5t-156 68.5v-424zM430 760v389q-59 -3 -100.5 -35t-57.5 -70.5t-16 -76.5q0 -63 44.5 -109.5t129.5 -97.5zM492 489v-440q98 3 153 52t55 145
q0 42 -15.5 77.5t-48 65.5t-63.5 51t-81 49z" />
    <glyph glyph-name="percent" unicode="%" horiz-adv-x="1114" 
d="M944 1157l-690 -1116h-82l690 1116h82zM188 954q0 -69 29.5 -124.5t65.5 -55.5q35 0 64.5 56t29.5 124q0 69 -29.5 125t-64.5 56t-65 -56t-30 -125zM63 954q0 104 66.5 177t153.5 73t153 -73t66 -177t-66 -176.5t-153 -72.5t-153.5 72.5t-66.5 176.5zM737 244
q0 -69 29.5 -125t64.5 -56t65 56t30 125t-29.5 124.5t-65.5 55.5q-35 0 -64.5 -55.5t-29.5 -124.5zM612 244q0 104 66 177t153 73t153.5 -73t66.5 -177t-66.5 -177t-153.5 -73t-153 73t-66 177z" />
    <glyph glyph-name="ampersand" unicode="&#x26;" horiz-adv-x="1239" 
d="M584 1147q-65 0 -86 -46t-21 -147q0 -84 49 -223q156 109 156 230q0 76 -25.5 131t-72.5 55zM1159 707v-43q-117 0 -129 -39q-95 -303 -196 -441q87 -94 145 -94q76 0 107 15t63 61l25 -21q-14 -37 -29.5 -63t-39.5 -51t-60 -38t-82 -13q-117 0 -232 94
q-119 -94 -270 -94q-219 0 -319.5 71.5t-100.5 208.5q0 51 21 98.5t49 81.5t80.5 74.5t88.5 63.5t101 61q-72 201 -72 332q0 248 234 248q101 0 163 -70.5t62 -163.5q0 -99 -56.5 -176.5t-156.5 -153.5q94 -233 236 -417q11 18 22 38t20 37.5t19 42t16.5 39.5t16.5 43
t14.5 40t14 42t12 37.5t12 39t10.5 34.5q-20 33 -125 33v43h336zM684 117q-151 151 -268 434q-82 -63 -126 -120t-44 -124q0 -241 291 -241q81 0 147 51z" />
    <glyph glyph-name="quotesingle" unicode="'" horiz-adv-x="352" 
d="M176 836q-32 0 -63 192q-29 210 -29 242q0 46 24.5 69t67.5 23t67.5 -23t24.5 -69q0 -53 -28 -242q-31 -192 -64 -192z" />
    <glyph glyph-name="parenleft" unicode="(" horiz-adv-x="497" 
d="M82 645q0 99 21.5 199.5t51.5 176t71.5 150t71.5 117.5t62 82q18 23 33 23q7 0 13 -6.5t6 -16.5q0 -6 -4 -18q-3 -7 -20.5 -45.5t-23.5 -53.5t-22 -55.5t-23 -67t-20 -71.5t-19 -86t-13 -94t-10 -111.5t-3 -122.5q0 -82 5 -154.5t16.5 -136.5t20.5 -108t28.5 -99
t27.5 -76t30.5 -73t25.5 -59q4 -12 4 -19q0 -10 -6 -16t-13 -6q-15 0 -33 22q-32 39 -62 82t-71.5 117.5t-71.5 150t-51.5 176t-21.5 199.5z" />
    <glyph glyph-name="parenright" unicode=")" horiz-adv-x="497" 
d="M416 645q0 -99 -21.5 -199.5t-51.5 -176t-72 -150t-72 -117t-62 -82.5q-18 -22 -33 -22q-7 0 -12.5 6t-5.5 16q0 7 4 19q1 1 23 51.5t26.5 62t24 63.5t26 80t20.5 86t19 106.5t10 116.5t5 140q0 82 -4.5 154.5t-16.5 137t-20.5 108t-28.5 99t-27.5 76t-30.5 73.5t-26 59
q-4 12 -4 18q0 10 5.5 16.5t12.5 6.5q14 0 33 -23q32 -40 62 -82.5t72 -117t72 -150t51.5 -176t21.5 -199.5z" />
    <glyph glyph-name="asterisk" unicode="*" horiz-adv-x="737" 
d="M262 733q-37 0 -70.5 30t-33.5 64q0 21 12 39q12 17 75.5 47.5t86.5 32.5q-19 16 -19 39q0 2 1 6t1 6q-17 -10 -73 -22t-88 -12q-30 0 -47 21t-17 50q0 41 25 74t57 33q5 0 21 -4q20 -6 68 -56.5t56 -72.5q13 26 45 30q-17 12 -51.5 76t-34.5 84q0 33 26 52.5t65 19.5
q38 0 64 -19.5t26 -52.5q0 -20 -34.5 -84t-51.5 -76q32 -3 45 -32q5 19 56 72t71 59q16 4 22 4q31 0 55.5 -32t24.5 -73q0 -29 -16.5 -51t-46.5 -22q-34 0 -92.5 12t-71.5 22q2 -4 2 -12q0 -20 -19 -39q23 0 88.5 -31.5t77.5 -48.5q13 -20 13 -37q0 -34 -35.5 -65t-73.5 -31
q-33 0 -51 27q-10 13 -18.5 66.5t-8.5 91.5q0 18 2 22q-11 -8 -28 -8q-15 0 -27 6q2 -6 2 -25q0 -38 -8.5 -89t-18.5 -64q-21 -27 -53 -27z" />
    <glyph glyph-name="plus" unicode="+" horiz-adv-x="827" 
d="M459 606v-289h-90v289h-289v90h289v289h90v-289h289v-90h-289z" />
    <glyph glyph-name="comma" unicode="," horiz-adv-x="471" 
d="M207 -12q-46 0 -75.5 27t-29.5 73q0 55 39 86t78 31q73 0 119.5 -64.5t46.5 -152.5q0 -47 -21 -88t-48.5 -66.5t-67 -47.5t-65 -32t-52.5 -18v57q52 7 106 57t54 113q0 36 -4 43.5t-17 7.5q-5 0 -23 -13t-40 -13z" />
    <glyph glyph-name="hyphen" unicode="-" horiz-adv-x="794" 
d="M127 696h541v-90h-541v90z" />
    <glyph glyph-name="period" unicode="." horiz-adv-x="450" 
d="M102 104q0 49 33.5 89t87.5 40q47 0 86 -36t39 -86q0 -49 -34.5 -90t-88.5 -41q-47 0 -85 37t-38 87z" />
    <glyph glyph-name="slash" unicode="/" horiz-adv-x="937" 
d="M41 -20l797 1273l59 -36l-797 -1274z" />
    <glyph glyph-name="zero" unicode="0" horiz-adv-x="1064" 
d="M285 598q0 -141 30.5 -267.5t88 -207t128.5 -80.5t129 80.5t88.5 207t30.5 267.5t-30.5 268t-88.5 208t-129 81t-128.5 -81t-88 -207.5t-30.5 -268.5zM100 598q0 168 48.5 307t148.5 226.5t235 87.5t235 -87.5t149 -226.5t49 -307t-49 -306.5t-149 -225t-235 -86.5
q-102 0 -185 50t-136 135.5t-82 196.5t-29 236z" />
    <glyph glyph-name="one" unicode="1" horiz-adv-x="749" 
d="M496 1198v-1073q0 -23 26.5 -40.5t68 -25.5t81 -12t76.5 -4v-43h-693v43q37 0 76.5 4t81 12t68 25.5t26.5 40.5v784q-81 -49 -217 -149l-14 35l364 403h56z" />
    <glyph glyph-name="two" unicode="2" horiz-adv-x="970" 
d="M59 0q0 20 43.5 70t108 111.5t140.5 144.5t140.5 165.5t108 178t43.5 178.5q0 43 -12.5 85t-36 79.5t-64 60.5t-90.5 23q-84 0 -147 -20.5t-95.5 -49t-52.5 -57.5t-31 -49.5t-18 -20.5q-16 0 -16 21q0 17 11.5 49.5t40.5 76t70.5 82t110 65t150.5 26.5q98 0 173 -28.5
t119.5 -77.5t66.5 -109.5t22 -129.5q0 -68 -55.5 -162.5t-135 -183.5t-158.5 -169.5t-134.5 -140t-55.5 -75.5h432q29 12 65.5 46t55.5 83h41l-78 -272h-762z" />
    <glyph glyph-name="three" unicode="3" horiz-adv-x="970" 
d="M403 596q-13 0 -25.5 9t-12.5 18q0 8 14 14q47 14 88.5 34.5t83.5 53t67 81t25 107.5q0 83 -57.5 133t-161.5 50q-69 0 -121 -16.5t-78.5 -40t-42.5 -47t-26 -40t-17 -16.5q-16 0 -16 20q0 16 10.5 45.5t36 67.5t60.5 71t92 56t124 23q197 0 285 -70.5t88 -208.5
q0 -77 -56 -144.5t-142 -117.5q100 -25 176.5 -124.5t76.5 -201.5q0 -81 -17.5 -142.5t-61.5 -116t-130.5 -84t-211.5 -29.5q-83 0 -159.5 20.5t-123.5 49t-74.5 55.5t-27.5 42q0 62 15.5 86.5t57.5 24.5q18 0 31 -16t21.5 -40t26.5 -52.5t41.5 -52.5t69.5 -40t109 -16
q65 0 114 17.5t77 44t45.5 64t23 71.5t5.5 73q0 38 -10.5 84t-32 95.5t-63 82.5t-95.5 33q-24 0 -52.5 -5t-48.5 -5z" />
    <glyph glyph-name="four" unicode="4" horiz-adv-x="917" 
d="M686 1198v-776h166v-62h-166v-276q9 -22 37.5 -31.5t91.5 -9.5v-43h-442v43q63 0 91.5 9.5t37.5 31.5v276h-486l564 838h106zM502 422v551l-373 -551h373z" />
    <glyph glyph-name="five" unicode="5" horiz-adv-x="944" 
d="M248 793q139 0 247.5 -22.5t176 -59.5t111.5 -89t61.5 -106t17.5 -115q0 -64 -10.5 -120t-38 -113t-70.5 -97t-114.5 -65.5t-163.5 -25.5q-79 0 -149 14t-116 34.5t-80 44t-49.5 43t-15.5 31.5q0 62 16 86.5t58 24.5q18 0 30.5 -16t20.5 -40t27 -52.5t44.5 -52.5t78 -40
t123.5 -16q55 0 98.5 22.5t69 56.5t42.5 78.5t23 84t6 77.5q0 61 -14.5 111t-51.5 96t-95.5 77.5t-151 50t-213.5 18.5l67 485h572l-49 -143h-471z" />
    <glyph glyph-name="six" unicode="6" horiz-adv-x="948" 
d="M496 688q-135 0 -205 -47q-12 -85 -12 -182q0 -110 18 -192t49.5 -129t70 -70t83.5 -23q87 0 141.5 99.5t54.5 256.5q0 40 -5 77.5t-19.5 76.5t-36 67.5t-57.5 47t-82 18.5zM301 709q83 49 191 49q92 0 161 -18.5t112 -50t69.5 -80t36.5 -102t10 -122.5q0 -189 -100 -297
t-281 -108q-195 0 -300.5 133.5t-105.5 345.5q0 138 39.5 263t102.5 212.5t140.5 154.5t153.5 102.5t142 43.5l24 -37q-151 -39 -253.5 -163.5t-141.5 -325.5z" />
    <glyph glyph-name="seven" unicode="7" horiz-adv-x="800" 
d="M276 23q0 83 56 248.5t123.5 318t123.5 291t56 174.5h-449q-29 -12 -65 -46t-55 -83h-41l77 272h689q0 -27 -57.5 -173t-126 -315.5t-126 -368t-57.5 -318.5q0 -21 -24 -32t-52 -11t-50 11t-22 32z" />
    <glyph glyph-name="eight" unicode="8" horiz-adv-x="980" 
d="M551 664q172 95 172 288q0 95 -56 148t-137 53q-116 0 -170.5 -54t-54.5 -161q0 -34 18 -67.5t59 -71.5t73.5 -63.5t95.5 -71.5zM614 616q60 -45 100 -80.5t81.5 -82t62.5 -97t21 -104.5q0 -116 -109 -194t-281 -78q-184 0 -286.5 78.5t-102.5 209.5q0 61 22.5 117.5
t61 99.5t79 74.5t87.5 56.5q-105 82 -165 162.5t-60 173.5q0 112 99 189.5t268 77.5q183 0 275.5 -75t92.5 -208q0 -196 -246 -320zM414 567q-72 -42 -124 -120t-52 -195q0 -87 65.5 -147t147.5 -60q116 0 181.5 60.5t65.5 160.5q0 17 -4.5 34t-16 34.5t-21.5 32t-31 34
t-34 32t-41.5 34t-42.5 32t-47 34.5t-46 34z" />
    <glyph glyph-name="nine" unicode="9" horiz-adv-x="948" 
d="M453 510q134 0 204 47q13 93 13 182q0 110 -18 192t-49.5 129t-70 70t-83.5 23q-88 0 -142.5 -99.5t-54.5 -256.5q0 -51 9.5 -97.5t30.5 -91t62.5 -71.5t98.5 -27zM647 489q-83 -49 -190 -49q-92 0 -161 18.5t-112 50t-69.5 80t-36.5 102t-10 122.5q0 189 100 297.5
t281 108.5q131 0 224 -64.5t137 -171t44 -244.5t-39.5 -263t-102.5 -212.5t-140.5 -154.5t-153.5 -102.5t-142 -43.5l-24 37q151 39 253.5 163.5t141.5 325.5z" />
    <glyph glyph-name="colon" unicode=":" horiz-adv-x="499" 
d="M127 780q0 49 33.5 89t87.5 40q47 0 86 -36.5t39 -86.5q0 -49 -34.5 -90t-88.5 -41q-47 0 -85 37.5t-38 87.5zM127 104q0 49 33.5 89t87.5 40q47 0 86 -36t39 -86q0 -49 -34.5 -90t-88.5 -41q-47 0 -85 37t-38 87z" />
    <glyph glyph-name="semicolon" unicode=";" horiz-adv-x="536" 
d="M145 780q0 49 33.5 89t87.5 40q47 0 86 -36.5t39 -86.5q0 -49 -34.5 -90t-88.5 -41q-47 0 -85 37.5t-38 87.5zM236 -12q-46 0 -75.5 27t-29.5 73q0 55 39 86t78 31q73 0 119.5 -64.5t46.5 -152.5q0 -47 -21 -88t-48.5 -66.5t-67 -47.5t-65 -32t-52.5 -18v57q51 7 105 57
t54 113q0 36 -3.5 43.5t-16.5 7.5q-5 0 -23 -13t-40 -13z" />
    <glyph glyph-name="less" unicode="&#x3c;" horiz-adv-x="952" 
d="M61 696l754 353v-82l-676 -316l676 -315v-82l-754 352v90z" />
    <glyph glyph-name="equal" unicode="=" horiz-adv-x="991" 
d="M133 573h725v-90h-725v90zM133 819h725v-90h-725v90z" />
    <glyph glyph-name="greater" unicode="&#x3e;" horiz-adv-x="952" 
d="M891 606l-754 -352v82l676 315l-676 316v82l754 -353v-90z" />
    <glyph glyph-name="question" unicode="?" horiz-adv-x="806" 
d="M250 104q0 49 33.5 89t87.5 40q47 0 86 -36t39 -86q0 -49 -34.5 -90t-88.5 -41q-47 0 -85 37t-38 87zM342 410q0 63 22 122.5t54 107.5t63.5 97.5t53.5 113t22 132.5q0 130 -45.5 188t-149.5 58q-79 0 -129.5 -47.5t-50.5 -98.5q0 -25 15.5 -52t15.5 -50
q0 -31 -19.5 -50.5t-48.5 -19.5q-35 0 -60.5 26t-25.5 79q0 47 19.5 94t57.5 88t102 66.5t145 25.5q98 0 171.5 -30t112 -79t56.5 -101t18 -107q0 -56 -25.5 -113t-64 -102.5t-83.5 -94t-83.5 -88.5t-64 -83.5t-25.5 -81.5q0 -10 -9 -19.5t-17 -9.5t-17.5 9.5t-9.5 19.5z
" />
    <glyph glyph-name="at" unicode="@" horiz-adv-x="1282" 
d="M508 326q-78 0 -120 59.5t-42 144.5q0 89 44 175t111 138t134 52q60 0 99.5 -36t53.5 -95l29 108h109l-121 -456q-2 -4 -2 -13q0 -30 47 -30q52 0 96 40t68.5 95.5t37.5 105t13 78.5q0 110 -22.5 192t-57.5 128.5t-86.5 74.5t-99.5 37t-107 9q-98 0 -189 -35.5
t-164.5 -101.5t-118 -171.5t-44.5 -234.5q0 -99 33 -186.5t87 -149.5t121.5 -107t138 -66.5t136.5 -21.5q67 0 128.5 15t104.5 34t85.5 54t65 57.5t49.5 62.5t33 51t22 40l32 -17q-28 -64 -59 -115.5t-77 -101.5t-100.5 -84t-130.5 -54.5t-165 -20.5q-84 0 -168.5 27
t-160 80t-134 125t-93 168t-34.5 202q0 119 32.5 222t89 178t131.5 129t162 81t179 27q95 0 178.5 -32t148.5 -93.5t102.5 -160.5t37.5 -224q0 -55 -21.5 -122t-61.5 -133t-110.5 -110.5t-156.5 -44.5q-38 0 -70.5 24.5t-32.5 79.5q0 21 2 33q-89 -110 -192 -110zM748 692
q0 61 -26.5 101.5t-78.5 40.5q-76 0 -141.5 -88t-65.5 -193q0 -60 26.5 -99.5t78.5 -39.5q76 0 141.5 86t65.5 192z" />
    <glyph glyph-name="A" unicode="A" horiz-adv-x="1118" 
d="M688 0v43q94 0 119 25l-115 313h-393l-106 -301q11 -21 38 -29t88 -8v-43h-335v43q63 0 92 10.5t37 32.5l397 1112h98l398 -1112q15 -43 131 -43v-43h-449zM494 926l-170 -477h344z" />
    <glyph glyph-name="B" unicode="B" horiz-adv-x="1142" 
d="M403 594v-524h175q81 0 138.5 20.5t89 59.5t45 87t13.5 111q0 34 -8 66t-30 65.5t-56 58t-90 40.5t-127 16h-150zM403 1128v-475h84q152 0 219.5 67.5t67.5 192.5q0 215 -311 215h-60zM86 0v43q63 0 91.5 9.5t37.5 31.5v1030q-9 22 -37.5 31.5t-91.5 9.5v43h377
q106 0 194 -16.5t146.5 -43.5t99 -64t58.5 -77t18 -82q0 -208 -217 -282q78 -18 139 -49.5t96.5 -70t53.5 -80t18 -83.5q0 -75 -29 -137.5t-87.5 -110.5t-154 -75t-220.5 -27h-492z" />
    <glyph glyph-name="C" unicode="C" horiz-adv-x="1150" 
d="M709 1149q-177 0 -293.5 -145.5t-116.5 -376.5q0 -138 35 -250t94 -182.5t133.5 -108t155.5 -37.5q102 0 202.5 70.5t129.5 150.5l49 -24q-21 -51 -53 -94.5t-81.5 -84t-123.5 -64t-164 -23.5q-138 0 -252 50t-186.5 134.5t-112 192t-39.5 225.5q0 144 51.5 266t138 202
t198.5 124.5t233 44.5q45 0 93 -15.5t84 -31t50 -15.5q24 0 24 41h48l20 -260h-45q-13 93 -80.5 152t-191.5 59z" />
    <glyph glyph-name="D" unicode="D" horiz-adv-x="1251" 
d="M86 0v43q63 0 91.5 9.5t37.5 31.5v1030q-9 22 -37.5 31.5t-91.5 9.5v43h471q273 0 438.5 -165t165.5 -431q0 -267 -161 -434.5t-418 -167.5h-496zM403 1139v-1069h179q51 0 102 17.5t100.5 58t87 100t61 151t23.5 203.5q0 138 -35.5 245t-94 169t-127 93.5t-142.5 31.5
h-154z" />
    <glyph glyph-name="E" unicode="E" horiz-adv-x="1038" 
d="M86 0v43q63 0 91.5 9.5t37.5 31.5v1030q-9 22 -37.5 31.5t-91.5 9.5v43h825v-199h-43q0 63 -9.5 91.5t-31.5 37.5h-424v-471h287q22 9 31.5 37.5t9.5 91.5h43v-327h-43q0 63 -9.5 91.5t-31.5 37.5h-287v-518h467q51 21 93 129h41l-50 -199h-868z" />
    <glyph glyph-name="F" unicode="F" horiz-adv-x="962" 
d="M86 0v43q63 0 91.5 9.5t37.5 31.5v1030q-9 22 -37.5 31.5t-91.5 9.5v43h825v-199h-43q0 63 -9.5 91.5t-31.5 37.5h-424v-471h287q22 9 31.5 37.5t9.5 91.5h43v-327h-43q0 63 -9.5 91.5t-31.5 37.5h-287v-504q9 -22 37.5 -31.5t91.5 -9.5v-43h-446z" />
    <glyph glyph-name="G" unicode="G" horiz-adv-x="1263" 
d="M725 1149q-115 0 -214 -75t-157.5 -205.5t-58.5 -282.5q0 -114 25 -207.5t65.5 -153.5t93.5 -101t107.5 -58t109.5 -17q117 0 217 39v420q-9 22 -37.5 31.5t-91.5 9.5v43h447v-43q-63 0 -91.5 -9.5t-37.5 -31.5v-344q-15 -27 -45.5 -56t-79 -59t-123.5 -49.5t-162 -19.5
q-111 0 -209 32.5t-170.5 90t-125 133.5t-79 164.5t-26.5 181.5q0 144 54.5 266t145 202t205 124.5t236.5 44.5q60 0 148.5 -31t99.5 -31q24 0 24 41h47l21 -260h-45q-13 90 -90 150.5t-203 60.5z" />
    <glyph glyph-name="H" unicode="H" horiz-adv-x="1331" 
d="M86 0v43q63 0 91.5 9.5t37.5 31.5v1030q-9 22 -37.5 31.5t-91.5 9.5v43h446v-43q-63 0 -91.5 -9.5t-37.5 -31.5v-457h525v457q-9 22 -37.5 31.5t-91.5 9.5v43h446v-43q-63 0 -91.5 -9.5t-37.5 -31.5v-1030q9 -22 37.5 -31.5t91.5 -9.5v-43h-446v43q63 0 91.5 9.5
t37.5 31.5v504h-525v-504q9 -22 37.5 -31.5t91.5 -9.5v-43h-446z" />
    <glyph glyph-name="I" unicode="I" horiz-adv-x="618" 
d="M86 0v43q63 0 91.5 9.5t37.5 31.5v1030q-9 22 -37.5 31.5t-91.5 9.5v43h446v-43q-63 0 -91.5 -9.5t-37.5 -31.5v-1030q9 -22 37.5 -31.5t91.5 -9.5v-43h-446z" />
    <glyph glyph-name="J" unicode="J" horiz-adv-x="843" 
d="M662 352q0 -56 -9.5 -106.5t-33.5 -100t-61.5 -85.5t-98 -58t-137.5 -22q-145 0 -226.5 58t-81.5 126q0 46 24 74t64 28q37 0 65 -18t28 -53q0 -69 -52 -86q15 -15 24 -22.5t47 -20.5t87 -13q34 0 60.5 9t44.5 23.5t30.5 41.5t19.5 53.5t11 70t5 81t1 94.5v688
q-9 22 -37.5 31.5t-91.5 9.5v43h447v-43q-63 0 -91.5 -9.5t-37.5 -31.5v-762z" />
    <glyph glyph-name="K" unicode="K" horiz-adv-x="1185" 
d="M86 0v43q63 0 91.5 9.5t37.5 31.5v1030q-9 22 -37.5 31.5t-91.5 9.5v43h442v-43q-63 0 -91.5 -9.5t-37.5 -31.5v-1030q9 -22 37.5 -31.5t91.5 -9.5v-43h-442zM801 0v43q49 0 76 6l-467 594l501 498q-28 14 -104 14v43h321v-43q-39 0 -67.5 -9t-38 -17t-21.5 -21
l-411 -408l481 -624q33 -33 129 -33v-43h-399z" />
    <glyph glyph-name="L" unicode="L" horiz-adv-x="1013" 
d="M86 0v43q63 0 91.5 9.5t37.5 31.5v1030q-9 22 -37.5 31.5t-91.5 9.5v43h446v-43q-63 0 -91.5 -9.5t-37.5 -31.5v-1044h467q51 21 93 129h41l-50 -199h-868z" />
    <glyph glyph-name="M" unicode="M" horiz-adv-x="1646" 
d="M86 0v43q63 0 91.5 9.5t37.5 31.5v1030q-9 22 -37.5 31.5t-91.5 9.5v43h299l436 -952l436 952h304v-43q-63 0 -91.5 -9.5t-37.5 -31.5v-1030q9 -22 37.5 -31.5t91.5 -9.5v-43h-447v43q63 0 91.5 9.5t37.5 31.5v920l-459 -1004h-30l-469 1016v-932q9 -22 37.5 -31.5
t91.5 -9.5v-43h-328z" />
    <glyph glyph-name="N" unicode="N" horiz-adv-x="1304" 
d="M86 0v43q63 0 91.5 9.5t37.5 31.5v1030q-9 22 -37.5 31.5t-91.5 9.5v43h274l678 -838v754q-9 22 -37.5 31.5t-91.5 9.5v43h328v-43q-63 0 -91.5 -9.5t-37.5 -31.5v-1114h-18l-805 1018v-934q9 -22 37.5 -31.5t91.5 -9.5v-43h-328z" />
    <glyph glyph-name="O" unicode="O" horiz-adv-x="1312" 
d="M295 614q0 -78 13.5 -156t43.5 -152t72.5 -131t105 -91.5t136.5 -34.5t135 33t100.5 86t67 123.5t39.5 143.5t12 147q0 77 -14 155.5t-44.5 153t-73 131.5t-104.5 92t-135 35q-74 0 -135 -33t-100.5 -86.5t-67 -124.5t-39.5 -144t-12 -147zM90 598q0 125 41.5 238
t114.5 198t180 135t231 50q164 0 295.5 -85.5t202 -227t70.5 -308.5t-71.5 -307.5t-202.5 -225.5t-294 -85q-166 0 -297 85t-200.5 225.5t-69.5 307.5z" />
    <glyph glyph-name="P" unicode="P" horiz-adv-x="1101" 
d="M86 0v43q63 0 91.5 9.5t37.5 31.5v1030q-9 22 -37.5 31.5t-91.5 9.5v43h463q131 0 234.5 -29t162.5 -75.5t89 -99.5t30 -107q0 -154 -123 -248t-369 -94h-170v-461q9 -22 37.5 -31.5t91.5 -9.5v-43h-446zM403 1128v-514h170q157 0 222 63t65 208q0 243 -311 243h-146z
" />
    <glyph glyph-name="Q" unicode="Q" horiz-adv-x="1312" 
d="M90 598q0 125 41.5 238t114.5 198t180 135t231 50q164 0 295.5 -85.5t202 -227t70.5 -308.5q0 -158 -64.5 -293.5t-179.5 -220.5q8 -15 24 -45.5t24.5 -46t23 -39.5t26 -36.5t27.5 -26.5t33 -19.5t37 -5.5q31 0 59.5 9.5t46.5 23.5t31.5 28t19.5 24l6 9l31 -22
q-2 -6 -7 -16t-22.5 -35t-38 -44t-54.5 -35t-72 -16q-58 0 -107.5 13t-83.5 32.5t-64 50t-49 58t-38 63.5q-86 -28 -177 -28q-166 0 -297 85t-200.5 225.5t-69.5 307.5zM473 125q82 -76 193 -76q73 0 133 31q-32 65 -60 97t-71 32q-116 0 -195 -84zM913 186q53 76 80 182
t27 214q0 77 -14 155.5t-44.5 153t-73 131.5t-104.5 92t-135 35q-74 0 -135 -33t-100.5 -86.5t-67 -124.5t-39.5 -144t-12 -147q0 -127 36.5 -249t106.5 -205q92 139 242 139q142 0 233 -113z" />
    <glyph glyph-name="R" unicode="R" horiz-adv-x="1189" 
d="M86 0v43q63 0 91.5 9.5t37.5 31.5v1030q-9 22 -37.5 31.5t-91.5 9.5v43h463q131 0 234 -27.5t162.5 -73t89.5 -97t30 -105.5q0 -113 -67 -198.5t-201 -123.5l272 -487q21 -43 135 -43v-43h-88q-144 0 -187 16t-85 90l-248 439h-193v-461q9 -22 37.5 -31.5t91.5 -9.5v-43
h-446zM403 1128v-514h170q164 0 225.5 63.5t61.5 215.5q0 113 -68 174t-243 61h-146z" />
    <glyph glyph-name="S" unicode="S" horiz-adv-x="978" 
d="M510 -20q-74 0 -143 15t-113 30.5t-57 15.5t-29 -12t-16 -29h-48v285h46q12 -63 46.5 -110.5t84 -74t104 -39t113.5 -12.5q109 0 178 49t69 148q0 45 -19.5 82t-59.5 68.5t-76.5 53.5t-94.5 53t-89 50q-45 28 -60 37t-56.5 37.5t-59 44.5t-47 46.5t-42.5 55.5t-24 58.5
t-11 68.5q0 79 51 153t134.5 119.5t173.5 45.5q60 0 148.5 -31t99.5 -31q24 0 24 41h47l21 -260h-45q-13 90 -90 150.5t-203 60.5q-94 0 -150.5 -60t-56.5 -122q0 -39 19 -72.5t58 -63t74 -50.5t92.5 -51.5t88.5 -49.5q143 -87 197 -134q124 -108 124 -243q0 -78 -36 -141.5
t-94.5 -102t-129 -59t-143.5 -20.5z" />
    <glyph glyph-name="T" unicode="T" horiz-adv-x="1101" 
d="M37 1198h1028v-199h-43q0 63 -9.5 91.5t-31.5 37.5h-336v-1044q9 -22 37.5 -31.5t91.5 -9.5v-43h-446v43q63 0 91.5 9.5t37.5 31.5v1044h-336q-22 -9 -31.5 -37.5t-9.5 -91.5h-43v199z" />
    <glyph glyph-name="U" unicode="U" horiz-adv-x="1265" 
d="M692 49q137 0 230.5 114.5t93.5 303.5v647q-9 22 -37.5 31.5t-91.5 9.5v43h327v-43q-63 0 -91.5 -9.5t-37.5 -31.5v-606q0 -137 -33.5 -241t-91.5 -165t-130.5 -91.5t-157.5 -30.5q-492 0 -492 528v606q-9 22 -37.5 31.5t-91.5 9.5v43h447v-43q-63 0 -91.5 -9.5
t-37.5 -31.5v-635q0 -204 89.5 -317t233.5 -113z" />
    <glyph glyph-name="V" unicode="V" horiz-adv-x="1114" 
d="M428 1198v-43q-94 0 -119 -25l314 -858l301 846q-11 20 -38.5 28.5t-88.5 8.5v43h336v-43q-114 0 -125 -33l-402 -1122h-98l-397 1112q-15 43 -131 43v43h448z" />
    <glyph glyph-name="W" unicode="W" horiz-adv-x="1722" 
d="M1036 1198v-43q-93 0 -118 -25l313 -858l301 846q-11 20 -38.5 28.5t-88.5 8.5v43h336v-43q-63 0 -92 -10.5t-37 -32.5l-398 -1112h-98l-256 715l-254 -715h-98l-397 1112q-15 43 -131 43v43h448v-43q-94 0 -119 -25l314 -856l196 555l-100 283q-15 43 -131 43v43h448z
" />
    <glyph glyph-name="X" unicode="X" horiz-adv-x="1062" 
d="M461 1198v-43q-97 0 -119 -25l223 -391l244 383q-20 33 -125 33v43h336v-43q-56 0 -83.5 -8t-39.5 -27l-291 -452l334 -582q22 -43 131 -43v-43h-448v43q96 0 118 25l-243 428l-271 -420q20 -33 125 -33v-43h-336v43q60 0 89 11.5t42 33.5l308 479l-312 547
q-12 22 -42 31.5t-89 9.5v43h449z" />
    <glyph glyph-name="Y" unicode="Y" horiz-adv-x="1153" 
d="M430 1198v-43q-97 0 -119 -25l318 -555l327 543q-21 37 -127 37v43h336v-43q-86 0 -116 -27l-369 -612v-432q9 -22 37.5 -31.5t91.5 -9.5v-43h-447v43q63 0 92 9.5t38 31.5v367l-379 663q-27 41 -131 41v43h448z" />
    <glyph glyph-name="Z" unicode="Z" horiz-adv-x="1024" 
d="M920 0h-885l651 1137h-498q-22 -9 -31.5 -37.5t-9.5 -91.5h-43v190h826l-651 -1137h557q62 26 94 136h43z" />
    <glyph glyph-name="bracketleft" unicode="[" horiz-adv-x="589" 
d="M315 1186v-1432h238v-73h-401v1579h401v-74h-238z" />
    <glyph glyph-name="backslash" unicode="\" horiz-adv-x="937" 
d="M897 -20l-59 -37l-797 1274l59 36z" />
    <glyph glyph-name="bracketright" unicode="]" horiz-adv-x="589" 
d="M274 -246v1432h-237v74h401v-1579h-401v73h237z" />
    <glyph glyph-name="asciicircum" unicode="^" horiz-adv-x="933" 
d="M494 1106l337 -401l-69 -58l-295 352l-295 -352l-70 58l336 401h56z" />
    <glyph glyph-name="underscore" unicode="_" horiz-adv-x="917" 
d="M86 -102h745v-91h-745v91z" />
    <glyph glyph-name="grave" unicode="`" horiz-adv-x="614" 
d="M340 1356l152 -332h-54l-315 332h217z" />
    <glyph glyph-name="a" unicode="a" horiz-adv-x="989" 
d="M229 750q29 0 50.5 -20.5t21.5 -63.5q0 -35 -27.5 -53.5t-64.5 -18.5q-40 0 -64 28t-24 74q0 107 88.5 166.5t249.5 59.5q97 0 170 -26.5t115 -74.5t62.5 -108.5t20.5 -134.5v-406q0 -65 22 -96t52 -31q27 0 48.5 14t21.5 35h37q0 -58 -42.5 -84t-146.5 -26
q-103 0 -145 84q-121 -88 -301 -88q-69 0 -121.5 11.5t-96 38.5t-66.5 77t-23 122q0 39 20.5 72t58.5 58t82 44t102.5 35.5t107.5 28t109.5 25.5t96.5 24q0 172 -45 252t-160 80q-89 0 -142 -21t-67 -77zM655 119q-12 47 -12 110v242q-23 -7 -77 -22t-88 -25t-81 -30.5
t-74 -41.5t-47 -54t-20 -73q0 -98 38.5 -137t113.5 -39q60 0 129.5 20t117.5 50z" />
    <glyph glyph-name="b" unicode="b" horiz-adv-x="1101" 
d="M139 1145q-127 10 -129 10v47q38 0 152 44t162 44v-456q100 96 280 96q52 0 105 -13t110.5 -47.5t101.5 -86t72.5 -136.5t28.5 -192q0 -229 -128 -352t-335 -123q-149 0 -244 77q-20 -13 -46.5 -28.5t-66 -32t-63.5 -16.5v1165zM324 764v-643q81 -72 223 -72
q113 0 196.5 107.5t83.5 298.5q0 181 -67.5 293t-175.5 112q-173 0 -260 -96z" />
    <glyph glyph-name="c" unicode="c" horiz-adv-x="980" 
d="M557 860q-126 0 -204.5 -96t-78.5 -260q0 -114 45 -218t119 -166.5t154 -62.5q92 0 159.5 31t127.5 105l49 -25q-60 -97 -154.5 -142.5t-251.5 -45.5q-61 0 -118.5 13.5t-118 49.5t-104.5 92t-72.5 149t-28.5 212q0 86 32 163t90 135.5t145 93t190 34.5q163 0 250 -55.5
t87 -161.5q0 -46 -24 -74.5t-64 -28.5q-37 0 -64.5 18.5t-27.5 53.5q0 43 21.5 63.5t50.5 20.5q-26 102 -209 102z" />
    <glyph glyph-name="d" unicode="d" horiz-adv-x="1099" 
d="M743 881v264q-128 10 -129 10v47q38 0 152 44t162 44v-1165q128 -10 129 -10v-47q-38 0 -152.5 -44t-161.5 -44v67q-96 -67 -245 -67q-52 0 -105 13t-110.5 47.5t-101.5 86t-72.5 136.5t-28.5 192q0 229 128 352t335 123q118 0 200 -49zM743 817q-73 43 -188 43
q-53 0 -102.5 -26.5t-90 -75.5t-64.5 -128t-24 -175q0 -75 30 -168t88.5 -165.5t125.5 -72.5q135 0 225 66v702z" />
    <glyph glyph-name="e" unicode="e" horiz-adv-x="1009" 
d="M274 494q2 -112 47 -213.5t118.5 -162.5t152.5 -61q92 0 159.5 31t127.5 105l49 -25q-60 -97 -154.5 -142.5t-251.5 -45.5q-61 0 -118.5 13.5t-118 49.5t-104.5 92t-72.5 149t-28.5 212q0 87 28 163.5t80 135.5t133 93t181 34q111 0 196 -35t135 -95.5t74.5 -135.5
t24.5 -162h-658zM276 557h455q-6 71 -18 120.5t-37 93.5t-70.5 66.5t-111.5 22.5q-72 0 -138.5 -84.5t-79.5 -218.5z" />
    <glyph glyph-name="f" unicode="f" horiz-adv-x="555" 
d="M680 1169q0 -34 -24 -54.5t-60 -20.5q-29 0 -45 14t-22 34t-11 39.5t-19.5 33.5t-41.5 14q-39 0 -64.5 -59t-25.5 -171v-98h127v-61h-127v-756q9 -22 37.5 -31.5t91.5 -9.5v-43h-443v43q63 0 91.5 9.5t37.5 31.5v756h-102v61h102v70q0 169 69.5 244t184.5 75
q121 0 182.5 -37.5t61.5 -83.5z" />
    <glyph glyph-name="g" unicode="g" horiz-adv-x="1064" 
d="M926 922v-863q0 -210 -102 -339.5t-296 -129.5q-174 0 -279.5 59.5t-105.5 125.5q0 46 24 74t64 28q37 0 65 -18.5t28 -53.5q0 -38 -12 -56.5t-40 -29.5q10 -10 32.5 -21t78 -22.5t125.5 -11.5q100 0 160 86t71 291q-92 -61 -241 -61q-53 0 -105.5 12t-110.5 45
t-101.5 83.5t-72 134.5t-28.5 191q0 229 128 352.5t335 123.5q129 0 225 -66q103 66 158 66zM741 109v24v676q-73 43 -186 43t-197 -107.5t-84 -298.5q0 -180 68 -288.5t176 -108.5q136 0 223 60z" />
    <glyph glyph-name="h" unicode="h" horiz-adv-x="1126" 
d="M43 0v43q63 0 91.5 9.5t37.5 31.5v1061q-127 10 -129 10v47q39 0 152 44t161 44v-463q111 95 244 95q195 0 278 -64t83 -219v-555q9 -22 37.5 -31.5t91.5 -9.5v-43h-443v43q63 0 91.5 9.5t37.5 31.5v569q0 93 -42.5 146t-145.5 53q-129 0 -232 -90v-678q9 -22 37.5 -31.5
t91.5 -9.5v-43h-442z" />
    <glyph glyph-name="i" unicode="i" horiz-adv-x="548" 
d="M63 0v43q63 0 92 9.5t38 31.5v692q-128 10 -130 10v48q38 0 152.5 44t161.5 44v-838q9 -22 37.5 -31.5t91.5 -9.5v-43h-443zM279 1053q-46 0 -79.5 34t-33.5 87q0 47 29.5 81.5t76.5 34.5q46 0 80.5 -35t34.5 -88q0 -46 -30 -80t-78 -34z" />
    <glyph glyph-name="j" unicode="j" horiz-adv-x="497" 
d="M260 1053q-46 0 -79.5 34t-33.5 87q0 47 29.5 81.5t77.5 34.5q46 0 80.5 -35t34.5 -88q0 -46 -30.5 -80t-78.5 -34zM174 776q-128 10 -129 10v48q38 0 151.5 44t161.5 44v-1012q0 -87 -23 -151t-62.5 -99.5t-86.5 -52.5t-102 -17q-130 0 -198 45.5t-68 133.5q0 37 27 59
t61 22q32 0 56 -22t24 -57q0 -29 -21 -50q0 -34 28.5 -51.5t69.5 -17.5q42 0 76.5 60.5t34.5 168.5v895z" />
    <glyph glyph-name="k" unicode="k" horiz-adv-x="1026" 
d="M43 0v43q63 0 91.5 9.5t37.5 31.5v1061q-127 10 -129 10v47q39 0 152 44t161 44v-1206q9 -22 37.5 -31.5t91.5 -9.5v-43h-442zM635 0v43q51 0 78 6l-342 471l362 326q-30 12 -100 12v43h321v-43q-75 0 -110 -27l-291 -260l352 -489q15 -22 43 -30.5t86 -8.5v-43h-399z
" />
    <glyph glyph-name="l" unicode="l" horiz-adv-x="528" 
d="M43 0v43q63 0 91.5 9.5t37.5 31.5v1061q-127 10 -129 10v47q39 0 152 44t161 44v-1206q9 -22 37.5 -31.5t91.5 -9.5v-43h-442z" />
    <glyph glyph-name="m" unicode="m" horiz-adv-x="1685" 
d="M63 0v43q63 0 92 9.5t38 31.5v692q-128 10 -130 10v48q38 0 152.5 44t161.5 44v-93q110 93 227 93q246 0 316 -119q115 119 256 119q344 0 344 -234v-604q9 -22 37.5 -31.5t91.5 -9.5v-43h-443v43q63 0 91.5 9.5t37.5 31.5v528q0 133 -39.5 186.5t-132.5 53.5
q-121 0 -223 -98q8 -27 8 -66v-604q9 -22 37.5 -31.5t91.5 -9.5v-43h-442v43q63 0 91.5 9.5t37.5 31.5v528q0 133 -39.5 186.5t-132.5 53.5q-117 0 -215 -90v-678q9 -22 37.5 -31.5t91.5 -9.5v-43h-443z" />
    <glyph glyph-name="n" unicode="n" horiz-adv-x="1144" 
d="M63 0v43q63 0 92 9.5t38 31.5v692q-128 10 -130 10v48q38 0 152.5 44t161.5 44v-95q111 95 244 95q191 0 275.5 -70.5t84.5 -220.5v-547q9 -22 37.5 -31.5t91.5 -9.5v-43h-442v43q63 0 91.5 9.5t37.5 31.5v561q0 207 -189 207q-128 0 -231 -90v-678q9 -22 37.5 -31.5
t91.5 -9.5v-43h-443z" />
    <glyph glyph-name="o" unicode="o" horiz-adv-x="1116" 
d="M276 508q0 -234 89 -350.5t229 -116.5q111 0 178.5 99t67.5 255q0 463 -322 463q-108 0 -175 -103.5t-67 -246.5zM567 -20q-230 0 -358.5 133.5t-128.5 353.5q0 94 27 173.5t81.5 144t148 101t216.5 36.5q241 0 362 -128.5t121 -351.5q0 -75 -16 -141.5t-52 -125.5
t-89.5 -102t-133 -68t-178.5 -25z" />
    <glyph glyph-name="p" unicode="p" horiz-adv-x="1101" 
d="M45 -393v43q63 0 91.5 9.5t37.5 31.5v1085q-128 10 -129 10v48q38 0 151.5 44t161.5 44v-68q97 68 246 68q52 0 105 -13t110.5 -47.5t101.5 -86t72.5 -137t28.5 -192.5q0 -228 -127.5 -347t-335.5 -119q-120 0 -201 45v-334q9 -22 37.5 -31.5t91.5 -9.5v-43h-442zM358 90
q80 -41 189 -41q113 0 196.5 104.5t83.5 292.5q0 75 -30 168t-88 165.5t-125 72.5q-141 0 -226 -66v-696z" />
    <glyph glyph-name="q" unicode="q" horiz-adv-x="1071" 
d="M618 -393v43q63 0 92 9.5t38 31.5v356q-96 -67 -250 -67q-53 0 -105.5 12t-110.5 45t-101.5 83.5t-72 134.5t-28.5 191q0 229 128 352.5t335 123.5q136 0 229 -68q106 68 160 68v-1231q9 -22 37.5 -31.5t91.5 -9.5v-43h-443zM748 113v692q-73 47 -193 47
q-113 0 -197 -107.5t-84 -298.5q0 -180 68 -288.5t176 -108.5q143 0 230 64z" />
    <glyph glyph-name="r" unicode="r" horiz-adv-x="808" 
d="M63 0v43q63 0 92 9.5t38 31.5v692q-128 10 -130 10v48q38 0 152.5 44t161.5 44v-91q103 91 203 91q91 0 154 -35.5t63 -77.5q0 -36 -22.5 -55t-59.5 -19q-29 0 -49 18.5t-29.5 40t-30 40t-49.5 18.5q-79 0 -180 -88v-680q9 -22 37.5 -31.5t91.5 -9.5v-43h-443z" />
    <glyph glyph-name="s" unicode="s" horiz-adv-x="829" 
d="M424 41q32 0 73.5 12t81 47.5t39.5 87.5q0 45 -38 86.5t-88.5 68.5t-116.5 50q-47 17 -78 30t-71 37.5t-64 51.5t-41 69t-17 93q0 115 83.5 181.5t203.5 66.5q52 0 99.5 -15.5t79.5 -31t46 -15.5q11 0 18 11.5t7 29.5h47v-246h-45q-12 85 -83 145t-163 60
q-66 0 -109.5 -30.5t-43.5 -84.5q0 -26 7 -48t23 -39.5t31 -29.5t43.5 -25t46.5 -20.5t54.5 -20t54.5 -19.5q106 -41 182 -115.5t76 -173.5q0 -126 -100.5 -200t-253.5 -74q-54 0 -101 17t-77 34.5t-44 17.5q-12 0 -28.5 -16t-16.5 -33h-49v289h45q14 -104 97 -176t190 -72z
" />
    <glyph glyph-name="t" unicode="t" horiz-adv-x="681" 
d="M369 1198v-297h176v-61h-176v-652q0 -64 23 -97.5t83 -33.5q36 0 74.5 36.5t52.5 99.5l49 -25q-44 -188 -245 -188q-234 0 -234 225v635h-143v61q97 0 174.5 80t77.5 217h88z" />
    <glyph glyph-name="u" unicode="u" horiz-adv-x="1126" 
d="M952 125q128 -10 129 -10v-47q-39 0 -152 -44t-161 -44v94q-110 -94 -244 -94q-191 0 -275.5 70t-84.5 220v547q-9 22 -37.5 31.5t-91.5 9.5v43h313v-645q0 -207 189 -207q128 0 231 90v678q-9 22 -37.5 31.5t-91.5 9.5v43h313v-776z" />
    <glyph glyph-name="v" unicode="v" horiz-adv-x="989" 
d="M387 901v-43q-59 0 -86 -8l244 -600l233 586q-28 22 -114 22v43h335v-43q-113 0 -127 -39l-327 -819h-101l-325 817q-9 22 -37.5 31.5t-91.5 9.5v43h397z" />
    <glyph glyph-name="w" unicode="w" horiz-adv-x="1556" 
d="M387 901v-43q-59 0 -86 -8l244 -600l184 461l-43 106q-9 22 -37.5 31.5t-91.5 9.5v43h397v-43q-59 0 -86 -8l244 -600l234 586q-28 22 -115 22v43h336v-43q-111 0 -127 -39l-328 -819h-100l-234 586l-233 -586h-101l-325 817q-9 22 -37.5 31.5t-91.5 9.5v43h397z" />
    <glyph glyph-name="x" unicode="x" horiz-adv-x="956" 
d="M897 901v-43q-62 0 -91.5 -9t-45.5 -30l-201 -299l272 -438q13 -22 42 -30.5t85 -8.5v-43h-397v43q51 0 78 6l-190 307l-201 -299q25 -14 102 -14v-43h-336v43q62 0 93 10t47 33l239 356l-237 383q-20 33 -121 33v43h397v-43q-50 0 -80 -6l152 -246l160 238
q-25 14 -103 14v43h336z" />
    <glyph glyph-name="y" unicode="y" horiz-adv-x="989" 
d="M387 901v-43q-59 0 -86 -8l244 -600l233 586q-28 22 -114 22v43h335v-43q-112 0 -127 -37l-411 -1030q-39 -96 -100 -140t-115 -44q-51 0 -81 27t-30 63q0 31 21.5 55.5t58.5 24.5q22 0 46.5 -17.5t37.5 -17.5q44 0 57 37l88 221l-325 817q-9 22 -37.5 31.5t-91.5 9.5v43
h397z" />
    <glyph glyph-name="z" unicode="z" horiz-adv-x="870" 
d="M793 0h-758l543 840h-394q-22 -9 -31.5 -37.5t-9.5 -91.5h-43v190h709l-543 -840h443q22 9 31.5 37.5t9.5 91.5h43v-190z" />
    <glyph glyph-name="braceleft" unicode="{" horiz-adv-x="536" 
d="M180 -125q0 53 9.5 225.5t9.5 206.5q0 70 -37.5 95.5t-116.5 25.5v47q79 0 116.5 26.5t37.5 96.5q0 34 -9.5 205.5t-9.5 224.5q0 189 299 189v-48q-79 0 -118 -26t-39 -96q0 -34 11 -206t11 -225q0 -119 -123 -163q123 -44 123 -164q0 -53 -11 -225.5t-11 -206.5
q0 -69 38.5 -95t118.5 -26v-49q-299 0 -299 188z" />
    <glyph glyph-name="bar" unicode="|" horiz-adv-x="385" 
d="M156 1331h73v-1392h-73v1392z" />
    <glyph glyph-name="braceright" unicode="}" horiz-adv-x="536" 
d="M356 1028q0 -53 -9 -225.5t-9 -206.5q0 -70 37.5 -95.5t116.5 -25.5v-47q-79 0 -116.5 -26.5t-37.5 -96.5q0 -34 9 -205.5t9 -224.5q0 -188 -299 -188v47q79 0 118.5 26.5t39.5 96.5q0 34 -11 205.5t-11 224.5q0 120 122 164q-122 44 -122 163q0 53 11 226t11 207
q0 69 -39 94.5t-119 25.5v50q299 0 299 -189z" />
    <glyph glyph-name="asciitilde" unicode="~" horiz-adv-x="1116" 
d="M791 426q-60 0 -251.5 70.5t-228.5 70.5q-78 0 -106.5 -34.5t-28.5 -106.5h-53q0 270 209 270q60 0 252 -70.5t229 -70.5q78 0 106.5 34.5t28.5 106.5h53q0 -270 -210 -270z" />
    <glyph glyph-name="uni00A0" unicode="&#xa0;" horiz-adv-x="491" 
 />
    <glyph glyph-name="exclamdown" unicode="&#xa1;" horiz-adv-x="477" 
d="M360 961q0 -50 -33 -90t-87 -40q-47 0 -86 36.5t-39 86.5q0 49 34.5 90t88.5 41q47 0 84.5 -37t37.5 -87zM240 684q30 0 47 -139q6 -41 29.5 -322.5t23.5 -355.5q0 -45 -28 -68.5t-72 -23.5t-72.5 23.5t-28.5 68.5q0 74 24.5 357.5t29.5 320.5q17 139 47 139z" />
    <glyph glyph-name="cent" unicode="&#xa2;" horiz-adv-x="968" 
d="M594 1174l74 -15l-43 -244q113 -15 173 -68t60 -142q0 -46 -24 -74.5t-64 -28.5q-37 0 -64.5 18.5t-27.5 53.5q0 43 21.5 63.5t50.5 20.5q-22 82 -136 98l-135 -774q48 -25 96 -25q92 0 159.5 31t127.5 105l49 -25q-60 -97 -154.5 -142.5t-250.5 -45.5q-31 0 -45 2
l-43 -244l-76 14l43 242q-65 17 -119.5 50.5t-101.5 91t-74 149.5t-27 211q0 86 32 163t90 135.5t145 93t190 34.5h29zM410 131l129 729q-125 -2 -203 -98t-78 -258q0 -110 42 -210t110 -163z" />
    <glyph glyph-name="sterling" unicode="&#xa3;" horiz-adv-x="1091" 
d="M702 147q73 0 129.5 12.5t86.5 29.5t49.5 34.5t29.5 30t15 12.5q20 0 20 -24q0 -7 -7.5 -27t-22 -50t-40.5 -61t-59.5 -58t-84 -44.5t-107.5 -17.5q-129 0 -254 108q-74 -112 -193 -112q-99 0 -152 55.5t-53 132.5q0 58 56 111t116 53q59 0 123 -31v10q0 62 -15 185.5
t-17 210.5h-140v90h140q7 221 80 321.5t212 100.5q136 0 222 -47t86 -132q0 -37 -27 -59.5t-61 -22.5q-32 0 -56 22.5t-24 57.5q0 29 20 49q0 33 -46.5 51.5t-92.5 18.5q-62 0 -95 -82t-34 -278h217v-90h-215q2 -49 10 -159t8 -183q0 -90 -20 -160q97 -58 196 -58zM348 197
q-65 65 -117 65q-39 0 -70.5 -28.5t-31.5 -67.5q0 -52 36 -84.5t91 -32.5q74 0 92 148z" />
    <glyph glyph-name="currency" unicode="&#xa4;" horiz-adv-x="1046" 
d="M231 537q0 -121 85.5 -207t207.5 -86t207.5 86t85.5 207t-85.5 206.5t-207.5 85.5t-207.5 -85.5t-85.5 -206.5zM219 301q-80 108 -80 236q0 130 84 239l-114 113l65 65l113 -114q106 82 237 82q128 0 236 -80l110 112l66 -65l-111 -111q84 -105 84 -241q0 -132 -82 -238
l109 -106l-66 -66l-106 109q-109 -84 -240 -84q-136 0 -241 84l-109 -109l-65 66z" />
    <glyph glyph-name="yen" unicode="&#xa5;" horiz-adv-x="1107" 
d="M446 1198v-43q-59 0 -86 -8l244 -600l234 586q-28 22 -115 22v43h336v-43q-113 0 -127 -39l-266 -665h161v-91h-174v-114h174v-90h-174v-72q9 -22 37.5 -31.5t91.5 -9.5v-43h-446v43q63 0 91.5 9.5t37.5 31.5v72h-178v90h178v114h-178v91h155l-264 663q-9 22 -37.5 31.5
t-91.5 9.5v43h397z" />
    <glyph glyph-name="brokenbar" unicode="&#xa6;" horiz-adv-x="393" 
d="M160 1331h73v-590h-73v590zM160 528h73v-589h-73v589z" />
    <glyph glyph-name="section" unicode="&#xa7;" horiz-adv-x="839" 
d="M635 938q-29 0 -51.5 23t-22.5 51q0 61 -32.5 114.5t-88.5 53.5q-69 0 -109 -26t-40 -97q0 -34 48 -94t116.5 -128.5t137.5 -141t117 -150t48 -137.5q0 -252 -201 -320q148 -144 148 -258q0 -80 -94 -146.5t-228 -66.5q-92 0 -170 73.5t-78 127.5q0 33 18.5 57.5
t51.5 24.5q29 0 51.5 -23t22.5 -51q0 -62 32.5 -115t87.5 -53q69 0 109.5 26t40.5 97q0 34 -48 94t-116.5 128.5t-137.5 141t-117 150t-48 137.5q0 252 201 320q-148 144 -148 258q0 80 94 146.5t228 66.5q92 0 170 -73.5t78 -127.5q0 -33 -18.5 -57.5t-51.5 -24.5zM500 141
q62 19 98.5 57t36.5 89q0 28 -8 57t-18 52.5t-32 54t-37 49.5t-47.5 51t-48 46.5t-53.5 49.5t-51 47q-62 -19 -98.5 -56.5t-36.5 -88.5q0 -28 8 -57.5t18 -52.5t32.5 -54t36.5 -49t47.5 -51.5t48 -47t53.5 -49.5t51 -47z" />
    <glyph glyph-name="dieresis" unicode="&#xa8;" horiz-adv-x="823" 
d="M500 1124q0 41 29.5 71t70.5 30t70.5 -30t29.5 -71t-29.5 -70.5t-70.5 -29.5t-70.5 29.5t-29.5 70.5zM123 1124q0 41 29.5 71t70.5 30t71 -30t30 -71t-30 -70.5t-71 -29.5t-70.5 29.5t-29.5 70.5z" />
    <glyph glyph-name="copyright" unicode="&#xa9;" horiz-adv-x="1312" 
d="M147 549q0 -138 68.5 -255.5t186 -186t255.5 -68.5t255.5 68.5t186 186t68.5 255.5t-68.5 255.5t-186 186t-255.5 68.5t-255.5 -68.5t-186 -186t-68.5 -255.5zM92 549q0 153 76 283t206 206t283 76t283.5 -76t206.5 -206t76 -283t-76 -283t-206.5 -206t-283.5 -76
t-283 76t-206 206t-76 283zM682 823q-85 0 -139 -71t-54 -181q0 -133 59 -205.5t138 -72.5q54 0 100.5 36.5t61.5 78.5l43 -21q-58 -149 -225 -149q-96 0 -167 46t-104 115t-33 150q0 100 46.5 177t118.5 115t155 38q27 0 52.5 -7.5t41.5 -15.5t19 -8q2 0 2 20h45l10 -151
h-41q-10 51 -39 78.5t-90 27.5z" />
    <glyph glyph-name="ordfeminine" unicode="&#xaa;" horiz-adv-x="743" 
d="M131 317h492v-53h-492v53zM238 844q32 -8 32 -51q0 -26 -18.5 -35.5t-38.5 -9.5q-26 0 -39.5 18.5t-13.5 42.5q0 61 48.5 92t129.5 31q100 0 147 -51t47 -131v-203q0 -53 27 -53q17 0 21 5.5t4 18.5h39q0 -42 -23.5 -59t-81.5 -17q-52 0 -76 37q-63 -39 -147 -39
q-164 0 -164 135q0 30 19.5 53.5t57.5 39t69 25t79.5 20t63.5 14.5q-2 83 -21.5 115t-70.5 32q-72 0 -90 -30zM424 524q-4 23 -4 51v107q-8 -3 -34.5 -10.5t-36.5 -11t-31 -11t-30 -14t-21 -16t-16.5 -21t-4.5 -25.5q0 -47 16 -62t49 -15q59 0 113 28z" />
    <glyph glyph-name="guillemotleft" unicode="&#xab;" horiz-adv-x="894" 
d="M106 664l332 192v-53l-178 -191l178 -190v-53l-332 192q-26 14 -26 51q0 38 26 52zM434 664l332 192v-53l-178 -191l178 -190v-53l-332 192q-26 14 -26 51q0 38 26 52z" />
    <glyph glyph-name="logicalnot" unicode="&#xac;" horiz-adv-x="868" 
d="M645 606h-512v90h598v-270h-86v180z" />
    <glyph glyph-name="uni00AD" unicode="&#xad;" horiz-adv-x="794" 
d="M127 696h541v-90h-541v90z" />
    <glyph glyph-name="registered" unicode="&#xae;" horiz-adv-x="1312" 
d="M147 549q0 -138 68.5 -255.5t186 -186t255.5 -68.5t255.5 68.5t186 186t68.5 255.5t-68.5 255.5t-186 186t-255.5 68.5t-255.5 -68.5t-186 -186t-68.5 -255.5zM92 549q0 153 76 283t206 206t283 76t283.5 -76t206.5 -206t76 -283t-76 -283t-206.5 -206t-283.5 -76
t-283 76t-206 206t-76 283zM387 250v41q55 0 64 14v510q-6 12 -64 12v41h242q132 0 199 -48t67 -111q0 -59 -33 -102.5t-96 -65.5l131 -234q5 -16 68 -16v-41h-54q-73 0 -98 10.5t-47 48.5l-121 213h-80v-217q6 -14 64 -14v-41h-242zM565 815v-237h76q80 0 105.5 28
t25.5 101q0 54 -30.5 81t-112.5 27h-64z" />
    <glyph glyph-name="macron" unicode="&#xaf;" horiz-adv-x="786" 
d="M123 1143h541v-90h-541v90z" />
    <glyph glyph-name="degree" unicode="&#xb0;" horiz-adv-x="638" 
d="M170 1057q0 -61 43.5 -104.5t105.5 -43.5t106 43.5t44 104.5t-44 105t-106 44q-61 0 -105 -44t-44 -105zM86 1057q0 95 69 164t164 69t164.5 -69t69.5 -164t-69.5 -163.5t-164.5 -68.5t-164 68.5t-69 163.5z" />
    <glyph glyph-name="plusminus" unicode="&#xb1;" horiz-adv-x="851" 
d="M133 365h586v-91h-586v91zM471 713v-207h-90v207h-248v90h248v207h90v-207h248v-90h-248z" />
    <glyph glyph-name="uni00B2" unicode="&#xb2;" horiz-adv-x="737" 
d="M539 688q22 8 44 32t33 56h46l-58 -203h-530v11q0 20 40.5 62t98.5 95t116.5 113.5t99 132t40.5 135.5q0 56 -33.5 91.5t-95.5 35.5q-58 0 -99 -13.5t-60.5 -32.5t-31.5 -38.5t-21 -33t-19 -13.5q-11 0 -16 7.5t-5 15.5q0 14 8.5 37.5t29.5 54t50 57t76.5 44.5t103.5 18
q136 0 201.5 -56.5t65.5 -154.5q0 -55 -50.5 -130t-111 -133t-123 -116t-74.5 -74h275z" />
    <glyph glyph-name="uni00B3" unicode="&#xb3;" horiz-adv-x="724" 
d="M311 942q-14 0 -25.5 9t-11.5 18q0 6 4 10.5t7.5 6t5.5 1.5q87 27 114 44q58 36 58 104q0 53 -36.5 83.5t-102.5 30.5q-48 0 -81.5 -11t-49 -27t-25 -32t-17 -27t-18.5 -11q-7 0 -12 5t-6.5 10t-1.5 9q0 14 7.5 35.5t26 48t43.5 49.5t64.5 38.5t85.5 15.5q260 0 260 -199
q0 -86 -100 -147q62 -25 99.5 -74.5t37.5 -108.5q0 -56 -13 -99.5t-44.5 -81t-91 -57.5t-144.5 -20q-58 0 -111 14.5t-86 35t-52 40.5t-19 33q0 46 12.5 65t44.5 19q19 0 31 -15t21.5 -36t24 -42.5t46.5 -36.5t80 -15q168 0 168 168q0 56 -31.5 105.5t-93.5 49.5
q-17 0 -36 -4t-32 -4z" />
    <glyph glyph-name="acute" unicode="&#xb4;" horiz-adv-x="614" 
d="M274 1356h218l-316 -332h-53z" />
    <glyph glyph-name="uni00B5" unicode="&#xb5;" horiz-adv-x="1187" 
d="M958 901v-731q0 -65 22 -97t52 -32q27 0 48.5 15t21.5 36h37q0 -59 -43 -85.5t-146 -26.5q-134 0 -166 145q-117 -145 -282 -145q-174 0 -258 69v-117q0 -49 14 -81.5t33.5 -48.5t39.5 -30t34 -35.5t14 -53.5q0 -44 -31 -68.5t-72 -24.5q-43 0 -80.5 32.5t-37.5 103.5
v1175h184v-645q0 -207 188 -207q130 0 244 148v30v674h184z" />
    <glyph glyph-name="paragraph" unicode="&#xb6;" horiz-adv-x="1089" 
d="M260 0v43q63 0 91.5 9.5t37.5 31.5v465q-155 15 -241.5 102t-86.5 221q0 43 14 86.5t47.5 87.5t83 77t127.5 54t175 21h491v-43q-63 0 -91.5 -9.5t-37.5 -31.5v-1030q9 -22 37.5 -31.5t91.5 -9.5v-43h-317v1128h-104v-1128h-318z" />
    <glyph glyph-name="periodcentered" unicode="&#xb7;" horiz-adv-x="466" 
d="M111 616q0 50 33 89.5t87 39.5q47 0 86 -36t39 -86q0 -49 -34.5 -90t-88.5 -41q-47 0 -84.5 37t-37.5 87z" />
    <glyph glyph-name="cedilla" unicode="&#xb8;" horiz-adv-x="622" 
d="M254 25h78l-37 -138q37 0 81 -11.5t84 -44.5t40 -81q0 -29 -9.5 -54.5t-33 -50t-70.5 -39t-113 -14.5q-62 0 -151 15v35q36 -4 51 -4q79 0 113.5 29.5t34.5 66.5q0 90 -125 90z" />
    <glyph glyph-name="uni00B9" unicode="&#xb9;" horiz-adv-x="495" 
d="M82 1040q6 10 36 64t48 84t44.5 71.5t46 61.5t32.5 20h37v-700q10 -20 88 -20v-48h-320v48q74 0 86 20v444q-7 -4 -13 -9t-13.5 -13t-12 -12.5t-13 -15t-11.5 -13.5z" />
    <glyph glyph-name="ordmasculine" unicode="&#xba;" horiz-adv-x="751" 
d="M127 317h498v-53h-498v53zM246 715q0 -116 41 -169.5t106 -53.5q52 0 82.5 46t30.5 119q0 118 -38.5 170t-111.5 52q-49 0 -79.5 -49t-30.5 -115zM381 440q-120 0 -187 71t-67 183q0 104 62 171t184 67q126 0 189 -68.5t63 -181.5q0 -105 -61 -173.5t-183 -68.5z" />
    <glyph glyph-name="guillemotright" unicode="&#xbb;" horiz-adv-x="894" 
d="M461 561l-332 -192v53l178 190l-178 191v53l332 -192q26 -14 26 -52q0 -37 -26 -51zM788 561l-331 -192v53l178 190l-178 191v53l331 -192q27 -15 27 -52q0 -36 -27 -51z" />
    <glyph glyph-name="onequarter" unicode="&#xbc;" horiz-adv-x="1331" 
d="M213 -20l797 1273l59 -36l-797 -1274zM1159 768v-494h113v-59h-113v-147q12 -21 86 -21v-47h-315v47q76 0 86 21v147h-330l387 553h86zM1016 274v308l-215 -308h215zM70 1040q7 13 36 65t47.5 83t44.5 71.5t45.5 61t32.5 20.5h37v-700q10 -20 88 -20v-48h-319v48
q74 0 86 20v444q-20 -12 -64 -63z" />
    <glyph glyph-name="onehalf" unicode="&#xbd;" horiz-adv-x="1388" 
d="M168 -20l797 1273l59 -36l-797 -1274zM1206 115q22 8 44.5 32t33.5 56h45l-57 -203h-531v10q0 20 41 62t99 95.5t116 113.5t99 132t41 136q0 56 -33.5 91.5t-95.5 35.5q-58 0 -99 -13.5t-60.5 -33t-32 -38.5t-21.5 -32.5t-19 -13.5q-20 0 -20 22q0 14 8.5 37.5t29.5 54
t50 57t76.5 44.5t103.5 18q136 0 201 -56.5t65 -154.5q0 -55 -50.5 -130t-111 -133t-122.5 -115.5t-74 -73.5h274zM74 1040q6 10 36 64t48 84t44.5 71.5t46 61.5t32.5 20h36v-700q10 -20 89 -20v-48h-320v48q74 0 86 20v444q-7 -4 -13 -9t-13.5 -13t-12 -12.5t-13 -15
t-11.5 -13.5z" />
    <glyph glyph-name="threequarters" unicode="&#xbe;" horiz-adv-x="1406" 
d="M307 -20l797 1273l59 -36l-796 -1274zM1233 768v-494h113v-59h-113v-147q12 -21 86 -21v-47h-315v47q76 0 86 21v147h-330l387 553h86zM1090 274v308l-216 -308h216zM295 942q-14 0 -25.5 9t-11.5 18q0 6 4 10.5t7 6t5 1.5q87 27 114 44q58 36 58 104q0 53 -36.5 83.5
t-102.5 30.5q-48 0 -81.5 -11t-48.5 -27t-24.5 -32t-17 -27t-18.5 -11q-10 0 -15.5 8.5t-5.5 15.5q0 18 13.5 47t39 61.5t72 55.5t103.5 23q260 0 260 -199q0 -86 -101 -147q62 -25 100 -74.5t38 -108.5q0 -56 -13 -99.5t-44.5 -81t-91 -57.5t-144.5 -20q-58 0 -111 14.5
t-86 35t-52.5 40.5t-19.5 33q0 46 13 65t45 19q19 0 31 -15t21.5 -36t23.5 -42.5t46 -36.5t80 -15q168 0 168 168q0 56 -31.5 105.5t-93.5 49.5q-17 0 -35.5 -4t-31.5 -4z" />
    <glyph glyph-name="questiondown" unicode="&#xbf;" horiz-adv-x="806" 
d="M557 961q0 -50 -33.5 -90t-87.5 -40q-47 0 -86 36.5t-39 86.5q0 49 34.5 90t88.5 41q47 0 85 -37t38 -87zM465 655q0 -63 -22 -122.5t-53.5 -107.5t-63.5 -97.5t-54 -113t-22 -132.5q0 -130 45 -188t149 -58q79 0 130 47.5t51 98.5q0 25 -15.5 52t-15.5 50
q0 31 19.5 50.5t48.5 19.5q35 0 60.5 -26t25.5 -79q0 -47 -19.5 -94t-57.5 -88t-102 -66.5t-145 -25.5q-98 0 -171.5 30t-112 79t-56.5 101t-18 107q0 56 25.5 113t64 102.5t83.5 94t83.5 88.5t64 83.5t25.5 81.5q0 10 9 19.5t17 9.5t17.5 -9.5t9.5 -19.5z" />
    <glyph glyph-name="Agrave" unicode="&#xc0;" horiz-adv-x="1118" 
d="M467 1602l151 -332h-53l-315 332h217zM688 0v43q94 0 119 25l-115 313h-393l-106 -301q11 -21 38 -29t88 -8v-43h-335v43q63 0 92 10.5t37 32.5l397 1112h98l398 -1112q15 -43 131 -43v-43h-449zM494 926l-170 -477h344z" />
    <glyph glyph-name="Aacute" unicode="&#xc1;" horiz-adv-x="1118" 
d="M690 1602h217l-315 -332h-53zM688 0v43q94 0 119 25l-115 313h-393l-106 -301q11 -21 38 -29t88 -8v-43h-335v43q63 0 92 10.5t37 32.5l397 1112h98l398 -1112q15 -43 131 -43v-43h-449zM494 926l-170 -477h344z" />
    <glyph glyph-name="Acircumflex" unicode="&#xc2;" horiz-adv-x="1118" 
d="M616 1602l193 -332h-53l-191 178l-190 -178h-53l192 332h102zM688 0v43q94 0 119 25l-115 313h-393l-106 -301q11 -21 38 -29t88 -8v-43h-335v43q63 0 92 10.5t37 32.5l397 1112h98l398 -1112q15 -43 131 -43v-43h-449zM494 926l-170 -477h344z" />
    <glyph glyph-name="Atilde" unicode="&#xc3;" horiz-adv-x="1118" 
d="M719 1270q-45 0 -167.5 60.5t-150.5 60.5q-58 0 -80 -30t-22 -91h-39q0 69 13 116.5t36.5 71t48.5 32.5t58 9q45 0 168 -60.5t151 -60.5q58 0 80.5 30t22.5 91h39q0 -69 -13 -116.5t-37 -71t-49.5 -32.5t-58.5 -9zM688 0v43q94 0 119 25l-115 313h-393l-106 -301
q11 -21 38 -29t88 -8v-43h-335v43q63 0 92 10.5t37 32.5l397 1112h98l398 -1112q15 -43 131 -43v-43h-449zM494 926l-170 -477h344z" />
    <glyph glyph-name="Adieresis" unicode="&#xc4;" horiz-adv-x="1118" 
d="M653 1370q0 41 30 70.5t71 29.5t70.5 -29.5t29.5 -70.5t-29.5 -70.5t-70.5 -29.5t-71 29.5t-30 70.5zM276 1370q0 41 30 70.5t71 29.5t70.5 -29.5t29.5 -70.5t-29.5 -70.5t-70.5 -29.5t-71 29.5t-30 70.5zM688 0v43q94 0 119 25l-115 313h-393l-106 -301q11 -21 38 -29
t88 -8v-43h-335v43q63 0 92 10.5t37 32.5l397 1112h98l398 -1112q15 -43 131 -43v-43h-449zM494 926l-170 -477h344z" />
    <glyph glyph-name="Aring" unicode="&#xc5;" horiz-adv-x="1118" 
d="M469 1411q0 -40 28 -68t68 -28t68.5 28t28.5 68t-28.5 68t-68.5 28t-68 -28t-28 -68zM381 1411q0 78 53 131t131 53t131.5 -53t53.5 -131t-53.5 -131t-131.5 -53t-131 53t-53 131zM688 0v43q94 0 119 25l-115 313h-393l-106 -301q11 -21 38 -29t88 -8v-43h-335v43
q63 0 92 10.5t37 32.5l397 1112h98l398 -1112q15 -43 131 -43v-43h-449zM494 926l-170 -477h344z" />
    <glyph glyph-name="AE" unicode="&#xc6;" horiz-adv-x="1550" 
d="M291 0h-336v43q106 0 129 41l588 1049q-25 22 -117 22v43h868v-199h-43q0 63 -9.5 91.5t-31.5 37.5h-424v-471h287q22 9 31.5 37.5t9.5 91.5h43v-327h-43q0 63 -9.5 91.5t-31.5 37.5h-287v-518h467q51 21 93 129h41l-50 -199h-868v43q63 0 91.5 9.5t37.5 31.5v297h-395
l-168 -301q11 -20 38.5 -28.5t88.5 -8.5v-43zM371 449h356v636z" />
    <glyph glyph-name="Ccedilla" unicode="&#xc7;" horiz-adv-x="1155" 
d="M713 1149l-2 2q-177 0 -293.5 -145.5t-116.5 -376.5q0 -138 35 -250t94 -182.5t133.5 -108t155.5 -37.5q102 0 202.5 70.5t129.5 150.5l49 -24q-20 -49 -50.5 -91.5t-77.5 -82.5t-116.5 -64.5t-153.5 -27.5l-24 -93q37 0 81 -11.5t84 -44.5t40 -81q0 -29 -9.5 -54.5
t-33 -50t-70.5 -39t-113 -14.5q-63 0 -151 15v35q36 -4 51 -4q79 0 113.5 29.5t34.5 66.5q0 90 -125 90l45 158q-126 10 -229 63t-169 135.5t-101.5 185t-35.5 214.5q0 144 51.5 266t138 202t198.5 124.5t233 44.5q45 0 93 -15.5t84 -31t50 -15.5q11 0 18 11.5t7 29.5h47
l20 -260h-45q-13 93 -80.5 152t-191.5 59z" />
    <glyph glyph-name="Egrave" unicode="&#xc8;" horiz-adv-x="1038" 
d="M451 1602l151 -332h-53l-316 332h218zM86 0v43q63 0 91.5 9.5t37.5 31.5v1030q-9 22 -37.5 31.5t-91.5 9.5v43h825v-199h-43q0 63 -9.5 91.5t-31.5 37.5h-424v-471h287q22 9 31.5 37.5t9.5 91.5h43v-327h-43q0 63 -9.5 91.5t-31.5 37.5h-287v-518h467q51 21 93 129h41
l-50 -199h-868z" />
    <glyph glyph-name="Eacute" unicode="&#xc9;" horiz-adv-x="1038" 
d="M674 1602h217l-316 -332h-53zM86 0v43q63 0 91.5 9.5t37.5 31.5v1030q-9 22 -37.5 31.5t-91.5 9.5v43h825v-199h-43q0 63 -9.5 91.5t-31.5 37.5h-424v-471h287q22 9 31.5 37.5t9.5 91.5h43v-327h-43q0 63 -9.5 91.5t-31.5 37.5h-287v-518h467q51 21 93 129h41l-50 -199
h-868z" />
    <glyph glyph-name="Ecircumflex" unicode="&#xca;" horiz-adv-x="1038" 
d="M600 1602l193 -332h-54l-190 178l-191 -178h-53l193 332h102zM86 0v43q63 0 91.5 9.5t37.5 31.5v1030q-9 22 -37.5 31.5t-91.5 9.5v43h825v-199h-43q0 63 -9.5 91.5t-31.5 37.5h-424v-471h287q22 9 31.5 37.5t9.5 91.5h43v-327h-43q0 63 -9.5 91.5t-31.5 37.5h-287v-518
h467q51 21 93 129h41l-50 -199h-868z" />
    <glyph glyph-name="Edieresis" unicode="&#xcb;" horiz-adv-x="1038" 
d="M637 1370q0 41 29.5 70.5t70.5 29.5t71 -29.5t30 -70.5t-30 -70.5t-71 -29.5t-70.5 29.5t-29.5 70.5zM260 1370q0 41 29.5 70.5t70.5 29.5t71 -29.5t30 -70.5t-30 -70.5t-71 -29.5t-70.5 29.5t-29.5 70.5zM86 0v43q63 0 91.5 9.5t37.5 31.5v1030q-9 22 -37.5 31.5
t-91.5 9.5v43h825v-199h-43q0 63 -9.5 91.5t-31.5 37.5h-424v-471h287q22 9 31.5 37.5t9.5 91.5h43v-327h-43q0 63 -9.5 91.5t-31.5 37.5h-287v-518h467q51 21 93 129h41l-50 -199h-868z" />
    <glyph glyph-name="Igrave" unicode="&#xcc;" horiz-adv-x="618" 
d="M207 1602l151 -332h-53l-315 332h217zM86 0v43q63 0 91.5 9.5t37.5 31.5v1030q-9 22 -37.5 31.5t-91.5 9.5v43h446v-43q-63 0 -91.5 -9.5t-37.5 -31.5v-1030q9 -22 37.5 -31.5t91.5 -9.5v-43h-446z" />
    <glyph glyph-name="Iacute" unicode="&#xcd;" horiz-adv-x="618" 
d="M430 1602h217l-315 -332h-53zM86 0v43q63 0 91.5 9.5t37.5 31.5v1030q-9 22 -37.5 31.5t-91.5 9.5v43h446v-43q-63 0 -91.5 -9.5t-37.5 -31.5v-1030q9 -22 37.5 -31.5t91.5 -9.5v-43h-446z" />
    <glyph glyph-name="Icircumflex" unicode="&#xce;" horiz-adv-x="618" 
d="M356 1602l193 -332h-53l-191 178l-190 -178h-54l193 332h102zM86 0v43q63 0 91.5 9.5t37.5 31.5v1030q-9 22 -37.5 31.5t-91.5 9.5v43h446v-43q-63 0 -91.5 -9.5t-37.5 -31.5v-1030q9 -22 37.5 -31.5t91.5 -9.5v-43h-446z" />
    <glyph glyph-name="Idieresis" unicode="&#xcf;" horiz-adv-x="618" 
d="M393 1370q0 41 30 70.5t71 29.5t70.5 -29.5t29.5 -70.5t-29.5 -70.5t-70.5 -29.5t-71 29.5t-30 70.5zM16 1370q0 41 30 70.5t71 29.5t70.5 -29.5t29.5 -70.5t-29.5 -70.5t-70.5 -29.5t-71 29.5t-30 70.5zM86 0v43q63 0 91.5 9.5t37.5 31.5v1030q-9 22 -37.5 31.5
t-91.5 9.5v43h446v-43q-63 0 -91.5 -9.5t-37.5 -31.5v-1030q9 -22 37.5 -31.5t91.5 -9.5v-43h-446z" />
    <glyph glyph-name="Eth" unicode="&#xd0;" horiz-adv-x="1243" 
d="M78 -2v43q63 0 91.5 9.5t37.5 31.5v233q0 137 35 242.5t111 188.5t206.5 131t312.5 59q-56 101 -142 151t-181 50h-154v-174h-82v174h-200q-22 -9 -31.5 -37.5t-9.5 -91.5h-43v190h284v143h82v-143h154q273 0 438.5 -166t165.5 -432q0 -267 -161.5 -434.5t-418.5 -167.5
h-495zM901 874q-136 -9 -236.5 -50.5t-158 -108t-84.5 -146.5t-27 -176v-325h178q51 0 102 17.5t101 58t87.5 100t61 151t23.5 203.5q0 156 -47 276z" />
    <glyph glyph-name="Ntilde" unicode="&#xd1;" horiz-adv-x="1306" 
d="M805 1270q-45 0 -167.5 60.5t-150.5 60.5q-58 0 -80 -30t-22 -91h-39q0 69 13 116.5t36.5 71t48.5 32.5t58 9q45 0 168 -60.5t151 -60.5q58 0 80.5 30t22.5 91h39q0 -69 -13 -116.5t-37 -71t-49.5 -32.5t-58.5 -9zM86 0v43q63 0 91.5 9.5t37.5 31.5v1030
q-9 22 -37.5 31.5t-91.5 9.5v43h274l678 -838v754q-9 22 -37.5 31.5t-91.5 9.5v43h328v-43q-63 0 -91.5 -9.5t-37.5 -31.5v-1114h-18l-805 1018v-934q9 -22 37.5 -31.5t91.5 -9.5v-43h-328z" />
    <glyph glyph-name="Ograve" unicode="&#xd2;" horiz-adv-x="1312" 
d="M559 1602l152 -332h-54l-315 332h217zM295 614q0 -78 13.5 -156t43.5 -152t72.5 -131t105 -91.5t136.5 -34.5t135 33t100.5 86t67 123.5t39.5 143.5t12 147q0 77 -14 155.5t-44.5 153t-73 131.5t-104.5 92t-135 35q-74 0 -135 -33t-100.5 -86.5t-67 -124.5t-39.5 -144
t-12 -147zM90 598q0 125 41.5 238t114.5 198t180 135t231 50q164 0 295.5 -85.5t202 -227t70.5 -308.5t-71.5 -307.5t-202.5 -225.5t-294 -85q-166 0 -297 85t-200.5 225.5t-69.5 307.5z" />
    <glyph glyph-name="Oacute" unicode="&#xd3;" horiz-adv-x="1312" 
d="M782 1602h217l-315 -332h-53zM295 614q0 -78 13.5 -156t43.5 -152t72.5 -131t105 -91.5t136.5 -34.5t135 33t100.5 86t67 123.5t39.5 143.5t12 147q0 77 -14 155.5t-44.5 153t-73 131.5t-104.5 92t-135 35q-74 0 -135 -33t-100.5 -86.5t-67 -124.5t-39.5 -144t-12 -147z
M90 598q0 125 41.5 238t114.5 198t180 135t231 50q164 0 295.5 -85.5t202 -227t70.5 -308.5t-71.5 -307.5t-202.5 -225.5t-294 -85q-166 0 -297 85t-200.5 225.5t-69.5 307.5z" />
    <glyph glyph-name="Ocircumflex" unicode="&#xd4;" horiz-adv-x="1312" 
d="M709 1602l192 -332h-53l-191 178l-190 -178h-53l192 332h103zM295 614q0 -78 13.5 -156t43.5 -152t72.5 -131t105 -91.5t136.5 -34.5t135 33t100.5 86t67 123.5t39.5 143.5t12 147q0 77 -14 155.5t-44.5 153t-73 131.5t-104.5 92t-135 35q-74 0 -135 -33t-100.5 -86.5
t-67 -124.5t-39.5 -144t-12 -147zM90 598q0 125 41.5 238t114.5 198t180 135t231 50q164 0 295.5 -85.5t202 -227t70.5 -308.5t-71.5 -307.5t-202.5 -225.5t-294 -85q-166 0 -297 85t-200.5 225.5t-69.5 307.5z" />
    <glyph glyph-name="Otilde" unicode="&#xd5;" horiz-adv-x="1312" 
d="M811 1270q-45 0 -167 60.5t-150 60.5q-58 0 -80.5 -30t-22.5 -91h-39q0 69 13 116.5t36.5 71t48.5 32.5t58 9q45 0 168 -60.5t151 -60.5q58 0 80.5 30t22.5 91h39q0 -69 -13 -116.5t-37 -71t-49.5 -32.5t-58.5 -9zM295 614q0 -78 13.5 -156t43.5 -152t72.5 -131
t105 -91.5t136.5 -34.5t135 33t100.5 86t67 123.5t39.5 143.5t12 147q0 77 -14 155.5t-44.5 153t-73 131.5t-104.5 92t-135 35q-74 0 -135 -33t-100.5 -86.5t-67 -124.5t-39.5 -144t-12 -147zM90 598q0 125 41.5 238t114.5 198t180 135t231 50q164 0 295.5 -85.5t202 -227
t70.5 -308.5t-71.5 -307.5t-202.5 -225.5t-294 -85q-166 0 -297 85t-200.5 225.5t-69.5 307.5z" />
    <glyph glyph-name="Odieresis" unicode="&#xd6;" horiz-adv-x="1312" 
d="M745 1370q0 41 30 70.5t71 29.5t70.5 -29.5t29.5 -70.5t-29.5 -70.5t-70.5 -29.5t-71 29.5t-30 70.5zM369 1370q0 41 29.5 70.5t70.5 29.5t70.5 -29.5t29.5 -70.5t-29.5 -70.5t-70.5 -29.5t-70.5 29.5t-29.5 70.5zM295 614q0 -78 13.5 -156t43.5 -152t72.5 -131
t105 -91.5t136.5 -34.5t135 33t100.5 86t67 123.5t39.5 143.5t12 147q0 77 -14 155.5t-44.5 153t-73 131.5t-104.5 92t-135 35q-74 0 -135 -33t-100.5 -86.5t-67 -124.5t-39.5 -144t-12 -147zM90 598q0 125 41.5 238t114.5 198t180 135t231 50q164 0 295.5 -85.5t202 -227
t70.5 -308.5t-71.5 -307.5t-202.5 -225.5t-294 -85q-166 0 -297 85t-200.5 225.5t-69.5 307.5z" />
    <glyph glyph-name="multiply" unicode="&#xd7;" horiz-adv-x="860" 
d="M494 651l262 -262l-64 -63l-262 262l-262 -262l-64 63l263 262l-263 262l64 64l262 -262l262 262l64 -64z" />
    <glyph glyph-name="Oslash" unicode="&#xd8;" horiz-adv-x="1312" 
d="M885 1026q-98 123 -236 123q-74 0 -135 -33t-100.5 -86.5t-67 -124.5t-39.5 -144t-12 -147q0 -221 92 -383zM928 963l-498 -795q94 -119 236 -119q74 0 135 33t100.5 86t67 123.5t39.5 143.5t12 147q0 219 -92 381zM90 598q0 125 41.5 238t114.5 198t180 135t231 50
q162 0 295 -84l74 118l59 -36l-77 -125q103 -86 160 -215.5t57 -278.5q0 -167 -71.5 -307.5t-202.5 -225.5t-294 -85q-164 0 -292 81l-76 -118l-60 37l78 124q-103 86 -160 215.5t-57 278.5z" />
    <glyph glyph-name="Ugrave" unicode="&#xd9;" horiz-adv-x="1265" 
d="M590 1602l151 -332h-53l-315 332h217zM692 49q137 0 230.5 114.5t93.5 303.5v647q-9 22 -37.5 31.5t-91.5 9.5v43h327v-43q-63 0 -91.5 -9.5t-37.5 -31.5v-606q0 -137 -33.5 -241t-91.5 -165t-130.5 -91.5t-157.5 -30.5q-492 0 -492 528v606q-9 22 -37.5 31.5t-91.5 9.5
v43h447v-43q-63 0 -91.5 -9.5t-37.5 -31.5v-635q0 -204 89.5 -317t233.5 -113z" />
    <glyph glyph-name="Uacute" unicode="&#xda;" horiz-adv-x="1265" 
d="M813 1602h217l-315 -332h-53zM692 49q137 0 230.5 114.5t93.5 303.5v647q-9 22 -37.5 31.5t-91.5 9.5v43h327v-43q-63 0 -91.5 -9.5t-37.5 -31.5v-606q0 -137 -33.5 -241t-91.5 -165t-130.5 -91.5t-157.5 -30.5q-492 0 -492 528v606q-9 22 -37.5 31.5t-91.5 9.5v43h447
v-43q-63 0 -91.5 -9.5t-37.5 -31.5v-635q0 -204 89.5 -317t233.5 -113z" />
    <glyph glyph-name="Ucircumflex" unicode="&#xdb;" horiz-adv-x="1265" 
d="M739 1602l193 -332h-53l-191 178l-190 -178h-54l193 332h102zM692 49q137 0 230.5 114.5t93.5 303.5v647q-9 22 -37.5 31.5t-91.5 9.5v43h327v-43q-63 0 -91.5 -9.5t-37.5 -31.5v-606q0 -137 -33.5 -241t-91.5 -165t-130.5 -91.5t-157.5 -30.5q-492 0 -492 528v606
q-9 22 -37.5 31.5t-91.5 9.5v43h447v-43q-63 0 -91.5 -9.5t-37.5 -31.5v-635q0 -204 89.5 -317t233.5 -113z" />
    <glyph glyph-name="Udieresis" unicode="&#xdc;" horiz-adv-x="1265" 
d="M776 1370q0 41 30 70.5t71 29.5t70.5 -29.5t29.5 -70.5t-29.5 -70.5t-70.5 -29.5t-71 29.5t-30 70.5zM399 1370q0 41 30 70.5t71 29.5t70.5 -29.5t29.5 -70.5t-29.5 -70.5t-70.5 -29.5t-71 29.5t-30 70.5zM692 49q137 0 230.5 114.5t93.5 303.5v647q-9 22 -37.5 31.5
t-91.5 9.5v43h327v-43q-63 0 -91.5 -9.5t-37.5 -31.5v-606q0 -137 -33.5 -241t-91.5 -165t-130.5 -91.5t-157.5 -30.5q-492 0 -492 528v606q-9 22 -37.5 31.5t-91.5 9.5v43h447v-43q-63 0 -91.5 -9.5t-37.5 -31.5v-635q0 -204 89.5 -317t233.5 -113z" />
    <glyph glyph-name="Yacute" unicode="&#xdd;" horiz-adv-x="1153" 
d="M756 1602h217l-316 -332h-53zM430 1198v-43q-97 0 -119 -25l318 -555l327 543q-21 37 -127 37v43h336v-43q-86 0 -116 -27l-369 -612v-432q9 -22 37.5 -31.5t91.5 -9.5v-43h-447v43q63 0 92 9.5t38 31.5v367l-379 663q-27 41 -131 41v43h448z" />
    <glyph glyph-name="Thorn" unicode="&#xde;" horiz-adv-x="1069" 
d="M86 0v43q63 0 91.5 9.5t37.5 31.5v1030q-9 22 -37.5 31.5t-91.5 9.5v43h446v-43q-63 0 -91.5 -9.5t-37.5 -31.5v-172h107q133 0 234.5 -25t161.5 -68.5t90 -98.5t30 -119q0 -155 -122.5 -248.5t-368.5 -93.5h-132v-205q9 -22 37.5 -31.5t91.5 -9.5v-43h-446zM403 872
v-514h132q157 0 221.5 63t64.5 208q0 60 -14 102t-47.5 75t-95.5 49.5t-154 16.5h-107z" />
    <glyph glyph-name="germandbls" unicode="&#xdf;" horiz-adv-x="1052" 
d="M485 754q56 21 110 106t54 162q0 35 -12.5 79.5t-48.5 86t-88 41.5q-55 0 -99.5 -60.5t-44.5 -169.5v-999h-313v43q63 0 91.5 9.5t37.5 31.5v887q0 86 26.5 150.5t71.5 99.5t95 52t106 17q98 0 166 -18.5t106 -55t54 -83t16 -109.5q0 -86 -56 -166.5t-143 -122.5
q152 -26 265.5 -129.5t113.5 -216.5q0 -188 -87 -298.5t-244 -110.5q-66 0 -117 20.5t-77 49.5t-39 54.5t-13 42.5q0 62 15.5 86.5t57.5 24.5q21 0 31 -22.5t14.5 -54.5t12.5 -63.5t33.5 -54t68.5 -22.5q68 0 121 87t53 220q0 82 -46 164.5t-124.5 137.5t-163.5 55h-4
q-32 0 -32 20q0 19 32 29z" />
    <glyph glyph-name="agrave" unicode="&#xe0;" horiz-adv-x="989" 
d="M356 1386l152 -331h-53l-316 331h217zM229 750q29 0 50.5 -20.5t21.5 -63.5q0 -35 -27.5 -53.5t-64.5 -18.5q-40 0 -64 28t-24 74q0 107 88.5 166.5t249.5 59.5q97 0 170 -26.5t115 -74.5t62.5 -108.5t20.5 -134.5v-406q0 -65 22 -96t52 -31q27 0 48.5 14t21.5 35h37
q0 -58 -42.5 -84t-146.5 -26q-103 0 -145 84q-121 -88 -301 -88q-69 0 -121.5 11.5t-96 38.5t-66.5 77t-23 122q0 39 20.5 72t58.5 58t82 44t102.5 35.5t107.5 28t109.5 25.5t96.5 24q0 172 -45 252t-160 80q-89 0 -142 -21t-67 -77zM655 119q-12 47 -12 110v242
q-23 -7 -77 -22t-88 -25t-81 -30.5t-74 -41.5t-47 -54t-20 -73q0 -98 38.5 -137t113.5 -39q60 0 129.5 20t117.5 50z" />
    <glyph glyph-name="aacute" unicode="&#xe1;" horiz-adv-x="989" 
d="M580 1386h217l-316 -331h-53zM229 750q29 0 50.5 -20.5t21.5 -63.5q0 -35 -27.5 -53.5t-64.5 -18.5q-40 0 -64 28t-24 74q0 107 88.5 166.5t249.5 59.5q97 0 170 -26.5t115 -74.5t62.5 -108.5t20.5 -134.5v-406q0 -65 22 -96t52 -31q27 0 48.5 14t21.5 35h37
q0 -58 -42.5 -84t-146.5 -26q-103 0 -145 84q-121 -88 -301 -88q-69 0 -121.5 11.5t-96 38.5t-66.5 77t-23 122q0 39 20.5 72t58.5 58t82 44t102.5 35.5t107.5 28t109.5 25.5t96.5 24q0 172 -45 252t-160 80q-89 0 -142 -21t-67 -77zM655 119q-12 47 -12 110v242
q-23 -7 -77 -22t-88 -25t-81 -30.5t-74 -41.5t-47 -54t-20 -73q0 -98 38.5 -137t113.5 -39q60 0 129.5 20t117.5 50z" />
    <glyph glyph-name="acircumflex" unicode="&#xe2;" horiz-adv-x="989" 
d="M506 1386l192 -331h-53l-190 178l-191 -178h-53l192 331h103zM229 750q29 0 50.5 -20.5t21.5 -63.5q0 -35 -27.5 -53.5t-64.5 -18.5q-40 0 -64 28t-24 74q0 107 88.5 166.5t249.5 59.5q97 0 170 -26.5t115 -74.5t62.5 -108.5t20.5 -134.5v-406q0 -65 22 -96t52 -31
q27 0 48.5 14t21.5 35h37q0 -58 -42.5 -84t-146.5 -26q-103 0 -145 84q-121 -88 -301 -88q-69 0 -121.5 11.5t-96 38.5t-66.5 77t-23 122q0 39 20.5 72t58.5 58t82 44t102.5 35.5t107.5 28t109.5 25.5t96.5 24q0 172 -45 252t-160 80q-89 0 -142 -21t-67 -77zM655 119
q-12 47 -12 110v242q-23 -7 -77 -22t-88 -25t-81 -30.5t-74 -41.5t-47 -54t-20 -73q0 -98 38.5 -137t113.5 -39q60 0 129.5 20t117.5 50z" />
    <glyph glyph-name="atilde" unicode="&#xe3;" horiz-adv-x="989" 
d="M608 1055q-45 0 -167 60.5t-150 60.5q-58 0 -80.5 -30t-22.5 -91h-38q0 69 12.5 116.5t36 71t48.5 32.5t58 9q45 0 168.5 -60.5t151.5 -60.5q58 0 80 30t22 91h39q0 -69 -13 -116.5t-37 -71t-49.5 -32.5t-58.5 -9zM229 750q29 0 50.5 -20.5t21.5 -63.5q0 -35 -27.5 -53.5
t-64.5 -18.5q-40 0 -64 28t-24 74q0 107 88.5 166.5t249.5 59.5q97 0 170 -26.5t115 -74.5t62.5 -108.5t20.5 -134.5v-406q0 -65 22 -96t52 -31q27 0 48.5 14t21.5 35h37q0 -58 -42.5 -84t-146.5 -26q-103 0 -145 84q-121 -88 -301 -88q-69 0 -121.5 11.5t-96 38.5t-66.5 77
t-23 122q0 39 20.5 72t58.5 58t82 44t102.5 35.5t107.5 28t109.5 25.5t96.5 24q0 172 -45 252t-160 80q-89 0 -142 -21t-67 -77zM655 119q-12 47 -12 110v242q-23 -7 -77 -22t-88 -25t-81 -30.5t-74 -41.5t-47 -54t-20 -73q0 -98 38.5 -137t113.5 -39q60 0 129.5 20
t117.5 50z" />
    <glyph glyph-name="adieresis" unicode="&#xe4;" horiz-adv-x="989" 
d="M543 1155q0 41 29.5 70.5t70.5 29.5t70.5 -29.5t29.5 -70.5t-29.5 -70.5t-70.5 -29.5t-70.5 29.5t-29.5 70.5zM166 1155q0 41 29.5 70.5t70.5 29.5t71 -29.5t30 -70.5t-30 -70.5t-71 -29.5t-70.5 29.5t-29.5 70.5zM229 750q29 0 50.5 -20.5t21.5 -63.5q0 -35 -27.5 -53.5
t-64.5 -18.5q-40 0 -64 28t-24 74q0 107 88.5 166.5t249.5 59.5q97 0 170 -26.5t115 -74.5t62.5 -108.5t20.5 -134.5v-406q0 -65 22 -96t52 -31q27 0 48.5 14t21.5 35h37q0 -58 -42.5 -84t-146.5 -26q-103 0 -145 84q-121 -88 -301 -88q-69 0 -121.5 11.5t-96 38.5t-66.5 77
t-23 122q0 39 20.5 72t58.5 58t82 44t102.5 35.5t107.5 28t109.5 25.5t96.5 24q0 172 -45 252t-160 80q-89 0 -142 -21t-67 -77zM655 119q-12 47 -12 110v242q-23 -7 -77 -22t-88 -25t-81 -30.5t-74 -41.5t-47 -54t-20 -73q0 -98 38.5 -137t113.5 -39q60 0 129.5 20
t117.5 50z" />
    <glyph glyph-name="aring" unicode="&#xe5;" horiz-adv-x="989" 
d="M358 1196q0 -40 28.5 -68t68.5 -28t68 28t28 68t-28 68t-68 28t-68.5 -28t-28.5 -68zM270 1196q0 78 53.5 131t131.5 53t131 -53t53 -131t-53 -131t-131 -53t-131.5 53t-53.5 131zM229 750q29 0 50.5 -20.5t21.5 -63.5q0 -35 -27.5 -53.5t-64.5 -18.5q-40 0 -64 28
t-24 74q0 107 88.5 166.5t249.5 59.5q97 0 170 -26.5t115 -74.5t62.5 -108.5t20.5 -134.5v-406q0 -65 22 -96t52 -31q27 0 48.5 14t21.5 35h37q0 -58 -42.5 -84t-146.5 -26q-103 0 -145 84q-121 -88 -301 -88q-69 0 -121.5 11.5t-96 38.5t-66.5 77t-23 122q0 39 20.5 72
t58.5 58t82 44t102.5 35.5t107.5 28t109.5 25.5t96.5 24q0 172 -45 252t-160 80q-89 0 -142 -21t-67 -77zM655 119q-12 47 -12 110v242q-23 -7 -77 -22t-88 -25t-81 -30.5t-74 -41.5t-47 -54t-20 -73q0 -98 38.5 -137t113.5 -39q60 0 129.5 20t117.5 50z" />
    <glyph glyph-name="ae" unicode="&#xe6;" horiz-adv-x="1449" 
d="M610 506q0 181 -37 261.5t-135 80.5q-89 0 -142 -21t-67 -77q29 0 50.5 -20.5t21.5 -63.5q0 -35 -27.5 -53.5t-64.5 -18.5q-40 0 -64 28t-24 74q0 107 88.5 166.5t249.5 59.5q182 0 268 -113q99 113 260 113q102 0 178.5 -34.5t120.5 -95.5t65 -135.5t21 -162.5h-569v-43
q0 -394 274 -394q75 0 127.5 29.5t114.5 106.5l49 -25q-41 -67 -84.5 -106t-111 -60.5t-164.5 -21.5q-193 0 -295 114q-141 -114 -340 -114q-69 0 -121.5 11.5t-96 38.5t-66.5 77t-23 122q0 38 18 69.5t54 55.5t74.5 42.5t95.5 35t101 27t105.5 24.5t95.5 23zM610 463
q-11 -3 -44.5 -12t-48.5 -13.5t-46.5 -14.5t-48 -17t-43 -19.5t-41 -23.5t-33 -26.5t-27.5 -31.5t-15.5 -36.5t-6.5 -43.5q0 -98 38.5 -137t113.5 -39q62 0 142.5 25t133.5 59q-74 120 -74 309v21zM809 557h362q-5 60 -10.5 98t-18.5 81t-32.5 67.5t-53 40.5t-79.5 16
q-54 0 -103 -81t-65 -222z" />
    <glyph glyph-name="ccedilla" unicode="&#xe7;" horiz-adv-x="980" 
d="M557 860q-126 0 -204.5 -96t-78.5 -260q0 -114 45 -218t119 -166.5t154 -62.5q92 0 159.5 31t127.5 105l49 -25q-55 -90 -139 -135t-218 -51l-24 -95q37 0 81 -11.5t84 -44.5t40 -81q0 -29 -9.5 -54.5t-33 -50t-70.5 -39t-113 -14.5q-62 0 -151 15v35q36 -4 51 -4
q79 0 113 29.5t34 66.5q0 90 -124 90l45 156q-59 3 -114 19t-111 54t-96.5 94t-66.5 146t-26 203q0 86 32 163t90 135.5t145 93t190 34.5q163 0 250 -55.5t87 -161.5q0 -46 -24 -74.5t-64 -28.5q-37 0 -64.5 18.5t-27.5 53.5q0 43 21.5 63.5t50.5 20.5q-26 102 -209 102z
" />
    <glyph glyph-name="egrave" unicode="&#xe8;" horiz-adv-x="1009" 
d="M401 1386l152 -331h-53l-316 331h217zM274 494q2 -112 47 -213.5t118.5 -162.5t152.5 -61q92 0 159.5 31t127.5 105l49 -25q-60 -97 -154.5 -142.5t-251.5 -45.5q-61 0 -118.5 13.5t-118 49.5t-104.5 92t-72.5 149t-28.5 212q0 87 28 163.5t80 135.5t133 93t181 34
q111 0 196 -35t135 -95.5t74.5 -135.5t24.5 -162h-658zM276 557h455q-6 71 -18 120.5t-37 93.5t-70.5 66.5t-111.5 22.5q-72 0 -138.5 -84.5t-79.5 -218.5z" />
    <glyph glyph-name="eacute" unicode="&#xe9;" horiz-adv-x="1009" 
d="M625 1386h217l-316 -331h-53zM274 494q2 -112 47 -213.5t118.5 -162.5t152.5 -61q92 0 159.5 31t127.5 105l49 -25q-60 -97 -154.5 -142.5t-251.5 -45.5q-61 0 -118.5 13.5t-118 49.5t-104.5 92t-72.5 149t-28.5 212q0 87 28 163.5t80 135.5t133 93t181 34q111 0 196 -35
t135 -95.5t74.5 -135.5t24.5 -162h-658zM276 557h455q-6 71 -18 120.5t-37 93.5t-70.5 66.5t-111.5 22.5q-72 0 -138.5 -84.5t-79.5 -218.5z" />
    <glyph glyph-name="ecircumflex" unicode="&#xea;" horiz-adv-x="1009" 
d="M551 1386l192 -331h-53l-190 178l-191 -178h-53l193 331h102zM274 494q2 -112 47 -213.5t118.5 -162.5t152.5 -61q92 0 159.5 31t127.5 105l49 -25q-60 -97 -154.5 -142.5t-251.5 -45.5q-61 0 -118.5 13.5t-118 49.5t-104.5 92t-72.5 149t-28.5 212q0 87 28 163.5
t80 135.5t133 93t181 34q111 0 196 -35t135 -95.5t74.5 -135.5t24.5 -162h-658zM276 557h455q-6 71 -18 120.5t-37 93.5t-70.5 66.5t-111.5 22.5q-72 0 -138.5 -84.5t-79.5 -218.5z" />
    <glyph glyph-name="edieresis" unicode="&#xeb;" horiz-adv-x="1009" 
d="M588 1155q0 41 29.5 70.5t70.5 29.5t70.5 -29.5t29.5 -70.5t-29.5 -70.5t-70.5 -29.5t-70.5 29.5t-29.5 70.5zM211 1155q0 41 29.5 70.5t70.5 29.5t71 -29.5t30 -70.5t-30 -70.5t-71 -29.5t-70.5 29.5t-29.5 70.5zM274 494q2 -112 47 -213.5t118.5 -162.5t152.5 -61
q92 0 159.5 31t127.5 105l49 -25q-60 -97 -154.5 -142.5t-251.5 -45.5q-61 0 -118.5 13.5t-118 49.5t-104.5 92t-72.5 149t-28.5 212q0 87 28 163.5t80 135.5t133 93t181 34q111 0 196 -35t135 -95.5t74.5 -135.5t24.5 -162h-658zM276 557h455q-6 71 -18 120.5t-37 93.5
t-70.5 66.5t-111.5 22.5q-72 0 -138.5 -84.5t-79.5 -218.5z" />
    <glyph glyph-name="igrave" unicode="&#xec;" horiz-adv-x="548" 
d="M190 1386l152 -331h-53l-316 331h217zM63 0v43q63 0 92 9.5t38 31.5v692q-128 10 -130 10v48q38 0 152.5 44t161.5 44v-838q9 -22 37.5 -31.5t91.5 -9.5v-43h-443z" />
    <glyph glyph-name="iacute" unicode="&#xed;" horiz-adv-x="548" 
d="M414 1386h217l-316 -331h-53zM63 0v43q63 0 92 9.5t38 31.5v692q-128 10 -130 10v48q38 0 152.5 44t161.5 44v-838q9 -22 37.5 -31.5t91.5 -9.5v-43h-443z" />
    <glyph glyph-name="icircumflex" unicode="&#xee;" horiz-adv-x="548" 
d="M340 1386l192 -331h-53l-190 178l-191 -178h-53l193 331h102zM63 0v43q63 0 92 9.5t38 31.5v692q-128 10 -130 10v48q38 0 152.5 44t161.5 44v-838q9 -22 37.5 -31.5t91.5 -9.5v-43h-443z" />
    <glyph glyph-name="idieresis" unicode="&#xef;" horiz-adv-x="548" 
d="M377 1155q0 41 29.5 70.5t70.5 29.5t71 -29.5t30 -70.5t-30 -70.5t-71 -29.5t-70.5 29.5t-29.5 70.5zM0 1155q0 41 29.5 70.5t70.5 29.5t71 -29.5t30 -70.5t-30 -70.5t-71 -29.5t-70.5 29.5t-29.5 70.5zM63 0v43q63 0 92 9.5t38 31.5v692q-128 10 -130 10v48
q38 0 152.5 44t161.5 44v-838q9 -22 37.5 -31.5t91.5 -9.5v-43h-443z" />
    <glyph glyph-name="eth" unicode="&#xf0;" horiz-adv-x="1079" 
d="M547 -20q-228 0 -347.5 132t-119.5 355q0 75 14 140.5t47.5 124t84.5 100t129 66t177 24.5q69 0 136 -13q-58 93 -146 181l-172 -99l-35 60l154 88q-40 35 -80.5 63.5t-60.5 39.5l-21 11l23 37q94 -34 213 -108l180 104l35 -59l-150 -88q59 -43 110.5 -90t104 -113.5
t89.5 -138t60 -164t23 -191.5q0 -96 -23 -175.5t-73.5 -145.5t-140 -103.5t-211.5 -37.5zM276 508q0 -236 80 -351.5t217 -115.5q109 0 167.5 97.5t58.5 256.5q0 242 -73 352.5t-228 110.5q-72 0 -123.5 -50.5t-75 -128t-23.5 -171.5z" />
    <glyph glyph-name="ntilde" unicode="&#xf1;" horiz-adv-x="1144" 
d="M743 1057q-45 0 -167 60.5t-150 60.5q-58 0 -80 -30t-22 -91h-39q0 69 12.5 116.5t36 71t48.5 32.5t58 9q45 0 168.5 -60.5t151.5 -60.5q58 0 80 30t22 91h39q0 -69 -13 -116.5t-37 -71t-49.5 -32.5t-58.5 -9zM63 0v43q63 0 92 9.5t38 31.5v692q-128 10 -130 10v48
q38 0 152.5 44t161.5 44v-95q111 95 244 95q191 0 275.5 -70.5t84.5 -220.5v-547q9 -22 37.5 -31.5t91.5 -9.5v-43h-442v43q63 0 91.5 9.5t37.5 31.5v561q0 207 -189 207q-128 0 -231 -90v-678q9 -22 37.5 -31.5t91.5 -9.5v-43h-443z" />
    <glyph glyph-name="ograve" unicode="&#xf2;" horiz-adv-x="1116" 
d="M463 1386l151 -331h-53l-315 331h217zM276 508q0 -234 89 -350.5t229 -116.5q111 0 178.5 99t67.5 255q0 463 -322 463q-108 0 -175 -103.5t-67 -246.5zM567 -20q-230 0 -358.5 133.5t-128.5 353.5q0 94 27 173.5t81.5 144t148 101t216.5 36.5q241 0 362 -128.5
t121 -351.5q0 -75 -16 -141.5t-52 -125.5t-89.5 -102t-133 -68t-178.5 -25z" />
    <glyph glyph-name="oacute" unicode="&#xf3;" horiz-adv-x="1116" 
d="M686 1386h217l-315 -331h-53zM276 508q0 -234 89 -350.5t229 -116.5q111 0 178.5 99t67.5 255q0 463 -322 463q-108 0 -175 -103.5t-67 -246.5zM567 -20q-230 0 -358.5 133.5t-128.5 353.5q0 94 27 173.5t81.5 144t148 101t216.5 36.5q241 0 362 -128.5t121 -351.5
q0 -75 -16 -141.5t-52 -125.5t-89.5 -102t-133 -68t-178.5 -25z" />
    <glyph glyph-name="ocircumflex" unicode="&#xf4;" horiz-adv-x="1116" 
d="M612 1386l193 -331h-53l-191 178l-190 -178h-54l193 331h102zM276 508q0 -234 89 -350.5t229 -116.5q111 0 178.5 99t67.5 255q0 463 -322 463q-108 0 -175 -103.5t-67 -246.5zM567 -20q-230 0 -358.5 133.5t-128.5 353.5q0 94 27 173.5t81.5 144t148 101t216.5 36.5
q241 0 362 -128.5t121 -351.5q0 -75 -16 -141.5t-52 -125.5t-89.5 -102t-133 -68t-178.5 -25z" />
    <glyph glyph-name="otilde" unicode="&#xf5;" horiz-adv-x="1116" 
d="M715 1055q-45 0 -167.5 60.5t-150.5 60.5q-58 0 -80 -30t-22 -91h-39q0 69 13 116.5t36.5 71t48.5 32.5t58 9q45 0 168 -60.5t151 -60.5q58 0 80.5 30t22.5 91h38q0 -69 -13 -116.5t-37 -71t-49 -32.5t-58 -9zM276 508q0 -234 89 -350.5t229 -116.5q111 0 178.5 99
t67.5 255q0 463 -322 463q-108 0 -175 -103.5t-67 -246.5zM567 -20q-230 0 -358.5 133.5t-128.5 353.5q0 94 27 173.5t81.5 144t148 101t216.5 36.5q241 0 362 -128.5t121 -351.5q0 -75 -16 -141.5t-52 -125.5t-89.5 -102t-133 -68t-178.5 -25z" />
    <glyph glyph-name="odieresis" unicode="&#xf6;" horiz-adv-x="1116" 
d="M649 1155q0 41 30 70.5t71 29.5t70.5 -29.5t29.5 -70.5t-29.5 -70.5t-70.5 -29.5t-71 29.5t-30 70.5zM272 1155q0 41 30 70.5t71 29.5t70.5 -29.5t29.5 -70.5t-29.5 -70.5t-70.5 -29.5t-71 29.5t-30 70.5zM276 508q0 -234 89 -350.5t229 -116.5q111 0 178.5 99t67.5 255
q0 463 -322 463q-108 0 -175 -103.5t-67 -246.5zM567 -20q-230 0 -358.5 133.5t-128.5 353.5q0 94 27 173.5t81.5 144t148 101t216.5 36.5q241 0 362 -128.5t121 -351.5q0 -75 -16 -141.5t-52 -125.5t-89.5 -102t-133 -68t-178.5 -25z" />
    <glyph glyph-name="divide" unicode="&#xf7;" horiz-adv-x="987" 
d="M377 936q0 46 32 84.5t83 38.5q44 0 81 -35.5t37 -81.5t-32.5 -85.5t-83.5 -39.5q-44 0 -80.5 36.5t-36.5 82.5zM377 362q0 46 32 84.5t83 38.5q44 0 81 -35t37 -81t-32.5 -85.5t-83.5 -39.5q-44 0 -80.5 36t-36.5 82zM90 696h807v-90h-807v90z" />
    <glyph glyph-name="oslash" unicode="&#xf8;" horiz-adv-x="1116" 
d="M737 772q-77 86 -219 86q-108 0 -175 -103.5t-67 -246.5q0 -187 62 -305zM778 713l-399 -572q84 -100 215 -100q111 0 178.5 99t67.5 255q0 206 -62 318zM864 836q172 -121 172 -394q0 -75 -16 -141.5t-52 -125.5t-89.5 -102t-133 -68t-178.5 -25q-151 0 -260 59
l-78 -111l-55 41l76 107q-83 64 -126.5 165t-43.5 226q0 94 27 173.5t81.5 144t148 101t216.5 36.5q145 0 252 -52l72 103l55 -41z" />
    <glyph glyph-name="ugrave" unicode="&#xf9;" horiz-adv-x="1126" 
d="M457 1386l151 -331h-53l-315 331h217zM952 125q128 -10 129 -10v-47q-39 0 -152 -44t-161 -44v94q-110 -94 -244 -94q-191 0 -275.5 70t-84.5 220v547q-9 22 -37.5 31.5t-91.5 9.5v43h313v-645q0 -207 189 -207q128 0 231 90v678q-9 22 -37.5 31.5t-91.5 9.5v43h313v-776
z" />
    <glyph glyph-name="uacute" unicode="&#xfa;" horiz-adv-x="1126" 
d="M680 1386h217l-315 -331h-54zM952 125q128 -10 129 -10v-47q-39 0 -152 -44t-161 -44v94q-110 -94 -244 -94q-191 0 -275.5 70t-84.5 220v547q-9 22 -37.5 31.5t-91.5 9.5v43h313v-645q0 -207 189 -207q128 0 231 90v678q-9 22 -37.5 31.5t-91.5 9.5v43h313v-776z" />
    <glyph glyph-name="ucircumflex" unicode="&#xfb;" horiz-adv-x="1126" 
d="M606 1386l193 -331h-54l-190 178l-190 -178h-54l193 331h102zM952 125q128 -10 129 -10v-47q-39 0 -152 -44t-161 -44v94q-110 -94 -244 -94q-191 0 -275.5 70t-84.5 220v547q-9 22 -37.5 31.5t-91.5 9.5v43h313v-645q0 -207 189 -207q128 0 231 90v678q-9 22 -37.5 31.5
t-91.5 9.5v43h313v-776z" />
    <glyph glyph-name="udieresis" unicode="&#xfc;" horiz-adv-x="1126" 
d="M643 1155q0 41 29.5 70.5t70.5 29.5t71 -29.5t30 -70.5t-30 -70.5t-71 -29.5t-70.5 29.5t-29.5 70.5zM266 1155q0 41 30 70.5t71 29.5t70.5 -29.5t29.5 -70.5t-29.5 -70.5t-70.5 -29.5t-71 29.5t-30 70.5zM952 125q128 -10 129 -10v-47q-39 0 -152 -44t-161 -44v94
q-110 -94 -244 -94q-191 0 -275.5 70t-84.5 220v547q-9 22 -37.5 31.5t-91.5 9.5v43h313v-645q0 -207 189 -207q128 0 231 90v678q-9 22 -37.5 31.5t-91.5 9.5v43h313v-776z" />
    <glyph glyph-name="yacute" unicode="&#xfd;" horiz-adv-x="989" 
d="M657 1386h217l-315 -331h-53zM387 901v-43q-59 0 -86 -8l244 -600l233 586q-28 22 -114 22v43h335v-43q-112 0 -127 -37l-411 -1030q-39 -96 -100 -140t-115 -44q-51 0 -81 27t-30 63q0 31 21.5 55.5t58.5 24.5q22 0 46.5 -17.5t37.5 -17.5q44 0 57 37l88 221l-325 817
q-9 22 -37.5 31.5t-91.5 9.5v43h397z" />
    <glyph glyph-name="thorn" unicode="&#xfe;" horiz-adv-x="1062" 
d="M10 -393v43q63 0 91.5 9.5t37.5 31.5v1454q-127 10 -129 10v47q38 0 152 44t162 44v-491q115 123 282 123q93 0 167 -33t118.5 -88t68 -120t23.5 -134q0 -291 -172 -431.5t-487 -140.5v-284q9 -22 37.5 -31.5t91.5 -9.5v-43h-443zM324 725v-690q80 1 147 16t126.5 48.5
t101 85.5t65.5 131t24 180q0 161 -56 258.5t-146 97.5q-160 0 -262 -127z" />
    <glyph glyph-name="ydieresis" unicode="&#xff;" horiz-adv-x="989" 
d="M621 1155q0 41 29.5 70.5t70.5 29.5t70.5 -29.5t29.5 -70.5t-29.5 -70.5t-70.5 -29.5t-70.5 29.5t-29.5 70.5zM244 1155q0 41 29.5 70.5t70.5 29.5t70.5 -29.5t29.5 -70.5t-29.5 -70.5t-70.5 -29.5t-70.5 29.5t-29.5 70.5zM387 901v-43q-59 0 -86 -8l244 -600l233 586
q-28 22 -114 22v43h335v-43q-112 0 -127 -37l-411 -1030q-39 -96 -100 -140t-115 -44q-51 0 -81 27t-30 63q0 31 21.5 55.5t58.5 24.5q22 0 46.5 -17.5t37.5 -17.5q44 0 57 37l88 221l-325 817q-9 22 -37.5 31.5t-91.5 9.5v43h397z" />
    <glyph glyph-name="Amacron" unicode="&#x100;" horiz-adv-x="1118" 
d="M283 1389h540v-91h-540v91zM688 0v43q94 0 119 25l-115 313h-393l-106 -301q11 -21 38 -29t88 -8v-43h-335v43q63 0 92 10.5t37 32.5l397 1112h98l398 -1112q15 -43 131 -43v-43h-449zM494 926l-170 -477h344z" />
    <glyph glyph-name="amacron" unicode="&#x101;" horiz-adv-x="989" 
d="M172 1174h541v-91h-541v91zM229 750q29 0 50.5 -20.5t21.5 -63.5q0 -35 -27.5 -53.5t-64.5 -18.5q-40 0 -64 28t-24 74q0 107 88.5 166.5t249.5 59.5q97 0 170 -26.5t115 -74.5t62.5 -108.5t20.5 -134.5v-406q0 -65 22 -96t52 -31q27 0 48.5 14t21.5 35h37
q0 -58 -42.5 -84t-146.5 -26q-103 0 -145 84q-121 -88 -301 -88q-69 0 -121.5 11.5t-96 38.5t-66.5 77t-23 122q0 39 20.5 72t58.5 58t82 44t102.5 35.5t107.5 28t109.5 25.5t96.5 24q0 172 -45 252t-160 80q-89 0 -142 -21t-67 -77zM655 119q-12 47 -12 110v242
q-23 -7 -77 -22t-88 -25t-81 -30.5t-74 -41.5t-47 -54t-20 -73q0 -98 38.5 -137t113.5 -39q60 0 129.5 20t117.5 50z" />
    <glyph glyph-name="Abreve" unicode="&#x102;" horiz-adv-x="1118" 
d="M565 1290q-65 0 -117 26t-81.5 65.5t-44.5 81.5t-15 81h58q0 -41 52 -73.5t148 -32.5t148.5 32t52.5 74h57q0 -39 -15 -81t-44 -82t-81 -65.5t-118 -25.5zM688 0v43q94 0 119 25l-115 313h-393l-106 -301q11 -21 38 -29t88 -8v-43h-335v43q63 0 92 10.5t37 32.5l397 1112
h98l398 -1112q15 -43 131 -43v-43h-449zM494 926l-170 -477h344z" />
    <glyph glyph-name="abreve" unicode="&#x103;" horiz-adv-x="989" 
d="M455 1075q-65 0 -117 26t-81.5 65.5t-44.5 81.5t-15 81h57q0 -41 52.5 -73.5t148.5 -32.5t148 32t52 74h58q0 -39 -15 -81t-44 -82t-81 -65.5t-118 -25.5zM229 750q29 0 50.5 -20.5t21.5 -63.5q0 -35 -27.5 -53.5t-64.5 -18.5q-40 0 -64 28t-24 74q0 107 88.5 166.5
t249.5 59.5q97 0 170 -26.5t115 -74.5t62.5 -108.5t20.5 -134.5v-406q0 -65 22 -96t52 -31q27 0 48.5 14t21.5 35h37q0 -58 -42.5 -84t-146.5 -26q-103 0 -145 84q-121 -88 -301 -88q-69 0 -121.5 11.5t-96 38.5t-66.5 77t-23 122q0 39 20.5 72t58.5 58t82 44t102.5 35.5
t107.5 28t109.5 25.5t96.5 24q0 172 -45 252t-160 80q-89 0 -142 -21t-67 -77zM655 119q-12 47 -12 110v242q-23 -7 -77 -22t-88 -25t-81 -30.5t-74 -41.5t-47 -54t-20 -73q0 -98 38.5 -137t113.5 -39q60 0 129.5 20t117.5 50z" />
    <glyph glyph-name="Aogonek" unicode="&#x104;" horiz-adv-x="1118" 
d="M494 926l-170 -477h344zM688 0v43q94 0 119 25l-115 313h-393l-106 -301q11 -21 38 -29t88 -8v-43h-335v43q63 0 92 10.5t37 32.5l397 1112h98l398 -1112q15 -43 131 -43v-43h-109q-55 -69 -55 -121q0 -101 55.5 -160t124.5 -59q13 0 29 8t26 16l9 9l22 -37
q-2 -3 -5.5 -7.5t-17 -15.5t-30 -20t-46 -16t-63.5 -7q-101 0 -153 52.5t-52 146.5q0 117 99 211h-283z" />
    <glyph glyph-name="aogonek" unicode="&#x105;" horiz-adv-x="987" 
d="M655 119q-12 47 -12 110v242q-23 -7 -77 -22t-88 -25t-81 -30.5t-74 -41.5t-47 -54t-20 -73q0 -98 38.5 -137t113.5 -39q60 0 129.5 20t117.5 50zM229 750h-2q29 0 50.5 -20.5t21.5 -63.5q0 -35 -27.5 -53.5t-64.5 -18.5q-40 0 -64 28t-24 74q0 107 88.5 166.5
t249.5 59.5q97 0 170 -26.5t115 -74.5t62.5 -108.5t20.5 -134.5v-406q0 -65 22 -96t52 -31q27 0 48.5 14t21.5 35h37q0 -54 -34.5 -80t-117.5 -30q-43 -62 -43 -105q0 -101 55.5 -160t124.5 -59q13 0 29 8t26 16l9 9l22 -37q-2 -3 -5.5 -7.5t-17 -15.5t-30 -20t-46 -16
t-63.5 -7q-101 0 -152.5 52.5t-51.5 146.5q0 108 84 197q-83 7 -121 82q-121 -88 -301 -88q-69 0 -121.5 11.5t-96 38.5t-66.5 77t-23 122q0 39 20.5 72t58.5 58t82 44t102.5 35.5t107.5 28t109.5 25.5t96.5 24q0 172 -45 252t-160 80q-89 0 -142 -21t-67 -77z" />
    <glyph glyph-name="Cacute" unicode="&#x106;" horiz-adv-x="1150" 
d="M829 1602h218l-316 -332h-53zM709 1149q-177 0 -293.5 -145.5t-116.5 -376.5q0 -138 35 -250t94 -182.5t133.5 -108t155.5 -37.5q102 0 202.5 70.5t129.5 150.5l49 -24q-21 -51 -53 -94.5t-81.5 -84t-123.5 -64t-164 -23.5q-138 0 -252 50t-186.5 134.5t-112 192
t-39.5 225.5q0 144 51.5 266t138 202t198.5 124.5t233 44.5q45 0 93 -15.5t84 -31t50 -15.5q24 0 24 41h48l20 -260h-45q-13 93 -80.5 152t-191.5 59z" />
    <glyph glyph-name="cacute" unicode="&#x107;" horiz-adv-x="980" 
d="M672 1386h217l-316 -331h-53zM557 860q-126 0 -204.5 -96t-78.5 -260q0 -114 45 -218t119 -166.5t154 -62.5q92 0 159.5 31t127.5 105l49 -25q-60 -97 -154.5 -142.5t-251.5 -45.5q-61 0 -118.5 13.5t-118 49.5t-104.5 92t-72.5 149t-28.5 212q0 86 32 163t90 135.5
t145 93t190 34.5q163 0 250 -55.5t87 -161.5q0 -46 -24 -74.5t-64 -28.5q-37 0 -64.5 18.5t-27.5 53.5q0 43 21.5 63.5t50.5 20.5q-26 102 -209 102z" />
    <glyph glyph-name="Ccircumflex" unicode="&#x108;" horiz-adv-x="1150" 
d="M756 1602l192 -332h-53l-190 178l-191 -178h-53l192 332h103zM709 1149q-177 0 -293.5 -145.5t-116.5 -376.5q0 -138 35 -250t94 -182.5t133.5 -108t155.5 -37.5q102 0 202.5 70.5t129.5 150.5l49 -24q-21 -51 -53 -94.5t-81.5 -84t-123.5 -64t-164 -23.5q-138 0 -252 50
t-186.5 134.5t-112 192t-39.5 225.5q0 144 51.5 266t138 202t198.5 124.5t233 44.5q45 0 93 -15.5t84 -31t50 -15.5q24 0 24 41h48l20 -260h-45q-13 93 -80.5 152t-191.5 59z" />
    <glyph glyph-name="ccircumflex" unicode="&#x109;" horiz-adv-x="980" 
d="M598 1386l193 -331h-54l-190 178l-191 -178h-53l193 331h102zM557 860q-126 0 -204.5 -96t-78.5 -260q0 -114 45 -218t119 -166.5t154 -62.5q92 0 159.5 31t127.5 105l49 -25q-60 -97 -154.5 -142.5t-251.5 -45.5q-61 0 -118.5 13.5t-118 49.5t-104.5 92t-72.5 149
t-28.5 212q0 86 32 163t90 135.5t145 93t190 34.5q163 0 250 -55.5t87 -161.5q0 -46 -24 -74.5t-64 -28.5q-37 0 -64.5 18.5t-27.5 53.5q0 43 21.5 63.5t50.5 20.5q-26 102 -209 102z" />
    <glyph glyph-name="Cdotaccent" unicode="&#x10a;" horiz-adv-x="1150" 
d="M600 1376q0 43 31 74t74 31t73.5 -31t30.5 -74t-30.5 -73.5t-73.5 -30.5t-74 30.5t-31 73.5zM709 1149q-177 0 -293.5 -145.5t-116.5 -376.5q0 -138 35 -250t94 -182.5t133.5 -108t155.5 -37.5q102 0 202.5 70.5t129.5 150.5l49 -24q-21 -51 -53 -94.5t-81.5 -84
t-123.5 -64t-164 -23.5q-138 0 -252 50t-186.5 134.5t-112 192t-39.5 225.5q0 144 51.5 266t138 202t198.5 124.5t233 44.5q45 0 93 -15.5t84 -31t50 -15.5q24 0 24 41h48l20 -260h-45q-13 93 -80.5 152t-191.5 59z" />
    <glyph glyph-name="cdotaccent" unicode="&#x10b;" horiz-adv-x="980" 
d="M442 1161q0 43 31 74t74 31t73.5 -31t30.5 -74t-30.5 -73.5t-73.5 -30.5t-74 30.5t-31 73.5zM557 860q-126 0 -204.5 -96t-78.5 -260q0 -114 45 -218t119 -166.5t154 -62.5q92 0 159.5 31t127.5 105l49 -25q-60 -97 -154.5 -142.5t-251.5 -45.5q-61 0 -118.5 13.5
t-118 49.5t-104.5 92t-72.5 149t-28.5 212q0 86 32 163t90 135.5t145 93t190 34.5q163 0 250 -55.5t87 -161.5q0 -46 -24 -74.5t-64 -28.5q-37 0 -64.5 18.5t-27.5 53.5q0 43 21.5 63.5t50.5 20.5q-26 102 -209 102z" />
    <glyph glyph-name="Ccaron" unicode="&#x10c;" horiz-adv-x="1150" 
d="M655 1270l-192 332h53l191 -179l190 179h53l-192 -332h-103zM709 1149q-177 0 -293.5 -145.5t-116.5 -376.5q0 -138 35 -250t94 -182.5t133.5 -108t155.5 -37.5q102 0 202.5 70.5t129.5 150.5l49 -24q-21 -51 -53 -94.5t-81.5 -84t-123.5 -64t-164 -23.5q-138 0 -252 50
t-186.5 134.5t-112 192t-39.5 225.5q0 144 51.5 266t138 202t198.5 124.5t233 44.5q45 0 93 -15.5t84 -31t50 -15.5q24 0 24 41h48l20 -260h-45q-13 93 -80.5 152t-191.5 59z" />
    <glyph glyph-name="ccaron" unicode="&#x10d;" horiz-adv-x="980" 
d="M498 1055l-193 331h53l191 -178l190 178h54l-193 -331h-102zM557 860q-126 0 -204.5 -96t-78.5 -260q0 -114 45 -218t119 -166.5t154 -62.5q92 0 159.5 31t127.5 105l49 -25q-60 -97 -154.5 -142.5t-251.5 -45.5q-61 0 -118.5 13.5t-118 49.5t-104.5 92t-72.5 149
t-28.5 212q0 86 32 163t90 135.5t145 93t190 34.5q163 0 250 -55.5t87 -161.5q0 -46 -24 -74.5t-64 -28.5q-37 0 -64.5 18.5t-27.5 53.5q0 43 21.5 63.5t50.5 20.5q-26 102 -209 102z" />
    <glyph glyph-name="Dcaron" unicode="&#x10e;" horiz-adv-x="1251" 
d="M500 1270l-193 332h53l191 -179l190 179h54l-193 -332h-102zM86 0v43q63 0 91.5 9.5t37.5 31.5v1030q-9 22 -37.5 31.5t-91.5 9.5v43h471q273 0 438.5 -165t165.5 -431q0 -267 -161 -434.5t-418 -167.5h-496zM403 1139v-1069h179q51 0 102 17.5t100.5 58t87 100t61 151
t23.5 203.5q0 138 -35.5 245t-94 169t-127 93.5t-142.5 31.5h-154z" />
    <glyph glyph-name="dcaron" unicode="&#x10f;" horiz-adv-x="1161" 
d="M1120 1112q-47 0 -75.5 22.5t-28.5 67.5q0 28 12 47.5t30 27.5t30 10.5t22 2.5q79 0 133.5 -48t54.5 -130q0 -47 -21 -88t-48.5 -66.5t-67 -47.5t-65 -32t-52.5 -18v58q52 7 106 56.5t54 112.5q0 36 -3.5 44t-16.5 8q-5 0 -23.5 -13.5t-40.5 -13.5zM743 881v264
q-128 10 -129 10v47q38 0 152 44t162 44v-1165q128 -10 129 -10v-47q-38 0 -152.5 -44t-161.5 -44v67q-96 -67 -245 -67q-52 0 -105 13t-110.5 47.5t-101.5 86t-72.5 136.5t-28.5 192q0 229 128 352t335 123q118 0 200 -49zM743 817q-73 43 -188 43q-53 0 -102.5 -26.5
t-90 -75.5t-64.5 -128t-24 -175q0 -75 30 -168t88.5 -165.5t125.5 -72.5q135 0 225 66v702z" />
    <glyph glyph-name="Dcroat" unicode="&#x110;" horiz-adv-x="1251" 
d="M403 563v-493h179q51 0 102 17.5t100.5 58t87 100t61 151t23.5 203.5q0 138 -35.5 245t-94 169t-127 93.5t-142.5 31.5h-154v-506h209v-70h-209zM86 0v43q63 0 91.5 9.5t37.5 31.5v479h-143v70h143v481q-9 22 -37.5 31.5t-91.5 9.5v43h471q273 0 438.5 -165t165.5 -431
q0 -267 -161 -434.5t-418 -167.5h-496z" />
    <glyph glyph-name="dcroat" unicode="&#x111;" horiz-adv-x="1099" 
d="M743 817q-73 43 -188 43q-53 0 -102.5 -26.5t-90 -75.5t-64.5 -128t-24 -175q0 -75 30 -168t88.5 -165.5t125.5 -72.5q135 0 225 66v702zM928 1006v-881q128 -10 129 -10v-47q-38 0 -152.5 -44t-161.5 -44v67q-96 -67 -245 -67q-52 0 -105 13t-110.5 47.5t-101.5 86
t-72.5 136.5t-28.5 192q0 229 128 352t335 123q118 0 200 -49v125h-231v69h231v70q-128 10 -129 10v47q38 0 152 44t162 44v-215h125v-69h-125z" />
    <glyph glyph-name="Emacron" unicode="&#x112;" horiz-adv-x="1038" 
d="M266 1389h541v-91h-541v91zM86 0v43q63 0 91.5 9.5t37.5 31.5v1030q-9 22 -37.5 31.5t-91.5 9.5v43h825v-199h-43q0 63 -9.5 91.5t-31.5 37.5h-424v-471h287q22 9 31.5 37.5t9.5 91.5h43v-327h-43q0 63 -9.5 91.5t-31.5 37.5h-287v-518h467q51 21 93 129h41l-50 -199
h-868z" />
    <glyph glyph-name="emacron" unicode="&#x113;" horiz-adv-x="1009" 
d="M246 1174h540v-91h-540v91zM274 494q2 -112 47 -213.5t118.5 -162.5t152.5 -61q92 0 159.5 31t127.5 105l49 -25q-60 -97 -154.5 -142.5t-251.5 -45.5q-61 0 -118.5 13.5t-118 49.5t-104.5 92t-72.5 149t-28.5 212q0 87 28 163.5t80 135.5t133 93t181 34q111 0 196 -35
t135 -95.5t74.5 -135.5t24.5 -162h-658zM276 557h455q-6 71 -18 120.5t-37 93.5t-70.5 66.5t-111.5 22.5q-72 0 -138.5 -84.5t-79.5 -218.5z" />
    <glyph glyph-name="Ebreve" unicode="&#x114;" horiz-adv-x="1038" 
d="M549 1290q-65 0 -117 26t-81.5 65.5t-44.5 81.5t-15 81h57q0 -41 52.5 -73.5t148.5 -32.5t148.5 32t52.5 74h57q0 -39 -15 -81t-44 -82t-81 -65.5t-118 -25.5zM86 0v43q63 0 91.5 9.5t37.5 31.5v1030q-9 22 -37.5 31.5t-91.5 9.5v43h825v-199h-43q0 63 -9.5 91.5
t-31.5 37.5h-424v-471h287q22 9 31.5 37.5t9.5 91.5h43v-327h-43q0 63 -9.5 91.5t-31.5 37.5h-287v-518h467q51 21 93 129h41l-50 -199h-868z" />
    <glyph glyph-name="ebreve" unicode="&#x115;" horiz-adv-x="1009" 
d="M500 1075q-65 0 -117 26t-81.5 65.5t-44.5 81.5t-15 81h57q0 -41 52.5 -73.5t148.5 -32.5t148 32t52 74h58q0 -39 -15 -81t-44 -82t-81 -65.5t-118 -25.5zM274 494q2 -112 47 -213.5t118.5 -162.5t152.5 -61q92 0 159.5 31t127.5 105l49 -25q-60 -97 -154.5 -142.5
t-251.5 -45.5q-61 0 -118.5 13.5t-118 49.5t-104.5 92t-72.5 149t-28.5 212q0 87 28 163.5t80 135.5t133 93t181 34q111 0 196 -35t135 -95.5t74.5 -135.5t24.5 -162h-658zM276 557h455q-6 71 -18 120.5t-37 93.5t-70.5 66.5t-111.5 22.5q-72 0 -138.5 -84.5t-79.5 -218.5z
" />
    <glyph glyph-name="Edotaccent" unicode="&#x116;" horiz-adv-x="1038" 
d="M444 1376q0 43 31 74t74 31t73.5 -31t30.5 -74t-30.5 -73.5t-73.5 -30.5t-74 30.5t-31 73.5zM86 0v43q63 0 91.5 9.5t37.5 31.5v1030q-9 22 -37.5 31.5t-91.5 9.5v43h825v-199h-43q0 63 -9.5 91.5t-31.5 37.5h-424v-471h287q22 9 31.5 37.5t9.5 91.5h43v-327h-43
q0 63 -9.5 91.5t-31.5 37.5h-287v-518h467q51 21 93 129h41l-50 -199h-868z" />
    <glyph glyph-name="edotaccent" unicode="&#x117;" horiz-adv-x="1009" 
d="M395 1161q0 43 31 74t74 31t73.5 -31t30.5 -74t-30.5 -73.5t-73.5 -30.5t-74 30.5t-31 73.5zM274 494q2 -112 47 -213.5t118.5 -162.5t152.5 -61q92 0 159.5 31t127.5 105l49 -25q-60 -97 -154.5 -142.5t-251.5 -45.5q-61 0 -118.5 13.5t-118 49.5t-104.5 92t-72.5 149
t-28.5 212q0 87 28 163.5t80 135.5t133 93t181 34q111 0 196 -35t135 -95.5t74.5 -135.5t24.5 -162h-658zM276 557h455q-6 71 -18 120.5t-37 93.5t-70.5 66.5t-111.5 22.5q-72 0 -138.5 -84.5t-79.5 -218.5z" />
    <glyph glyph-name="Eogonek" unicode="&#x118;" horiz-adv-x="1038" 
d="M86 0v43q63 0 91.5 9.5t37.5 31.5v1030q-9 22 -37.5 31.5t-91.5 9.5v43h825v-199h-43q0 63 -9.5 91.5t-31.5 37.5h-424v-471h287q22 9 31.5 37.5t9.5 91.5h43v-327h-43q0 63 -9.5 91.5t-31.5 37.5h-287v-518h467q51 21 93 129h41l-50 -199h-98q-55 -69 -55 -121
q0 -101 55.5 -160t124.5 -59q13 0 28.5 8t24.5 16l10 9l23 -37q-2 -3 -5.5 -7.5t-17 -15.5t-30 -20t-46 -16t-63.5 -7q-101 0 -153 52.5t-52 146.5q0 117 99 211h-713z" />
    <glyph glyph-name="eogonek" unicode="&#x119;" horiz-adv-x="1011" 
d="M279 557h454q-6 71 -18 120.5t-37 93.5t-70.5 66.5t-111.5 22.5q-72 0 -138 -84.5t-79 -218.5zM276 494l-2 -2q2 -112 47 -213.5t118.5 -162.5t152.5 -61q92 0 159.5 30.5t127.5 104.5l49 -24q-48 -80 -120.5 -124.5t-182.5 -57.5q-43 -62 -43 -105q0 -101 55.5 -160
t124.5 -59q13 0 28.5 8t25.5 16l9 9l23 -37q-2 -3 -5.5 -7.5t-17 -15.5t-30 -20t-46 -16t-63.5 -7q-101 0 -153 52.5t-52 146.5q0 107 80 191h-37q-61 0 -118.5 13.5t-118 49.5t-104.5 92t-72.5 149t-28.5 212q0 87 28 163.5t80 135.5t133 93t181 34q111 0 196 -35
t135 -95.5t74.5 -135.5t24.5 -162h-658z" />
    <glyph glyph-name="Ecaron" unicode="&#x11a;" horiz-adv-x="1038" 
d="M500 1270l-193 332h53l191 -179l190 179h54l-193 -332h-102zM86 0v43q63 0 91.5 9.5t37.5 31.5v1030q-9 22 -37.5 31.5t-91.5 9.5v43h825v-199h-43q0 63 -9.5 91.5t-31.5 37.5h-424v-471h287q22 9 31.5 37.5t9.5 91.5h43v-327h-43q0 63 -9.5 91.5t-31.5 37.5h-287v-518
h467q51 21 93 129h41l-50 -199h-868z" />
    <glyph glyph-name="ecaron" unicode="&#x11b;" horiz-adv-x="1009" 
d="M451 1055l-193 331h53l191 -178l190 178h53l-192 -331h-102zM274 494q2 -112 47 -213.5t118.5 -162.5t152.5 -61q92 0 159.5 31t127.5 105l49 -25q-60 -97 -154.5 -142.5t-251.5 -45.5q-61 0 -118.5 13.5t-118 49.5t-104.5 92t-72.5 149t-28.5 212q0 87 28 163.5
t80 135.5t133 93t181 34q111 0 196 -35t135 -95.5t74.5 -135.5t24.5 -162h-658zM276 557h455q-6 71 -18 120.5t-37 93.5t-70.5 66.5t-111.5 22.5q-72 0 -138.5 -84.5t-79.5 -218.5z" />
    <glyph glyph-name="Gcircumflex" unicode="&#x11c;" horiz-adv-x="1263" 
d="M752 1602l192 -332h-53l-191 178l-190 -178h-53l192 332h103zM725 1149q-115 0 -214 -75t-157.5 -205.5t-58.5 -282.5q0 -114 25 -207.5t65.5 -153.5t93.5 -101t107.5 -58t109.5 -17q117 0 217 39v420q-9 22 -37.5 31.5t-91.5 9.5v43h447v-43q-63 0 -91.5 -9.5
t-37.5 -31.5v-344q-15 -27 -45.5 -56t-79 -59t-123.5 -49.5t-162 -19.5q-111 0 -209 32.5t-170.5 90t-125 133.5t-79 164.5t-26.5 181.5q0 144 54.5 266t145 202t205 124.5t236.5 44.5q60 0 148.5 -31t99.5 -31q24 0 24 41h47l21 -260h-45q-13 90 -90 150.5t-203 60.5z" />
    <glyph glyph-name="gcircumflex" unicode="&#x11d;" horiz-adv-x="1064" 
d="M604 1386l193 -331h-54l-190 178l-191 -178h-53l193 331h102zM926 922v-863q0 -210 -102 -339.5t-296 -129.5q-174 0 -279.5 59.5t-105.5 125.5q0 46 24 74t64 28q37 0 65 -18.5t28 -53.5q0 -38 -12 -56.5t-40 -29.5q10 -10 32.5 -21t78 -22.5t125.5 -11.5q100 0 160 86
t71 291q-92 -61 -241 -61q-53 0 -105.5 12t-110.5 45t-101.5 83.5t-72 134.5t-28.5 191q0 229 128 352.5t335 123.5q129 0 225 -66q103 66 158 66zM741 109v24v676q-73 43 -186 43t-197 -107.5t-84 -298.5q0 -180 68 -288.5t176 -108.5q136 0 223 60z" />
    <glyph glyph-name="Gbreve" unicode="&#x11e;" horiz-adv-x="1263" 
d="M700 1290q-65 0 -117 26t-81.5 65.5t-44.5 81.5t-15 81h58q0 -41 52 -73.5t148 -32.5t148.5 32t52.5 74h57q0 -39 -15 -81t-44 -82t-81 -65.5t-118 -25.5zM725 1149q-115 0 -214 -75t-157.5 -205.5t-58.5 -282.5q0 -114 25 -207.5t65.5 -153.5t93.5 -101t107.5 -58
t109.5 -17q117 0 217 39v420q-9 22 -37.5 31.5t-91.5 9.5v43h447v-43q-63 0 -91.5 -9.5t-37.5 -31.5v-344q-15 -27 -45.5 -56t-79 -59t-123.5 -49.5t-162 -19.5q-111 0 -209 32.5t-170.5 90t-125 133.5t-79 164.5t-26.5 181.5q0 144 54.5 266t145 202t205 124.5t236.5 44.5
q60 0 148.5 -31t99.5 -31q24 0 24 41h47l21 -260h-45q-13 90 -90 150.5t-203 60.5z" />
    <glyph glyph-name="gbreve" unicode="&#x11f;" horiz-adv-x="1064" 
d="M553 1075q-65 0 -117 26t-81.5 65.5t-44.5 81.5t-15 81h57q0 -41 52.5 -73.5t148.5 -32.5t148.5 32t52.5 74h57q0 -39 -15 -81t-44 -82t-81 -65.5t-118 -25.5zM926 922v-863q0 -210 -102 -339.5t-296 -129.5q-174 0 -279.5 59.5t-105.5 125.5q0 46 24 74t64 28
q37 0 65 -18.5t28 -53.5q0 -38 -12 -56.5t-40 -29.5q10 -10 32.5 -21t78 -22.5t125.5 -11.5q100 0 160 86t71 291q-92 -61 -241 -61q-53 0 -105.5 12t-110.5 45t-101.5 83.5t-72 134.5t-28.5 191q0 229 128 352.5t335 123.5q129 0 225 -66q103 66 158 66zM741 109v24v676
q-73 43 -186 43t-197 -107.5t-84 -298.5q0 -180 68 -288.5t176 -108.5q136 0 223 60z" />
    <glyph glyph-name="Gdotaccent" unicode="&#x120;" horiz-adv-x="1263" 
d="M596 1376q0 43 30.5 74t73.5 31t74 -31t31 -74t-31 -73.5t-74 -30.5t-73.5 30.5t-30.5 73.5zM725 1149q-115 0 -214 -75t-157.5 -205.5t-58.5 -282.5q0 -114 25 -207.5t65.5 -153.5t93.5 -101t107.5 -58t109.5 -17q117 0 217 39v420q-9 22 -37.5 31.5t-91.5 9.5v43h447
v-43q-63 0 -91.5 -9.5t-37.5 -31.5v-344q-15 -27 -45.5 -56t-79 -59t-123.5 -49.5t-162 -19.5q-111 0 -209 32.5t-170.5 90t-125 133.5t-79 164.5t-26.5 181.5q0 144 54.5 266t145 202t205 124.5t236.5 44.5q60 0 148.5 -31t99.5 -31q24 0 24 41h47l21 -260h-45
q-13 90 -90 150.5t-203 60.5z" />
    <glyph glyph-name="gdotaccent" unicode="&#x121;" horiz-adv-x="1064" 
d="M449 1161q0 43 30.5 74t73.5 31t73.5 -31t30.5 -74t-30.5 -73.5t-73.5 -30.5t-73.5 30.5t-30.5 73.5zM926 922v-863q0 -210 -102 -339.5t-296 -129.5q-174 0 -279.5 59.5t-105.5 125.5q0 46 24 74t64 28q37 0 65 -18.5t28 -53.5q0 -38 -12 -56.5t-40 -29.5
q10 -10 32.5 -21t78 -22.5t125.5 -11.5q100 0 160 86t71 291q-92 -61 -241 -61q-53 0 -105.5 12t-110.5 45t-101.5 83.5t-72 134.5t-28.5 191q0 229 128 352.5t335 123.5q129 0 225 -66q103 66 158 66zM741 109v24v676q-73 43 -186 43t-197 -107.5t-84 -298.5
q0 -180 68 -288.5t176 -108.5q136 0 223 60z" />
    <glyph glyph-name="Gcommaaccent" unicode="&#x122;" horiz-adv-x="1263" 
d="M670 -256q-47 0 -76 22.5t-29 67.5q0 28 12 47.5t30 27.5t30 10.5t22 2.5q79 0 134 -48t55 -130q0 -47 -21 -88t-48.5 -66.5t-67 -47.5t-65 -32t-52.5 -18v57q52 7 106 57t54 113q0 36 -4 44t-17 8q-5 0 -23 -13.5t-40 -13.5zM725 1149q-115 0 -214 -75t-157.5 -205.5
t-58.5 -282.5q0 -114 25 -207.5t65.5 -153.5t93.5 -101t107.5 -58t109.5 -17q117 0 217 39v420q-9 22 -37.5 31.5t-91.5 9.5v43h447v-43q-63 0 -91.5 -9.5t-37.5 -31.5v-344q-15 -27 -45.5 -56t-79 -59t-123.5 -49.5t-162 -19.5q-111 0 -209 32.5t-170.5 90t-125 133.5
t-79 164.5t-26.5 181.5q0 144 54.5 266t145 202t205 124.5t236.5 44.5q60 0 148.5 -31t99.5 -31q24 0 24 41h47l21 -260h-45q-13 90 -90 150.5t-203 60.5z" />
    <glyph glyph-name="gcommaaccent" unicode="&#x123;" horiz-adv-x="1064" 
d="M543 1235q47 0 75.5 -22.5t28.5 -67.5q0 -28 -12 -47.5t-30 -27.5t-30 -10.5t-22 -2.5q-79 0 -133.5 48t-54.5 130q0 47 21 88t48.5 66.5t66.5 47.5t64.5 32t52.5 18v-57q-51 -7 -105 -57t-54 -113q0 -36 3.5 -44t16.5 -8q5 0 23.5 13.5t40.5 13.5zM926 922v-863
q0 -210 -102 -339.5t-296 -129.5q-174 0 -279.5 59.5t-105.5 125.5q0 46 24 74t64 28q37 0 65 -18.5t28 -53.5q0 -38 -12 -56.5t-40 -29.5q10 -10 32.5 -21t78 -22.5t125.5 -11.5q100 0 160 86t71 291q-92 -61 -241 -61q-53 0 -105.5 12t-110.5 45t-101.5 83.5t-72 134.5
t-28.5 191q0 229 128 352.5t335 123.5q129 0 225 -66q103 66 158 66zM741 109v24v676q-73 43 -186 43t-197 -107.5t-84 -298.5q0 -180 68 -288.5t176 -108.5q136 0 223 60z" />
    <glyph glyph-name="Hcircumflex" unicode="&#x124;" horiz-adv-x="1331" 
d="M719 1602l192 -332h-53l-190 178l-191 -178h-53l192 332h103zM86 0v43q63 0 91.5 9.5t37.5 31.5v1030q-9 22 -37.5 31.5t-91.5 9.5v43h446v-43q-63 0 -91.5 -9.5t-37.5 -31.5v-457h525v457q-9 22 -37.5 31.5t-91.5 9.5v43h446v-43q-63 0 -91.5 -9.5t-37.5 -31.5v-1030
q9 -22 37.5 -31.5t91.5 -9.5v-43h-446v43q63 0 91.5 9.5t37.5 31.5v504h-525v-504q9 -22 37.5 -31.5t91.5 -9.5v-43h-446z" />
    <glyph glyph-name="hcircumflex" unicode="&#x125;" horiz-adv-x="1126" 
d="M319 1673l193 -332h-53l-191 179l-190 -179h-53l192 332h102zM43 0v43q63 0 91.5 9.5t37.5 31.5v1061q-127 10 -129 10v47q39 0 152 44t161 44v-463q111 95 244 95q195 0 278 -64t83 -219v-555q9 -22 37.5 -31.5t91.5 -9.5v-43h-443v43q63 0 91.5 9.5t37.5 31.5v569
q0 93 -42.5 146t-145.5 53q-129 0 -232 -90v-678q9 -22 37.5 -31.5t91.5 -9.5v-43h-442z" />
    <glyph glyph-name="Hbar" unicode="&#x126;" horiz-adv-x="1331" 
d="M86 0v43q63 0 91.5 9.5t37.5 31.5v741h-72v70h72v219q-9 22 -37.5 31.5t-91.5 9.5v43h446v-43q-63 0 -91.5 -9.5t-37.5 -31.5v-219h525v219q-9 22 -37.5 31.5t-91.5 9.5v43h446v-43q-63 0 -91.5 -9.5t-37.5 -31.5v-219h68v-70h-68v-741q9 -22 37.5 -31.5t91.5 -9.5v-43
h-446v43q63 0 91.5 9.5t37.5 31.5v504h-525v-504q9 -22 37.5 -31.5t91.5 -9.5v-43h-446zM928 825h-525v-168h525v168z" />
    <glyph glyph-name="hbar" unicode="&#x127;" horiz-adv-x="1126" 
d="M43 0v43q63 0 91.5 9.5t37.5 31.5v938h-123v70h123v53q-127 10 -129 10v47q39 0 152 44t161 44v-198h234v-70h-234v-195q111 95 244 95q195 0 278 -64t83 -219v-555q9 -22 37.5 -31.5t91.5 -9.5v-43h-443v43q63 0 91.5 9.5t37.5 31.5v569q0 93 -42.5 146t-145.5 53
q-129 0 -232 -90v-678q9 -22 37.5 -31.5t91.5 -9.5v-43h-442z" />
    <glyph glyph-name="Itilde" unicode="&#x128;" horiz-adv-x="618" 
d="M459 1270q-45 0 -167.5 60.5t-150.5 60.5q-58 0 -80 -30t-22 -91h-39q0 69 13 116.5t36.5 71t48.5 32.5t58 9q45 0 168 -60.5t151 -60.5q58 0 80.5 30t22.5 91h38q0 -69 -13 -116.5t-37 -71t-49 -32.5t-58 -9zM86 0v43q63 0 91.5 9.5t37.5 31.5v1030q-9 22 -37.5 31.5
t-91.5 9.5v43h446v-43q-63 0 -91.5 -9.5t-37.5 -31.5v-1030q9 -22 37.5 -31.5t91.5 -9.5v-43h-446z" />
    <glyph glyph-name="itilde" unicode="&#x129;" horiz-adv-x="548" 
d="M442 1055q-45 0 -167 60.5t-150 60.5q-58 0 -80 -30t-22 -91h-39q0 69 12.5 116.5t36 71t48.5 32.5t58 9q45 0 168.5 -60.5t151.5 -60.5q58 0 80 30t22 91h39q0 -69 -13 -116.5t-37 -71t-49.5 -32.5t-58.5 -9zM63 0v43q63 0 92 9.5t38 31.5v692q-128 10 -130 10v48
q38 0 152.5 44t161.5 44v-838q9 -22 37.5 -31.5t91.5 -9.5v-43h-443z" />
    <glyph glyph-name="Imacron" unicode="&#x12a;" horiz-adv-x="618" 
d="M37 1389h541v-91h-541v91zM86 0v43q63 0 91.5 9.5t37.5 31.5v1030q-9 22 -37.5 31.5t-91.5 9.5v43h446v-43q-63 0 -91.5 -9.5t-37.5 -31.5v-1030q9 -22 37.5 -31.5t91.5 -9.5v-43h-446z" />
    <glyph glyph-name="imacron" unicode="&#x12b;" horiz-adv-x="548" 
d="M6 1174h541v-91h-541v91zM63 0v43q63 0 92 9.5t38 31.5v692q-128 10 -130 10v48q38 0 152.5 44t161.5 44v-838q9 -22 37.5 -31.5t91.5 -9.5v-43h-443z" />
    <glyph glyph-name="Ibreve" unicode="&#x12c;" horiz-adv-x="618" 
d="M305 1290q-65 0 -117 26t-81.5 65.5t-44.5 81.5t-15 81h57q0 -41 52.5 -73.5t148.5 -32.5t148.5 32t52.5 74h57q0 -39 -15 -81t-44 -82t-81 -65.5t-118 -25.5zM86 0v43q63 0 91.5 9.5t37.5 31.5v1030q-9 22 -37.5 31.5t-91.5 9.5v43h446v-43q-63 0 -91.5 -9.5
t-37.5 -31.5v-1030q9 -22 37.5 -31.5t91.5 -9.5v-43h-446z" />
    <glyph glyph-name="ibreve" unicode="&#x12d;" horiz-adv-x="548" 
d="M289 1075q-65 0 -117 26t-81.5 65.5t-44.5 81.5t-15 81h57q0 -41 52.5 -73.5t148.5 -32.5t148 32t52 74h58q0 -39 -15 -81t-44 -82t-81 -65.5t-118 -25.5zM63 0v43q63 0 92 9.5t38 31.5v692q-128 10 -130 10v48q38 0 152.5 44t161.5 44v-838q9 -22 37.5 -31.5t91.5 -9.5
v-43h-443z" />
    <glyph glyph-name="Iogonek" unicode="&#x12e;" horiz-adv-x="618" 
d="M86 0v43q63 0 91.5 9.5t37.5 31.5v1030q-9 22 -37.5 31.5t-91.5 9.5v43h446v-43q-63 0 -91.5 -9.5t-37.5 -31.5v-1030q9 -22 37.5 -31.5t91.5 -9.5v-43h-96q-55 -69 -55 -121q0 -101 55.5 -160t124.5 -59q13 0 29 8t26 16l9 9l22 -37q-2 -3 -5.5 -7.5t-17 -15.5t-30 -20
t-46 -16t-63.5 -7q-101 0 -152.5 52.5t-51.5 146.5q0 118 98 211h-293z" />
    <glyph glyph-name="iogonek" unicode="&#x12f;" horiz-adv-x="548" 
d="M279 1053q-46 0 -79.5 34t-33.5 87q0 47 29.5 81.5t76.5 34.5q46 0 80.5 -35t34.5 -88q0 -46 -30 -80t-78 -34zM63 0v43q63 0 92 9.5t38 31.5v692q-128 10 -130 10v48q38 0 152.5 44t161.5 44v-838q9 -22 37.5 -31.5t91.5 -9.5v-43h-121q-55 -69 -55 -121
q0 -101 55.5 -160t124.5 -59q13 0 28.5 8t25.5 16l9 9l23 -37q-2 -3 -5.5 -7.5t-17 -15.5t-30 -20t-46 -16t-63.5 -7q-101 0 -153 52.5t-52 146.5q0 117 99 211h-265z" />
    <glyph glyph-name="Idotaccent" unicode="&#x130;" horiz-adv-x="618" 
d="M201 1376q0 43 30.5 74t73.5 31t74 -31t31 -74t-31 -73.5t-74 -30.5t-73.5 30.5t-30.5 73.5zM86 0v43q63 0 91.5 9.5t37.5 31.5v1030q-9 22 -37.5 31.5t-91.5 9.5v43h446v-43q-63 0 -91.5 -9.5t-37.5 -31.5v-1030q9 -22 37.5 -31.5t91.5 -9.5v-43h-446z" />
    <glyph glyph-name="dotlessi" unicode="&#x131;" horiz-adv-x="548" 
d="M63 0v43q63 0 92 9.5t38 31.5v692q-128 10 -130 10v48q38 0 152.5 44t161.5 44v-838q9 -22 37.5 -31.5t91.5 -9.5v-43h-443z" />
    <glyph glyph-name="IJ" unicode="&#x132;" horiz-adv-x="1406" 
d="M1225 352q0 -56 -9.5 -106.5t-33.5 -100t-61.5 -85.5t-98 -58t-137.5 -22q-145 0 -226 58t-81 126q0 46 24 74t64 28q37 0 64.5 -18t27.5 -53q0 -70 -51 -86q15 -15 23.5 -22.5t46.5 -20.5t87 -13q34 0 60.5 9t44.5 23.5t30.5 41.5t19.5 53.5t11 70t5 81t1 94.5v688
q-9 22 -37.5 31.5t-91.5 9.5v43h447v-43q-63 0 -91.5 -9.5t-37.5 -31.5v-762zM86 0v43q63 0 91.5 9.5t37.5 31.5v1030q-9 22 -37.5 31.5t-91.5 9.5v43h446v-43q-63 0 -91.5 -9.5t-37.5 -31.5v-1030q9 -22 37.5 -31.5t91.5 -9.5v-43h-446z" />
    <glyph glyph-name="ij" unicode="&#x133;" horiz-adv-x="1042" 
d="M805 1053q-46 0 -79.5 34t-33.5 87q0 47 29.5 81.5t77.5 34.5q46 0 80 -35t34 -88q0 -46 -30 -80t-78 -34zM719 776q-128 10 -129 10v48q38 0 152 44t161 44v-1012q0 -87 -23 -151t-62.5 -99.5t-86.5 -52.5t-102 -17q-131 0 -199 45.5t-68 133.5q0 37 27.5 59t61.5 22
q32 0 55.5 -22t23.5 -57q0 -30 -20 -50q0 -34 28.5 -51.5t69.5 -17.5q42 0 76.5 60.5t34.5 168.5v895zM63 0v43q63 0 92 9.5t38 31.5v692q-128 10 -130 10v48q38 0 152.5 44t161.5 44v-838q9 -22 37.5 -31.5t91.5 -9.5v-43h-443zM279 1053q-46 0 -79.5 34t-33.5 87
q0 47 29.5 81.5t76.5 34.5q46 0 80.5 -35t34.5 -88q0 -46 -30 -80t-78 -34z" />
    <glyph glyph-name="Jcircumflex" unicode="&#x134;" horiz-adv-x="843" 
d="M621 1602l192 -332h-53l-191 178l-190 -178h-53l192 332h103zM662 352q0 -56 -9.5 -106.5t-33.5 -100t-61.5 -85.5t-98 -58t-137.5 -22q-145 0 -226.5 58t-81.5 126q0 46 24 74t64 28q37 0 65 -18t28 -53q0 -69 -52 -86q15 -15 24 -22.5t47 -20.5t87 -13q34 0 60.5 9
t44.5 23.5t30.5 41.5t19.5 53.5t11 70t5 81t1 94.5v688q-9 22 -37.5 31.5t-91.5 9.5v43h447v-43q-63 0 -91.5 -9.5t-37.5 -31.5v-762z" />
    <glyph glyph-name="jcircumflex" unicode="&#x135;" horiz-adv-x="497" 
d="M311 1386l193 -331h-53l-191 178l-190 -178h-54l193 331h102zM174 776q-128 10 -129 10v48q38 0 151.5 44t161.5 44v-1012q0 -87 -23 -151t-62.5 -99.5t-86.5 -52.5t-102 -17q-130 0 -198 45.5t-68 133.5q0 37 27 59t61 22q32 0 56 -22t24 -57q0 -29 -21 -50
q0 -34 28.5 -51.5t69.5 -17.5q42 0 76.5 60.5t34.5 168.5v895z" />
    <glyph glyph-name="Kcommaaccent" unicode="&#x136;" horiz-adv-x="1185" 
d="M645 -256q-47 0 -75.5 22.5t-28.5 67.5q0 28 12 47.5t30 27.5t30 10.5t22 2.5q79 0 133.5 -48t54.5 -130q0 -47 -21 -88t-48.5 -66.5t-67 -47.5t-65 -32t-52.5 -18v57q52 7 106 57t54 113q0 36 -3.5 44t-16.5 8q-5 0 -23.5 -13.5t-40.5 -13.5zM84 0v43q63 0 91.5 9.5
t37.5 31.5v1030q-9 22 -37.5 31.5t-91.5 9.5v43h442v-43q-63 0 -91.5 -9.5t-37.5 -31.5v-1030q9 -22 37.5 -31.5t91.5 -9.5v-43h-442zM799 0v43q48 0 75 6l-466 594l501 498q-28 14 -104 14v43h321v-43q-39 0 -67.5 -9t-38 -17t-21.5 -21l-411 -408l481 -624q33 -33 129 -33
v-43h-399z" />
    <glyph glyph-name="kcommaaccent" unicode="&#x137;" horiz-adv-x="1030" 
d="M561 -256q-47 0 -75.5 22.5t-28.5 67.5q0 28 12 47.5t30 27.5t30 10.5t22 2.5q79 0 133.5 -48t54.5 -130q0 -47 -21 -88t-48.5 -66.5t-67 -47.5t-65 -32t-52.5 -18v57q52 7 106 57t54 113q0 36 -3.5 44t-16.5 8q-5 0 -23.5 -13.5t-40.5 -13.5zM43 0v43q63 0 91.5 9.5
t37.5 31.5v1061q-127 10 -129 10v47q39 0 152 44t161 44v-1206q9 -22 37.5 -31.5t91.5 -9.5v-43h-442zM635 0v43q51 0 78 6l-342 471l362 326q-30 12 -100 12v43h321v-43q-75 0 -110 -27l-291 -260l352 -489q15 -22 43 -30.5t86 -8.5v-43h-399z" />
    <glyph glyph-name="Lacute" unicode="&#x139;" horiz-adv-x="1013" 
d="M434 1602h217l-315 -332h-53zM86 0v43q63 0 91.5 9.5t37.5 31.5v1030q-9 22 -37.5 31.5t-91.5 9.5v43h446v-43q-63 0 -91.5 -9.5t-37.5 -31.5v-1044h467q51 21 93 129h41l-50 -199h-868z" />
    <glyph glyph-name="lacute" unicode="&#x13a;" horiz-adv-x="528" 
d="M393 1673h217l-315 -332h-53zM43 0v43q63 0 91.5 9.5t37.5 31.5v1061q-127 10 -129 10v47q39 0 152 44t161 44v-1206q9 -22 37.5 -31.5t91.5 -9.5v-43h-442z" />
    <glyph glyph-name="Lcommaaccent" unicode="&#x13b;" horiz-adv-x="1009" 
d="M551 -256q-47 0 -76 22.5t-29 67.5q0 28 12 47.5t30 27.5t30.5 10.5t22.5 2.5q79 0 133.5 -48t54.5 -130q0 -47 -21 -88t-48.5 -66.5t-67 -47.5t-65 -32t-52.5 -18v57q52 7 106 57t54 113q0 36 -4 44t-17 8q-5 0 -23 -13.5t-40 -13.5zM84 0v43q63 0 91.5 9.5t37.5 31.5
v1030q-9 22 -37.5 31.5t-91.5 9.5v43h446v-43q-63 0 -91.5 -9.5t-37.5 -31.5v-1044h467q51 21 93 129h40l-49 -199h-868z" />
    <glyph glyph-name="lcommaaccent" unicode="&#x13c;" horiz-adv-x="528" 
d="M274 -256q-47 0 -75.5 22.5t-28.5 67.5q0 28 12 47.5t30 27.5t30 10.5t22 2.5q79 0 134 -48t55 -130q0 -47 -21 -88t-48.5 -66.5t-67 -47.5t-65 -32t-52.5 -18v57q51 7 105 57t54 113q0 36 -3.5 44t-16.5 8q-5 0 -23.5 -13.5t-40.5 -13.5zM43 0v43q63 0 91.5 9.5
t37.5 31.5v1061q-127 10 -129 10v47q39 0 152 44t161 44v-1206q9 -22 37.5 -31.5t91.5 -9.5v-43h-442z" />
    <glyph glyph-name="Lcaron" unicode="&#x13d;" horiz-adv-x="1019" 
d="M711 1040q-47 0 -76 22.5t-29 67.5q0 28 12 48t30 27.5t30 10.5t22 3q79 0 134 -48.5t55 -130.5q0 -47 -21 -88t-48.5 -66.5t-67 -47.5t-65 -32t-52.5 -18v58q52 7 106 57t54 113q0 36 -4 43.5t-17 7.5q-5 0 -23 -13.5t-40 -13.5zM86 0v43q63 0 91.5 9.5t37.5 31.5v1030
q-9 22 -37.5 31.5t-91.5 9.5v43h446v-43q-63 0 -91.5 -9.5t-37.5 -31.5v-1044h467q51 21 93 129h41l-50 -199h-868z" />
    <glyph glyph-name="lcaron" unicode="&#x13e;" horiz-adv-x="587" 
d="M553 1112q-47 0 -75.5 22.5t-28.5 67.5q0 28 12 47.5t30 27.5t30 10.5t22 2.5q79 0 133.5 -48t54.5 -130q0 -47 -21 -88t-48.5 -66.5t-67 -47.5t-65 -32t-52.5 -18v58q52 7 106 56.5t54 112.5q0 36 -4 44t-17 8q-5 0 -23 -13.5t-40 -13.5zM43 0v43q63 0 91.5 9.5
t37.5 31.5v1061q-127 10 -129 10v47q39 0 152 44t161 44v-1206q9 -22 37.5 -31.5t91.5 -9.5v-43h-442z" />
    <glyph glyph-name="Ldot" unicode="&#x13f;" horiz-adv-x="1015" 
d="M625 631q0 43 30.5 73.5t73.5 30.5t74 -30.5t31 -73.5t-31 -74t-74 -31t-73.5 31t-30.5 74zM86 0v43q63 0 91.5 9.5t37.5 31.5v1030q-9 22 -37.5 31.5t-91.5 9.5v43h446v-43q-63 0 -91.5 -9.5t-37.5 -31.5v-1044h467q51 21 93 129h41l-50 -199h-868z" />
    <glyph glyph-name="ldot" unicode="&#x140;" horiz-adv-x="581" 
d="M453 631q0 43 30.5 73.5t73.5 30.5t74 -30.5t31 -73.5t-31 -74t-74 -31t-73.5 31t-30.5 74zM43 0v43q63 0 91.5 9.5t37.5 31.5v1061q-127 10 -129 10v47q39 0 152 44t161 44v-1206q9 -22 37.5 -31.5t91.5 -9.5v-43h-442z" />
    <glyph glyph-name="Lslash" unicode="&#x141;" horiz-adv-x="1013" 
d="M86 0v43q63 0 91.5 9.5t37.5 31.5v489l-90 -75l-45 53l135 115v448q-9 22 -37.5 31.5t-91.5 9.5v43h446v-43q-63 0 -91.5 -9.5t-37.5 -31.5v-291l91 76l45 -53l-136 -115v-661h467q51 21 93 129h41l-50 -199h-868z" />
    <glyph glyph-name="lslash" unicode="&#x142;" horiz-adv-x="530" 
d="M45 0v43q63 0 91.5 9.5t37.5 31.5v491l-92 -77l-45 53l137 115v479q-127 10 -129 10v47q38 0 151.5 44t161.5 44v-469l93 78l45 -53l-138 -115v-647q9 -22 37.5 -31.5t91.5 -9.5v-43h-442z" />
    <glyph glyph-name="Nacute" unicode="&#x143;" horiz-adv-x="1306" 
d="M776 1602h217l-315 -332h-53zM86 0v43q63 0 91.5 9.5t37.5 31.5v1030q-9 22 -37.5 31.5t-91.5 9.5v43h274l678 -838v754q-9 22 -37.5 31.5t-91.5 9.5v43h328v-43q-63 0 -91.5 -9.5t-37.5 -31.5v-1114h-18l-805 1018v-934q9 -22 37.5 -31.5t91.5 -9.5v-43h-328z" />
    <glyph glyph-name="nacute" unicode="&#x144;" horiz-adv-x="1144" 
d="M715 1389h217l-316 -332h-53zM63 0v43q63 0 92 9.5t38 31.5v692q-128 10 -130 10v48q38 0 152.5 44t161.5 44v-95q111 95 244 95q191 0 275.5 -70.5t84.5 -220.5v-547q9 -22 37.5 -31.5t91.5 -9.5v-43h-442v43q63 0 91.5 9.5t37.5 31.5v561q0 207 -189 207
q-128 0 -231 -90v-678q9 -22 37.5 -31.5t91.5 -9.5v-43h-443z" />
    <glyph glyph-name="Ncommaaccent" unicode="&#x145;" horiz-adv-x="1304" 
d="M657 -256q-47 0 -75.5 22.5t-28.5 67.5q0 28 12 47.5t30 27.5t30 10.5t22 2.5q79 0 134 -48t55 -130q0 -47 -21 -88t-48.5 -66.5t-67 -47.5t-65 -32t-52.5 -18v57q51 7 105 57t54 113q0 36 -3.5 44t-16.5 8q-5 0 -23.5 -13.5t-40.5 -13.5zM84 0v43q63 0 91.5 9.5
t37.5 31.5v1030q-9 22 -37.5 31.5t-91.5 9.5v43h274l678 -838v754q-9 22 -37.5 31.5t-91.5 9.5v43h328v-43q-63 0 -91.5 -9.5t-37.5 -31.5v-1114h-19l-804 1018v-934q9 -22 37.5 -31.5t91.5 -9.5v-43h-328z" />
    <glyph glyph-name="ncommaaccent" unicode="&#x146;" horiz-adv-x="1144" 
d="M590 -256q-47 0 -76 22.5t-29 67.5q0 28 12 47.5t30 27.5t30.5 10.5t22.5 2.5q79 0 133.5 -48t54.5 -130q0 -47 -21 -88t-48.5 -66.5t-67 -47.5t-65 -32t-52.5 -18v57q52 7 106 57t54 113q0 36 -4 44t-17 8q-5 0 -23 -13.5t-40 -13.5zM63 0v43q63 0 92 9.5t38 31.5v692
q-128 10 -130 10v48q38 0 152.5 44t161.5 44v-95q111 95 244 95q191 0 275.5 -70.5t84.5 -220.5v-547q9 -22 37.5 -31.5t91.5 -9.5v-43h-442v43q63 0 91.5 9.5t37.5 31.5v561q0 207 -189 207q-128 0 -231 -90v-678q9 -22 37.5 -31.5t91.5 -9.5v-43h-443z" />
    <glyph glyph-name="Ncaron" unicode="&#x147;" horiz-adv-x="1306" 
d="M602 1270l-192 332h53l190 -179l191 179h53l-192 -332h-103zM86 0v43q63 0 91.5 9.5t37.5 31.5v1030q-9 22 -37.5 31.5t-91.5 9.5v43h274l678 -838v754q-9 22 -37.5 31.5t-91.5 9.5v43h328v-43q-63 0 -91.5 -9.5t-37.5 -31.5v-1114h-18l-805 1018v-934q9 -22 37.5 -31.5
t91.5 -9.5v-43h-328z" />
    <glyph glyph-name="ncaron" unicode="&#x148;" horiz-adv-x="1144" 
d="M541 1057l-193 332h53l191 -179l190 179h54l-193 -332h-102zM63 0v43q63 0 92 9.5t38 31.5v692q-128 10 -130 10v48q38 0 152.5 44t161.5 44v-95q111 95 244 95q191 0 275.5 -70.5t84.5 -220.5v-547q9 -22 37.5 -31.5t91.5 -9.5v-43h-442v43q63 0 91.5 9.5t37.5 31.5v561
q0 207 -189 207q-128 0 -231 -90v-678q9 -22 37.5 -31.5t91.5 -9.5v-43h-443z" />
    <glyph glyph-name="napostrophe" unicode="&#x149;" horiz-adv-x="1144" 
d="M63 0v43q63 0 92 9.5t38 31.5v692q-128 10 -130 10v48q38 0 152.5 44t161.5 44v-95q111 95 244 95q191 0 275.5 -70.5t84.5 -220.5v-547q9 -22 37.5 -31.5t91.5 -9.5v-43h-442v43q63 0 91.5 9.5t37.5 31.5v561q0 207 -189 207q-128 0 -231 -90v-678q9 -22 37.5 -31.5
t91.5 -9.5v-43h-443zM55 1184q-47 0 -75.5 22.5t-28.5 67.5q0 28 12 47.5t30 27.5t30 10.5t22 2.5q79 0 133.5 -48t54.5 -130q0 -47 -21 -88t-48.5 -66.5t-66.5 -47.5t-64.5 -32t-52.5 -18v57q51 7 105 57t54 113q0 36 -3.5 43.5t-16.5 7.5q-5 0 -23.5 -13t-40.5 -13z" />
    <glyph glyph-name="Eng" unicode="&#x14a;" horiz-adv-x="1323" 
d="M86 0v43q63 0 91.5 9.5t37.5 31.5v1030q-9 22 -37.5 31.5t-91.5 9.5v43h317v-192q72 99 166 156t185 57q105 0 187.5 -31t146.5 -97.5t98.5 -182t34.5 -273.5q0 -321 -95 -488t-262 -167q-61 0 -121 14.5t-104.5 47.5t-44.5 77q0 28 26.5 51t59.5 23q28 0 48.5 -22
t45.5 -69q10 -20 14 -27.5t12.5 -17.5t18.5 -13t25 -3q95 0 141.5 131t46.5 406q0 135 -15.5 236t-49.5 178t-92.5 117t-141.5 40q-87 0 -178.5 -78.5t-151.5 -198.5v-788q9 -22 37.5 -31.5t91.5 -9.5v-43h-446z" />
    <glyph glyph-name="eng" unicode="&#x14b;" horiz-adv-x="1110" 
d="M63 0v43q63 0 92 9.5t38 31.5v692q-128 10 -130 10v48q38 0 152.5 44t161.5 44v-95q111 95 244 95q191 0 275.5 -70.5t84.5 -220.5v-721q0 -169 -69.5 -244.5t-184.5 -75.5q-61 0 -121 14.5t-104.5 48t-44.5 77.5q0 28 26 50.5t60 22.5q28 0 48.5 -21.5t45.5 -68.5
q10 -20 14 -27.5t12.5 -17.5t18.5 -13t25 -3q39 0 64.5 58.5t25.5 170.5v764q0 207 -189 207q-128 0 -231 -90v-678q9 -22 37.5 -31.5t91.5 -9.5v-43h-443z" />
    <glyph glyph-name="Omacron" unicode="&#x14c;" horiz-adv-x="1312" 
d="M389 1389h541v-91h-541v91zM295 614q0 -78 13.5 -156t43.5 -152t72.5 -131t105 -91.5t136.5 -34.5t135 33t100.5 86t67 123.5t39.5 143.5t12 147q0 77 -14 155.5t-44.5 153t-73 131.5t-104.5 92t-135 35q-74 0 -135 -33t-100.5 -86.5t-67 -124.5t-39.5 -144t-12 -147z
M90 598q0 125 41.5 238t114.5 198t180 135t231 50q164 0 295.5 -85.5t202 -227t70.5 -308.5t-71.5 -307.5t-202.5 -225.5t-294 -85q-166 0 -297 85t-200.5 225.5t-69.5 307.5z" />
    <glyph glyph-name="omacron" unicode="&#x14d;" horiz-adv-x="1116" 
d="M287 1174h540v-91h-540v91zM276 508q0 -234 89 -350.5t229 -116.5q111 0 178.5 99t67.5 255q0 463 -322 463q-108 0 -175 -103.5t-67 -246.5zM567 -20q-230 0 -358.5 133.5t-128.5 353.5q0 94 27 173.5t81.5 144t148 101t216.5 36.5q241 0 362 -128.5t121 -351.5
q0 -75 -16 -141.5t-52 -125.5t-89.5 -102t-133 -68t-178.5 -25z" />
    <glyph glyph-name="Obreve" unicode="&#x14e;" horiz-adv-x="1312" 
d="M657 1290q-65 0 -117 26t-81.5 65.5t-44.5 81.5t-15 81h58q0 -41 52 -73.5t148 -32.5t148.5 32t52.5 74h57q0 -39 -15 -81t-44 -82t-81 -65.5t-118 -25.5zM295 614q0 -78 13.5 -156t43.5 -152t72.5 -131t105 -91.5t136.5 -34.5t135 33t100.5 86t67 123.5t39.5 143.5
t12 147q0 77 -14 155.5t-44.5 153t-73 131.5t-104.5 92t-135 35q-74 0 -135 -33t-100.5 -86.5t-67 -124.5t-39.5 -144t-12 -147zM90 598q0 125 41.5 238t114.5 198t180 135t231 50q164 0 295.5 -85.5t202 -227t70.5 -308.5t-71.5 -307.5t-202.5 -225.5t-294 -85
q-166 0 -297 85t-200.5 225.5t-69.5 307.5z" />
    <glyph glyph-name="obreve" unicode="&#x14f;" horiz-adv-x="1116" 
d="M561 1075q-65 0 -117 26t-81.5 65.5t-44.5 81.5t-15 81h57q0 -41 52.5 -73.5t148.5 -32.5t148.5 32t52.5 74h57q0 -39 -15 -81t-44 -82t-81 -65.5t-118 -25.5zM276 508q0 -234 89 -350.5t229 -116.5q111 0 178.5 99t67.5 255q0 463 -322 463q-108 0 -175 -103.5
t-67 -246.5zM567 -20q-230 0 -358.5 133.5t-128.5 353.5q0 94 27 173.5t81.5 144t148 101t216.5 36.5q241 0 362 -128.5t121 -351.5q0 -75 -16 -141.5t-52 -125.5t-89.5 -102t-133 -68t-178.5 -25z" />
    <glyph glyph-name="Ohungarumlaut" unicode="&#x150;" horiz-adv-x="1312" 
d="M934 1602h217l-315 -332h-54zM606 1602h217l-315 -332h-53zM295 614q0 -78 13.5 -156t43.5 -152t72.5 -131t105 -91.5t136.5 -34.5t135 33t100.5 86t67 123.5t39.5 143.5t12 147q0 77 -14 155.5t-44.5 153t-73 131.5t-104.5 92t-135 35q-74 0 -135 -33t-100.5 -86.5
t-67 -124.5t-39.5 -144t-12 -147zM90 598q0 125 41.5 238t114.5 198t180 135t231 50q164 0 295.5 -85.5t202 -227t70.5 -308.5t-71.5 -307.5t-202.5 -225.5t-294 -85q-166 0 -297 85t-200.5 225.5t-69.5 307.5z" />
    <glyph glyph-name="ohungarumlaut" unicode="&#x151;" horiz-adv-x="1116" 
d="M838 1386h217l-316 -331h-53zM510 1386h217l-315 -331h-54zM276 508q0 -234 89 -350.5t229 -116.5q111 0 178.5 99t67.5 255q0 463 -322 463q-108 0 -175 -103.5t-67 -246.5zM567 -20q-230 0 -358.5 133.5t-128.5 353.5q0 94 27 173.5t81.5 144t148 101t216.5 36.5
q241 0 362 -128.5t121 -351.5q0 -75 -16 -141.5t-52 -125.5t-89.5 -102t-133 -68t-178.5 -25z" />
    <glyph glyph-name="OE" unicode="&#x152;" horiz-adv-x="1679" 
d="M807 0q-67 -20 -150 -20q-166 0 -297 85t-200.5 225.5t-69.5 307.5q0 125 41.5 238t114.5 198t180 135t231 50q81 0 152 -21h743v-199h-43q0 63 -9.5 91.5t-31.5 37.5h-424v-471h287q22 9 31.5 37.5t9.5 91.5h43v-327h-43q0 63 -9.5 91.5t-31.5 37.5h-287v-518h467
q51 21 93 129h41l-50 -199h-788zM856 121v938q-90 90 -207 90q-74 0 -135 -33t-100.5 -86.5t-67 -124.5t-39.5 -144t-12 -147q0 -78 13.5 -156t43.5 -152t72.5 -131t105 -91.5t136.5 -34.5q108 0 190 72z" />
    <glyph glyph-name="oe" unicode="&#x153;" horiz-adv-x="1769" 
d="M567 -20q-230 0 -358.5 133.5t-128.5 353.5q0 94 27 173.5t81.5 144t148 101t216.5 36.5q253 0 379 -148q118 148 332 148q111 0 196 -35t135 -95.5t74.5 -135.5t24.5 -162h-658q2 -112 47 -213.5t118.5 -162.5t152.5 -61q92 0 159 30.5t127 105.5l50 -25
q-60 -97 -154.5 -142.5t-251.5 -45.5q-97 0 -187.5 36.5t-154.5 120.5q-124 -157 -375 -157zM276 508q0 -234 89 -350.5t229 -116.5q111 0 178.5 99t67.5 255q0 463 -322 463q-108 0 -175 -103.5t-67 -246.5zM1038 557h455q-6 70 -18 120t-37.5 94t-71 66.5t-111.5 22.5
q-72 0 -138 -84.5t-79 -218.5z" />
    <glyph glyph-name="Racute" unicode="&#x154;" horiz-adv-x="1189" 
d="M707 1602h217l-316 -332h-53zM86 0v43q63 0 91.5 9.5t37.5 31.5v1030q-9 22 -37.5 31.5t-91.5 9.5v43h463q131 0 234 -27.5t162.5 -73t89.5 -97t30 -105.5q0 -113 -67 -198.5t-201 -123.5l272 -487q21 -43 135 -43v-43h-88q-144 0 -187 16t-85 90l-248 439h-193v-461
q9 -22 37.5 -31.5t91.5 -9.5v-43h-446zM403 1128v-514h170q164 0 225.5 63.5t61.5 215.5q0 113 -68 174t-243 61h-146z" />
    <glyph glyph-name="racute" unicode="&#x155;" horiz-adv-x="808" 
d="M561 1386h217l-315 -331h-53zM63 0v43q63 0 92 9.5t38 31.5v692q-128 10 -130 10v48q38 0 152.5 44t161.5 44v-91q103 91 203 91q91 0 154 -35.5t63 -77.5q0 -36 -22.5 -55t-59.5 -19q-29 0 -49 18.5t-29.5 40t-30 40t-49.5 18.5q-79 0 -180 -88v-680q9 -22 37.5 -31.5
t91.5 -9.5v-43h-443z" />
    <glyph glyph-name="Rcommaaccent" unicode="&#x156;" horiz-adv-x="1187" 
d="M666 -256q-47 0 -76 22.5t-29 67.5q0 28 12 47.5t30 27.5t30 10.5t22 2.5q79 0 134 -48t55 -130q0 -47 -21 -88t-48.5 -66.5t-67 -47.5t-65 -32t-52.5 -18v57q52 7 106 57t54 113q0 36 -4 44t-17 8q-5 0 -23 -13.5t-40 -13.5zM84 0v43q63 0 91.5 9.5t37.5 31.5v1030
q-9 22 -37.5 31.5t-91.5 9.5v43h463q131 0 234 -27.5t162.5 -73t89.5 -97t30 -105.5q0 -113 -67 -198.5t-201 -123.5l272 -487q21 -43 135 -43v-43h-88q-144 0 -187 16t-85 90l-248 439h-193v-461q9 -22 37.5 -31.5t91.5 -9.5v-43h-446zM401 1128v-514h170q164 0 225.5 63.5
t61.5 215.5q0 113 -68 174t-243 61h-146z" />
    <glyph glyph-name="rcommaaccent" unicode="&#x157;" horiz-adv-x="808" 
d="M297 -256q-47 0 -75.5 22.5t-28.5 67.5q0 28 12 47.5t30 27.5t30 10.5t22 2.5q79 0 133.5 -48t54.5 -130q0 -47 -21 -88t-48.5 -66.5t-67 -47.5t-65 -32t-52.5 -18v57q52 7 106 57t54 113q0 36 -4 44t-17 8q-5 0 -23 -13.5t-40 -13.5zM63 0v43q63 0 92 9.5t38 31.5v692
q-128 10 -130 10v48q38 0 152.5 44t161.5 44v-91q103 91 203 91q91 0 154 -35.5t63 -77.5q0 -36 -22.5 -55t-59.5 -19q-29 0 -49 18.5t-29.5 40t-30 40t-49.5 18.5q-79 0 -180 -88v-680q9 -22 37.5 -31.5t91.5 -9.5v-43h-443z" />
    <glyph glyph-name="Rcaron" unicode="&#x158;" horiz-adv-x="1189" 
d="M532 1270l-192 332h53l191 -179l190 179h53l-192 -332h-103zM86 0v43q63 0 91.5 9.5t37.5 31.5v1030q-9 22 -37.5 31.5t-91.5 9.5v43h463q131 0 234 -27.5t162.5 -73t89.5 -97t30 -105.5q0 -113 -67 -198.5t-201 -123.5l272 -487q21 -43 135 -43v-43h-88q-144 0 -187 16
t-85 90l-248 439h-193v-461q9 -22 37.5 -31.5t91.5 -9.5v-43h-446zM403 1128v-514h170q164 0 225.5 63.5t61.5 215.5q0 113 -68 174t-243 61h-146z" />
    <glyph glyph-name="rcaron" unicode="&#x159;" horiz-adv-x="808" 
d="M449 1055l-193 331h53l191 -178l190 178h53l-192 -331h-102zM63 0v43q63 0 92 9.5t38 31.5v692q-128 10 -130 10v48q38 0 152.5 44t161.5 44v-91q103 91 203 91q91 0 154 -35.5t63 -77.5q0 -36 -22.5 -55t-59.5 -19q-29 0 -49 18.5t-29.5 40t-30 40t-49.5 18.5
q-79 0 -180 -88v-680q9 -22 37.5 -31.5t91.5 -9.5v-43h-443z" />
    <glyph glyph-name="Sacute" unicode="&#x15a;" horiz-adv-x="978" 
d="M590 1602h217l-315 -332h-54zM510 -20q-74 0 -143 15t-113 30.5t-57 15.5t-29 -12t-16 -29h-48v285h46q12 -63 46.5 -110.5t84 -74t104 -39t113.5 -12.5q109 0 178 49t69 148q0 45 -19.5 82t-59.5 68.5t-76.5 53.5t-94.5 53t-89 50q-45 28 -60 37t-56.5 37.5t-59 44.5
t-47 46.5t-42.5 55.5t-24 58.5t-11 68.5q0 79 51 153t134.5 119.5t173.5 45.5q60 0 148.5 -31t99.5 -31q24 0 24 41h47l21 -260h-45q-13 90 -90 150.5t-203 60.5q-94 0 -150.5 -60t-56.5 -122q0 -39 19 -72.5t58 -63t74 -50.5t92.5 -51.5t88.5 -49.5q143 -87 197 -134
q124 -108 124 -243q0 -78 -36 -141.5t-94.5 -102t-129 -59t-143.5 -20.5z" />
    <glyph glyph-name="sacute" unicode="&#x15b;" horiz-adv-x="829" 
d="M526 1386h217l-315 -331h-53zM424 41q32 0 73.5 12t81 47.5t39.5 87.5q0 45 -38 86.5t-88.5 68.5t-116.5 50q-47 17 -78 30t-71 37.5t-64 51.5t-41 69t-17 93q0 115 83.5 181.5t203.5 66.5q52 0 99.5 -15.5t79.5 -31t46 -15.5q11 0 18 11.5t7 29.5h47v-246h-45
q-12 85 -83 145t-163 60q-66 0 -109.5 -30.5t-43.5 -84.5q0 -26 7 -48t23 -39.5t31 -29.5t43.5 -25t46.5 -20.5t54.5 -20t54.5 -19.5q106 -41 182 -115.5t76 -173.5q0 -126 -100.5 -200t-253.5 -74q-54 0 -101 17t-77 34.5t-44 17.5q-12 0 -28.5 -16t-16.5 -33h-49v289h45
q14 -104 97 -176t190 -72z" />
    <glyph glyph-name="Scircumflex" unicode="&#x15c;" horiz-adv-x="978" 
d="M516 1602l193 -332h-54l-190 178l-191 -178h-53l193 332h102zM510 -20q-74 0 -143 15t-113 30.5t-57 15.5t-29 -12t-16 -29h-48v285h46q12 -63 46.5 -110.5t84 -74t104 -39t113.5 -12.5q109 0 178 49t69 148q0 45 -19.5 82t-59.5 68.5t-76.5 53.5t-94.5 53t-89 50
q-45 28 -60 37t-56.5 37.5t-59 44.5t-47 46.5t-42.5 55.5t-24 58.5t-11 68.5q0 79 51 153t134.5 119.5t173.5 45.5q60 0 148.5 -31t99.5 -31q24 0 24 41h47l21 -260h-45q-13 90 -90 150.5t-203 60.5q-94 0 -150.5 -60t-56.5 -122q0 -39 19 -72.5t58 -63t74 -50.5t92.5 -51.5
t88.5 -49.5q143 -87 197 -134q124 -108 124 -243q0 -78 -36 -141.5t-94.5 -102t-129 -59t-143.5 -20.5z" />
    <glyph glyph-name="scircumflex" unicode="&#x15d;" horiz-adv-x="829" 
d="M481 1386l193 -331h-53l-191 178l-190 -178h-54l193 331h102zM424 41q32 0 73.5 12t81 47.5t39.5 87.5q0 45 -38 86.5t-88.5 68.5t-116.5 50q-47 17 -78 30t-71 37.5t-64 51.5t-41 69t-17 93q0 115 83.5 181.5t203.5 66.5q52 0 99.5 -15.5t79.5 -31t46 -15.5
q11 0 18 11.5t7 29.5h47v-246h-45q-12 85 -83 145t-163 60q-66 0 -109.5 -30.5t-43.5 -84.5q0 -26 7 -48t23 -39.5t31 -29.5t43.5 -25t46.5 -20.5t54.5 -20t54.5 -19.5q106 -41 182 -115.5t76 -173.5q0 -126 -100.5 -200t-253.5 -74q-54 0 -101 17t-77 34.5t-44 17.5
q-12 0 -28.5 -16t-16.5 -33h-49v289h45q14 -104 97 -176t190 -72z" />
    <glyph glyph-name="Scedilla" unicode="&#x15e;" horiz-adv-x="978" 
d="M522 -20l-24 -93q26 0 58 -7t66 -22t57 -43t23 -65q0 -29 -9.5 -54.5t-32.5 -50t-70 -39t-113 -14.5q-63 0 -151 15v35q36 -4 51 -4q79 0 113 29.5t34 66.5q0 90 -125 90l45 160q-76 7 -157 32t-90 25q-13 0 -29 -12t-16 -29h-48v285h46q12 -63 46.5 -110.5t84 -74
t104 -39t113.5 -12.5q109 0 178 49t69 148q0 45 -19.5 82t-59.5 68.5t-76.5 53.5t-94.5 53t-89 50q-45 28 -60 37t-56.5 37.5t-59 44.5t-47 46.5t-42.5 55.5t-24 58.5t-11 68.5q0 79 51 153t134.5 119.5t173.5 45.5q60 0 148.5 -31t99.5 -31q24 0 24 41h47l21 -260h-45
q-13 90 -90 150.5t-203 60.5q-94 0 -150.5 -60t-56.5 -122q0 -39 19 -72.5t58 -63t74 -50.5t92.5 -51.5t88.5 -49.5q143 -87 197 -134q124 -108 124 -243q0 -77 -34.5 -139.5t-91.5 -101t-125 -59.5t-140 -23z" />
    <glyph glyph-name="scedilla" unicode="&#x15f;" horiz-adv-x="831" 
d="M424 41q32 0 73.5 12t81 47.5t39.5 87.5q0 45 -38 86.5t-88.5 68.5t-116.5 50q-47 17 -78 30t-71 37.5t-64 51.5t-41 69t-17 93q0 115 83.5 181.5t203.5 66.5q52 0 99.5 -15.5t79.5 -31t46 -15.5q11 0 18 11.5t7 29.5h47v-246h-45q-12 85 -83 145t-163 60
q-66 0 -109.5 -30.5t-43.5 -84.5q0 -26 7 -48t23 -39.5t31 -29.5t43.5 -25t46.5 -20.5t54.5 -20t54.5 -19.5q106 -41 182 -115.5t76 -173.5q0 -121 -93.5 -194.5t-238.5 -79.5l-24 -93q26 0 58 -7t66 -22t57 -43t23 -65q0 -29 -9.5 -54.5t-32.5 -50t-70 -39t-113 -14.5
q-63 0 -152 15v35q36 -4 52 -4q79 0 113 29.5t34 66.5q0 90 -125 90l45 160q-49 9 -101 37t-65 28q-12 0 -28.5 -16t-16.5 -33h-49v289h45q14 -104 97 -176t190 -72z" />
    <glyph glyph-name="Scaron" unicode="&#x160;" horiz-adv-x="978" 
d="M416 1270l-193 332h53l191 -179l190 179h54l-193 -332h-102zM510 -20q-74 0 -143 15t-113 30.5t-57 15.5t-29 -12t-16 -29h-48v285h46q12 -63 46.5 -110.5t84 -74t104 -39t113.5 -12.5q109 0 178 49t69 148q0 45 -19.5 82t-59.5 68.5t-76.5 53.5t-94.5 53t-89 50
q-45 28 -60 37t-56.5 37.5t-59 44.5t-47 46.5t-42.5 55.5t-24 58.5t-11 68.5q0 79 51 153t134.5 119.5t173.5 45.5q60 0 148.5 -31t99.5 -31q24 0 24 41h47l21 -260h-45q-13 90 -90 150.5t-203 60.5q-94 0 -150.5 -60t-56.5 -122q0 -39 19 -72.5t58 -63t74 -50.5t92.5 -51.5
t88.5 -49.5q143 -87 197 -134q124 -108 124 -243q0 -78 -36 -141.5t-94.5 -102t-129 -59t-143.5 -20.5z" />
    <glyph glyph-name="scaron" unicode="&#x161;" horiz-adv-x="829" 
d="M377 1055l-193 331h54l190 -178l190 178h54l-193 -331h-102zM424 41q32 0 73.5 12t81 47.5t39.5 87.5q0 45 -38 86.5t-88.5 68.5t-116.5 50q-47 17 -78 30t-71 37.5t-64 51.5t-41 69t-17 93q0 115 83.5 181.5t203.5 66.5q52 0 99.5 -15.5t79.5 -31t46 -15.5q11 0 18 11.5
t7 29.5h47v-246h-45q-12 85 -83 145t-163 60q-66 0 -109.5 -30.5t-43.5 -84.5q0 -26 7 -48t23 -39.5t31 -29.5t43.5 -25t46.5 -20.5t54.5 -20t54.5 -19.5q106 -41 182 -115.5t76 -173.5q0 -126 -100.5 -200t-253.5 -74q-54 0 -101 17t-77 34.5t-44 17.5q-12 0 -28.5 -16
t-16.5 -33h-49v289h45q14 -104 97 -176t190 -72z" />
    <glyph glyph-name="Tcommaaccent" unicode="&#x162;" horiz-adv-x="1101" 
d="M37 1198h1028v-199h-43q0 63 -9.5 91.5t-31.5 37.5h-336v-1044q9 -22 37.5 -31.5t91.5 -9.5v-43h-182l-31 -113q37 0 81 -11.5t84 -44.5t40 -81q0 -29 -9.5 -54.5t-32.5 -50t-70 -39t-113 -14.5q-63 0 -152 15v35q36 -4 51 -4q79 0 113.5 29.5t34.5 66.5q0 90 -125 90
l51 176h-186v43q63 0 91.5 9.5t37.5 31.5v1044h-336q-22 -9 -31.5 -37.5t-9.5 -91.5h-43v199z" />
    <glyph glyph-name="tcommaaccent" unicode="&#x163;" horiz-adv-x="681" 
d="M371 1198l-2 -297h176v-61h-176v-652q0 -64 23 -97.5t83 -33.5q36 0 74.5 36.5t52.5 99.5l49 -25q-44 -185 -241 -188l-25 -93q37 0 81 -11.5t84 -44.5t40 -81q0 -29 -9.5 -54.5t-32.5 -50t-70 -39t-113 -14.5q-63 0 -152 15v35q36 -4 51 -4q79 0 113.5 29.5t34.5 66.5
q0 90 -125 90l47 162q-160 31 -160 219v635h-143v61q97 0 174.5 80t77.5 217h88z" />
    <glyph glyph-name="Tcaron" unicode="&#x164;" horiz-adv-x="1101" 
d="M37 1198h1028v-199h-43q0 63 -9.5 91.5t-31.5 37.5h-336v-1044q9 -22 37.5 -31.5t91.5 -9.5v-43h-446v43q63 0 91.5 9.5t37.5 31.5v1044h-336q-22 -9 -31.5 -37.5t-9.5 -91.5h-43v199zM500 1341l-193 332h53l191 -178l190 178h54l-193 -332h-102z" />
    <glyph glyph-name="tcaron" unicode="&#x165;" horiz-adv-x="681" 
d="M555 1276q-47 0 -75.5 22.5t-28.5 67.5q0 28 12 47.5t30 27.5t30 10.5t22 2.5q79 0 133.5 -48t54.5 -130q0 -47 -21 -88t-48.5 -66.5t-67 -47.5t-65 -32t-52.5 -18v57q52 7 106 57t54 113q0 36 -4 44t-17 8q-5 0 -23 -13.5t-40 -13.5zM369 1198v-297h176v-61h-176v-652
q0 -64 23 -97.5t83 -33.5q36 0 74.5 36.5t52.5 99.5l49 -25q-44 -188 -245 -188q-234 0 -234 225v635h-143v61q97 0 174.5 80t77.5 217h88z" />
    <glyph glyph-name="Tbar" unicode="&#x166;" horiz-adv-x="1101" 
d="M37 1198h1028v-199h-43q0 63 -9.5 91.5t-31.5 37.5h-336v-446h162v-70h-162v-528q9 -22 37.5 -31.5t91.5 -9.5v-43h-446v43q63 0 91.5 9.5t37.5 31.5v528h-191v70h191v446h-336q-22 -9 -31.5 -37.5t-9.5 -91.5h-43v199z" />
    <glyph glyph-name="tbar" unicode="&#x167;" horiz-adv-x="690" 
d="M375 1198v-297h176v-61h-176v-256h200v-70h-200v-326q0 -64 23 -97.5t83 -33.5q36 0 74.5 36.5t52.5 99.5l49 -25q-44 -188 -245 -188q-234 0 -234 225v309h-143v70h143v256h-143v61q97 0 174.5 80t77.5 217h88z" />
    <glyph glyph-name="Utilde" unicode="&#x168;" horiz-adv-x="1265" 
d="M842 1270q-45 0 -167.5 60.5t-150.5 60.5q-58 0 -80 -30t-22 -91h-39q0 69 13 116.5t36.5 71t48.5 32.5t58 9q45 0 168 -60.5t151 -60.5q58 0 80.5 30t22.5 91h38q0 -69 -13 -116.5t-37 -71t-49 -32.5t-58 -9zM692 49q137 0 230.5 114.5t93.5 303.5v647q-9 22 -37.5 31.5
t-91.5 9.5v43h327v-43q-63 0 -91.5 -9.5t-37.5 -31.5v-606q0 -137 -33.5 -241t-91.5 -165t-130.5 -91.5t-157.5 -30.5q-492 0 -492 528v606q-9 22 -37.5 31.5t-91.5 9.5v43h447v-43q-63 0 -91.5 -9.5t-37.5 -31.5v-635q0 -204 89.5 -317t233.5 -113z" />
    <glyph glyph-name="utilde" unicode="&#x169;" horiz-adv-x="1126" 
d="M709 1055q-45 0 -167.5 60.5t-150.5 60.5q-58 0 -80 -30t-22 -91h-39q0 69 13 116.5t36.5 71t48.5 32.5t58 9q45 0 168 -60.5t151 -60.5q58 0 80 30t22 91h39q0 -69 -13 -116.5t-37 -71t-49 -32.5t-58 -9zM952 125q128 -10 129 -10v-47q-39 0 -152 -44t-161 -44v94
q-110 -94 -244 -94q-191 0 -275.5 70t-84.5 220v547q-9 22 -37.5 31.5t-91.5 9.5v43h313v-645q0 -207 189 -207q128 0 231 90v678q-9 22 -37.5 31.5t-91.5 9.5v43h313v-776z" />
    <glyph glyph-name="Umacron" unicode="&#x16a;" horiz-adv-x="1265" 
d="M406 1389h540v-91h-540v91zM692 49q137 0 230.5 114.5t93.5 303.5v647q-9 22 -37.5 31.5t-91.5 9.5v43h327v-43q-63 0 -91.5 -9.5t-37.5 -31.5v-606q0 -137 -33.5 -241t-91.5 -165t-130.5 -91.5t-157.5 -30.5q-492 0 -492 528v606q-9 22 -37.5 31.5t-91.5 9.5v43h447v-43
q-63 0 -91.5 -9.5t-37.5 -31.5v-635q0 -204 89.5 -317t233.5 -113z" />
    <glyph glyph-name="umacron" unicode="&#x16b;" horiz-adv-x="1126" 
d="M272 1174h541v-91h-541v91zM952 125q128 -10 129 -10v-47q-39 0 -152 -44t-161 -44v94q-110 -94 -244 -94q-191 0 -275.5 70t-84.5 220v547q-9 22 -37.5 31.5t-91.5 9.5v43h313v-645q0 -207 189 -207q128 0 231 90v678q-9 22 -37.5 31.5t-91.5 9.5v43h313v-776z" />
    <glyph glyph-name="Ubreve" unicode="&#x16c;" horiz-adv-x="1265" 
d="M688 1290q-65 0 -117 26t-81.5 65.5t-44.5 81.5t-15 81h57q0 -41 52.5 -73.5t148.5 -32.5t148.5 32t52.5 74h57q0 -39 -15 -81t-44 -82t-81 -65.5t-118 -25.5zM692 49q137 0 230.5 114.5t93.5 303.5v647q-9 22 -37.5 31.5t-91.5 9.5v43h327v-43q-63 0 -91.5 -9.5
t-37.5 -31.5v-606q0 -137 -33.5 -241t-91.5 -165t-130.5 -91.5t-157.5 -30.5q-492 0 -492 528v606q-9 22 -37.5 31.5t-91.5 9.5v43h447v-43q-63 0 -91.5 -9.5t-37.5 -31.5v-635q0 -204 89.5 -317t233.5 -113z" />
    <glyph glyph-name="ubreve" unicode="&#x16d;" horiz-adv-x="1126" 
d="M555 1075q-65 0 -117 26t-81.5 65.5t-44.5 81.5t-15 81h57q0 -41 52.5 -73.5t148.5 -32.5t148.5 32t52.5 74h57q0 -39 -15 -81t-44 -82t-81 -65.5t-118 -25.5zM952 125q128 -10 129 -10v-47q-39 0 -152 -44t-161 -44v94q-110 -94 -244 -94q-191 0 -275.5 70t-84.5 220
v547q-9 22 -37.5 31.5t-91.5 9.5v43h313v-645q0 -207 189 -207q128 0 231 90v678q-9 22 -37.5 31.5t-91.5 9.5v43h313v-776z" />
    <glyph glyph-name="Uring" unicode="&#x16e;" horiz-adv-x="1265" 
d="M592 1411q0 -40 28 -68t68 -28t68 28t28 68t-28 68t-68 28t-68 -28t-28 -68zM504 1411q0 78 53 131t131 53t131 -53t53 -131t-53 -131t-131 -53t-131 53t-53 131zM692 49q137 0 230.5 114.5t93.5 303.5v647q-9 22 -37.5 31.5t-91.5 9.5v43h327v-43q-63 0 -91.5 -9.5
t-37.5 -31.5v-606q0 -137 -33.5 -241t-91.5 -165t-130.5 -91.5t-157.5 -30.5q-492 0 -492 528v606q-9 22 -37.5 31.5t-91.5 9.5v43h447v-43q-63 0 -91.5 -9.5t-37.5 -31.5v-635q0 -204 89.5 -317t233.5 -113z" />
    <glyph glyph-name="uring" unicode="&#x16f;" horiz-adv-x="1126" 
d="M459 1196q0 -40 28 -68t68 -28t68 28t28 68t-28 68t-68 28t-68 -28t-28 -68zM371 1196q0 78 53 131t131 53t131 -53t53 -131t-53 -131t-131 -53t-131 53t-53 131zM952 125q128 -10 129 -10v-47q-39 0 -152 -44t-161 -44v94q-110 -94 -244 -94q-191 0 -275.5 70t-84.5 220
v547q-9 22 -37.5 31.5t-91.5 9.5v43h313v-645q0 -207 189 -207q128 0 231 90v678q-9 22 -37.5 31.5t-91.5 9.5v43h313v-776z" />
    <glyph glyph-name="Uhungarumlaut" unicode="&#x170;" horiz-adv-x="1265" 
d="M965 1602h217l-316 -332h-53zM637 1602h217l-315 -332h-54zM692 49q137 0 230.5 114.5t93.5 303.5v647q-9 22 -37.5 31.5t-91.5 9.5v43h327v-43q-63 0 -91.5 -9.5t-37.5 -31.5v-606q0 -137 -33.5 -241t-91.5 -165t-130.5 -91.5t-157.5 -30.5q-492 0 -492 528v606
q-9 22 -37.5 31.5t-91.5 9.5v43h447v-43q-63 0 -91.5 -9.5t-37.5 -31.5v-635q0 -204 89.5 -317t233.5 -113z" />
    <glyph glyph-name="uhungarumlaut" unicode="&#x171;" horiz-adv-x="1126" 
d="M831 1386h218l-316 -331h-53zM504 1386h217l-315 -331h-54zM952 125q128 -10 129 -10v-47q-39 0 -152 -44t-161 -44v94q-110 -94 -244 -94q-191 0 -275.5 70t-84.5 220v547q-9 22 -37.5 31.5t-91.5 9.5v43h313v-645q0 -207 189 -207q128 0 231 90v678q-9 22 -37.5 31.5
t-91.5 9.5v43h313v-776z" />
    <glyph glyph-name="Uogonek" unicode="&#x172;" horiz-adv-x="1269" 
d="M694 49v-2q137 0 230.5 114.5t93.5 303.5v647q-9 22 -37.5 31.5t-91.5 9.5v43h328v-43q-63 0 -92 -9.5t-38 -31.5v-606q0 -134 -32 -237t-88 -164.5t-126.5 -93.5t-152.5 -34q-41 -59 -41 -100q0 -101 55.5 -160t124.5 -59q13 0 29 8t26 16l9 9l22 -37l-5 -7.5
t-16.5 -15.5t-30.5 -20t-46 -16t-63 -7q-101 0 -153 52.5t-52 146.5q0 109 80 193q-445 25 -445 528v606q-9 22 -37.5 31.5t-91.5 9.5v43h447v-43q-63 0 -91.5 -9.5t-37.5 -31.5v-635q0 -204 89.5 -317t233.5 -113z" />
    <glyph glyph-name="uogonek" unicode="&#x173;" horiz-adv-x="1128" 
d="M952 125q128 -10 129 -10v-47q-38 0 -137 -38t-137 -46q-43 -62 -43 -105q0 -101 55.5 -160t124.5 -59q13 0 29 8t25 16l10 9l22 -37q-2 -3 -5.5 -7.5t-17 -15.5t-30 -20t-46 -16t-63.5 -7q-101 0 -152.5 52.5t-51.5 146.5q0 128 104 215v70q-110 -94 -244 -94
q-191 0 -275.5 70t-84.5 220v547q-9 22 -37.5 31.5t-91.5 9.5v43h313v-645q0 -207 189 -207q128 0 231 90v678q-9 22 -37.5 31.5t-91.5 9.5v43h313v-776z" />
    <glyph glyph-name="Wcircumflex" unicode="&#x174;" horiz-adv-x="1722" 
d="M870 1602l193 -332h-53l-191 178l-190 -178h-54l193 332h102zM1036 1198v-43q-93 0 -118 -25l313 -858l301 846q-11 20 -38.5 28.5t-88.5 8.5v43h336v-43q-63 0 -92 -10.5t-37 -32.5l-398 -1112h-98l-256 715l-254 -715h-98l-397 1112q-15 43 -131 43v43h448v-43
q-94 0 -119 -25l314 -856l196 555l-100 283q-15 43 -131 43v43h448z" />
    <glyph glyph-name="wcircumflex" unicode="&#x175;" horiz-adv-x="1556" 
d="M823 1386l193 -331h-53l-191 178l-190 -178h-54l193 331h102zM387 901v-43q-59 0 -86 -8l244 -600l184 461l-43 106q-9 22 -37.5 31.5t-91.5 9.5v43h397v-43q-59 0 -86 -8l244 -600l234 586q-28 22 -115 22v43h336v-43q-111 0 -127 -39l-328 -819h-100l-234 586
l-233 -586h-101l-325 817q-9 22 -37.5 31.5t-91.5 9.5v43h397z" />
    <glyph glyph-name="Ycircumflex" unicode="&#x176;" horiz-adv-x="1153" 
d="M682 1602l192 -332h-53l-190 178l-191 -178h-53l193 332h102zM430 1198v-43q-97 0 -119 -25l318 -555l327 543q-21 37 -127 37v43h336v-43q-86 0 -116 -27l-369 -612v-432q9 -22 37.5 -31.5t91.5 -9.5v-43h-447v43q63 0 92 9.5t38 31.5v367l-379 663q-27 41 -131 41v43
h448z" />
    <glyph glyph-name="ycircumflex" unicode="&#x177;" horiz-adv-x="989" 
d="M584 1386l192 -331h-53l-191 178l-190 -178h-53l192 331h103zM387 901v-43q-59 0 -86 -8l244 -600l233 586q-28 22 -114 22v43h335v-43q-112 0 -127 -37l-411 -1030q-39 -96 -100 -140t-115 -44q-51 0 -81 27t-30 63q0 31 21.5 55.5t58.5 24.5q22 0 46.5 -17.5
t37.5 -17.5q44 0 57 37l88 221l-325 817q-9 22 -37.5 31.5t-91.5 9.5v43h397z" />
    <glyph glyph-name="Ydieresis" unicode="&#x178;" horiz-adv-x="1153" 
d="M719 1370q0 41 29.5 70.5t70.5 29.5t71 -29.5t30 -70.5t-30 -70.5t-71 -29.5t-70.5 29.5t-29.5 70.5zM342 1370q0 41 29.5 70.5t70.5 29.5t71 -29.5t30 -70.5t-30 -70.5t-71 -29.5t-70.5 29.5t-29.5 70.5zM430 1198v-43q-97 0 -119 -25l318 -555l327 543q-21 37 -127 37
v43h336v-43q-86 0 -116 -27l-369 -612v-432q9 -22 37.5 -31.5t91.5 -9.5v-43h-447v43q63 0 92 9.5t38 31.5v367l-379 663q-27 41 -131 41v43h448z" />
    <glyph glyph-name="Zacute" unicode="&#x179;" horiz-adv-x="1024" 
d="M631 1602h217l-316 -332h-53zM920 0h-885l651 1137h-498q-22 -9 -31.5 -37.5t-9.5 -91.5h-43v190h826l-651 -1137h557q62 26 94 136h43z" />
    <glyph glyph-name="zacute" unicode="&#x17a;" horiz-adv-x="870" 
d="M567 1386h217l-315 -331h-53zM793 0h-758l543 840h-394q-22 -9 -31.5 -37.5t-9.5 -91.5h-43v190h709l-543 -840h443q22 9 31.5 37.5t9.5 91.5h43v-190z" />
    <glyph glyph-name="Zdotaccent" unicode="&#x17b;" horiz-adv-x="1024" 
d="M401 1376q0 43 31 74t74 31t73.5 -31t30.5 -74t-30.5 -73.5t-73.5 -30.5t-74 30.5t-31 73.5zM920 0h-885l651 1137h-498q-22 -9 -31.5 -37.5t-9.5 -91.5h-43v190h826l-651 -1137h557q62 26 94 136h43z" />
    <glyph glyph-name="zdotaccent" unicode="&#x17c;" horiz-adv-x="870" 
d="M338 1161q0 43 30.5 74t73.5 31t74 -31t31 -74t-31 -73.5t-74 -30.5t-73.5 30.5t-30.5 73.5zM793 0h-758l543 840h-394q-22 -9 -31.5 -37.5t-9.5 -91.5h-43v190h709l-543 -840h443q22 9 31.5 37.5t9.5 91.5h43v-190z" />
    <glyph glyph-name="Zcaron" unicode="&#x17d;" horiz-adv-x="1024" 
d="M467 1341l-193 332h54l190 -178l191 178h53l-193 -332h-102zM920 0h-885l651 1137h-498q-22 -9 -31.5 -37.5t-9.5 -91.5h-43v190h826l-651 -1137h557q62 26 94 136h43z" />
    <glyph glyph-name="zcaron" unicode="&#x17e;" horiz-adv-x="870" 
d="M403 1044l-192 332h53l191 -178l190 178h53l-192 -332h-103zM793 0h-758l543 840h-394q-22 -9 -31.5 -37.5t-9.5 -91.5h-43v190h709l-543 -840h443q22 9 31.5 37.5t9.5 91.5h43v-190z" />
    <glyph glyph-name="longs" unicode="&#x17f;" horiz-adv-x="528" 
d="M43 0v43q63 0 91.5 9.5t37.5 31.5v887q0 87 23 151t62.5 99.5t86.5 52t102 16.5q131 0 199 -45t68 -133q0 -37 -27 -59.5t-61 -22.5q-32 0 -56 22.5t-24 57.5q0 29 20 49q0 34 -28.5 52t-69.5 18q-42 0 -76.5 -61t-34.5 -169v-915q9 -22 37.5 -31.5t91.5 -9.5v-43h-442z
" />
    <glyph glyph-name="uni0180" unicode="&#x180;" horiz-adv-x="1101" 
d="M324 764v-643q81 -72 223 -72q113 0 196.5 107.5t83.5 298.5q0 181 -67.5 293t-175.5 112q-173 0 -260 -96zM139 1145q-127 10 -129 10v47q38 0 152 44t162 44v-211h202v-69h-202v-176q100 96 280 96q52 0 105 -13t110.5 -47.5t101.5 -86t72.5 -136.5t28.5 -192
q0 -229 -128 -352t-335 -123q-149 0 -244 77q-20 -13 -46.5 -28.5t-66 -32t-63.5 -16.5v1030h-153v69h153v66z" />
    <glyph glyph-name="uni0181" unicode="&#x181;" horiz-adv-x="1380" 
d="M324 0v43q63 0 91.5 9.5t37.5 31.5v1044q-197 0 -230 -38q-22 -22 -22 -64q0 -43 30 -59q39 -22 39 -68q0 -43 -27.5 -69.5t-68.5 -26.5q-69 0 -107 57t-38 123q0 38 18 80.5t49 62.5q43 29 70.5 41t97.5 21.5t189 9.5h247q132 0 234.5 -24.5t162.5 -66t90 -90.5t30 -102
q0 -208 -218 -282q104 -23 175.5 -70.5t102 -101.5t30.5 -111q0 -75 -29.5 -137.5t-88 -110.5t-154 -75t-220.5 -27h-491zM641 1128v-475h84q152 0 219.5 67.5t67.5 192.5q0 215 -312 215h-59zM641 594v-524h174q157 0 222 74t65 204q0 34 -8 66t-30 65.5t-56 58t-90 40.5
t-127 16h-150z" />
    <glyph glyph-name="Oopen" unicode="&#x186;" horiz-adv-x="1187" 
d="M489 41q75 0 146 32t131 94t96.5 166.5t36.5 237.5q0 120 -28 220t-72.5 164.5t-101 109.5t-111.5 64.5t-107 19.5q-106 0 -201 -61t-145 -158l-49 24q50 114 155.5 189.5t266.5 75.5q62 0 134 -16.5t155 -60.5t149 -109t110 -173.5t44 -243.5q0 -148 -49.5 -271.5
t-131 -201.5t-182.5 -120.5t-209 -42.5q-219 0 -330.5 79.5t-111.5 196.5q0 46 24 74t64 28q37 0 64.5 -18t27.5 -53q0 -43 -21 -63.5t-50 -20.5q16 -63 100 -112.5t196 -49.5z" />
    <glyph glyph-name="uni0187" unicode="&#x187;" horiz-adv-x="1386" 
d="M920 1118q67 101 184 101q61 0 121 -14.5t104.5 -48t44.5 -77.5q0 -28 -26 -50.5t-60 -22.5q-28 0 -48.5 21.5t-45.5 68.5q-10 20 -14 27.5t-12.5 17.5t-18.5 13t-25 3q-39 0 -66.5 -68t-27.5 -180h-45q-15 102 -110 171t-226 69q-170 0 -258 -140.5t-88 -381.5
q0 -138 35 -250t94 -182.5t133.5 -108t155.5 -37.5q102 0 202.5 70.5t129.5 150.5l49 -24q-21 -51 -53 -94.5t-81.5 -84t-123.5 -64t-164 -23.5q-138 0 -252 50t-186.5 134.5t-112 192t-39.5 225.5q0 293 155.5 465t401.5 172q157 0 273 -101z" />
    <glyph glyph-name="uni0188" unicode="&#x188;" horiz-adv-x="1234" 
d="M809 614q0 101 -75 173.5t-177 72.5q-126 0 -204.5 -96t-78.5 -260q0 -114 45 -218t119 -166.5t154 -62.5q92 0 159.5 31t127.5 105l49 -25q-60 -97 -154.5 -142.5t-251.5 -45.5q-61 0 -118.5 13.5t-118 49.5t-104.5 92t-72.5 149t-28.5 212q0 86 32 163t90 135.5t145 93
t190 34.5q142 0 237 -88q78 88 176 88q61 0 121.5 -14.5t105 -48t44.5 -77.5q0 -28 -26 -50.5t-60 -22.5q-29 0 -50 22t-45 68q-13 26 -18.5 35.5t-18 17.5t-32.5 8q-39 0 -68 -67t-29 -179h-65z" />
    <glyph glyph-name="uni0189" unicode="&#x189;" horiz-adv-x="1257" 
d="M410 563v-493h178q51 0 102 17.5t101 58t87.5 100t61 151t23.5 203.5q0 138 -35.5 245t-94.5 169t-127.5 93.5t-142.5 31.5h-153v-506h208v-70h-208zM92 0v43q63 0 91.5 9.5t37.5 31.5v479h-143v70h143v481q-9 22 -37.5 31.5t-91.5 9.5v43h471q273 0 438.5 -165
t165.5 -431q0 -267 -161 -434.5t-418 -167.5h-496z" />
    <glyph glyph-name="uni018A" unicode="&#x18a;" horiz-adv-x="1488" 
d="M324 -2v43q63 0 91.5 9.5t37.5 31.5v1046q-197 0 -230 -38q-22 -22 -22 -64q0 -43 30 -59q39 -22 39 -68q0 -43 -27.5 -69.5t-68.5 -26.5q-69 0 -107 57t-38 123q0 38 18 80.5t49 62.5q43 29 70.5 41t97.5 21.5t189 9.5h342q273 0 438.5 -166t165.5 -432
q0 -267 -161.5 -434.5t-418.5 -167.5h-495zM641 1128v-1060h178q51 0 102 17.5t101 58t87.5 100t61 151t23.5 203.5q0 137 -35.5 243t-94 166.5t-127 90.5t-142.5 30h-154z" />
    <glyph glyph-name="Eturned" unicode="&#x18e;" horiz-adv-x="1038" 
d="M952 0h-868l-49 199h41q43 -109 92 -129h467v518h-287q-22 -9 -31.5 -37.5t-9.5 -91.5h-43v327h43q0 -63 9.5 -91.5t31.5 -37.5h287v471h-424q-22 -9 -31.5 -37.5t-9.5 -91.5h-43v199h825v-43q-63 0 -91.5 -9.5t-37.5 -31.5v-1030q9 -22 37.5 -31.5t91.5 -9.5v-43z" />
    <glyph glyph-name="Schwa" unicode="&#x18f;" horiz-adv-x="1269" 
d="M967 504h-691q20 -203 108.5 -329t207.5 -126q161 0 261 123.5t114 331.5zM969 573q0 137 -35 249t-94 182t-133.5 107.5t-155.5 37.5q-102 0 -202.5 -70.5t-129.5 -150.5l-49 24q21 51 53 94.5t81.5 84.5t123.5 64.5t164 23.5q138 0 252 -50.5t186.5 -135t112 -192
t39.5 -225.5q0 -145 -46.5 -266t-126.5 -201.5t-187 -124.5t-228 -44q-149 0 -271 74.5t-194 211t-72 307.5h912z" />
    <glyph glyph-name="Eopen" unicode="&#x190;" horiz-adv-x="1069" 
d="M666 631q-173 0 -265 -72.5t-92 -202.5q0 -145 88.5 -226t235.5 -81q108 0 207 70t129 151l49 -24q-22 -54 -50 -95t-76 -83t-124.5 -65t-175.5 -23q-117 0 -208.5 26t-144 64t-86.5 87.5t-45.5 91.5t-11.5 81q0 253 266 334q-110 32 -173.5 93.5t-63.5 151.5
q0 74 24.5 129.5t66 89.5t106 55t134.5 28.5t160 7.5q54 0 99 -15.5t72.5 -31t41.5 -15.5q11 0 18 11.5t7 29.5h47l21 -260h-45q-12 83 -93 147t-166 64q-142 0 -211 -55.5t-69 -139.5q0 -128 80.5 -191t247.5 -63v-69z" />
    <glyph glyph-name="uni0191" unicode="&#x191;" horiz-adv-x="944" 
d="M893 999h-43q0 63 -9.5 91.5t-31.5 37.5h-424v-471h287q22 9 31.5 37.5t9.5 91.5h43v-327h-43q0 63 -9.5 91.5t-31.5 37.5h-287v-588q0 -169 -69.5 -244t-184.5 -75q-61 0 -121 14.5t-104.5 47.5t-44.5 77q0 28 26.5 51t59.5 23q28 0 48.5 -22t45.5 -69q10 -20 14 -27.5
t12.5 -17.5t18.5 -13t25 -3q39 0 62.5 58t23.5 171v1143q-9 22 -37.5 31.5t-91.5 9.5v43h825v-199z" />
    <glyph glyph-name="florin" unicode="&#x192;" horiz-adv-x="522" 
d="M477 901v-61h-127v-840q0 -169 -69.5 -244t-184.5 -75q-61 0 -121 14.5t-104.5 47.5t-44.5 77q0 28 26.5 51t59.5 23q28 0 48.5 -22t45.5 -69q10 -20 14 -27.5t12.5 -17.5t18.5 -13t25 -3q39 0 64.5 58.5t25.5 170.5v869h-103v61h103v70q0 169 69.5 244t184.5 75
q121 0 182.5 -37.5t61.5 -83.5q0 -34 -24 -54.5t-60 -20.5q-35 0 -52.5 21t-20.5 46.5t-18.5 46.5t-48.5 21q-39 0 -64.5 -59t-25.5 -171v-98h127z" />
    <glyph glyph-name="uni0193" unicode="&#x193;" horiz-adv-x="1400" 
d="M647 1219q157 0 273 -101q67 101 184 101q61 0 121 -14.5t104.5 -48t44.5 -77.5q0 -28 -26 -50.5t-60 -22.5q-28 0 -48.5 21.5t-45.5 68.5q-10 20 -14 27.5t-12.5 17.5t-18.5 13t-25 3q-39 0 -66.5 -68t-27.5 -180h-45q-15 102 -110 171t-226 69q-113 0 -192.5 -77
t-116.5 -201.5t-37 -284.5q0 -114 25 -207.5t65.5 -153.5t94 -101t108 -58t109.5 -17q117 0 217 39v420q-9 22 -37.5 31.5t-91.5 9.5v43h446v-43q-63 0 -91.5 -9.5t-37.5 -31.5v-344q-15 -27 -45.5 -56t-79 -59t-123.5 -49.5t-162 -19.5q-111 0 -209 32.5t-170.5 90
t-125 133.5t-79 164.5t-26.5 181.5q0 293 155.5 465t401.5 172z" />
    <glyph glyph-name="uni0194" unicode="&#x194;" horiz-adv-x="1071" 
d="M412 1198v-43q-82 0 -109 -18l277 -496l315 494q-26 20 -115 20v43h314v-43q-61 0 -88.5 -9.5t-40.5 -31.5l-351 -543q117 -245 117 -391q0 -84 -54 -142t-140 -58q-88 0 -135.5 51.5t-47.5 152.5q0 92 103 271q-45 96 -111 217l-237 440q-22 43 -132 43v43h435zM494 375
q-56 -107 -56 -156q0 -61 12.5 -102t38.5 -41q24 0 39 39.5t15 74.5q0 67 -49 185z" />
    <glyph glyph-name="Iotalatin" unicode="&#x196;" horiz-adv-x="593" 
d="M381 1198v-1026q0 -65 22 -96t52 -31q27 0 48 14t21 35h37q0 -58 -42 -84t-146 -26q-180 0 -180 245v885q-9 22 -38 31.5t-92 9.5v43h318z" />
    <glyph glyph-name="Istroke" unicode="&#x197;" horiz-adv-x="673" 
d="M123 0v43q63 0 91.5 9.5t37.5 31.5v483h-186v70h186v477q-9 22 -37.5 31.5t-91.5 9.5v43h446v-43q-63 0 -91.5 -9.5t-37.5 -31.5v-477h166v-70h-166v-483q9 -22 37.5 -31.5t91.5 -9.5v-43h-446z" />
    <glyph glyph-name="uni0198" unicode="&#x198;" horiz-adv-x="1423" 
d="M324 0v43q63 0 91.5 9.5t37.5 31.5v1044q-197 0 -230 -38q-22 -22 -22 -64q0 -43 30 -59q39 -22 39 -68q0 -43 -27.5 -69.5t-68.5 -26.5q-69 0 -107 57t-38 123q0 38 18 80.5t49 62.5q43 29 70.5 41t97.5 21.5t189 9.5h313v-43q-63 0 -91.5 -9.5t-37.5 -31.5v-1030
q9 -22 37.5 -31.5t91.5 -9.5v-43h-442zM1038 0v43q49 0 76 6l-467 594l502 498q-28 14 -105 14v43h322v-43q-39 0 -67.5 -9t-38 -17t-21.5 -21l-412 -408l482 -624q33 -33 129 -33v-43h-400z" />
    <glyph glyph-name="uni0199" unicode="&#x199;" horiz-adv-x="1026" 
d="M43 0v43q63 0 91.5 9.5t37.5 31.5v887q0 169 69.5 244t184.5 75q61 0 121 -14.5t104.5 -47.5t44.5 -77q0 -28 -26.5 -51t-59.5 -23q-28 0 -48.5 21.5t-45.5 68.5q-13 26 -18.5 35.5t-18.5 18t-33 8.5q-39 0 -64.5 -59t-25.5 -171v-915q9 -22 37.5 -31.5t91.5 -9.5v-43
h-442zM635 0v43q51 0 78 6l-342 471l362 326q-30 12 -100 12v43h321v-43q-79 0 -110 -27l-291 -260l352 -489q15 -22 43 -30.5t86 -8.5v-43h-399z" />
    <glyph glyph-name="uni019D" unicode="&#x19d;" horiz-adv-x="1286" 
d="M1219 1198v-43q-63 0 -91.5 -9.5t-37.5 -31.5v-1114h-19l-805 1018v-1018q0 -113 -10 -180.5t-21 -92.5t-40 -69q-22 -32 -64.5 -50t-79.5 -18q-66 0 -123 38.5t-57 107.5q0 41 26.5 68.5t69.5 27.5q46 0 68 -39q16 -31 59 -31q41 0 64 23q39 35 39 229v1100
q-9 22 -37.5 31.5t-91.5 9.5v43h274l678 -838v754q-9 22 -37.5 31.5t-91.5 9.5v43h328z" />
    <glyph glyph-name="Obar" unicode="&#x19f;" horiz-adv-x="1312" 
d="M90 598q0 125 41.5 238t114.5 198t180 135t231 50q164 0 295.5 -85.5t202 -227t70.5 -308.5t-71.5 -307.5t-202.5 -225.5t-294 -85q-166 0 -297 85t-200.5 225.5t-69.5 307.5zM295 639h723q-6 93 -32 181.5t-70.5 163t-113.5 120t-153 45.5q-72 0 -131.5 -31t-99 -81.5
t-67.5 -117.5t-41 -137t-15 -143zM1020 569h-723q5 -95 29.5 -184t68 -166t114 -123.5t157.5 -46.5q90 0 160 47t110.5 125t61 166t22.5 182z" />
    <glyph glyph-name="Ohorn" unicode="&#x1a0;" horiz-adv-x="1347" 
d="M90 598q0 125 41.5 238t114.5 198t180 135t231 50q149 0 269.5 -69t195.5 -189q92 36 92 126q0 6 -6 10.5t-14 4.5q-3 0 -14 -2t-19 -2q-43 0 -68.5 22.5t-25.5 67.5q0 39 27.5 65.5t56.5 26.5q73 0 117.5 -48t44.5 -126q0 -140 -166 -188q78 -150 78 -320
q0 -167 -71.5 -307.5t-202.5 -225.5t-294 -85q-166 0 -297 85t-200.5 225.5t-69.5 307.5zM295 614q0 -78 13.5 -156t43.5 -152t72.5 -131t105 -91.5t136.5 -34.5t135 33t100.5 86t67 123.5t39.5 143.5t12 147q0 77 -14 155.5t-44.5 153t-73 131.5t-104.5 92t-135 35
q-74 0 -135 -33t-100.5 -86.5t-67 -124.5t-39.5 -144t-12 -147z" />
    <glyph glyph-name="ohorn" unicode="&#x1a1;" horiz-adv-x="1155" 
d="M567 -20q-230 0 -358.5 133.5t-128.5 353.5q0 94 27 173.5t81.5 144t148 101t216.5 36.5q312 0 428 -220q84 38 84 125q0 6 -6.5 10.5t-14.5 4.5q-3 0 -13.5 -2t-18.5 -2q-43 0 -68.5 22.5t-25.5 67.5q0 39 27 65.5t56 26.5q73 0 117.5 -48t44.5 -126q0 -142 -162 -189
q35 -88 35 -215q0 -75 -16 -141.5t-52 -125.5t-89.5 -102t-133 -68t-178.5 -25zM276 508q0 -234 89 -350.5t229 -116.5q111 0 178.5 99t67.5 255q0 463 -322 463q-108 0 -175 -103.5t-67 -246.5z" />
    <glyph glyph-name="uni01A4" unicode="&#x1a4;" horiz-adv-x="1339" 
d="M324 0v43q63 0 91.5 9.5t37.5 31.5v1044q-197 0 -230 -38q-22 -22 -22 -64q0 -43 30 -59q39 -22 39 -68q0 -43 -27.5 -69.5t-68.5 -26.5q-69 0 -107 57t-38 123q0 38 18 79.5t49 63.5q43 29 70.5 41t97.5 21.5t189 9.5h333q131 0 234.5 -29t163 -75.5t89.5 -99.5t30 -107
q0 -154 -123 -248t-369 -94h-170v-461q9 -22 37.5 -31.5t91.5 -9.5v-43h-446zM641 1128v-514h170q157 0 222 63t65 208q0 243 -312 243h-145z" />
    <glyph glyph-name="uni01A5" unicode="&#x1a5;" horiz-adv-x="1067" 
d="M10 -393v43q63 0 91.5 9.5t37.5 31.5v1259q0 169 69.5 244.5t184.5 75.5q61 0 121.5 -14.5t105 -48t44.5 -77.5q0 -28 -26 -50.5t-60 -22.5q-29 0 -50 22t-45 68q-13 26 -18.5 35.5t-18 17.5t-32.5 8q-39 0 -64.5 -58.5t-25.5 -170.5v-125q97 68 245 68q52 0 105 -13
t110.5 -47.5t101.5 -86t72.5 -137t28.5 -192.5q0 -228 -127.5 -347t-335.5 -119q-119 0 -200 45v-334q9 -22 37.5 -31.5t91.5 -9.5v-43h-443zM324 786v-696q80 -41 188 -41q53 0 102.5 25t90 73t64.5 125.5t24 173.5q0 75 -30 168t-88.5 165.5t-125.5 72.5q-140 0 -225 -66z
" />
    <glyph glyph-name="uni01A9" unicode="&#x1a9;" horiz-adv-x="962" 
d="M827 1008h-43q0 63 -9.5 91.5t-31.5 37.5h-419l340 -453l-433 -565h517q86 36 114 131h43l-74 -250h-827l477 621l-436 577h782v-190z" />
    <glyph glyph-name="uni01AA" unicode="&#x1aa;" horiz-adv-x="546" 
d="M223 872q-33 -8 -78 -8q-120 0 -185.5 61t-65.5 165q0 200 260 200q115 0 184.5 -75t69.5 -244v-905q0 -112 25.5 -171t64.5 -59q40 0 49 49q18 70 80 70q32 0 52.5 -24t20.5 -54q0 -45 -59 -73.5t-164 -28.5q-115 0 -184.5 75t-69.5 244v778zM125 926q98 0 98 139
q0 74 -26 119t-64 45q-24 0 -55 -48t-31 -100q0 -65 22.5 -110t55.5 -45z" />
    <glyph glyph-name="uni01AC" unicode="&#x1ac;" horiz-adv-x="1196" 
d="M1159 1198v-199h-43q0 63 -9.5 91.5t-31.5 37.5h-336v-1044q9 -22 37.5 -31.5t91.5 -9.5v-43h-446v43q63 0 91.5 9.5t37.5 31.5v1044h-94q-197 0 -230 -38q-22 -22 -22 -64q0 -43 31 -59q38 -21 38 -68q0 -43 -27.5 -69.5t-68.5 -26.5q-69 0 -107 57t-38 123
q0 38 18 80.5t49 62.5q43 29 70.5 41t97.5 21.5t189 9.5h702z" />
    <glyph glyph-name="uni01AD" unicode="&#x1ad;" horiz-adv-x="681" 
d="M369 999v-98h176v-61h-176v-652q0 -64 23 -97.5t83 -33.5q36 0 74.5 36.5t52.5 99.5l49 -25q-44 -188 -245 -188q-234 0 -234 225v635h-143v61q40 0 68.5 10.5t43.5 20t27.5 39t15 41t9.5 52.5q1 6 2 9q37 217 243 217q61 0 121 -14.5t105 -47.5t45 -77q0 -28 -26.5 -51
t-59.5 -23q-29 0 -50 22t-45 68l-14 28t-12 17t-18.5 14t-24.5 3q-39 0 -64.5 -59t-25.5 -171z" />
    <glyph glyph-name="uni01AE" unicode="&#x1ae;" horiz-adv-x="1093" 
d="M453 0v1128h-336q-22 -9 -31.5 -37.5t-9.5 -91.5h-43v199h1028v-199h-43q0 63 -9.5 91.5t-31.5 37.5h-336v-1157q0 -113 23.5 -171t62.5 -58q15 0 25 3t18.5 13t12.5 17.5t14 27.5q25 47 45.5 69t48.5 22q33 0 59.5 -23t26.5 -51q0 -44 -44.5 -77t-104.5 -47.5
t-121 -14.5q-115 0 -184.5 75t-69.5 244z" />
    <glyph glyph-name="Uhorn" unicode="&#x1af;" horiz-adv-x="1267" 
d="M1085 1155v-647q0 -137 -33.5 -241t-91.5 -165t-130.5 -91.5t-157.5 -30.5q-492 0 -492 528v606q-9 22 -37.5 31.5t-91.5 9.5v43h447v-43q-63 0 -91.5 -9.5t-37.5 -31.5v-635q0 -204 89.5 -317t233.5 -113q137 0 230.5 114.5t93.5 303.5v647q-9 22 -37.5 31.5t-91.5 9.5
v43h198q88 0 138.5 39t50.5 104q0 6 -6.5 10.5t-14.5 4.5q-3 0 -13.5 -2t-18.5 -2q-43 0 -69 22.5t-26 67.5q0 39 27.5 65.5t56.5 26.5q73 0 117.5 -48t44.5 -126q0 -58 -27.5 -100t-73 -63.5t-91.5 -31.5t-95 -10z" />
    <glyph glyph-name="uhorn" unicode="&#x1b0;" horiz-adv-x="1196" 
d="M952 125q128 -10 129 -10v-47q-39 0 -152 -44t-161 -44v94q-110 -94 -244 -94q-191 0 -275.5 70t-84.5 220v547q-9 22 -37.5 31.5t-91.5 9.5v43h313v-645q0 -207 189 -207q128 0 231 90v678q-9 22 -37.5 31.5t-91.5 9.5v43h313v-217q88 0 138.5 39t50.5 104
q0 6 -6.5 10.5t-14.5 4.5q-3 0 -14 -2t-19 -2q-43 0 -68.5 22.5t-25.5 67.5q0 39 27.5 65.5t56.5 26.5q73 0 117.5 -48t44.5 -126q0 -58 -27.5 -100t-73 -63.5t-91.5 -31.5t-95 -10v-516z" />
    <glyph glyph-name="uni01B1" unicode="&#x1b1;" horiz-adv-x="1335" 
d="M668 49q74 0 135.5 28.5t103 76.5t69.5 113t41 136.5t13 149.5q0 213 -61 377.5t-166 267.5h401v-70h-190q99 -120 160 -274.5t61 -316.5q0 -251 -155.5 -404t-411.5 -153t-412 153t-156 404q0 162 61.5 316t160.5 275h-191v70h401q-105 -103 -166 -267.5t-61 -377.5
q0 -98 21.5 -185.5t63.5 -160t114 -115.5t164 -43z" />
    <glyph glyph-name="Vhook" unicode="&#x1b2;" horiz-adv-x="1216" 
d="M834 1139q-33 0 -58 -17q21 -21 21 -49q0 -25 -23.5 -52.5t-52.5 -27.5q-34 0 -65 28.5t-31 63.5q0 55 56 94.5t112 39.5q87 0 163.5 -74t120 -186t43.5 -226q0 -166 -29 -301t-88 -237.5t-156 -158.5t-226 -56q-52 0 -94.5 5t-89 19.5t-83 39t-70 65.5t-56 96t-35.5 134
t-13 177v598q-9 22 -37.5 31.5t-91.5 9.5v43h447v-43q-63 0 -91.5 -9.5t-37.5 -31.5v-659q0 -108 22 -190t58 -127.5t76.5 -67t82.5 -21.5q116 0 202.5 52t137 147.5t75 218t24.5 274.5q0 89 -28 180.5t-78.5 154.5t-106.5 63z" />
    <glyph glyph-name="uni01B3" unicode="&#x1b3;" horiz-adv-x="1404" 
d="M430 1198v-43q-97 0 -119 -25l318 -555l307 510q36 61 89 97.5t112 36.5q69 0 127.5 -15t97.5 -47.5t39 -77.5q0 -28 -26 -50.5t-60 -22.5q-28 0 -48.5 21.5t-45.5 68.5q-10 20 -14 27.5t-12.5 17.5t-18.5 13t-25 3q-86 0 -143 -96l-328 -545v-432q9 -22 37.5 -31.5
t91.5 -9.5v-43h-447v43q63 0 92 9.5t38 31.5v367l-381 665q-28 39 -129 39v43h448z" />
    <glyph glyph-name="uni01B4" unicode="&#x1b4;" horiz-adv-x="1255" 
d="M387 901v-43q-59 0 -86 -8l244 -600l188 473q36 89 103 144t141 55q109 0 189.5 -37t80.5 -103q0 -28 -26 -50.5t-60 -22.5q-28 0 -48.5 21.5t-45.5 68.5q-10 20 -14 27.5t-12.5 17.5t-18.5 13t-25 3q-65 0 -107 -53.5t-97 -188.5l-332 -827q-20 -50 -48.5 -85.5t-59 -52
t-56.5 -23.5t-51 -7q-31 0 -60.5 21.5t-29.5 52.5t17.5 55.5t47.5 24.5q17 0 40.5 -17.5t37.5 -17.5q44 0 57 37l88 221l-325 817q-9 22 -37.5 31.5t-91.5 9.5v43h397z" />
    <glyph glyph-name="uni01B7" unicode="&#x1b7;" horiz-adv-x="999" 
d="M602 729q138 -29 228 -115.5t90 -228.5q0 -77 -30 -148.5t-86.5 -129.5t-148 -92.5t-204.5 -34.5q-189 0 -293.5 86.5t-104.5 203.5q0 46 24 74.5t64 28.5q37 0 64.5 -18.5t27.5 -53.5q0 -43 -21 -63.5t-50 -20.5q18 -70 86 -123t182 -53q81 0 142.5 30t95.5 80.5
t50.5 107.5t16.5 118q0 152 -90 230.5t-229 78.5l188 373h-280q-87 -36 -115 -131h-43l84 270h586z" />
    <glyph glyph-name="uni01C0" unicode="&#x1c0;" horiz-adv-x="360" 
d="M139 1270h82v-1270h-82v1270z" />
    <glyph glyph-name="uni01C1" unicode="&#x1c1;" horiz-adv-x="565" 
d="M139 1270h82v-1270h-82v1270zM344 1270h82v-1270h-82v1270z" />
    <glyph glyph-name="uni01C2" unicode="&#x1c2;" horiz-adv-x="552" 
d="M236 1270h81v-512h185v-82h-185v-82h185v-82h-185v-512h-81v512h-185v82h185v82h-185v82h185v512z" />
    <glyph glyph-name="uni01C3" unicode="&#x1c3;" horiz-adv-x="436" 
d="M96 104q0 49 33.5 89t87.5 40q47 0 86 -36t39 -86q0 -49 -34.5 -90t-88.5 -41q-47 0 -85 37t-38 87zM217 381q-30 0 -47 139q-6 41 -29.5 322.5t-23.5 355.5q0 45 28 68.5t72 23.5t72 -23.5t28 -68.5q0 -74 -24 -358t-29 -320q-17 -139 -47 -139z" />
    <glyph glyph-name="uni01CD" unicode="&#x1cd;" horiz-adv-x="1118" 
d="M516 1270l-192 332h53l190 -179l191 179h53l-193 -332h-102zM688 0v43q94 0 119 25l-115 313h-393l-106 -301q11 -21 38 -29t88 -8v-43h-335v43q63 0 92 10.5t37 32.5l397 1112h98l398 -1112q15 -43 131 -43v-43h-449zM494 926l-170 -477h344z" />
    <glyph glyph-name="uni01CE" unicode="&#x1ce;" horiz-adv-x="989" 
d="M406 1055l-193 331h53l191 -178l190 178h53l-192 -331h-102zM229 750q29 0 50.5 -20.5t21.5 -63.5q0 -35 -27.5 -53.5t-64.5 -18.5q-40 0 -64 28t-24 74q0 107 88.5 166.5t249.5 59.5q97 0 170 -26.5t115 -74.5t62.5 -108.5t20.5 -134.5v-406q0 -65 22 -96t52 -31
q27 0 48.5 14t21.5 35h37q0 -58 -42.5 -84t-146.5 -26q-103 0 -145 84q-121 -88 -301 -88q-69 0 -121.5 11.5t-96 38.5t-66.5 77t-23 122q0 39 20.5 72t58.5 58t82 44t102.5 35.5t107.5 28t109.5 25.5t96.5 24q0 172 -45 252t-160 80q-89 0 -142 -21t-67 -77zM655 119
q-12 47 -12 110v242q-23 -7 -77 -22t-88 -25t-81 -30.5t-74 -41.5t-47 -54t-20 -73q0 -98 38.5 -137t113.5 -39q60 0 129.5 20t117.5 50z" />
    <glyph glyph-name="uni01CF" unicode="&#x1cf;" horiz-adv-x="618" 
d="M256 1270l-193 332h54l190 -179l191 179h53l-193 -332h-102zM86 0v43q63 0 91.5 9.5t37.5 31.5v1030q-9 22 -37.5 31.5t-91.5 9.5v43h446v-43q-63 0 -91.5 -9.5t-37.5 -31.5v-1030q9 -22 37.5 -31.5t91.5 -9.5v-43h-446z" />
    <glyph glyph-name="uni01D0" unicode="&#x1d0;" horiz-adv-x="548" 
d="M240 1055l-193 331h53l191 -178l190 178h54l-193 -331h-102zM63 0v43q63 0 92 9.5t38 31.5v692q-128 10 -130 10v48q38 0 152.5 44t161.5 44v-838q9 -22 37.5 -31.5t91.5 -9.5v-43h-443z" />
    <glyph glyph-name="uni01D1" unicode="&#x1d1;" horiz-adv-x="1312" 
d="M608 1270l-192 332h53l190 -179l191 179h53l-192 -332h-103zM295 614q0 -78 13.5 -156t43.5 -152t72.5 -131t105 -91.5t136.5 -34.5t135 33t100.5 86t67 123.5t39.5 143.5t12 147q0 77 -14 155.5t-44.5 153t-73 131.5t-104.5 92t-135 35q-74 0 -135 -33t-100.5 -86.5
t-67 -124.5t-39.5 -144t-12 -147zM90 598q0 125 41.5 238t114.5 198t180 135t231 50q164 0 295.5 -85.5t202 -227t70.5 -308.5t-71.5 -307.5t-202.5 -225.5t-294 -85q-166 0 -297 85t-200.5 225.5t-69.5 307.5z" />
    <glyph glyph-name="uni01D2" unicode="&#x1d2;" horiz-adv-x="1116" 
d="M512 1055l-193 331h54l190 -178l191 178h53l-193 -331h-102zM276 508q0 -234 89 -350.5t229 -116.5q111 0 178.5 99t67.5 255q0 463 -322 463q-108 0 -175 -103.5t-67 -246.5zM567 -20q-230 0 -358.5 133.5t-128.5 353.5q0 94 27 173.5t81.5 144t148 101t216.5 36.5
q241 0 362 -128.5t121 -351.5q0 -75 -16 -141.5t-52 -125.5t-89.5 -102t-133 -68t-178.5 -25z" />
    <glyph glyph-name="uni01D3" unicode="&#x1d3;" horiz-adv-x="1265" 
d="M639 1270l-193 332h54l190 -179l191 179h53l-193 -332h-102zM692 49q137 0 230.5 114.5t93.5 303.5v647q-9 22 -37.5 31.5t-91.5 9.5v43h327v-43q-63 0 -91.5 -9.5t-37.5 -31.5v-606q0 -137 -33.5 -241t-91.5 -165t-130.5 -91.5t-157.5 -30.5q-492 0 -492 528v606
q-9 22 -37.5 31.5t-91.5 9.5v43h447v-43q-63 0 -91.5 -9.5t-37.5 -31.5v-635q0 -204 89.5 -317t233.5 -113z" />
    <glyph glyph-name="uni01D4" unicode="&#x1d4;" horiz-adv-x="1126" 
d="M502 1055l-193 331h53l191 -178l190 178h54l-193 -331h-102zM952 125q128 -10 129 -10v-47q-39 0 -152 -44t-161 -44v94q-110 -94 -244 -94q-191 0 -275.5 70t-84.5 220v547q-9 22 -37.5 31.5t-91.5 9.5v43h313v-645q0 -207 189 -207q128 0 231 90v678q-9 22 -37.5 31.5
t-91.5 9.5v43h313v-776z" />
    <glyph glyph-name="uni01D5" unicode="&#x1d5;" horiz-adv-x="1265" 
d="M410 1645h540v-91h-540v91zM776 1370q0 41 30 70.5t71 29.5t70.5 -29.5t29.5 -70.5t-29.5 -70.5t-70.5 -29.5t-71 29.5t-30 70.5zM399 1370q0 41 30 70.5t71 29.5t70.5 -29.5t29.5 -70.5t-29.5 -70.5t-70.5 -29.5t-71 29.5t-30 70.5zM692 49q137 0 230.5 114.5
t93.5 303.5v647q-9 22 -37.5 31.5t-91.5 9.5v43h327v-43q-63 0 -91.5 -9.5t-37.5 -31.5v-606q0 -137 -33.5 -241t-91.5 -165t-130.5 -91.5t-157.5 -30.5q-492 0 -492 528v606q-9 22 -37.5 31.5t-91.5 9.5v43h447v-43q-63 0 -91.5 -9.5t-37.5 -31.5v-635q0 -204 89.5 -317
t233.5 -113z" />
    <glyph glyph-name="uni01D6" unicode="&#x1d6;" horiz-adv-x="1126" 
d="M274 1430h541v-91h-541v91zM643 1155q0 41 29.5 70.5t70.5 29.5t71 -29.5t30 -70.5t-30 -70.5t-71 -29.5t-70.5 29.5t-29.5 70.5zM266 1155q0 41 30 70.5t71 29.5t70.5 -29.5t29.5 -70.5t-29.5 -70.5t-70.5 -29.5t-71 29.5t-30 70.5zM952 125q128 -10 129 -10v-47
q-39 0 -152 -44t-161 -44v94q-110 -94 -244 -94q-191 0 -275.5 70t-84.5 220v547q-9 22 -37.5 31.5t-91.5 9.5v43h313v-645q0 -207 189 -207q128 0 231 90v678q-9 22 -37.5 31.5t-91.5 9.5v43h313v-776z" />
    <glyph glyph-name="uni01D7" unicode="&#x1d7;" horiz-adv-x="1265" 
d="M805 1819h217l-315 -332h-54zM776 1370q0 41 30 70.5t71 29.5t70.5 -29.5t29.5 -70.5t-29.5 -70.5t-70.5 -29.5t-71 29.5t-30 70.5zM399 1370q0 41 30 70.5t71 29.5t70.5 -29.5t29.5 -70.5t-29.5 -70.5t-70.5 -29.5t-71 29.5t-30 70.5zM692 49q137 0 230.5 114.5
t93.5 303.5v647q-9 22 -37.5 31.5t-91.5 9.5v43h327v-43q-63 0 -91.5 -9.5t-37.5 -31.5v-606q0 -137 -33.5 -241t-91.5 -165t-130.5 -91.5t-157.5 -30.5q-492 0 -492 528v606q-9 22 -37.5 31.5t-91.5 9.5v43h447v-43q-63 0 -91.5 -9.5t-37.5 -31.5v-635q0 -204 89.5 -317
t233.5 -113z" />
    <glyph glyph-name="uni01D8" unicode="&#x1d8;" horiz-adv-x="1126" 
d="M676 1602h217l-315 -332h-54zM643 1155q0 41 29.5 70.5t70.5 29.5t71 -29.5t30 -70.5t-30 -70.5t-71 -29.5t-70.5 29.5t-29.5 70.5zM266 1155q0 41 30 70.5t71 29.5t70.5 -29.5t29.5 -70.5t-29.5 -70.5t-70.5 -29.5t-71 29.5t-30 70.5zM952 125q128 -10 129 -10v-47
q-39 0 -152 -44t-161 -44v94q-110 -94 -244 -94q-191 0 -275.5 70t-84.5 220v547q-9 22 -37.5 31.5t-91.5 9.5v43h313v-645q0 -207 189 -207q128 0 231 90v678q-9 22 -37.5 31.5t-91.5 9.5v43h313v-776z" />
    <glyph glyph-name="uni01D9" unicode="&#x1d9;" horiz-adv-x="1265" 
d="M639 1516l-193 331h54l190 -178l191 178h53l-193 -331h-102zM776 1370q0 41 30 70.5t71 29.5t70.5 -29.5t29.5 -70.5t-29.5 -70.5t-70.5 -29.5t-71 29.5t-30 70.5zM399 1370q0 41 30 70.5t71 29.5t70.5 -29.5t29.5 -70.5t-29.5 -70.5t-70.5 -29.5t-71 29.5t-30 70.5z
M692 49q137 0 230.5 114.5t93.5 303.5v647q-9 22 -37.5 31.5t-91.5 9.5v43h327v-43q-63 0 -91.5 -9.5t-37.5 -31.5v-606q0 -137 -33.5 -241t-91.5 -165t-130.5 -91.5t-157.5 -30.5q-492 0 -492 528v606q-9 22 -37.5 31.5t-91.5 9.5v43h447v-43q-63 0 -91.5 -9.5t-37.5 -31.5
v-635q0 -204 89.5 -317t233.5 -113z" />
    <glyph glyph-name="uni01DA" unicode="&#x1da;" horiz-adv-x="1126" 
d="M502 1300l-193 332h53l191 -178l190 178h54l-193 -332h-102zM643 1155q0 41 29.5 70.5t70.5 29.5t71 -29.5t30 -70.5t-30 -70.5t-71 -29.5t-70.5 29.5t-29.5 70.5zM266 1155q0 41 30 70.5t71 29.5t70.5 -29.5t29.5 -70.5t-29.5 -70.5t-70.5 -29.5t-71 29.5t-30 70.5z
M952 125q128 -10 129 -10v-47q-39 0 -152 -44t-161 -44v94q-110 -94 -244 -94q-191 0 -275.5 70t-84.5 220v547q-9 22 -37.5 31.5t-91.5 9.5v43h313v-645q0 -207 189 -207q128 0 231 90v678q-9 22 -37.5 31.5t-91.5 9.5v43h313v-776z" />
    <glyph glyph-name="uni01DB" unicode="&#x1db;" horiz-adv-x="1265" 
d="M563 1819l152 -332h-53l-316 332h217zM776 1370q0 41 30 70.5t71 29.5t70.5 -29.5t29.5 -70.5t-29.5 -70.5t-70.5 -29.5t-71 29.5t-30 70.5zM399 1370q0 41 30 70.5t71 29.5t70.5 -29.5t29.5 -70.5t-29.5 -70.5t-70.5 -29.5t-71 29.5t-30 70.5zM692 49q137 0 230.5 114.5
t93.5 303.5v647q-9 22 -37.5 31.5t-91.5 9.5v43h327v-43q-63 0 -91.5 -9.5t-37.5 -31.5v-606q0 -137 -33.5 -241t-91.5 -165t-130.5 -91.5t-157.5 -30.5q-492 0 -492 528v606q-9 22 -37.5 31.5t-91.5 9.5v43h447v-43q-63 0 -91.5 -9.5t-37.5 -31.5v-635q0 -204 89.5 -317
t233.5 -113z" />
    <glyph glyph-name="uni01DC" unicode="&#x1dc;" horiz-adv-x="1126" 
d="M430 1602l152 -332h-54l-315 332h217zM643 1155q0 41 29.5 70.5t70.5 29.5t71 -29.5t30 -70.5t-30 -70.5t-71 -29.5t-70.5 29.5t-29.5 70.5zM266 1155q0 41 30 70.5t71 29.5t70.5 -29.5t29.5 -70.5t-29.5 -70.5t-70.5 -29.5t-71 29.5t-30 70.5zM952 125q128 -10 129 -10
v-47q-39 0 -152 -44t-161 -44v94q-110 -94 -244 -94q-191 0 -275.5 70t-84.5 220v547q-9 22 -37.5 31.5t-91.5 9.5v43h313v-645q0 -207 189 -207q128 0 231 90v678q-9 22 -37.5 31.5t-91.5 9.5v43h313v-776z" />
    <glyph glyph-name="eturned" unicode="&#x1dd;" horiz-adv-x="1009" 
d="M735 408q-2 112 -47 213.5t-118 162t-152 60.5q-92 0 -159.5 -30.5t-127.5 -104.5l-49 24q60 98 154.5 143.5t250.5 45.5q61 0 118.5 -13.5t118 -49.5t105 -92t73 -149t28.5 -212q0 -87 -28 -163.5t-80 -135.5t-133 -93t-181 -34q-111 0 -196 35t-135 95.5t-74.5 135.5
t-24.5 162h657zM733 344h-454q6 -71 18 -120.5t37 -93.5t70.5 -66.5t111.5 -22.5q72 0 138 84.5t79 218.5z" />
    <glyph glyph-name="uni01DE" unicode="&#x1de;" horiz-adv-x="1118" 
d="M283 1645h540v-91h-540v91zM653 1370q0 41 30 70.5t71 29.5t70.5 -29.5t29.5 -70.5t-29.5 -70.5t-70.5 -29.5t-71 29.5t-30 70.5zM276 1370q0 41 30 70.5t71 29.5t70.5 -29.5t29.5 -70.5t-29.5 -70.5t-70.5 -29.5t-71 29.5t-30 70.5zM688 0v43q94 0 119 25l-115 313h-393
l-106 -301q11 -21 38 -29t88 -8v-43h-335v43q63 0 92 10.5t37 32.5l397 1112h98l398 -1112q15 -43 131 -43v-43h-449zM494 926l-170 -477h344z" />
    <glyph glyph-name="uni01DF" unicode="&#x1df;" horiz-adv-x="989" 
d="M172 1430h541v-91h-541v91zM543 1155q0 41 29.5 70.5t70.5 29.5t70.5 -29.5t29.5 -70.5t-29.5 -70.5t-70.5 -29.5t-70.5 29.5t-29.5 70.5zM166 1155q0 41 29.5 70.5t70.5 29.5t71 -29.5t30 -70.5t-30 -70.5t-71 -29.5t-70.5 29.5t-29.5 70.5zM229 750q29 0 50.5 -20.5
t21.5 -63.5q0 -35 -27.5 -53.5t-64.5 -18.5q-40 0 -64 28t-24 74q0 107 88.5 166.5t249.5 59.5q97 0 170 -26.5t115 -74.5t62.5 -108.5t20.5 -134.5v-406q0 -65 22 -96t52 -31q27 0 48.5 14t21.5 35h37q0 -58 -42.5 -84t-146.5 -26q-103 0 -145 84q-121 -88 -301 -88
q-69 0 -121.5 11.5t-96 38.5t-66.5 77t-23 122q0 39 20.5 72t58.5 58t82 44t102.5 35.5t107.5 28t109.5 25.5t96.5 24q0 172 -45 252t-160 80q-89 0 -142 -21t-67 -77zM655 119q-12 47 -12 110v242q-23 -7 -77 -22t-88 -25t-81 -30.5t-74 -41.5t-47 -54t-20 -73
q0 -98 38.5 -137t113.5 -39q60 0 129.5 20t117.5 50z" />
    <glyph glyph-name="Gcaron" unicode="&#x1e6;" horiz-adv-x="1263" 
d="M651 1270l-192 332h53l190 -179l191 179h53l-192 -332h-103zM725 1149q-115 0 -214 -75t-157.5 -205.5t-58.5 -282.5q0 -114 25 -207.5t65.5 -153.5t93.5 -101t107.5 -58t109.5 -17q117 0 217 39v420q-9 22 -37.5 31.5t-91.5 9.5v43h447v-43q-63 0 -91.5 -9.5
t-37.5 -31.5v-344q-15 -27 -45.5 -56t-79 -59t-123.5 -49.5t-162 -19.5q-111 0 -209 32.5t-170.5 90t-125 133.5t-79 164.5t-26.5 181.5q0 144 54.5 266t145 202t205 124.5t236.5 44.5q60 0 148.5 -31t99.5 -31q24 0 24 41h47l21 -260h-45q-13 90 -90 150.5t-203 60.5z" />
    <glyph glyph-name="gcaron" unicode="&#x1e7;" horiz-adv-x="1064" 
d="M504 1055l-193 331h54l190 -178l190 178h54l-193 -331h-102zM926 922v-863q0 -210 -102 -339.5t-296 -129.5q-174 0 -279.5 59.5t-105.5 125.5q0 46 24 74t64 28q37 0 65 -18.5t28 -53.5q0 -38 -12 -56.5t-40 -29.5q10 -10 32.5 -21t78 -22.5t125.5 -11.5q100 0 160 86
t71 291q-92 -61 -241 -61q-53 0 -105.5 12t-110.5 45t-101.5 83.5t-72 134.5t-28.5 191q0 229 128 352.5t335 123.5q129 0 225 -66q103 66 158 66zM741 109v24v676q-73 43 -186 43t-197 -107.5t-84 -298.5q0 -180 68 -288.5t176 -108.5q136 0 223 60z" />
    <glyph glyph-name="uni01EA" unicode="&#x1ea;" horiz-adv-x="1312" 
d="M92 598h-4q0 125 41.5 238t114.5 198t180 135t231 50q164 0 295.5 -85.5t202 -227t70.5 -308.5q0 -154 -61 -287t-174 -220.5t-257 -106.5q-43 -62 -43 -105q0 -101 55.5 -160t124.5 -59q13 0 29 8t25 16l10 9l22 -37l-5 -7.5t-16.5 -15.5t-30.5 -20t-46 -16t-63 -7
q-101 0 -153 52.5t-52 146.5q0 104 78 191h-7q-166 0 -297 85t-200.5 225.5t-69.5 307.5zM293 614q0 -78 13.5 -156t43.5 -152t72.5 -131t105 -91.5t136.5 -34.5t135 33t100.5 86t67 123.5t39.5 143.5t12 147q0 77 -14 155.5t-44.5 153t-73 131.5t-104.5 92t-135 35
q-74 0 -135 -33t-100.5 -86.5t-67 -124.5t-39.5 -144t-12 -147z" />
    <glyph glyph-name="uni01EB" unicode="&#x1eb;" horiz-adv-x="1116" 
d="M276 508q0 -234 89 -350.5t229 -116.5q111 0 178.5 99t67.5 255q0 463 -322 463q-108 0 -175 -103.5t-67 -246.5zM584 -20v-3q-41 -59 -41 -100q0 -101 55.5 -160t124.5 -59q13 0 28.5 8t24.5 16l10 9l23 -37q-2 -3 -5.5 -7.5t-17 -15.5t-30 -20t-46 -16t-63.5 -7
q-101 0 -153 52.5t-52 146.5q0 109 80 193q-210 13 -326 145t-116 340q0 94 27 173.5t81.5 144t148 101t216.5 36.5q241 0 362 -128.5t121 -351.5q0 -93 -25.5 -172t-77.5 -144t-141.5 -103.5t-207.5 -40.5z" />
    <glyph glyph-name="uni01F8" unicode="&#x1f8;" horiz-adv-x="1306" 
d="M553 1602l152 -332h-54l-315 332h217zM86 0v43q63 0 91.5 9.5t37.5 31.5v1030q-9 22 -37.5 31.5t-91.5 9.5v43h274l678 -838v754q-9 22 -37.5 31.5t-91.5 9.5v43h328v-43q-63 0 -91.5 -9.5t-37.5 -31.5v-1114h-18l-805 1018v-934q9 -22 37.5 -31.5t91.5 -9.5v-43h-328z
" />
    <glyph glyph-name="uni01F9" unicode="&#x1f9;" horiz-adv-x="1144" 
d="M492 1389l151 -332h-53l-316 332h218zM63 0v43q63 0 92 9.5t38 31.5v692q-128 10 -130 10v48q38 0 152.5 44t161.5 44v-95q111 95 244 95q191 0 275.5 -70.5t84.5 -220.5v-547q9 -22 37.5 -31.5t91.5 -9.5v-43h-442v43q63 0 91.5 9.5t37.5 31.5v561q0 207 -189 207
q-128 0 -231 -90v-678q9 -22 37.5 -31.5t91.5 -9.5v-43h-443z" />
    <glyph glyph-name="Oslashacute" unicode="&#x1fe;" horiz-adv-x="1312" 
d="M782 1602h217l-315 -332h-53zM885 1026q-98 123 -236 123q-74 0 -135 -33t-100.5 -86.5t-67 -124.5t-39.5 -144t-12 -147q0 -221 92 -383zM928 963l-498 -795q94 -119 236 -119q74 0 135 33t100.5 86t67 123.5t39.5 143.5t12 147q0 219 -92 381zM90 598q0 125 41.5 238
t114.5 198t180 135t231 50q162 0 295 -84l74 118l59 -36l-77 -125q103 -86 160 -215.5t57 -278.5q0 -167 -71.5 -307.5t-202.5 -225.5t-294 -85q-164 0 -292 81l-76 -118l-60 37l78 124q-103 86 -160 215.5t-57 278.5z" />
    <glyph glyph-name="oslashacute" unicode="&#x1ff;" horiz-adv-x="1116" 
d="M686 1386h217l-315 -331h-53zM737 772q-77 86 -219 86q-108 0 -175 -103.5t-67 -246.5q0 -187 62 -305zM778 713l-399 -572q84 -100 215 -100q111 0 178.5 99t67.5 255q0 206 -62 318zM864 836q172 -121 172 -394q0 -75 -16 -141.5t-52 -125.5t-89.5 -102t-133 -68
t-178.5 -25q-151 0 -260 59l-78 -111l-55 41l76 107q-83 64 -126.5 165t-43.5 226q0 94 27 173.5t81.5 144t148 101t216.5 36.5q145 0 252 -52l72 103l55 -41z" />
    <glyph glyph-name="Scommaaccent" unicode="&#x218;" horiz-adv-x="978" 
d="M498 -256q-47 0 -76 22.5t-29 67.5q0 28 12 47.5t30 27.5t30 10.5t22 2.5q79 0 134 -48t55 -130q0 -47 -21 -88t-48.5 -66.5t-67 -47.5t-65 -32t-52.5 -18v57q52 7 106 57t54 113q0 36 -4 44t-17 8q-5 0 -23 -13.5t-40 -13.5zM510 -20q-74 0 -143 15t-113 30.5t-57 15.5
t-29 -12t-16 -29h-48v285h46q12 -63 46.5 -110.5t84 -74t104 -39t113.5 -12.5q109 0 178 49t69 148q0 45 -19.5 82t-59.5 68.5t-76.5 53.5t-94.5 53t-89 50q-45 28 -60 37t-56.5 37.5t-59 44.5t-47 46.5t-42.5 55.5t-24 58.5t-11 68.5q0 79 51 153t134.5 119.5t173.5 45.5
q60 0 148.5 -31t99.5 -31q24 0 24 41h47l21 -260h-45q-13 90 -90 150.5t-203 60.5q-94 0 -150.5 -60t-56.5 -122q0 -39 19 -72.5t58 -63t74 -50.5t92.5 -51.5t88.5 -49.5q143 -87 197 -134q124 -108 124 -243q0 -78 -36 -141.5t-94.5 -102t-129 -59t-143.5 -20.5z" />
    <glyph glyph-name="scommaaccent" unicode="&#x219;" horiz-adv-x="829" 
d="M369 -256q-47 0 -76 22.5t-29 67.5q0 28 12 47.5t30 27.5t30 10.5t22 2.5q79 0 134 -48t55 -130q0 -47 -21 -88t-48.5 -66.5t-67 -47.5t-65 -32t-52.5 -18v57q52 7 106 57t54 113q0 36 -4 44t-17 8q-5 0 -23 -13.5t-40 -13.5zM424 41q32 0 73.5 12t81 47.5t39.5 87.5
q0 45 -38 86.5t-88.5 68.5t-116.5 50q-47 17 -78 30t-71 37.5t-64 51.5t-41 69t-17 93q0 115 83.5 181.5t203.5 66.5q52 0 99.5 -15.5t79.5 -31t46 -15.5q11 0 18 11.5t7 29.5h47v-246h-45q-12 85 -83 145t-163 60q-66 0 -109.5 -30.5t-43.5 -84.5q0 -26 7 -48t23 -39.5
t31 -29.5t43.5 -25t46.5 -20.5t54.5 -20t54.5 -19.5q106 -41 182 -115.5t76 -173.5q0 -126 -100.5 -200t-253.5 -74q-54 0 -101 17t-77 34.5t-44 17.5q-12 0 -28.5 -16t-16.5 -33h-49v289h45q14 -104 97 -176t190 -72z" />
    <glyph glyph-name="uni021A" unicode="&#x21a;" horiz-adv-x="1097" 
d="M559 -256q-47 0 -75.5 22.5t-28.5 67.5q0 28 12 47.5t30 27.5t30 10.5t22 2.5q79 0 133.5 -48t54.5 -130q0 -47 -21 -88t-48.5 -66.5t-67 -47.5t-65 -32t-52.5 -18v57q52 7 106 57t54 113q0 36 -3.5 44t-16.5 8q-5 0 -23.5 -13.5t-40.5 -13.5zM35 1198h1028v-199h-43
q0 63 -9.5 91.5t-31.5 37.5h-336v-1044q9 -22 37.5 -31.5t91.5 -9.5v-43h-446v43q63 0 91.5 9.5t37.5 31.5v1044h-336q-22 -9 -31.5 -37.5t-9.5 -91.5h-43v199z" />
    <glyph glyph-name="uni021B" unicode="&#x21b;" horiz-adv-x="681" 
d="M385 -256q-47 0 -75.5 22.5t-28.5 67.5q0 28 12 47.5t30 27.5t30 10.5t22 2.5q79 0 133.5 -48t54.5 -130q0 -47 -21 -88t-48.5 -66.5t-67 -47.5t-65 -32t-52.5 -18v57q52 7 106 57t54 113q0 36 -3.5 44t-16.5 8q-5 0 -23.5 -13.5t-40.5 -13.5zM369 1198v-297h176v-61
h-176v-652q0 -64 23 -97.5t83 -33.5q36 0 74.5 36.5t52.5 99.5l49 -25q-44 -188 -245 -188q-234 0 -234 225v635h-143v61q97 0 174.5 80t77.5 217h88z" />
    <glyph glyph-name="Ecedilla" unicode="&#x228;" horiz-adv-x="1038" 
d="M86 0v43q63 0 91.5 9.5t37.5 31.5v1030q-9 22 -37.5 31.5t-91.5 9.5v43h825v-199h-43q0 63 -9.5 91.5t-31.5 37.5h-424v-471h287q22 9 31.5 37.5t9.5 91.5h43v-327h-43q0 63 -9.5 91.5t-31.5 37.5h-287v-518h467q51 21 93 129h41l-50 -199h-383l-30 -113q26 0 58 -7
t66 -22t57 -43t23 -65q0 -29 -9.5 -54.5t-32.5 -50t-70 -39t-113 -14.5q-62 0 -151 15v35q36 -4 51 -4q79 0 113 29.5t34 66.5q0 90 -125 90l52 176h-408z" />
    <glyph glyph-name="ecedilla" unicode="&#x229;" horiz-adv-x="1011" 
d="M279 557h454q-6 71 -18 120.5t-37 93.5t-70.5 66.5t-111.5 22.5q-72 0 -138 -84.5t-79 -218.5zM276 494q2 -112 47 -213.5t118.5 -162.5t152.5 -61q92 0 159.5 31t127.5 105l49 -25q-55 -90 -140.5 -136t-220.5 -52l-24 -93q37 0 81 -11.5t84 -44.5t40 -81
q0 -29 -9.5 -54.5t-33 -50t-70.5 -39t-113 -14.5q-62 0 -151 15v35q36 -4 51 -4q79 0 113 29.5t34 66.5q0 90 -125 90l46 158q-59 4 -113.5 20.5t-110 54t-95.5 93.5t-65.5 145t-25.5 201q0 87 28 163.5t80 135.5t133 93t181 34q111 0 196 -35t135 -95.5t74.5 -135.5
t24.5 -162h-658z" />
    <glyph glyph-name="uni022A" unicode="&#x22a;" horiz-adv-x="1312" 
d="M379 1645h541v-91h-541v91zM745 1370q0 41 30 70.5t71 29.5t70.5 -29.5t29.5 -70.5t-29.5 -70.5t-70.5 -29.5t-71 29.5t-30 70.5zM369 1370q0 41 29.5 70.5t70.5 29.5t70.5 -29.5t29.5 -70.5t-29.5 -70.5t-70.5 -29.5t-70.5 29.5t-29.5 70.5zM295 614q0 -78 13.5 -156
t43.5 -152t72.5 -131t105 -91.5t136.5 -34.5t135 33t100.5 86t67 123.5t39.5 143.5t12 147q0 77 -14 155.5t-44.5 153t-73 131.5t-104.5 92t-135 35q-74 0 -135 -33t-100.5 -86.5t-67 -124.5t-39.5 -144t-12 -147zM90 598q0 125 41.5 238t114.5 198t180 135t231 50
q164 0 295.5 -85.5t202 -227t70.5 -308.5t-71.5 -307.5t-202.5 -225.5t-294 -85q-166 0 -297 85t-200.5 225.5t-69.5 307.5z" />
    <glyph glyph-name="uni022B" unicode="&#x22b;" horiz-adv-x="1116" 
d="M283 1430h540v-91h-540v91zM649 1155q0 41 30 70.5t71 29.5t70.5 -29.5t29.5 -70.5t-29.5 -70.5t-70.5 -29.5t-71 29.5t-30 70.5zM272 1155q0 41 30 70.5t71 29.5t70.5 -29.5t29.5 -70.5t-29.5 -70.5t-70.5 -29.5t-71 29.5t-30 70.5zM276 508q0 -234 89 -350.5
t229 -116.5q111 0 178.5 99t67.5 255q0 463 -322 463q-108 0 -175 -103.5t-67 -246.5zM567 -20q-230 0 -358.5 133.5t-128.5 353.5q0 94 27 173.5t81.5 144t148 101t216.5 36.5q241 0 362 -128.5t121 -351.5q0 -75 -16 -141.5t-52 -125.5t-89.5 -102t-133 -68t-178.5 -25z
" />
    <glyph glyph-name="uni0237" unicode="&#x237;" horiz-adv-x="497" 
d="M174 776q-128 10 -129 10v48q38 0 151.5 44t161.5 44v-1012q0 -87 -23 -151t-62.5 -99.5t-86.5 -52.5t-102 -17q-130 0 -198 45.5t-68 133.5q0 37 27 59t61 22q32 0 56 -22t24 -57q0 -29 -21 -50q0 -34 28.5 -51.5t69.5 -17.5q42 0 76.5 60.5t34.5 168.5v895z" />
    <glyph glyph-name="uni0241" unicode="&#x241;" horiz-adv-x="909" 
d="M668 864q0 139 -59 216t-199 77q-200 0 -244 -176q29 0 50.5 -20.5t21.5 -63.5q0 -35 -28 -53.5t-65 -18.5q-40 0 -64 28.5t-24 74.5q0 56 21.5 106t64 92.5t116.5 67.5t171 25q87 0 159.5 -20t120 -53t80.5 -75t47.5 -85t14.5 -85q0 -48 -23.5 -91.5t-58.5 -74.5
t-76.5 -63.5t-76.5 -59.5t-58.5 -62t-23.5 -71v-395q9 -22 37.5 -31.5t91.5 -9.5v-43h-447v43q63 0 91.5 9.5t37.5 31.5v367q0 47 24 89t59.5 71.5t77.5 61t77.5 58t59.5 61.5t24 72z" />
    <glyph glyph-name="uni0242" unicode="&#x242;" horiz-adv-x="817" 
d="M575 567q0 131 -55 212t-149 81q-87 0 -140 -52.5t-71 -123.5q29 0 50 -20.5t21 -63.5q0 -35 -27.5 -53.5t-64.5 -18.5q-40 0 -64 28.5t-24 74.5q0 55 22.5 106t64 93t107.5 67t146 25q77 0 140.5 -20t105 -52.5t70 -75t41 -85.5t12.5 -85q0 -57 -20 -104.5t-49.5 -77.5
t-64.5 -60t-64.5 -54t-49.5 -57.5t-20 -72.5v-94q9 -22 37.5 -31.5t91.5 -9.5v-43h-433v43q63 0 91.5 9.5t37.5 31.5q1 63 15.5 111t37.5 77.5t50.5 53.5t54.5 45.5t49.5 46t36.5 62t14 87.5z" />
    <glyph glyph-name="uni0243" unicode="&#x243;" horiz-adv-x="1142" 
d="M86 0v43q63 0 91.5 9.5t37.5 31.5v205h-143v69h143v756q-9 22 -37.5 31.5t-91.5 9.5v43h377q106 0 194 -16.5t146.5 -43.5t99 -64t58.5 -77t18 -82q0 -208 -217 -282q78 -18 139 -49.5t96.5 -70t53.5 -80t18 -83.5q0 -75 -29 -137.5t-87.5 -110.5t-154 -75t-220.5 -27
h-492zM403 1128v-475h84q152 0 219.5 67.5t67.5 192.5q0 215 -311 215h-60zM403 289v-219h175q81 0 138.5 20.5t89 59.5t45 87t13.5 111q0 34 -8 66t-30 65.5t-56 58t-90 40.5t-127 16h-150v-236h209v-69h-209z" />
    <glyph glyph-name="Ubar" unicode="&#x244;" horiz-adv-x="1265" 
d="M369 729h647v385q-9 22 -37.5 31.5t-91.5 9.5v43h327v-43q-63 0 -91.5 -9.5t-37.5 -31.5v-385h74v-70h-74v-151q0 -137 -33.5 -241t-91.5 -165t-130.5 -91.5t-157.5 -30.5q-492 0 -492 528v151h-61v70h61v385q-9 22 -37.5 31.5t-91.5 9.5v43h447v-43q-63 0 -91.5 -9.5
t-37.5 -31.5v-385zM692 49q137 0 230.5 114.5t93.5 303.5v192h-647v-180q0 -204 89.5 -317t233.5 -113z" />
    <glyph glyph-name="Vturn" unicode="&#x245;" horiz-adv-x="1118" 
d="M688 0v43q94 0 119 25l-313 858l-301 -846q11 -21 38 -29t88 -8v-43h-335v43q114 0 125 33l401 1122h98l398 -1112q15 -43 131 -43v-43h-449z" />
    <glyph glyph-name="uni024A" unicode="&#x24a;" horiz-adv-x="1247" 
d="M1108 -119q0 -112 25.5 -170.5t64.5 -58.5q15 0 25 3t18.5 13t12.5 17.5t14 27.5q25 47 45.5 68.5t48.5 21.5q34 0 60 -22.5t26 -50.5q0 -44 -44.5 -77.5t-104.5 -48t-121 -14.5q-115 0 -184.5 75.5t-69.5 244.5v125q-131 -55 -287 -55q-39 0 -81.5 6t-97.5 23.5
t-105.5 45.5t-100 76t-85.5 110t-58.5 153t-22.5 200q0 106 21.5 195.5t57.5 152.5t85.5 112.5t103 80t113 50t112 27t103.5 7.5q121 0 281 -58q95 58 145 58v-1338zM924 100v1010q-129 39 -230 39q-29 0 -58 -3.5t-71.5 -17t-79.5 -36t-75.5 -65t-66 -99t-45 -143
t-17.5 -191.5q0 -128 29.5 -229t72.5 -158.5t97 -95t97.5 -50t79.5 -12.5q144 0 267 51z" />
    <glyph glyph-name="uni024B" unicode="&#x24b;" horiz-adv-x="1071" 
d="M932 -119q0 -112 25.5 -170.5t64.5 -58.5q15 0 25 3t18.5 13t12.5 17.5t14 27.5q25 47 45.5 68.5t48.5 21.5q34 0 60 -22.5t26 -50.5q0 -44 -44.5 -77.5t-105 -48t-121.5 -14.5q-114 0 -183.5 75.5t-69.5 244.5v137q-96 -67 -250 -67q-53 0 -105.5 12t-110.5 45
t-101.5 83.5t-72 134.5t-28.5 191q0 229 128 352.5t335 123.5q136 0 229 -68q106 68 160 68v-1041zM748 113v692q-73 47 -193 47q-113 0 -197 -107.5t-84 -298.5q0 -180 68 -288.5t176 -108.5q143 0 230 64z" />
    <glyph glyph-name="uni024C" unicode="&#x24c;" horiz-adv-x="1191" 
d="M575 614q164 0 225.5 63.5t61.5 215.5q0 113 -68 174t-243 61h-145v-514h169zM88 0v43q63 0 91.5 9.5t37.5 31.5v461h-178v69h178v500q-9 22 -37.5 31.5t-91.5 9.5v43h463q131 0 234 -27.5t162.5 -73t89.5 -97t30 -105.5q0 -113 -67 -198.5t-201 -123.5l272 -487
q21 -43 135 -43v-43h-88q-144 0 -187 16t-85 90l-248 439h-192v-461q9 -22 37.5 -31.5t91.5 -9.5v-43h-447z" />
    <glyph glyph-name="uni024D" unicode="&#x24d;" horiz-adv-x="813" 
d="M68 0v43q63 0 91.5 9.5t37.5 31.5v342h-129v70h129v280q-127 10 -129 10v48q38 0 152 44t161 44v-91q103 91 203 91q91 0 154 -35.5t63 -77.5q0 -36 -22.5 -55t-59.5 -19q-29 0 -49 18.5t-29.5 40t-30 40t-49.5 18.5q-79 0 -180 -88v-268h227v-70h-227v-342
q9 -22 37.5 -31.5t91.5 -9.5v-43h-442z" />
    <glyph glyph-name="uni0250" unicode="&#x250;" horiz-adv-x="1021" 
d="M793 152q-29 0 -50.5 20.5t-21.5 63.5q0 35 27.5 53t64.5 18q40 0 64 -28t24 -74q0 -107 -88.5 -166t-249.5 -59q-97 0 -170 26.5t-115 74.5t-62.5 108.5t-20.5 134.5v405q0 65 -22 96t-52 31q-27 0 -48.5 -14t-21.5 -35h-37q0 58 42.5 84.5t146.5 26.5q103 0 145 -84
q121 88 301 88q69 0 121.5 -11.5t96 -39t66.5 -77.5t23 -122q0 -39 -20.5 -72t-58.5 -58t-82 -44t-102.5 -35.5t-107.5 -28t-109.5 -25.5t-96.5 -24q0 -172 45 -252t160 -80q88 0 141.5 21.5t67.5 77.5zM367 782q12 -47 12 -110v-242q23 7 77 22t88 25t81 30.5t74 41.5
t47 54t20 73q0 98 -38.5 137t-113.5 39q-60 0 -129.5 -20t-117.5 -50z" />
    <glyph glyph-name="alphalatin" unicode="&#x251;" horiz-adv-x="1105" 
d="M772 854q106 68 160 68v-797q128 -10 129 -10v-47q-38 0 -151.5 -44t-161.5 -44v67q-96 -67 -250 -67q-53 0 -105.5 12t-110.5 45t-101.5 83.5t-72 134.5t-28.5 191q0 229 128 352.5t335 123.5q136 0 229 -68zM748 805q-73 47 -193 47q-113 0 -197 -107.5t-84 -298.5
q0 -180 68 -288.5t176 -108.5q143 0 230 64v692z" />
    <glyph glyph-name="uni0252" unicode="&#x252;" horiz-adv-x="1105" 
d="M334 47q-105 -67 -160 -67v796q-128 10 -129 10v48q38 0 151.5 44t161.5 44v-68q97 68 250 68q52 0 105 -12t111 -45.5t101.5 -83.5t72 -134.5t28.5 -191.5q0 -229 -128 -352t-335 -123q-138 0 -229 67zM358 96q73 -47 193 -47q113 0 196.5 107.5t83.5 298.5
q0 180 -67.5 288.5t-175.5 108.5q-143 0 -230 -64v-692z" />
    <glyph glyph-name="uni0253" unicode="&#x253;" horiz-adv-x="1071" 
d="M664 1151q0 -28 -26.5 -51t-59.5 -23q-29 0 -50 22t-45 68l-14 28t-12 17t-18.5 14t-24.5 3q-39 0 -64.5 -59t-25.5 -171v-141q98 72 249 72q52 0 105 -13t110.5 -47.5t101.5 -86t72.5 -136.5t28.5 -192q0 -229 -128 -352t-335 -123q-138 0 -229 67q-105 -67 -160 -67
v991q0 169 69.5 244t184.5 75q61 0 121 -14.5t105 -47.5t45 -77zM324 793v-697q73 -47 192 -47q113 0 197 107.5t84 298.5q0 181 -68 293t-176 112q-143 0 -229 -67z" />
    <glyph glyph-name="oopen" unicode="&#x254;" horiz-adv-x="997" 
d="M440 41q128 0 205.5 112.5t77.5 319.5q0 150 -84 260.5t-205 110.5q-92 0 -157 -30t-125 -105l-50 24q60 98 153 143.5t249 45.5q59 0 115.5 -15t111 -49t96 -83.5t66.5 -125.5t25 -168q0 -232 -122.5 -366.5t-334.5 -134.5q-184 0 -288.5 81t-104.5 195q0 46 24 74
t64 28q37 0 64.5 -18t27.5 -53q0 -43 -21.5 -63.5t-50.5 -20.5q16 -62 94 -112t170 -50z" />
    <glyph glyph-name="uni0255" unicode="&#x255;" horiz-adv-x="960" 
d="M231 78q-155 131 -155 418q0 86 32 163t89.5 135.5t144.5 93t190 34.5q163 0 250.5 -55.5t87.5 -161.5q0 -46 -24 -74.5t-64 -28.5q-37 0 -64.5 18.5t-27.5 53.5q0 43 21.5 63.5t50.5 20.5q-26 102 -209 102q-126 0 -204.5 -96t-78.5 -260q0 -155 82 -289q73 61 162.5 97
t169.5 36q82 0 144.5 -37t62.5 -102q0 -229 -373 -229q-129 0 -231 59q-37 -64 -37 -141h-70q0 95 51 180zM389 164q89 -107 199 -107q93 0 157 42t64 114q0 39 -34.5 61.5t-90.5 22.5q-65 0 -146.5 -36.5t-148.5 -96.5z" />
    <glyph glyph-name="uni0256" unicode="&#x256;" horiz-adv-x="1067" 
d="M743 881v264q-128 10 -129 10v47q38 0 152 44t162 44v-1319q0 -112 25.5 -170.5t64.5 -58.5q20 0 32.5 8t18 17.5t18.5 35.5q25 47 46 69t49 22q33 0 59.5 -23t26.5 -51q0 -44 -45 -77t-105 -47.5t-121 -14.5q-115 0 -184.5 75t-69.5 244v47q-96 -67 -245 -67
q-52 0 -105 13t-110.5 47.5t-101.5 86t-72.5 136.5t-28.5 192q0 229 128 352t335 123q118 0 200 -49zM743 115v700q-76 45 -188 45q-53 0 -102.5 -26.5t-90 -75.5t-64.5 -128t-24 -175q0 -75 30 -168t88.5 -165.5t125.5 -72.5q140 0 225 66z" />
    <glyph glyph-name="uni0257" unicode="&#x257;" horiz-adv-x="1099" 
d="M743 881v90q0 169 69.5 244t184.5 75q61 0 121 -14.5t105 -47.5t45 -77q0 -28 -26.5 -51t-59.5 -23q-29 0 -50 22t-45 68l-14 28t-12 17t-18.5 14t-24.5 3q-39 0 -64.5 -59t-25.5 -171v-874q128 -10 129 -10v-47q-38 0 -152.5 -44t-161.5 -44v67q-96 -67 -245 -67
q-52 0 -105 13t-110.5 47.5t-101.5 86t-72.5 136.5t-28.5 192q0 229 128 352t335 123q118 0 200 -49zM743 815q-76 45 -188 45q-53 0 -102.5 -26.5t-90 -75.5t-64.5 -128t-24 -175q0 -75 30 -168t88.5 -165.5t125.5 -72.5q140 0 225 66v700z" />
    <glyph glyph-name="uni0258" unicode="&#x258;" horiz-adv-x="1009" 
d="M735 494h-657q0 87 24.5 162t74.5 135.5t135 95.5t196 35q100 0 181 -34t133 -93t80 -135.5t28 -163.5q0 -119 -28.5 -212t-73 -149t-105 -92t-118 -49.5t-118.5 -13.5q-156 0 -250.5 45.5t-154.5 142.5l49 25q60 -74 127.5 -105t159.5 -31q79 0 152 61t118 162.5
t47 213.5zM733 557q-13 134 -79 218.5t-138 84.5q-66 0 -111.5 -22.5t-70.5 -66.5t-37 -93.5t-18 -120.5h454z" />
    <glyph glyph-name="schwa" unicode="&#x259;" horiz-adv-x="1009" 
d="M735 408q-2 112 -47 213.5t-118 162t-152 60.5q-92 0 -159.5 -30.5t-127.5 -104.5l-49 24q60 98 154.5 143.5t250.5 45.5q61 0 118.5 -13.5t118 -49.5t105 -92t73 -149t28.5 -212q0 -87 -28 -163.5t-80 -135.5t-133 -93t-181 -34q-111 0 -196 35t-135 95.5t-74.5 135.5
t-24.5 162h657zM733 344h-454q6 -71 18 -120.5t37 -93.5t70.5 -66.5t111.5 -22.5q72 0 138 84.5t79 218.5z" />
    <glyph glyph-name="uni025A" unicode="&#x25a;" horiz-adv-x="1294" 
d="M731 344h-455q6 -70 18 -120t37.5 -94t71 -66.5t111.5 -22.5q72 0 138 84.5t79 218.5zM733 408l2 2q-2 112 -47 213.5t-118 162t-152 60.5q-92 0 -159.5 -30.5t-127.5 -104.5l-49 24q60 98 154.5 143.5t250.5 45.5q87 0 172 -31.5t148 -101.5l252 147q0 -79 27.5 -136
t60.5 -57q21 0 41.5 28t32.5 73l67 -21q-18 -68 -54.5 -108.5t-86.5 -40.5q-92 0 -137 123l-148 -86q66 -122 66 -307q0 -87 -28 -163.5t-80 -135.5t-133 -93t-181 -34q-111 0 -196 35t-135 95.5t-74.5 135.5t-24.5 162h657z" />
    <glyph glyph-name="eopen" unicode="&#x25b;" horiz-adv-x="927" 
d="M739 635q-33 0 -54 23t-21 61q0 47 45 63q-32 39 -69.5 58.5t-109.5 19.5q-121 0 -175 -47.5t-54 -140.5q0 -72 70 -118t190 -46v-78q-139 0 -212 -44t-73 -161q0 -55 40.5 -94t102.5 -56.5t138 -17.5q159 0 268 136l49 -25q-61 -99 -142 -143.5t-222 -44.5
q-201 0 -314.5 61.5t-113.5 191.5q0 172 199 238q-175 66 -175 193q0 117 100.5 187.5t303.5 70.5q151 0 239.5 -55.5t88.5 -141.5q0 -39 -27.5 -64.5t-71.5 -25.5z" />
    <glyph glyph-name="uni025C" unicode="&#x25c;" horiz-adv-x="927" 
d="M188 635q-44 0 -71 25.5t-27 64.5q0 86 88.5 141.5t239.5 55.5q203 0 303 -70.5t100 -187.5q0 -127 -174 -193q199 -66 199 -238q0 -130 -113.5 -191.5t-314.5 -61.5q-141 0 -222.5 44.5t-142.5 143.5l49 25q109 -136 269 -136q76 0 138 17.5t102 56.5t40 94
q0 117 -72.5 161t-211.5 44v78q120 0 190 46t70 118q0 93 -54.5 140.5t-175.5 47.5q-72 0 -109 -19.5t-69 -58.5q45 -16 45 -63q0 -38 -21.5 -61t-54.5 -23z" />
    <glyph glyph-name="uni025D" unicode="&#x25d;" horiz-adv-x="1216" 
d="M188 635q-44 0 -71 25.5t-27 64.5q0 86 88.5 141.5t239.5 55.5q250 0 348 -109l213 125q0 -79 27.5 -136t60.5 -57q21 0 41.5 28t32.5 73l67 -21q-18 -68 -54.5 -108.5t-86.5 -40.5q-92 0 -137 123l-117 -70q8 -27 8 -65q0 -127 -174 -193q199 -66 199 -238
q0 -130 -113.5 -191.5t-314.5 -61.5q-141 0 -222.5 44.5t-142.5 143.5l49 25q109 -136 269 -136q76 0 138 17.5t102 56.5t40 94q0 117 -72.5 161t-211.5 44v78q120 0 190 46t70 118q0 93 -54.5 140.5t-175.5 47.5q-72 0 -109 -19.5t-69 -58.5q45 -16 45 -63q0 -38 -21.5 -61
t-54.5 -23z" />
    <glyph glyph-name="uni025E" unicode="&#x25e;" horiz-adv-x="993" 
d="M84 451q0 102 21 184t66 148t125 102.5t189 36.5q204 0 309 -53.5t105 -182.5q0 -164 -172 -221q172 -64 172 -232q0 -253 -414 -253q-194 0 -297.5 125.5t-103.5 345.5zM434 508q56 0 92.5 3t73.5 14t58 31t34 54.5t13 83.5q0 83 -52.5 116.5t-158.5 33.5
q-153 0 -241.5 -110.5t-88.5 -282.5q0 -165 93.5 -279.5t236.5 -114.5q211 0 211 168q0 118 -67.5 161.5t-203.5 43.5v78z" />
    <glyph glyph-name="uni025F" unicode="&#x25f;" horiz-adv-x="581" 
d="M215 776q-127 10 -129 10v48q38 0 151.5 44t161.5 44v-852h154v-70h-154v-90q0 -87 -23 -151t-62.5 -99.5t-86.5 -52.5t-102 -17q-130 0 -198 45.5t-68 133.5q0 37 27 59t61 22q32 0 56 -22t24 -57q0 -29 -21 -50q0 -34 28.5 -51.5t69.5 -17.5q42 0 76.5 60.5t34.5 168.5
v119h-166v70h166v706z" />
    <glyph glyph-name="uni0260" unicode="&#x260;" horiz-adv-x="1071" 
d="M748 805q-73 47 -193 47q-113 0 -197 -107.5t-84 -298.5q0 -180 68 -288.5t176 -108.5q143 0 230 64v20v672zM745 47q-96 -67 -247 -67q-53 0 -105.5 12t-110.5 45t-101.5 83.5t-72 134.5t-28.5 191q0 229 128 352.5t335 123.5q117 0 207 -54q13 135 80.5 196.5
t170.5 61.5q61 0 121 -14.5t105 -47.5t45 -77q0 -28 -26.5 -51t-59.5 -23q-28 0 -48.5 22t-45.5 69q-10 20 -14 27.5t-12.5 17.5t-18.5 13t-25 3q-39 0 -64.5 -58.5t-25.5 -170.5v-777q0 -208 -107.5 -338.5t-302.5 -130.5q-183 0 -281 58.5t-98 126.5q0 46 24 74t64 28
q37 0 65 -18.5t28 -53.5q0 -38 -12 -56.5t-40 -29.5q55 -55 230 -55q76 0 126 34.5t80.5 120t36.5 228.5z" />
    <glyph glyph-name="uni0261" unicode="&#x261;" horiz-adv-x="1064" 
d="M926 922v-863q0 -210 -102 -339.5t-296 -129.5q-174 0 -279.5 59.5t-105.5 125.5q0 46 24 74t64 28q37 0 65 -18.5t28 -53.5q0 -38 -12 -56.5t-40 -29.5q10 -10 32.5 -21t78 -22.5t125.5 -11.5q100 0 160 86t71 291q-92 -61 -241 -61q-53 0 -105.5 12t-110.5 45
t-101.5 83.5t-72 134.5t-28.5 191q0 229 128 352.5t335 123.5q129 0 225 -66q103 66 158 66zM741 109v24v676q-73 43 -186 43t-197 -107.5t-84 -298.5q0 -180 68 -288.5t176 -108.5q136 0 223 60z" />
    <glyph glyph-name="uni0262" unicode="&#x262;" horiz-adv-x="1091" 
d="M598 924q45 0 93 -15.5t84 -31t50 -15.5q11 0 18 11.5t7 29.5h47l21 -260h-46q-13 93 -80.5 152t-191.5 59q-154 0 -240 -101t-86 -276q0 -177 90.5 -298.5t227.5 -121.5q87 0 147 25v301q-9 22 -37.5 31.5t-91.5 9.5v43h447v-43q-63 0 -91.5 -9.5t-37.5 -31.5v-215
q-60 -97 -154.5 -142.5t-251.5 -45.5q-60 0 -118.5 14.5t-118 50.5t-104.5 90t-73 140.5t-28 193.5q0 207 134 331t384 124z" />
    <glyph glyph-name="uni0263" unicode="&#x263;" horiz-adv-x="1038" 
d="M428 901v-43q-87 0 -113 -20l228 -476q2 -4 18 -40l289 512q-24 24 -119 24v43h320v-43q-63 0 -90.5 -9.5t-38.5 -31.5l-326 -579q111 -288 111 -447q0 -86 -47.5 -143.5t-131.5 -57.5q-87 0 -134.5 52t-47.5 153q0 104 105 320q-27 72 -93 219l-241 483q-23 41 -129 41
v43h440zM485 14q-55 -131 -55 -184q0 -61 12.5 -102t38.5 -41q24 0 39 39.5t15 74.5q0 68 -50 213z" />
    <glyph glyph-name="uni0264" unicode="&#x264;" horiz-adv-x="1136" 
d="M588 793q112 129 213 129q61 0 130.5 -55.5t118 -144.5t48.5 -175q0 -42 -26 -69t-68 -27t-69.5 25.5t-27.5 68.5q0 136 -26.5 221.5t-79.5 85.5q-73 0 -168 -123q64 -103 95.5 -247t31.5 -302q0 -82 -61 -141t-148 -59q-92 0 -152.5 53t-60.5 151q0 93 41 219.5
t108 243.5q-40 93 -85 149t-85 56q-39 0 -61.5 -95.5t-22.5 -205.5q0 -45 -31.5 -72.5t-64.5 -27.5q-34 0 -65 25t-31 73q0 49 18.5 110.5t51.5 121.5t87.5 100.5t118.5 40.5q161 0 271 -129zM524 553q-102 -206 -102 -334q0 -68 25.5 -105.5t56.5 -37.5q29 0 56.5 33
t27.5 81q0 174 -64 363z" />
    <glyph glyph-name="uni0265" unicode="&#x265;" horiz-adv-x="1093" 
d="M954 901v-1145q128 -10 129 -10v-47q-39 0 -152 -44t-161 -44v463q-110 -94 -244 -94q-195 0 -277.5 63.5t-82.5 218.5v555q-9 22 -37.5 31.5t-91.5 9.5v43h313v-653q0 -93 43 -146t146 -53q128 0 231 90v678q-9 22 -37.5 31.5t-91.5 9.5v43h313z" />
    <glyph glyph-name="uni0266" unicode="&#x266;" horiz-adv-x="1126" 
d="M43 0v43q63 0 91.5 9.5t37.5 31.5v887q0 169 69.5 244t184.5 75q61 0 121 -14.5t104.5 -47.5t44.5 -77q0 -28 -26.5 -51t-59.5 -23q-28 0 -48.5 21.5t-45.5 68.5q-13 26 -18.5 35.5t-18.5 18t-33 8.5q-39 0 -64.5 -59t-25.5 -171v-172q111 95 244 95q195 0 278 -64
t83 -219v-555q9 -22 37.5 -31.5t91.5 -9.5v-43h-443v43q63 0 91.5 9.5t37.5 31.5v569q0 93 -42.5 146t-145.5 53q-129 0 -232 -90v-678q9 -22 37.5 -31.5t91.5 -9.5v-43h-442z" />
    <glyph glyph-name="uni0267" unicode="&#x267;" horiz-adv-x="1097" 
d="M43 0v43q63 0 91.5 9.5t37.5 31.5v887q0 169 69.5 244t184.5 75q61 0 121 -14.5t104.5 -47.5t44.5 -77q0 -28 -26.5 -51t-59.5 -23q-28 0 -48.5 21.5t-45.5 68.5q-13 26 -18.5 35.5t-18.5 18t-33 8.5q-39 0 -64.5 -59t-25.5 -171v-172q111 95 244 95q195 0 278 -64
t83 -219v-639q0 -169 -69.5 -244t-184.5 -75q-61 0 -121 14.5t-105 47.5t-45 77q0 28 26.5 51t59.5 23q28 0 48.5 -22t45.5 -69q10 -20 14 -27.5t12.5 -17.5t18.5 -13t25 -3q39 0 64.5 58.5t25.5 170.5v682q0 93 -42.5 146t-145.5 53q-129 0 -232 -90v-678q9 -22 37.5 -31.5
t91.5 -9.5v-43h-442z" />
    <glyph glyph-name="istroke" unicode="&#x268;" horiz-adv-x="651" 
d="M334 1053q-46 0 -79.5 34t-33.5 87q0 47 29.5 81.5t77.5 34.5q46 0 80 -35t34 -88q0 -46 -30 -80t-78 -34zM119 0v43q63 0 91.5 9.5t37.5 31.5v414h-191v69h191v209q-127 10 -129 10v48q39 0 152 44t161 44v-355h166v-69h-166v-414q9 -22 37.5 -31.5t91.5 -9.5v-43h-442z
" />
    <glyph glyph-name="iotalatin" unicode="&#x269;" horiz-adv-x="548" 
d="M354 172q0 -65 23.5 -96t54.5 -31q27 0 48.5 14t21.5 35h37q0 -58 -42.5 -84t-146.5 -26q-180 0 -180 245v547q-127 10 -129 10v48q39 0 152 44t161 44v-750z" />
    <glyph glyph-name="uni026A" unicode="&#x26a;" horiz-adv-x="561" 
d="M57 0v43q63 0 91.5 9.5t37.5 31.5v733q-9 22 -37.5 31.5t-91.5 9.5v43h447v-43q-63 0 -91.5 -9.5t-37.5 -31.5v-733q9 -22 37.5 -31.5t91.5 -9.5v-43h-447z" />
    <glyph glyph-name="uni026B" unicode="&#x26b;" horiz-adv-x="716" 
d="M137 0v41q63 0 91.5 9.5t37.5 31.5v514q-55 25 -73 25q-58 0 -80.5 -30t-22.5 -91h-39q0 69 13 116.5t36.5 71t48.5 32.5t58 9q25 0 59 -12v428q-128 10 -129 10v47q39 0 153 44t161 44v-657q55 -25 75 -25q58 0 80.5 30t22.5 91h39q0 -69 -13 -116.5t-37 -71
t-49.5 -32.5t-58.5 -9q-24 0 -59 12v-428q9 -22 37.5 -31.5t91.5 -9.5v-43h-443z" />
    <glyph glyph-name="uni026C" unicode="&#x26c;" horiz-adv-x="718" 
d="M158 0v43q63 0 91.5 9.5t37.5 31.5v422q-120 9 -182 57.5t-62 130.5q0 66 53 106t123 40q33 0 68 -6v311q-128 10 -129 10v47q38 0 151.5 44t161.5 44v-717q30 9 60.5 25t44.5 25t42 30.5t29 22.5l41 -45q-5 -4 -28.5 -22t-36.5 -27t-38 -24t-53 -25t-61 -17v-432
q9 -22 37.5 -31.5t91.5 -9.5v-43h-442zM287 561v84q0 139 -78 139t-78 -94q0 -110 156 -129z" />
    <glyph glyph-name="uni026D" unicode="&#x26d;" horiz-adv-x="462" 
d="M139 1145q-127 10 -129 10v47q38 0 152 44t162 44v-1331q0 -65 23 -96t54 -31q27 0 48.5 14t21.5 35h37q0 -58 -42.5 -84t-146.5 -26q-180 0 -180 245v1129z" />
    <glyph glyph-name="uni026E" unicode="&#x26e;" horiz-adv-x="1144" 
d="M43 0v43q63 0 91.5 9.5t37.5 31.5v1061q-127 10 -129 10v47q39 0 152 44t161 44v-389h705l-287 -532q138 -39 232 -134.5t94 -234.5q0 -157 -122 -264t-327 -107q-59 0 -120 11t-117.5 32.5t-92.5 61t-36 90.5q0 46 24 74t64 28q37 0 64.5 -18t27.5 -53
q0 -43 -21.5 -63.5t-50.5 -20.5q30 -40 102 -60t136 -20q126 0 200 79t74 222q0 142 -85.5 240t-250.5 104l273 504h-486v-756q9 -22 37.5 -31.5t91.5 -9.5v-43h-442z" />
    <glyph glyph-name="uni026F" unicode="&#x26f;" horiz-adv-x="1667" 
d="M1493 125q127 -10 129 -10v-47q-38 0 -152 -44t-161 -44v92q-108 -92 -228 -92q-245 0 -315 118q-114 -118 -256 -118q-344 0 -344 233v604q-9 22 -37.5 31.5t-91.5 9.5v43h313v-612q0 -133 39.5 -186.5t132.5 -53.5q121 0 223 98q-8 27 -8 66v604q-9 22 -37.5 31.5
t-91.5 9.5v43h314v-612q0 -133 39.5 -186.5t132.5 -53.5q117 0 215 90v678q-9 22 -37.5 31.5t-91.5 9.5v43h313v-776z" />
    <glyph glyph-name="uni0270" unicode="&#x270;" horiz-adv-x="1632" 
d="M1493 -244q127 -10 129 -10v-47q-38 0 -152 -44t-161 -44v461q-108 -92 -228 -92q-245 0 -315 118q-114 -118 -256 -118q-344 0 -344 233v604q-9 22 -37.5 31.5t-91.5 9.5v43h313v-612q0 -133 39.5 -186.5t132.5 -53.5q121 0 223 98q-8 27 -8 66v604q-9 22 -37.5 31.5
t-91.5 9.5v43h314v-612q0 -133 39.5 -186.5t132.5 -53.5q117 0 215 90v678q-9 22 -37.5 31.5t-91.5 9.5v43h313v-1145z" />
    <glyph glyph-name="uni0271" unicode="&#x271;" horiz-adv-x="1650" 
d="M1520 -119q0 -169 -69.5 -244t-184.5 -75q-61 0 -121 14.5t-105 47.5t-45 77q0 28 26.5 51t59.5 23q29 0 50 -22t45 -68l14 -28t12 -17t18.5 -14t24.5 -3q39 0 64.5 59t25.5 171v759q0 133 -39.5 186.5t-132.5 53.5q-121 0 -223 -98q8 -27 8 -66v-604q9 -22 37.5 -31.5
t91.5 -9.5v-43h-442v43q63 0 91.5 9.5t37.5 31.5v528q0 133 -39.5 186.5t-132.5 53.5q-117 0 -215 -90v-678q9 -22 37.5 -31.5t91.5 -9.5v-43h-443v43q63 0 92 9.5t38 31.5v692q-128 10 -130 10v48q38 0 152.5 44t161.5 44v-93q110 93 227 93q246 0 316 -119
q115 119 256 119q344 0 344 -234v-807z" />
    <glyph glyph-name="uni0272" unicode="&#x272;" horiz-adv-x="1126" 
d="M358 -119q0 -169 -69.5 -244t-184.5 -75q-61 0 -121 14.5t-104.5 47.5t-44.5 77q0 28 26.5 51t59.5 23q28 0 48.5 -21.5t45.5 -68.5q13 -26 18.5 -35.5t18.5 -18t33 -8.5q39 0 64.5 59t25.5 171v923q-128 10 -129 10v48q38 0 151.5 44t161.5 44v-95q111 95 244 95
q191 0 276 -70.5t85 -220.5v-547q9 -22 37.5 -31.5t91.5 -9.5v-43h-443v43q63 0 91.5 9.5t37.5 31.5v561q0 207 -188 207q-129 0 -232 -90v-881z" />
    <glyph glyph-name="uni0273" unicode="&#x273;" horiz-adv-x="1110" 
d="M63 0v43q63 0 92 9.5t38 31.5v692q-128 10 -130 10v48q38 0 152.5 44t161.5 44v-95q111 95 244 95q191 0 275.5 -70.5t84.5 -220.5v-660q0 -112 25.5 -170.5t64.5 -58.5q15 0 25 3t18.5 13t12.5 17.5t14 27.5q25 47 45.5 69t48.5 22q33 0 59.5 -23t26.5 -51
q0 -44 -44.5 -77t-104.5 -47.5t-121 -14.5q-115 0 -184.5 75t-69.5 244v645q0 207 -189 207q-128 0 -231 -90v-678q9 -22 37.5 -31.5t91.5 -9.5v-43h-443z" />
    <glyph glyph-name="uni0274" unicode="&#x274;" horiz-adv-x="1107" 
d="M57 0v43q63 0 91.5 9.5t37.5 31.5v733q-9 22 -37.5 31.5t-91.5 9.5v43h254l555 -575v491q-9 22 -37.5 31.5t-91.5 9.5v43h328v-43q-63 0 -91.5 -9.5t-37.5 -31.5v-817h-18l-662 725v-641q9 -22 37.5 -31.5t91.5 -9.5v-43h-328z" />
    <glyph glyph-name="obar" unicode="&#x275;" horiz-adv-x="1116" 
d="M567 -20q-230 0 -358.5 133.5t-128.5 353.5q0 94 27 173.5t81.5 144t148 101t216.5 36.5q241 0 362 -128.5t121 -351.5q0 -75 -16 -141.5t-52 -125.5t-89.5 -102t-133 -68t-178.5 -25zM840 416h-559q18 -188 103 -281.5t210 -93.5q111 0 178.5 99t67.5 255v21zM836 485
q-29 373 -318 373q-108 0 -175 -103.5t-67 -246.5v-23h560z" />
    <glyph glyph-name="uni0276" unicode="&#x276;" horiz-adv-x="1552" 
d="M276 508q0 -234 89 -350.5t229 -116.5q128 0 197 129v518q-77 170 -273 170q-108 0 -175 -103.5t-67 -246.5zM723 901h688v-199h-43q0 63 -9.5 91.5t-31.5 37.5h-348v-311h211q22 9 31.5 37.5t9.5 91.5h43v-327h-43q0 63 -9.5 91.5t-31.5 37.5h-211v-381h391
q49 20 92 129h41l-49 -199h-723q-78 -20 -164 -20q-230 0 -358.5 133.5t-128.5 353.5q0 94 27 173.5t81.5 144t148 101t216.5 36.5q93 0 170 -21z" />
    <glyph glyph-name="uni0277" unicode="&#x277;" horiz-adv-x="1302" 
d="M72 408q0 138 77.5 256.5t211 188t290.5 69.5t290.5 -69.5t211.5 -188t78 -256.5q0 -186 -102 -306t-242 -120q-155 0 -236 149q-81 -149 -235 -149q-140 0 -242 120t-102 306zM582 461h139q0 -44 0.5 -75.5t4.5 -77.5t10.5 -78.5t19.5 -68.5t31 -58.5t45.5 -37
t62.5 -14.5q68 0 110 96.5t42 255.5q0 185 -116 317t-280 132q-108 0 -199 -60.5t-143.5 -164t-52.5 -224.5q0 -159 42 -255.5t110 -96.5q35 0 62.5 14.5t45.5 37t31 58.5t19.5 68.5t10.5 78.5t4.5 77.5t0.5 75.5z" />
    <glyph glyph-name="uni0278" unicode="&#x278;" horiz-adv-x="1216" 
d="M393 -393v43q63 0 91.5 9.5t37.5 31.5v295q-200 28 -323 158.5t-123 322.5q0 84 29.5 159.5t84.5 137t140.5 102.5t191.5 52v268q-9 22 -37.5 31.5t-91.5 9.5v43h447v-43q-63 0 -91.5 -9.5t-37.5 -31.5v-273q200 -28 314 -154t114 -317q0 -172 -113 -300.5t-315 -155.5
v-295q9 -22 37.5 -31.5t91.5 -9.5v-43h-447zM711 831v-780q97 29 164 123.5t67 220.5q0 177 -62 285.5t-169 150.5zM522 854q-101 -22 -175.5 -123.5t-74.5 -222.5q0 -178 70.5 -290.5t179.5 -154.5v791z" />
    <glyph glyph-name="uni0279" unicode="&#x279;" horiz-adv-x="808" 
d="M745 901v-43q-63 0 -91.5 -9.5t-37.5 -31.5v-692q128 -10 129 -10v-47q-39 0 -152 -44t-161 -44v90q-102 -90 -203 -90q-91 0 -154 35t-63 77q0 36 22.5 55t59.5 19q29 0 49 -18.5t29.5 -40t30 -40t49.5 -18.5q79 0 180 88v680q-9 22 -37.5 31.5t-91.5 9.5v43h442z" />
    <glyph glyph-name="uni027A" unicode="&#x27a;" horiz-adv-x="786" 
d="M741 1270v-43q-63 0 -91.5 -9.5t-37.5 -31.5v-1061q128 -10 129 -10v-47q-38 0 -151.5 -44t-161.5 -44v90q-102 -90 -203 -90q-91 0 -154 35t-63 77q0 36 22.5 55t59.5 19q29 0 49 -18.5t29.5 -40t30 -40t49.5 -18.5q79 0 180 88v1049q-9 22 -37.5 31.5t-91.5 9.5v43h442
z" />
    <glyph glyph-name="uni027B" unicode="&#x27b;" horiz-adv-x="788" 
d="M745 901v-43q-63 0 -91.5 -9.5t-37.5 -31.5v-846q0 -111 26 -170t65 -59q20 0 32.5 8t18 17.5t18.5 35.5q25 47 45.5 69t48.5 22q33 0 59.5 -23t26.5 -51q0 -44 -44.5 -77t-104.5 -47.5t-121 -14.5q-115 0 -184.5 75t-69.5 244v70q-102 -90 -203 -90q-91 0 -154 35
t-63 77q0 36 22.5 55t59.5 19q29 0 49 -18.5t29.5 -40t30 -40t49.5 -18.5q79 0 180 88v680q-9 22 -37.5 31.5t-91.5 9.5v43h442z" />
    <glyph glyph-name="uni027C" unicode="&#x27c;" horiz-adv-x="786" 
d="M45 -369v43q63 0 91.5 9.5t37.5 31.5v1061q-128 10 -129 10v48q38 0 151.5 44t161.5 44v-91q103 91 203 91q91 0 154 -35.5t63 -77.5q0 -36 -22.5 -55t-59.5 -19q-29 0 -48.5 18.5t-29 40t-30 40t-49.5 18.5q-80 0 -181 -88v-1049q9 -22 37.5 -31.5t91.5 -9.5v-43h-442z
" />
    <glyph glyph-name="uni027D" unicode="&#x27d;" horiz-adv-x="784" 
d="M780 827q0 -59 -71 -59q-24 0 -39.5 8.5t-23.5 21t-16.5 25t-24.5 21t-40 8.5q-90 0 -176 -82v-799q0 -112 25.5 -170.5t64.5 -58.5q15 0 25 3t18.5 13t12.5 17.5t14 27.5q25 47 45.5 69t48.5 22q33 0 59.5 -23t26.5 -51q0 -44 -44.5 -77t-104.5 -47.5t-121 -14.5
q-115 0 -184.5 75t-69.5 244v776q-127 10 -129 10v48q38 0 151.5 44t161.5 44v-84q92 84 189 84q93 0 147.5 -27t54.5 -68z" />
    <glyph glyph-name="uni027E" unicode="&#x27e;" horiz-adv-x="819" 
d="M33 0v43q63 0 91.5 9.5t37.5 31.5v518q0 87 24.5 151t68.5 99.5t96.5 52.5t115.5 17q79 0 150 -15t121 -47.5t50 -77.5q0 -28 -26 -50.5t-60 -22.5q-28 0 -48.5 21.5t-45.5 68.5q-16 32 -43 46.5t-78 14.5q-63 0 -102 -58.5t-39 -170.5v-547q9 -22 37.5 -31.5t91.5 -9.5
v-43h-442z" />
    <glyph glyph-name="uni027F" unicode="&#x27f;" horiz-adv-x="819" 
d="M786 0h-442v43q63 0 91.5 9.5t37.5 31.5v547q0 112 -39 170.5t-102 58.5q-51 0 -78 -14.5t-43 -46.5q-25 -47 -45.5 -68.5t-48.5 -21.5q-34 0 -60 22.5t-26 50.5q0 45 50 77.5t121 47.5t150 15q63 0 115.5 -17t96.5 -52.5t68.5 -99.5t24.5 -151v-518q9 -22 37.5 -31.5
t91.5 -9.5v-43z" />
    <glyph glyph-name="uni0280" unicode="&#x280;" horiz-adv-x="1050" 
d="M57 0v43q63 0 91.5 9.5t37.5 31.5v733q-9 22 -37.5 31.5t-91.5 9.5v43h422q203 0 312.5 -70t109.5 -157q0 -78 -48.5 -142t-143.5 -98l219 -373v5q20 -33 108 -33v-33h-71q-121 0 -163.5 13t-74.5 67l-195 321h-34h-123v-317q9 -22 37.5 -31.5t91.5 -9.5v-43h-447z
M375 831v-360h112q133 0 181.5 44.5t48.5 156.5q0 54 -19.5 87t-75 52.5t-153.5 19.5h-94z" />
    <glyph glyph-name="uni0281" unicode="&#x281;" horiz-adv-x="1050" 
d="M57 901h447v-43q-63 0 -91.5 -9.5t-37.5 -31.5v-317h123h34l195 321q32 54 74.5 67t163.5 13h71v-33q-89 0 -108 -32v4l-219 -373q95 -34 143.5 -98t48.5 -142q0 -87 -109.5 -157t-312.5 -70h-422v43q63 0 91.5 9.5t37.5 31.5v733q-9 22 -37.5 31.5t-91.5 9.5v43zM375 70
h94q98 0 153.5 19.5t75 52.5t19.5 87q0 112 -48.5 156.5t-181.5 44.5h-112v-360z" />
    <glyph glyph-name="uni0282" unicode="&#x282;" horiz-adv-x="829" 
d="M420 -342q0 -31 -15.5 -50.5t-42.5 -19.5q-119 0 -194.5 52.5t-75.5 158.5v201v70v219h45q14 -104 97 -176t190 -72q32 0 73.5 12t81 47.5t39.5 87.5q0 45 -38 86.5t-88.5 68.5t-116.5 50q-47 17 -78 30t-71 37.5t-64 51.5t-41 69t-17 93q0 115 83.5 181.5t203.5 66.5
q52 0 99.5 -15.5t79.5 -31t46 -15.5q11 0 18 11.5t7 29.5h47v-246h-45q-12 85 -83 145t-163 60q-66 0 -109.5 -30.5t-43.5 -84.5q0 -26 7 -48t23 -39.5t31 -29.5t43.5 -25t46.5 -20.5t54.5 -20t54.5 -19.5q106 -41 182 -115.5t76 -173.5q0 -126 -100.5 -200t-253.5 -74
q-54 0 -101 17t-77 34.5t-44 17.5q-12 0 -24 -12v-268q0 -60 59 -60q19 0 65.5 8.5t67.5 8.5q66 0 66 -68z" />
    <glyph glyph-name="uni0283" unicode="&#x283;" horiz-adv-x="462" 
d="M324 94q0 -169 -69.5 -244t-184.5 -75q-105 0 -164.5 28.5t-59.5 73.5q0 30 21 54t53 24q62 0 80 -70q9 -49 49 -49q39 0 64.5 59t25.5 171v905q0 169 69.5 244t184.5 75q105 0 164 -28.5t59 -73.5q0 -30 -20.5 -54t-52.5 -24q-62 0 -80 70q-9 49 -49 49q-39 0 -64.5 -59
t-25.5 -171v-905z" />
    <glyph glyph-name="uni0284" unicode="&#x284;" horiz-adv-x="587" 
d="M406 70h153v-70h-153v-90q0 -87 -23 -151t-63 -99.5t-87 -52.5t-102 -17q-130 0 -198 45.5t-68 133.5q0 37 27 59t61 22q32 0 56 -22t24 -57q0 -29 -21 -50q0 -34 29 -51.5t70 -17.5q42 0 76 60.5t34 168.5v119h-166v70h166l-2 901q0 169 69.5 244t184.5 75
q105 0 164 -28.5t59 -73.5q0 -30 -20.5 -54t-52.5 -24q-62 0 -80 70q-9 49 -49 49q-39 0 -65 -59.5t-26 -170.5z" />
    <glyph glyph-name="uni0285" unicode="&#x285;" horiz-adv-x="790" 
d="M303 299v332q0 112 -25.5 170.5t-64.5 58.5q-40 0 -49 -49q-18 -70 -80 -70q-32 0 -53 24t-21 54q0 46 59 74.5t164 28.5q115 0 184.5 -75.5t69.5 -244.5v-332q0 -111 26 -170t65 -59q40 0 49 49q18 70 80 70q32 0 52.5 -24t20.5 -54q0 -45 -59 -73.5t-164 -28.5
q-115 0 -184.5 75t-69.5 244z" />
    <glyph glyph-name="uni0286" unicode="&#x286;" horiz-adv-x="708" 
d="M281 33h-13q-111 0 -173 -51.5t-62 -159.5q0 -66 46.5 -113t96.5 -47q42 0 73.5 55.5t31.5 163.5v152zM465 999v-919q57 -14 109 -38t79 -42t64 -45l-55 -59q-92 69 -197 104v-90q0 -87 -23 -151t-63 -99.5t-87 -52.5t-102 -17q-131 0 -202.5 59t-71.5 169q0 138 94 211
t250 73h21v869q0 169 69.5 244t184.5 75q105 0 164 -28.5t59 -73.5q0 -30 -21 -54t-53 -24q-62 0 -80 70q-9 49 -49 49q-39 0 -64.5 -59t-25.5 -171z" />
    <glyph glyph-name="uni0287" unicode="&#x287;" horiz-adv-x="581" 
d="M207 0v297h-176v61h176v652q0 64 -23 97.5t-84 33.5q-36 0 -74.5 -36t-52.5 -99l-49 24q45 189 246 189q233 0 233 -226v-635h144v-61q-118 0 -192 -89.5t-74 -207.5h-74z" />
    <glyph glyph-name="uni0288" unicode="&#x288;" horiz-adv-x="565" 
d="M373 -119q0 -229 78 -229q20 0 32.5 8t18 17.5t18.5 35.5q25 47 45.5 68.5t48.5 21.5q34 0 60 -22.5t26 -50.5q0 -44 -44.5 -77.5t-104.5 -48t-121 -14.5q-115 0 -184.5 75.5t-69.5 244.5v930h-143v61q97 0 174.5 80t77.5 217h88v-297h176v-61h-176v-959z" />
    <glyph glyph-name="ubar" unicode="&#x289;" horiz-adv-x="1130" 
d="M770 469h-420v-213q0 -207 189 -207q128 0 231 90v330zM954 125q128 -10 129 -10v-47q-39 0 -152 -44t-161 -44v94q-110 -94 -244 -94q-191 0 -275.5 70t-84.5 220v199h-125v70h125v278q-9 22 -37.5 31.5t-91.5 9.5v43h313v-362h420v278q-9 22 -37.5 31.5t-91.5 9.5v43
h313v-362h127v-70h-127v-344z" />
    <glyph glyph-name="uni028A" unicode="&#x28a;" horiz-adv-x="1136" 
d="M274 831h-184v70h320v-70q-136 -114 -136 -389q0 -98 37.5 -187.5t107.5 -147.5t156 -58q88 0 154.5 53.5t99.5 138t33 183.5q0 131 -34 239t-105 168v70h319v-70h-188q45 -44 74 -78.5t59 -85t45 -111.5t15 -134q0 -94 -26.5 -172t-80.5 -139.5t-146.5 -96t-215.5 -34.5
q-233 0 -360.5 124.5t-127.5 341.5q0 72 14 130t43.5 105.5t55.5 77t71 72.5z" />
    <glyph glyph-name="vhook" unicode="&#x28b;" horiz-adv-x="1015" 
d="M733 844q-36 0 -49 -19q21 -21 21 -49t-20.5 -54t-55.5 -26q-48 0 -72.5 26.5t-24.5 65.5q0 55 56 94.5t112 39.5q104 0 169 -106.5t65 -303.5q0 -60 -14.5 -125.5t-51.5 -138.5t-92 -130.5t-146 -95.5t-204 -38q-31 0 -63 6.5t-69 27t-65 51.5t-46.5 86t-18.5 126v495
q-127 10 -129 10v48q39 0 152 44t161 44v-699q0 -42 13.5 -74t32 -49.5t42 -28.5t40.5 -14.5t30 -3.5q95 0 178 65t131.5 170.5t48.5 223.5q0 136 -42 234t-89 98z" />
    <glyph glyph-name="vturn" unicode="&#x28c;" horiz-adv-x="989" 
d="M602 0v43q59 0 86 8l-244 600l-233 -585q30 -23 115 -23v-43h-336v43q113 0 127 39l327 819h101l325 -817q9 -22 37.5 -31.5t91.5 -9.5v-43h-397z" />
    <glyph glyph-name="uni028D" unicode="&#x28d;" horiz-adv-x="1556" 
d="M1169 0v43q59 0 86 8l-243 600l-185 -461l43 -106q9 -22 37.5 -31.5t91.5 -9.5v-43h-397v43q59 0 86 8l-244 600l-233 -585q30 -23 115 -23v-43h-336v43q111 0 127 39l327 819h101l233 -586l234 586h100l326 -817q9 -22 37.5 -31.5t91.5 -9.5v-43h-398z" />
    <glyph glyph-name="uni028E" unicode="&#x28e;" horiz-adv-x="989" 
d="M602 0v43q59 0 86 8l-244 600l-233 -585q30 -23 115 -23v-43h-336v43q112 0 127 37l411 1030q39 96 100 140t115 44q51 0 81 -27t30 -63q0 -31 -21.5 -55.5t-58.5 -24.5q-22 0 -46.5 17.5t-37.5 17.5q-44 0 -57 -37l-88 -221l325 -817q9 -22 37.5 -31.5t91.5 -9.5v-43
h-397z" />
    <glyph glyph-name="uni028F" unicode="&#x28f;" horiz-adv-x="1052" 
d="M436 903v-43q-88 0 -114 -20l268 -394l260 381q-19 31 -123 31v43h336v-43q-61 0 -88.5 -10.5t-42.5 -34.5v4l-303 -442v-291q9 -22 37.5 -31.5t91.5 -9.5v-43h-447v43q63 0 91.5 9.5t37.5 31.5v250l-317 487v-10q-25 49 -135 49v43h448z" />
    <glyph glyph-name="uni0290" unicode="&#x290;" horiz-adv-x="870" 
d="M1051 -342q0 -31 -15.5 -50.5t-42.5 -19.5q-119 0 -194.5 52.5t-75.5 158.5v201h-688l543 840h-394q-22 -9 -31.5 -37.5t-9.5 -91.5h-43v190h709l-543 -840h443q22 9 31.5 37.5t9.5 91.5h43v-120v-70v-231q0 -60 59 -60q19 0 65.5 8.5t67.5 8.5q66 0 66 -68z" />
    <glyph glyph-name="uni0291" unicode="&#x291;" horiz-adv-x="964" 
d="M569 61h49q73 0 128 37t55 107q0 44 -22 66t-81 22q-105 0 -129 -232zM496 0h-461l543 840h-394q-22 -9 -31.5 -37.5t-9.5 -91.5h-43v190h709l-543 -840h234q16 148 65.5 219.5t149.5 71.5q82 0 144.5 -37t62.5 -102q0 -103 -84.5 -157.5t-272.5 -55.5q-6 -80 -6 -184
h-70q0 88 7 184z" />
    <glyph glyph-name="uni0292" unicode="&#x292;" horiz-adv-x="878" 
d="M575 840h-405q-22 -9 -31.5 -37.5t-9.5 -91.5h-43v190h709l-287 -532q138 -39 232 -134.5t94 -234.5q0 -157 -122 -264t-327 -107q-159 0 -263 89t-104 202q0 46 24 74.5t64 28.5q37 0 65 -18.5t28 -53.5q0 -43 -21.5 -63.5t-50.5 -20.5q15 -58 97 -117t141 -59
q126 0 200 79t74 222q0 142 -85.5 240t-250.5 104z" />
    </font>
</defs>
</svg>
